<?xml version="1.0" encoding="utf-8"?>
<!-- Generator: Adobe Illustrator 23.1.0, SVG Export Plug-In . SVG Version: 6.00 Build 0)  -->
<svg version="1.1" id="Layer_1" xmlns="http://www.w3.org/2000/svg" xmlns:xlink="http://www.w3.org/1999/xlink" x="0px" y="0px"
	 viewBox="0 0 100 100" style="enable-background:new 0 0 100 100;" xml:space="preserve">
<style type="text/css">
	.st0{fill:#0693FA;}
	.st1{fill:#8AC8FC;}
	.st2{fill:#FB4756;}
	.st3{fill:#FBC3C8;}
	.st4{fill:#FCF3BD;}
	.st5{fill:#FDFEFE;}
</style>
<g>
	<path class="st0" d="M28.4,98.6c-1.9-0.7-2.3-2.1-2.3-3.9c0.1-3.8,0-7.6,0-11.4c0-0.4,0-0.9,0-1.3c0-20.4,0-40.8,0-61.2
		c0-0.4,0-0.8,0-1.2c0.1-1.5,1.2-2.7,2.7-2.7c0.5,0,1,0,1.5,0c11.8,0,23.6,0,35.5,0c0.4,0,0.8,0.1,1.1-0.1c2.3,0,4.7,0.1,7-0.1
		l0.1,0.1c1.4,0.4,2.9,0.1,4.4,0.1c1.1,0,2.2,0.1,3.2,0.7c0.9,0.8,1,1.8,1,2.9c0,24.8,0,49.6,0,74.3c0,1.5-0.1,2.9-1.7,3.6
		C80.7,98.3,45.8,98.6,28.4,98.6z M50.4,91.3c0.7-0.3,0.8-0.9,0.8-1.6c0-4,0-7.9,0-11.9c0-0.5-0.3-0.9-0.2-1.5
		c0.3-1.2-0.2-1.8-1.4-1.8c-5,0-9.9,0-14.9,0c-0.6,0-1.1,0.2-1.4,0.8c-0.3,0.4-0.2,0.8-0.2,1.3c0,4.4,0,8.8,0,13.2
		c0,0.3-0.1,0.6,0.2,0.8c0.1,0.4,0.4,0.6,0.8,0.8c0.3,0.3,0.8,0.2,1.2,0.2c4.7,0,9.4,0,14.1,0C49.7,91.6,50.1,91.6,50.4,91.3z
		 M33.2,50.9c-0.3,0.3-0.2,0.6-0.2,0.9c0,4.4,0,8.8,0,13.3c0,0.3-0.1,0.6,0.2,0.9c0.1,0.4,0.3,0.6,0.6,0.7c0.3,0.3,0.7,0.2,1.1,0.2
		c4.8,0,9.7,0,14.5,0c0.3,0,0.6,0.1,0.9-0.2c0.7-0.3,0.8-0.8,0.8-1.4c0-4.5,0-9.1,0-13.6c0-1.1-0.5-1.6-1.6-1.6c-5,0-9.9,0-14.9,0
		C34,50,33.5,50.2,33.2,50.9z M33.3,39.8c0.2,0.8,0.9,0.9,1.5,0.9c4.9,0,9.9,0,14.8,0c1.1,0,1.5-0.5,1.6-1.6c0-4.6,0-9.2,0-13.8
		c0-1-0.5-1.5-1.5-1.5c-5,0-10,0-15,0c-0.7,0-1.1,0.3-1.4,0.9c-0.3,0.3-0.2,0.6-0.2,1c0,4.3,0,8.6,0,12.9C33,38.9,33,39.4,33.3,39.8
		z M66.4,54.1c-0.8,0-1.5,0-2.3,0c-2.2,0-4.4,0-6.5,0c-1.4,0-2.1,1.1-1.5,2.3c0.4,0.7,1.1,0.8,1.8,0.8c5.1,0,10.2,0,15.3,0
		c0.7,0,1.5,0.2,2.2,0c1.1-0.2,1.6-0.7,1.6-1.6c0-0.9-0.7-1.4-1.9-1.5C72.2,54.1,69.3,54.1,66.4,54.1z M66.5,78.8
		C66.5,78.8,66.5,78.8,66.5,78.8c-3,0-5.9,0-8.9,0c-1.1,0-1.7,0.5-1.7,1.5c0,1,0.5,1.6,1.6,1.6c5.9,0,11.8,0,17.7,0
		c1.1,0,1.8-0.7,1.7-1.6c0-0.9-0.7-1.4-1.8-1.4C72.3,78.8,69.4,78.8,66.5,78.8z M66.5,27.9C66.5,27.9,66.5,27.9,66.5,27.9
		c-3,0-6.1,0-9.1,0c-1.3,0-2,1.2-1.3,2.3c0.4,0.7,1.1,0.7,1.8,0.7c5.8,0,11.5,0,17.3,0c1.1,0,1.9-0.6,1.9-1.6c0-0.9-0.7-1.5-1.8-1.5
		C72.3,27.9,69.4,27.9,66.5,27.9z M60.7,87.4C60.7,87.4,60.7,87.3,60.7,87.4c1.1,0,2.2,0,3.2,0c1,0,1.6-0.6,1.6-1.5
		c0-0.9-0.6-1.5-1.6-1.5c-2.2,0-4.4,0-6.5,0c-1.1,0-1.7,0.6-1.6,1.6c0,0.9,0.6,1.4,1.7,1.4C58.6,87.4,59.7,87.4,60.7,87.4z
		 M60.6,62.7C60.6,62.7,60.6,62.7,60.6,62.7c1.1,0,2.2,0,3.2,0c1.1,0,1.7-0.6,1.7-1.5c0-0.9-0.6-1.5-1.7-1.5c-2.1,0-4.2,0-6.4,0
		c-1.2,0-1.7,0.6-1.7,1.6c0,0.9,0.6,1.4,1.7,1.5C58.6,62.7,59.6,62.7,60.6,62.7z M60.7,33.4c-1.1,0-2.1,0-3.2,0
		c-1.1,0-1.7,0.6-1.6,1.5c0,0.9,0.5,1.4,1.6,1.5c2.1,0,4.3,0,6.4,0c1.1,0,1.7-0.7,1.7-1.5c0-0.9-0.6-1.4-1.7-1.5
		C62.8,33.4,61.8,33.4,60.7,33.4z"/>
	<path class="st1" d="M71.8,1.4c0.6,0.2,1.1,0.6,1.5,1.1c-0.4,0.1-0.8,0.1-1.1,0.2c-1.8,0.6-3.5,1.2-5.3,1.8c-2.5,0.8-5,1.6-7.6,2.4
		c-2.6,0.8-5.2,1.7-7.8,2.5c-2.9,0.9-5.8,1.8-8.6,2.7c-3,1-6,2-9.1,2.9c-1.3,0.4-2.7,0.9-4.2,1.4c0.7,0.3,1.2,0.2,1.7,0.2
		c11.5,0,23,0,34.5,0c0.4,0,0.8,0,1.1,0c-0.4,0.2-0.7,0.1-1.1,0.1c-11.8,0-23.6,0-35.5,0c-0.5,0-1,0-1.5,0c-1.5,0.1-2.7,1.2-2.7,2.7
		c0,0.4,0,0.8,0,1.2c0,20.4,0,40.8,0,61.2c0,0.4,0,0.9,0,1.3c-1.8,0-3.7,0-5.5,0c-1.8,0-2.9-1.2-3-3c0-0.3,0-0.6,0-0.9
		c0-24.6,0-49.3,0-73.9c0-1.8,0.4-3.2,2.1-4C37,1.4,54.4,1.4,71.8,1.4z"/>
	<path class="st2" d="M66.9,16.6c-0.4,0-0.8,0-1.1,0c-11.5,0-23,0-34.5,0c-0.5,0-1,0.1-1.7-0.2c1.5-0.5,2.8-0.9,4.2-1.4
		c3-1,6-2,9.1-2.9c2.9-0.9,5.8-1.8,8.6-2.7c2.6-0.8,5.2-1.7,7.8-2.5c2.5-0.8,5-1.6,7.6-2.4c1.8-0.6,3.5-1.2,5.3-1.8
		c0.4-0.1,0.7-0.1,1.1-0.2c0.4,0.5,0.6,1.1,0.6,1.7c0,4.1,0,8.3,0,12.4C71.6,16.7,69.3,16.6,66.9,16.6z"/>
	<path class="st3" d="M33.3,24.6c0.2-0.6,0.7-0.9,1.4-0.9c5,0,10,0,15,0c1,0,1.5,0.5,1.5,1.5c0,4.6,0,9.2,0,13.8
		c0,1.1-0.5,1.6-1.6,1.6c-4.9,0-9.9,0-14.8,0c-0.6,0-1.3-0.1-1.5-0.9C33.3,34.7,33.3,29.7,33.3,24.6z"/>
	<path class="st4" d="M33.9,66.6c-0.3-0.1-0.5-0.4-0.6-0.7c0-5,0-10,0-15c0.2-0.7,0.7-0.9,1.4-0.9c5,0,9.9,0,14.9,0
		c1.1,0,1.6,0.5,1.6,1.6c0,4.5,0,9.1,0,13.6c0,0.6-0.1,1.2-0.8,1.4C44.8,66.7,39.4,66.7,33.9,66.6z"/>
	<path class="st3" d="M33.3,75.4c0.3-0.6,0.8-0.8,1.4-0.8c5,0,9.9,0,14.9,0c1.2,0,1.7,0.6,1.4,1.8c-0.1,0.5,0.2,1,0.2,1.5
		c0,4,0,7.9,0,11.9c0,0.7-0.1,1.3-0.8,1.6c-0.8,0-1.6,0-2.5,0c-4.6,0-9.3,0-13.9,0c-0.4-0.1-0.7-0.3-0.8-0.8
		C33.3,85.5,33.3,80.5,33.3,75.4z"/>
	<path class="st1" d="M66.4,54.1c2.9,0,5.8,0,8.7,0c1.1,0,1.8,0.5,1.9,1.5c0,0.9-0.6,1.4-1.6,1.6c-0.8,0.2-1.5,0-2.2,0
		c-5.1,0-10.2,0-15.3,0c-0.7,0-1.4,0-1.8-0.8c-0.6-1.2,0.1-2.3,1.5-2.3c2.2,0,4.4,0,6.5,0C64.9,54.1,65.6,54.1,66.4,54.1z"/>
	<path class="st1" d="M66.5,78.8c2.9,0,5.8,0,8.7,0c1.1,0,1.7,0.5,1.8,1.4c0,0.9-0.6,1.6-1.7,1.6c-5.9,0-11.8,0-17.7,0
		c-1.1,0-1.6-0.6-1.6-1.6c0-0.9,0.6-1.5,1.7-1.5C60.5,78.8,63.5,78.8,66.5,78.8C66.5,78.8,66.5,78.8,66.5,78.8z"/>
	<path class="st1" d="M66.5,27.9c2.9,0,5.8,0,8.6,0c1.1,0,1.8,0.6,1.8,1.5c0,0.9-0.7,1.6-1.9,1.6c-5.8,0-11.5,0-17.3,0
		c-0.7,0-1.4,0-1.8-0.7c-0.6-1.1,0.1-2.3,1.3-2.3C60.4,27.9,63.5,27.9,66.5,27.9C66.5,27.9,66.5,27.9,66.5,27.9z"/>
	<path class="st1" d="M60.7,87.4c-1.1,0-2.2,0-3.2,0c-1.1,0-1.6-0.5-1.7-1.4c0-1,0.5-1.5,1.6-1.6c2.2,0,4.4,0,6.5,0
		c1,0,1.6,0.6,1.6,1.5c0,0.9-0.6,1.4-1.6,1.5C62.9,87.4,61.8,87.3,60.7,87.4C60.7,87.3,60.7,87.4,60.7,87.4z"/>
	<path class="st1" d="M60.6,62.7c-1,0-2,0-3,0c-1.1,0-1.7-0.5-1.7-1.5c0-1,0.5-1.6,1.7-1.6c2.1,0,4.2,0,6.4,0c1.1,0,1.7,0.6,1.7,1.5
		c0,0.9-0.6,1.4-1.7,1.5C62.8,62.7,61.7,62.7,60.6,62.7C60.6,62.7,60.6,62.7,60.6,62.7z"/>
	<path class="st1" d="M60.7,33.4c1,0,2.1,0,3.1,0c1.1,0,1.7,0.6,1.7,1.5c0,0.9-0.6,1.5-1.7,1.5c-2.1,0-4.3,0-6.4,0
		c-1.1,0-1.6-0.5-1.6-1.5c0-1,0.5-1.5,1.6-1.5C58.6,33.4,59.6,33.4,60.7,33.4z"/>
	<path class="st5" d="M33.9,66.6c5.5,0,11,0,16.5,0c-0.3,0.3-0.6,0.2-0.9,0.2c-4.8,0-9.7,0-14.5,0C34.6,66.9,34.2,67,33.9,66.6z"/>
	<path class="st1" d="M34,91.4c4.6,0,9.3,0,13.9,0c0.8,0,1.6,0,2.5,0c-0.3,0.3-0.7,0.3-1.1,0.3c-4.7,0-9.4,0-14.1,0
		C34.8,91.6,34.3,91.7,34,91.4z"/>
	<path class="st1" d="M33.3,75.4c0,5.1,0,10.1,0,15.2c-0.3-0.2-0.2-0.5-0.2-0.8c0-4.4,0-8.8,0-13.2C33.1,76.2,32.9,75.8,33.3,75.4z"
		/>
	<path class="st1" d="M74,16.6c2-0.2,3.9-0.1,5.9,0c0.7,0,1.3,0.3,1.7,0.9c-1-0.6-2-0.7-3.2-0.7C76.9,16.7,75.4,17,74,16.6z"/>
	<path class="st1" d="M33.3,24.6c0,5,0,10.1,0,15.1C33,39.4,33,38.9,33,38.5c0-4.3,0-8.6,0-12.9C33,25.3,33,24.9,33.3,24.6z"/>
	<path class="st1" d="M33.2,50.9c0,5,0,10,0,15c-0.3-0.3-0.2-0.6-0.2-0.9c0-4.4,0-8.8,0-13.3C33.1,51.5,33,51.2,33.2,50.9z"/>
</g>
</svg>
