<?xml version="1.0" encoding="utf-8"?>
<!-- Generator: Adobe Illustrator 23.1.0, SVG Export Plug-In . SVG Version: 6.00 Build 0)  -->
<svg version="1.1" id="Layer_1" xmlns="http://www.w3.org/2000/svg" xmlns:xlink="http://www.w3.org/1999/xlink" x="0px" y="0px"
	 viewBox="0 0 100 100" style="enable-background:new 0 0 100 100;" xml:space="preserve">
<style type="text/css">
	.st0{fill:#3340D7;}
	.st1{fill:#6E75E1;}
	.st2{fill:#8CB8FD;}
	.st3{fill:#6F76E2;}
	.st4{fill:#F5F8F8;}
	.st5{fill:#E1DEF3;}
	.st6{fill:#ACE134;}
	.st7{fill:#FEB455;}
	.st8{fill:#E17B4F;}
	.st9{fill:#FEB354;}
	.st10{fill:#01CA75;}
	.st11{fill:#6D75E0;}
</style>
<g>
	<path class="st0" d="M50,5.2c5.9,0,11.8,0,17.7,0c7.3,0,14.5,0,21.8,0c4.8,0,7.9,2.4,9.1,7.1c0,0,0.1,0.1,0.1,0.1
		c0,19.5,0,39,0,58.5c-0.5,1.1-0.8,2.2-1.5,3.2c-1.9,2.6-4.5,3.8-7.7,3.8c-8.6,0-17.3,0-25.9,0c-0.4,0-0.8,0-1.1,0
		c-4.2,0-8.4,0-12.5,0c0-1.9,0-3.8,0-5.8l0-0.1c13.4,0,26.7,0,40.1,0c1.9,0,3-1.2,3-3.3c0-18.1,0-36.2,0-54.3c0-2.3-1.1-3.4-3.4-3.4
		c-11.9,0-23.8,0-35.7,0c-0.2,0-0.4,0-0.6,0c-0.4,0-0.6,0.1-0.6,0.5c0,0.7,0,1.4,0,2.1c0,2.1-0.7,3-2.8,3.5c0,0,0-0.1,0-0.1
		C49.9,13,50,9.1,50,5.2z"/>
	<path class="st1" d="M50,5.2c0,3.9,0,7.9,0,11.8c-1.7-0.1-2.8-1.2-2.8-2.9c0-0.7-0.1-1.3,0-2c0.1-0.9-0.3-1.1-1.1-1.1
		c-11.9,0-23.8,0-35.7,0c-2.4,0-3.4,1-3.4,3.4c0,18,0,36,0,54c0,2.7,0.9,3.7,3.6,3.7c12.7,0,25.4,0,38.2,0c0.4,0,0.8,0,1.2,0
		c0,1.9,0,3.8,0,5.8c0,0,0,0.1,0,0.1c-4.2,0-8.4,0-12.5,0c-0.4,0-0.8,0-1.1,0c-8.5,0-17.1,0-25.6,0c-2.4,0-4.6-0.5-6.5-2.2
		c-1.9-1.7-2.9-3.8-2.9-6.4c0-0.3,0-0.5,0-0.8c0-18.1,0-36.3,0-54.4c0-4.3,2.6-7.6,6.6-8.6c0.8-0.2,1.6-0.2,2.5-0.2
		c7.4,0,14.8,0,22.2,0C38.3,5.2,44.1,5.3,50,5.2z"/>
	<path class="st1" d="M50,77.8c4.2,0,8.4,0,12.5,0c0.6,3.7,1.2,7.3,1.8,11c0.1,0.4,0.1,0.9,0.1,1.3c-0.2,0.4-0.7,0.3-1,0.3
		c-4.5,0-9,0-13.5,0c0-0.1,0-0.1,0-0.2C49.9,86.1,49.9,82,50,77.8L50,77.8z"/>
	<path class="st2" d="M49.9,77.9c0,4.1,0,8.2,0,12.4c-4.8,0-9.7,0-14.5,0c0.3-2.8,0.9-5.5,1.3-8.2c0.2-1.4,0.5-2.8,0.7-4.2
		C41.6,77.9,45.8,77.9,49.9,77.9z"/>
	<path class="st3" d="M35.4,90.2c4.8,0,9.7,0,14.5,0c0,0.1,0,0.1,0,0.2c0,1.9,0,3.8,0,5.6c-6,0-12,0-18,0c-1.7,0-2.8-1-3.1-2.4
		c-0.2-1.2,0.5-2.6,1.7-3.1c0.8-0.3,1.6-0.2,2.4-0.3C33.8,90.3,34.6,90.4,35.4,90.2z"/>
	<path class="st0" d="M50,96.1c0-1.9,0-3.8,0-5.6c4.5,0,9,0,13.5,0c0.3,0,0.8,0.2,1-0.3c1.2,0.3,2.5,0.1,3.7,0.1
		c2.3,0.1,3.7,2.3,2.6,4.3c-0.6,1-1.5,1.5-2.6,1.5C62.1,96.1,56,96.1,50,96.1z"/>
	<path class="st4" d="M50,72.1c-0.4,0-0.8,0-1.2,0c-12.7,0-25.4,0-38.2,0c-2.7,0-3.6-0.9-3.6-3.7c0-18,0-36,0-54
		c0-2.4,1-3.4,3.4-3.4c11.9,0,23.8,0,35.7,0c0.8,0,1.2,0.2,1.1,1.1c-0.1,0.7,0,1.3,0,2c0,1.7,1.1,2.8,2.8,2.9c0,0,0,0.1,0,0.1
		c0,13,0,26,0,39C49.9,61.4,50,66.7,50,72.1C50,72,50,72.1,50,72.1z M25.8,54c-2.2,0-4.4,0-6.6,0c0-0.3,0.1-0.5,0.1-0.8
		c0-8.9,0-17.8,0-26.7c0-1.8-1.2-3.1-2.9-3.1c-1.7,0-2.8,1.3-2.8,3.2c0,3,0,6.1,0,9.1c0,6.1,0,12.1,0,18.2c0,1,0,1.9,0,2.9
		c0,1.3,1,2.5,2.1,2.7c0.7,0.1,1.4,0.2,2.1,0.2c7.7-0.1,15.5,0.2,23.2-0.2c1.5-0.1,2.6-1.1,2.7-2.6c0-1,0-2,0-2.9
		c0-3.2,0.1-6.3,0-9.5c0-1.5-1.3-2.7-2.8-2.7c-1.4-0.1-2.9,1.1-2.9,2.6c-0.1,3.2,0,6.5,0,9.7c-2.2,0-4.4,0-6.6,0
		c0-0.3,0.1-0.6,0.1-0.9c0-5.7,0-11.5,0-17.2c0-1.9-1.2-3.2-2.9-3.2c-1.7,0-2.9,1.3-2.9,3.2c0,4.7,0,9.3,0,14
		C25.8,51.2,25.8,52.6,25.8,54z"/>
	<path class="st5" d="M50,72c0-5.3,0-10.6,0-15.9c0-13,0-26,0-39c2.1-0.5,2.8-1.3,2.8-3.5c0-0.7,0-1.4,0-2.1c0-0.4,0.1-0.6,0.6-0.5
		c0.2,0,0.4,0,0.6,0c11.9,0,23.8,0,35.7,0c2.3,0,3.4,1.1,3.4,3.4c0,18.1,0,36.2,0,54.3c0,2.1-1.1,3.3-3,3.3C76.7,72,63.3,72,50,72z
		 M86.3,41.6c0-5.6-2.4-10.2-6.9-13.5c-2.8-2.1-6.1-3.2-9.6-3.1c-3.3-0.1-6.3,0.8-9,2.6c-5.9,4-8.4,9.7-7.3,16.7
		c0.5,3.4,2.1,6.4,4.6,8.8c0.2,0.3,0.4,0.5,0.7,0.8c4.1,3.5,8.8,4.8,14,3.9C80.5,56.5,86.5,49.3,86.3,41.6z"/>
	<path class="st6" d="M13.6,54c0-6.1,0-12.1,0-18.2c0-3,0-6.1,0-9.1c0-1.8,1.2-3.1,2.8-3.2c1.6,0,2.9,1.3,2.9,3.1
		c0,8.9,0,17.8,0,26.7c0,0.3,0,0.5-0.1,0.8C17.3,54,15.5,54,13.6,54z"/>
	<path class="st5" d="M13.6,54c1.9,0,3.7,0,5.6,0c2.2,0,4.4,0,6.6,0c1.9,0,3.7,0,5.6,0c2.2,0,4.4,0,6.6,0c1.9,0,3.7,0,5.6,0
		c0,1,0.1,2,0,2.9c-0.1,1.5-1.2,2.6-2.7,2.6c-7.7,0.4-15.5,0.1-23.2,0.2c-0.7,0-1.4-0.1-2.1-0.2c-1.2-0.2-2.1-1.4-2.1-2.7
		C13.6,55.9,13.6,54.9,13.6,54z"/>
	<path class="st7" d="M31.4,54c-1.9,0-3.7,0-5.6,0c0-1.4-0.1-2.8-0.1-4.2c0-4.7,0-9.3,0-14c0-1.9,1.2-3.2,2.9-3.2
		c1.7,0,2.9,1.3,2.9,3.2c0,5.7,0,11.5,0,17.2C31.5,53.4,31.4,53.7,31.4,54z"/>
	<path class="st8" d="M43.6,54c-1.9,0-3.7,0-5.6,0c0-3.2-0.1-6.5,0-9.7c0-1.5,1.5-2.6,2.9-2.6c1.5,0.1,2.7,1.2,2.8,2.7
		C43.7,47.7,43.6,50.8,43.6,54z"/>
	<path class="st9" d="M58.1,53.3c-2.6-2.4-4.1-5.4-4.6-8.8c-1-7.1,1.4-12.7,7.3-16.7c2.7-1.8,5.7-2.7,9-2.6c0,5.5,0,11,0,16.5
		C65.9,45.5,62,49.4,58.1,53.3z"/>
	<path class="st10" d="M58.1,53.3c3.9-3.9,7.8-7.8,11.7-11.7c5.5,0,11,0,16.5,0c0.2,7.7-5.8,14.9-13.5,16.2c-5.3,0.9-10-0.4-14-3.9
		C58.5,53.8,58.3,53.5,58.1,53.3z"/>
	<path class="st11" d="M86.3,41.6c-5.5,0-11,0-16.5,0c0-5.5,0-11,0-16.5c3.6-0.1,6.8,1,9.6,3.1C83.9,31.5,86.3,36,86.3,41.6z"/>
</g>
</svg>
