<?xml version="1.0" encoding="utf-8"?>
<!-- Generator: Adobe Illustrator 23.1.0, SVG Export Plug-In . SVG Version: 6.00 Build 0)  -->
<svg version="1.1" id="Layer_1" xmlns="http://www.w3.org/2000/svg" xmlns:xlink="http://www.w3.org/1999/xlink" x="0px" y="0px"
	 viewBox="0 0 100 100" style="enable-background:new 0 0 100 100;" xml:space="preserve">
<style type="text/css">
	.st0{fill:#D83381;}
	.st1{fill:#BD1D6C;}
	.st2{fill:#FEFDFE;}
</style>
<g>
	<path class="st0" d="M15.1,83.4c-2.1-1.9-3.8-4.2-5.3-6.6c-4.5-6.7-7.2-14.1-7.9-22.1C0.6,40.9,4.4,28.5,13.5,18
		c7.1-8.3,16-13.6,26.7-15.9C49,0.2,57.7,0.7,66.3,3.7C73,6,79,9.6,84.1,14.5c0.2,0.2,0.3,0.4,0.5,0.6c-0.1,0.4-0.5,0.7-0.8,1
		C78.2,21.7,72.5,27.4,66.9,33c-0.3,0.3-0.7,0.6-0.8,1.1c-0.8,0-1-0.4-1-1.2c0-1-0.3-2-1.3-2.4c-1.4-0.5-1.3-1.4-1.3-2.5
		c0-0.5,0-1,0-1.6c0-0.4,0.1-0.7,0.5-1c0.9-0.7,1.1-1.6,0.8-2.5c-0.3-1-1.1-1.6-2.3-1.6c-1.8,0-3.6,0-5.4,0c-1.2,0-2,0.6-2.3,1.5
		c-0.3,0.9,0,1.9,0.9,2.6c0.3,0.2,0.5,0.4,0.5,0.8c0,1,0,2.1,0,3.1c0,0.2,0.1,0.5-0.3,0.6c-1.8,0.5-2.2,1.8-2.2,3.5
		c0,4.6,0,9.2,0,13.8c-0.7,0-1.2,0.6-1.7,1c-3.9,3.9-7.9,7.9-11.8,11.8c-0.3,0.3-0.5,0.6-0.9,0.6c0-1.2-0.1-2.4,0-3.6
		c0-0.8-0.3-1.1-1.1-1.1c-1.8,0-3.6,0-5.4,0c-0.8,0-1.1,0.4-1.1,1.1c0,0.9,0,1.8,0,2.6c0,1.6,0,1.5-1.5,1.6c-0.8,0-0.9-0.2-0.9-0.9
		c0.1-1.1,0-2.2,0-3.3c0-0.7-0.3-1.1-1.1-1.1c-1.3,0-2.5,0-3.8,0c-3,0-2.7-0.3-2.7,2.7c0,0.8,0.4,1.9-0.2,2.4
		c-0.4,0.4-1.5,0.1-2.2,0.1c0,0-0.1,0-0.1,0c-0.7,0-1,0.3-1,1c0,4.9,0,9.7,0,14.6c0,0.7,0.3,1,1,1c0.6,0,1.3,0,1.9,0
		c0,0.6-0.5,0.9-0.8,1.2C17.9,80.8,16.7,82.3,15.1,83.4z"/>
	<path class="st1" d="M38.3,60.9c0.5,0,0.7-0.4,0.9-0.6c3.9-3.9,7.9-7.9,11.8-11.8c0.5-0.5,0.9-1,1.7-1c0,1,0.4,2,1.3,2.2
		c1.8,0.3,1.4,1.6,1.4,2.7c0,0.4,0,0.8,0,1.2c0,1.2,0.6,1.9,1.9,1.9c1.1,0,2.1,0,3.2,0c1.2,0,1.9-0.7,1.9-1.9c0-0.8,0-1.7,0-2.5
		c0-0.6,0.1-0.9,0.7-1c1.3-0.4,1.9-1.4,2-2.7c0-0.5,0-1,0-1.6c0-0.5,0.1-0.8,0.7-0.9c0.9-0.2,1.8-0.7,2.4-1.4
		c0.4-0.4,0.7-0.4,1.2-0.3c2.5,0.8,4.5,2.3,5.8,4.6c2.1,3.7,2.5,7.7,2,11.8c-0.1,0.6-0.3,0.7-0.9,0.7c-2.5,0-5.1,0-7.6,0
		c-0.5,0-0.8-0.1-1-0.5c-0.5-0.8-1.3-1.1-2.3-1.1c-4.1,0-8.3,0-12.4,0c-1.6,0-2.6,1-2.7,2.5c0,1.3,1,2.4,2.6,2.4c4.2,0,8.3,0,12.5,0
		c1,0,1.8-0.4,2.4-1.3c0.1-0.3,0.3-0.4,0.6-0.4c2.7,0,5.5,0,8.3,0c-0.5,2-1.2,3.7-2.4,5.2c-1.2,1.6-2.8,2.5-4.8,2.6
		c-0.9,0-1.7,0.5-2.2,1.3c-0.3,0.6-0.7,0.7-1.3,0.7c-6.6,0-13.1,0-19.7,0c-1.3,0-1.5,0.2-1.5,1.5c0,1.1,0,2.3,0,3.4
		c0,1.4,0.1,1.5,1.5,1.5c8.2,0,16.4,0,24.6,0c1.6,0,1.6,0,1.6-1.6c0-0.6,0.1-0.8,0.8-1.1c3.1-1.3,5.6-3.4,7.3-6.3
		c3.7-6.6,4.1-13.5,1.8-20.5c-2-6.1-6-10.4-12.5-11.9c-0.3-0.1-0.5-0.2-0.7-0.5c-0.7-1-1.7-1.6-2.8-2.1c0-0.5,0.4-0.8,0.8-1.1
		c5.6-5.6,11.3-11.3,16.9-16.9c0.3-0.3,0.7-0.5,0.8-1c2.1,2,4,4.3,5.7,6.7c1.6,2.4,3.1,4.8,4.3,7.4c3.6,7.7,5.1,15.8,4.4,24.3
		c-1.5,20.5-15.7,37.3-34.5,43c-3.4,1-6.9,1.7-10.5,1.9c-11.5,0.8-22-2.1-31.5-8.6c-2.7-1.9-5.2-3.9-7.4-6.4c1.6-1.1,2.8-2.7,4.2-4
		c0.4-0.3,0.9-0.6,0.8-1.2c0.3,0,0.5,0,0.8,0c6.5,0,13.1,0,19.6,0c0.8,0,1.3-0.1,1.3-1.1c0-4.8,0-9.7,0-14.5c0-0.7-0.4-1.1-1.1-1
		c-0.7,0-1.3,0-2,0C38.3,61.6,38.2,61.4,38.3,60.9z"/>
	<path class="st2" d="M66.2,34.1c1.1,0.5,2.1,1.1,2.8,2.1c0.2,0.3,0.4,0.4,0.7,0.5c6.5,1.5,10.5,5.8,12.5,11.9
		c2.3,7.1,1.9,14-1.8,20.5c-1.7,3-4.2,5-7.3,6.3c-0.6,0.3-0.8,0.5-0.8,1.1c0,1.6,0,1.6-1.6,1.6c-8.2,0-16.4,0-24.6,0
		c-1.4,0-1.5-0.1-1.5-1.5c0-1.1,0-2.3,0-3.4c0-1.4,0.2-1.5,1.5-1.5c6.6,0,13.1,0,19.7,0c0.6,0,1-0.1,1.3-0.7
		c0.4-0.8,1.2-1.3,2.2-1.3c2.1,0,3.6-1,4.8-2.6c1.2-1.5,2-3.3,2.4-5.2c-2.8,0-5.5,0-8.3,0c-0.3,0-0.5,0.1-0.6,0.4
		c-0.5,0.9-1.3,1.3-2.4,1.3c-4.2,0-8.3,0-12.5,0c-1.6,0-2.7-1-2.6-2.4c0-1.5,1.1-2.5,2.7-2.5c4.1,0,8.3,0,12.4,0
		c1,0,1.7,0.4,2.3,1.1c0.3,0.4,0.5,0.5,1,0.5c2.5,0,5.1,0,7.6,0c0.6,0,0.8-0.2,0.9-0.7c0.5-4.1,0.2-8.1-2-11.8
		c-1.3-2.3-3.3-3.8-5.8-4.6c-0.5-0.2-0.8-0.1-1.2,0.3c-0.7,0.7-1.5,1.2-2.4,1.4c-0.5,0.1-0.7,0.4-0.7,0.9c0,0.5,0,1,0,1.6
		c-0.1,1.3-0.7,2.3-2,2.7c-0.6,0.2-0.7,0.5-0.7,1c0,0.8,0,1.7,0,2.5c0,1.2-0.7,1.8-1.9,1.9c-1.1,0-2.1,0-3.2,0
		c-1.2,0-1.8-0.7-1.9-1.9c0-0.4,0-0.8,0-1.2c0-1.1,0.3-2.3-1.4-2.7c-1-0.2-1.3-1.2-1.3-2.2c0-4.6,0.1-9.2,0-13.8
		c0-1.7,0.4-3,2.2-3.5c0.4-0.1,0.3-0.4,0.3-0.6c0-1,0-2.1,0-3.1c0-0.4-0.2-0.6-0.5-0.8c-0.9-0.7-1.2-1.6-0.9-2.6
		c0.3-1,1.2-1.5,2.3-1.5c1.8,0,3.6,0,5.4,0c1.2,0,2,0.6,2.3,1.6c0.3,0.9,0,1.8-0.8,2.5c-0.4,0.3-0.5,0.6-0.5,1c0,0.5,0,1,0,1.6
		c-0.1,1.1-0.1,2,1.3,2.5c0.9,0.3,1.3,1.4,1.3,2.4C65.1,33.7,65.4,34.1,66.2,34.1z M58.8,39.9c0.2-3.3,1.4-4.8,4.4-5.9
		c0.2-0.1,0.4-0.1,0.5-0.3c0.4-0.9-0.3-2.1-1.3-2.1c-2.2,0-4.5,0-6.7,0c-0.8,0-1.3,0.4-1.3,1.3c0,3.5,0,7,0,10.5c0,1.3,0,2.5,0,3.8
		c0,1,0.5,1.5,1.5,1.5c1.7,0,3.4,0,5.1,0c3.1,0.1,2.8-0.6,2.8-3c0-0.4-0.1-0.6-0.6-0.7C60.5,44.2,59,42.6,58.8,39.9z M69,71.7
		c0.6,0,1.2,0,1.8,0c1.7,0,1.7,0,1.8,1.7c0,0.6,0.2,0.7,0.7,0.4c1.8-0.8,3.3-2,4.6-3.5C80.5,67,81.7,63,82,58.8
		c0.3-3.7-0.2-7.3-1.7-10.8c-1.1-2.6-2.5-4.9-4.6-6.7c-1.6-1.4-3.5-2.4-5.8-3c0.3,1,0.2,1.9-0.1,2.7c-0.2,0.6,0,0.8,0.5,1
		c3.1,1,5.3,3.1,6.8,6c1.2,2.4,1.8,4.9,1.9,7.6c0.1,4-0.6,7.9-2.7,11.4c-1.5,2.4-3.5,4.1-6.6,4.3C69.4,71.3,69.1,71.3,69,71.7z
		 M58.6,76.6C58.6,76.6,58.6,76.6,58.6,76.6c3.6,0,7.1,0,10.7,0c1.6,0,1.6,0,1.7-1.5c0-0.3,0-0.6,0.1-0.9c0.1-0.7-0.2-1-1-1
		c-7.1,0-14.2,0-21.2,0c-2.5,0-2.5,0-2.5,2.5c0,0.7,0.2,0.9,0.9,0.9C51,76.6,54.8,76.6,58.6,76.6z M64.4,43.6c2.3,0,4.2-1.9,4.1-4.1
		c0-2.2-1.9-4.1-4.1-4.1c-2.3,0-4.1,1.8-4.1,4.1C60.3,41.8,62.1,43.6,64.4,43.6z M59.4,62.1c2.1,0,4.2,0,6.2,0c0.6,0,1-0.3,1-0.9
		c0-0.6-0.4-0.8-1-0.8c-4.2,0-8.5,0-12.7,0c-0.6,0-1,0.3-1,0.8c0,0.6,0.4,0.9,0.9,0.9c0.2,0,0.5,0,0.7,0
		C55.5,62.1,57.4,62.1,59.4,62.1z M58.9,30.1c0.1,0,0.2,0,0.3,0c1.9,0,1.9,0,1.9-1.9c0-2.1,0-2.1-2.3-2.1c-2,0-2,0-2,1.9
		C56.8,30.1,56.8,30.1,58.9,30.1z M59,50.2c-2,0-2,0-2,1.7c0,2.1,0,2.1,2.1,2.1c1.8,0,1.8,0,1.8-1.8C60.9,50.2,60.9,50.2,59,50.2z
		 M59,23c-0.9,0-1.8,0-2.7,0c-0.5,0-0.9,0.2-0.9,0.7c0,0.5,0.4,0.7,0.8,0.7c1.8,0.1,3.7,0.1,5.5,0c0.5,0,0.8-0.2,0.8-0.8
		c0-0.5-0.4-0.7-0.9-0.7C60.8,23,59.9,23,59,23z"/>
	<path class="st2" d="M38.3,60.9c-0.1,0.4,0,0.6,0.5,0.6c0.6,0,1.3,0,2,0c0.7,0,1.1,0.3,1.1,1c0,4.8,0,9.7,0,14.5
		c0,0.9-0.5,1.1-1.3,1.1c-6.5,0-13.1,0-19.6,0c-0.3,0-0.5,0-0.8,0c-0.6,0-1.3,0-1.9,0c-0.7,0-1-0.3-1-1c0-4.9,0-9.7,0-14.6
		c0-0.7,0.3-1,1-1c0,0,0.1,0,0.1,0c0.8,0,1.8,0.3,2.2-0.1c0.5-0.5,0.2-1.6,0.2-2.4c0-3-0.3-2.7,2.7-2.7c1.3,0,2.5,0,3.8,0
		c0.7,0,1.1,0.3,1.1,1.1c0,1.1,0,2.2,0,3.3c0,0.7,0.1,1,0.9,0.9c1.5-0.1,1.5,0,1.5-1.6c0-0.9,0-1.8,0-2.6c0-0.8,0.3-1.1,1.1-1.1
		c1.8,0,3.6,0,5.4,0c0.8,0,1.1,0.3,1.1,1.1C38.2,58.5,38.3,59.7,38.3,60.9z M28.3,71.9c-0.4,3.5-2.8,4.9-5.9,3.5
		c-1.2-1-1.7-2.3-1.7-3.9c0.1-2.5,0-5,0-7.5c0-0.9-0.3-0.9-1-0.9c-0.6,0-1.1,0-1.1,0.9c0.1,3.7,0,7.3,0,11c0,1.8,0,1.8,1.8,1.6
		c6.4,0,12.7,0,19.1,0.1c0.5,0,0.6-0.2,0.6-0.7c0-4.1,0-8.1,0-12.2c0-0.9-0.6-0.6-1.1-0.7c-0.5,0-1-0.1-1,0.7c0.1,2.6,0,5.1,0,7.7
		c0,0.4,0,0.8-0.1,1.2c-0.3,2-2,3.4-3.9,3.3c-2-0.1-3.6-1.7-3.6-3.8c0-0.6,0-1.2,0-1.9c0-1.8,0-3.7,0-5.5c0-1.9,0-1.9-1.8-1.7
		c-0.4,0-0.6,0.1-0.6,0.6C28.3,66.4,28.3,69.1,28.3,71.9z M22.3,68c0,1.4,0,2.7,0,4.1c0,1.3,1,2.3,2.2,2.3c1.2,0,2.2-1,2.2-2.3
		c0-2.8,0-5.7,0-8.5c0-0.5-0.2-0.6-0.6-0.6c-1.1,0-2.1,0-3.2,0c-0.6,0-0.7,0.2-0.7,0.7C22.3,65.2,22.3,66.6,22.3,68z M36.7,67.9
		c0-1.3,0-2.7,0-4c0-0.7-0.2-0.9-0.9-0.9c-0.9,0.1-1.9,0.1-2.8,0c-0.6,0-0.8,0.2-0.8,0.8c0,2.7,0,5.3,0,8c0,1.5,0.9,2.5,2.2,2.6
		c1.3,0,2.3-1,2.3-2.5C36.7,70.6,36.7,69.2,36.7,67.9z M24.5,61.5c0.5,0,1,0,1.6,0c0.6,0.1,0.8-0.2,0.7-0.8c0-0.8,0-1.6,0-2.3
		c0-0.5-0.1-0.7-0.7-0.7c-0.7,0-1.5,0-2.2,0c-1.6,0-1.6,0-1.6,1.6C22.3,61.5,22.3,61.5,24.5,61.5z M34.4,61.5c2.3,0,2.3,0,2.3-2.3
		c0-0.3,0-0.6,0-0.9c0.1-0.5-0.2-0.7-0.7-0.7c-0.8,0-1.6,0-2.3,0c-1.5,0-1.5,0-1.5,1.5C32.2,61.5,32.2,61.5,34.4,61.5z"/>
	<path class="st1" d="M69,71.7c0.1-0.5,0.5-0.4,0.7-0.5c3-0.1,5.1-1.8,6.6-4.3c2.2-3.5,2.8-7.4,2.7-11.4c-0.1-2.7-0.7-5.2-1.9-7.6
		c-1.5-2.9-3.7-5-6.8-6c-0.5-0.2-0.7-0.4-0.5-1c0.3-0.8,0.4-1.7,0.1-2.7c2.3,0.5,4.2,1.5,5.8,3c2.1,1.8,3.5,4.1,4.6,6.7
		c1.4,3.5,2,7.1,1.7,10.8c-0.3,4.2-1.5,8.1-4.2,11.5c-1.3,1.5-2.8,2.7-4.6,3.5c-0.5,0.2-0.7,0.2-0.7-0.4c0-1.7-0.1-1.7-1.8-1.7
		C70.2,71.7,69.6,71.7,69,71.7z"/>
	<path class="st1" d="M58.6,76.6c-3.8,0-7.6,0-11.4,0c-0.7,0-0.9-0.2-0.9-0.9c0-2.5,0-2.5,2.5-2.5c7.1,0,14.2,0,21.2,0
		c0.8,0,1.1,0.2,1,1c0,0.3-0.1,0.6-0.1,0.9c-0.1,1.5-0.1,1.5-1.7,1.5C65.7,76.6,62.2,76.6,58.6,76.6C58.6,76.6,58.6,76.6,58.6,76.6z
		"/>
	<path class="st0" d="M54.3,43.4c0-3.5,0-7,0-10.5c0-0.8,0.5-1.3,1.3-1.3c2.2,0,4.5,0,6.7,0c1,0,1.7,1.2,1.3,2.1
		c-0.1,0.2-0.3,0.2-0.5,0.3c-3.1,1-4.2,2.6-4.4,5.9c-0.4-0.1-0.7,0.2-0.9,0.4c-0.8,0.8-1.6,1.5-2.3,2.3C55.2,43,54.8,43.3,54.3,43.4
		z"/>
	<path class="st1" d="M54.3,43.4c0.5-0.1,0.9-0.4,1.2-0.7c0.8-0.8,1.6-1.5,2.3-2.3c0.3-0.3,0.5-0.5,0.9-0.4c0.3,2.7,1.8,4.4,4.3,5.1
		c0.4,0.1,0.6,0.3,0.6,0.7c0,2.4,0.3,3.1-2.8,3c-1.7-0.1-3.4,0-5.1,0c-1.1,0-1.5-0.4-1.5-1.5C54.3,45.9,54.3,44.6,54.3,43.4z"/>
	<path class="st0" d="M64.4,43.6c-2.3,0-4.1-1.8-4.1-4.1c0-2.3,1.8-4.1,4.1-4.1c2.2,0,4.1,1.8,4.1,4.1
		C68.6,41.7,66.7,43.6,64.4,43.6z M62.3,39.5c0,1.2,1,2.1,2.1,2.1c1.1,0,2.1-1,2.1-2.1c0-1.1-1-2.1-2.1-2.1
		C63.2,37.4,62.3,38.4,62.3,39.5z"/>
	<path class="st1" d="M59.4,62.1c-1.9,0-3.8,0-5.8,0c-0.2,0-0.5,0-0.7,0c-0.6,0-1-0.3-0.9-0.9c0-0.6,0.4-0.8,1-0.8
		c4.2,0,8.5,0,12.7,0c0.6,0,1,0.2,1,0.8c0,0.7-0.4,0.9-1,0.9C63.5,62.1,61.4,62.1,59.4,62.1z"/>
	<path class="st0" d="M58.9,30.1c-2.1,0-2.1,0-2.1-2.1c0-1.9,0-1.9,2-1.9c2.3,0,2.3,0,2.3,2.1c0,1.9,0,1.9-1.9,1.9
		C59.1,30.1,59,30.1,58.9,30.1z"/>
	<path class="st1" d="M59,50.2c1.9,0,1.9,0,1.9,1.9c0,1.8,0,1.8-1.8,1.8c-2.1,0-2.1,0-2.1-2.1C57,50.2,57,50.2,59,50.2z"/>
	<path class="st0" d="M59,23c0.9,0,1.7,0,2.6,0c0.5,0,0.8,0.2,0.9,0.7c0,0.5-0.3,0.7-0.8,0.8c-1.8,0.1-3.7,0.1-5.5,0
		c-0.5,0-0.9-0.2-0.8-0.7c0-0.6,0.4-0.7,0.9-0.7C57.2,23,58.1,23,59,23z"/>
	<path class="st1" d="M30.6,70.3c0,0.6,0,1.2,0,1.9c0.1,2.1,1.6,3.6,3.6,3.8c1.9,0.1,3.6-1.3,3.9-3.3c0.1-0.4,0.1-0.8,0.1-1.2
		c0-2.6,0-5.1,0-7.7c0-0.9,0.5-0.8,1-0.7c0.4,0,1.1-0.3,1.1,0.7c0,4.1,0,8.1,0,12.2c0,0.5-0.1,0.7-0.6,0.7c-6.4,0-12.7,0-19.1-0.1
		c0.2-1.1,1.2-0.9,1.9-1.2c3.1,1.4,5.6,0,5.9-3.5c0.5,0.1,0.7-0.3,1.1-0.6C29.8,71,30,70.4,30.6,70.3z"/>
	<path class="st0" d="M22.3,68c0-1.4,0-2.8,0-4.2c0-0.5,0.1-0.8,0.7-0.7c1.1,0,2.1,0,3.2,0c0.5,0,0.6,0.2,0.6,0.6c0,2.8,0,5.7,0,8.5
		c0,1.3-1,2.2-2.2,2.3c-1.3,0-2.2-1-2.2-2.3C22.2,70.7,22.3,69.4,22.3,68z"/>
	<path class="st0" d="M36.7,67.9c0,1.3,0,2.7,0,4c0,1.5-1,2.5-2.3,2.5c-1.3,0-2.2-1-2.2-2.6c0-2.7,0-5.3,0-8c0-0.6,0.2-0.8,0.8-0.8
		c0.9,0,1.9,0.1,2.8,0c0.7,0,0.9,0.1,0.9,0.9C36.7,65.2,36.7,66.6,36.7,67.9z"/>
	<path class="st0" d="M22.4,75.3c-0.7,0.3-1.7,0.2-1.9,1.2c-1.8,0.2-1.8,0.2-1.8-1.6c0-3.7,0-7.3,0-11c0-0.9,0.4-0.9,1.1-0.9
		c0.7,0,1,0.1,1,0.9c-0.1,2.5,0,5,0,7.5C20.7,73.1,21.2,74.3,22.4,75.3z"/>
	<path class="st0" d="M30.6,70.3c-0.6,0.1-0.8,0.7-1.3,1c-0.3,0.3-0.6,0.6-1.1,0.6c0-2.8,0-5.5-0.1-8.3c0-0.4,0.2-0.5,0.6-0.6
		c1.8-0.1,1.8-0.1,1.8,1.7C30.7,66.6,30.7,68.5,30.6,70.3z"/>
	<path class="st0" d="M24.5,61.5c-2.2,0-2.2,0-2.2-2.2c0-1.6,0-1.6,1.6-1.6c0.7,0,1.5,0,2.2,0c0.5,0,0.7,0.2,0.7,0.7
		c0,0.8,0,1.6,0,2.3c0,0.6-0.1,0.8-0.7,0.8C25.5,61.5,25,61.5,24.5,61.5z"/>
	<path class="st0" d="M34.4,61.5c-2.2,0-2.2,0-2.2-2.3c0-1.5,0-1.5,1.5-1.5c0.8,0,1.6,0,2.3,0c0.5,0,0.7,0.1,0.7,0.7
		c0,0.3,0,0.6,0,0.9C36.7,61.5,36.7,61.5,34.4,61.5z"/>
	<path class="st2" d="M62.3,39.5c0-1.2,0.9-2.1,2.1-2.2c1.1,0,2.1,1,2.1,2.1c0,1.1-0.9,2.1-2.1,2.1C63.3,41.6,62.3,40.7,62.3,39.5z
		 M64.4,40.1c0.4,0,0.6-0.2,0.6-0.6c0-0.3-0.2-0.5-0.5-0.6c-0.4,0-0.6,0.2-0.6,0.6C63.8,39.8,64,40,64.4,40.1z"/>
	<path class="st0" d="M64.4,40.1c-0.3,0-0.5-0.2-0.5-0.6c0-0.4,0.2-0.6,0.6-0.6c0.3,0,0.5,0.3,0.5,0.6C65,39.9,64.7,40.1,64.4,40.1z
		"/>
</g>
</svg>
