<?xml version="1.0" encoding="utf-8"?>
<!-- Generator: Adobe Illustrator 23.1.0, SVG Export Plug-In . SVG Version: 6.00 Build 0)  -->
<svg version="1.1" id="Layer_1" xmlns="http://www.w3.org/2000/svg" xmlns:xlink="http://www.w3.org/1999/xlink" x="0px" y="0px"
	 viewBox="0 0 100 100" style="enable-background:new 0 0 100 100;" xml:space="preserve">
<style type="text/css">
	.st0{fill:#FBB44F;}
	.st1{fill:#FCA52E;}
	.st2{fill:#FCC880;}
	.st3{fill:#16479F;}
	.st4{fill:#FCEEDE;}
	.st5{fill:#FEFEFD;}
</style>
<g>
	<path class="st0" d="M11,79.5c-1.3-0.4-2.3-1.1-3.5-1.7c-0.4-0.2-0.4-0.5-0.4-0.9c0-0.6,0-1.3,0-1.9c0-16.9,0-52.3,0-52.3
		s40.1,20.7,42.2,21.9c0,9.7,0,19.3,0,29c0,8.4,0.2,25.5,0.2,25.5l-9.4-4.2c0,0-5.9-3-8.8-4.5c-2.9-1.5-5.8-3.1-8.7-4.6
		c-1.7-0.9-3.3-1.8-5-2.6c-0.1-0.3,0.1-0.8-0.5-0.9c-0.8,0-1.3-0.5-1.9-0.8C13.8,80.9,12.5,79.9,11,79.5z M23.6,79.5
		c0-3.6,0-7.1,0-10.6c0-0.5-0.4-0.7-0.8-0.9c-3.2-1.6-6.3-3.1-9.4-4.7c-0.8-0.4-0.8-0.2-0.8,0.5c0,3.1,0,6.3,0,9.4
		c0,0.6,0.2,0.9,0.7,1.2C16.7,76.1,20,77.7,23.6,79.5z"/>
	<path class="st1" d="M49.5,99.1c0,0-0.2-17.1-0.2-25.5c0-9.7,0-29,0-29l13.8-7.8l0.8,15l13.4-7.6l-0.5-14.5c0,0,0.4-0.1,2.2-0.7
		c3,1,6,1.3,9,0.4c1.2-0.3,2.3-0.9,3.5-1.3c0,1.6,0.1,3.1,0.1,4.7c0,14.2,0,28.4,0,42.6c0,0.6-0.3,1.2-0.1,1.9
		c0.2,0.5-0.3,0.6-0.7,0.8C85.5,80.9,49.5,99.1,49.5,99.1z M86.1,68.5c-3.7,1.8-7.1,3.5-10.5,5.2c-0.4,0.2-0.5,0.4-0.5,0.8
		c0,1.4,0,2.8,0,4.2c0,0.7,0.2,0.7,0.8,0.4c3.2-1.6,6.4-3.2,9.6-4.8c0.4-0.2,0.6-0.4,0.6-0.8C86,71.9,86.1,70.3,86.1,68.5z
		 M56.7,90.5c0.3,0,0.7-0.1,1.1-0.3c3.4-1.7,6.9-3.5,10.4-5.2c1.3-0.7,1.8-1.8,1.2-2.9c-0.5-0.9-1.6-1.1-2.8-0.5
		c-3.6,1.8-7.1,3.5-10.6,5.3c-0.8,0.4-1.4,1.2-1,2.2C55.1,89.9,55.7,90.6,56.7,90.5z M61.2,77.2c-0.1,0-0.4,0-0.7,0.1
		c-1.5,0.7-3,1.5-4.5,2.3c-0.8,0.4-1.3,1.5-1,2.3c0.3,0.9,1.4,1.6,2.3,1.2c1.9-0.8,3.7-1.6,5.4-2.7c0.7-0.5,0.8-1.2,0.5-2
		C62.8,77.6,62.3,77.1,61.2,77.2z"/>
	<path class="st2" d="M22.7,14.3c1.3-0.3,2.2,0.8,3.2,1.3c3.2,1.7,6.3,3.5,9.4,5.3c1.8,1.1,3.7,2.1,5.5,3.2c5.1,3,10.3,5.8,15.4,8.7
		c2.3,1.3,7,4,7,4l-13.8,7.8c0,0-4.3-2.1-6.5-3.3C40.6,40,7.1,22.7,7.1,22.7s9.1-4.9,13.3-7.1C21.2,15.2,22,14.7,22.7,14.3z"/>
	<path class="st3" d="M91.5,28.1c-1.2,0.4-2.2,1-3.5,1.3C85,30.3,82,30.1,79,29c-0.5-0.3-1.1-0.5-1.6-0.8c-4.2-2.3-6.8-5.8-7.6-10.6
		c-0.4-2.2-0.1-4.2,0.3-6.3c1.1-3.3,3-6.1,5.9-8.1c6.7-4.6,15.8-2.8,20.3,3.9c4.5,6.7,2.8,15.8-4,20.3
		C92.1,27.6,91.8,27.9,91.5,28.1z M93.4,15.3c0-5-4.1-9.1-9.1-9.1c-5.1,0-9.2,4.1-9.2,9.1c0,5,4.1,9.1,9.1,9.1
		C89.2,24.4,93.4,20.3,93.4,15.3z"/>
	<path class="st2" d="M70,11.2c-0.4,2.1-0.7,4.2-0.3,6.3c0.8,4.8,3.4,8.3,7.6,10.6c0.5,0.3,1.1,0.6,1.6,0.8
		c-1.8,0.6-2.2,0.7-2.2,0.7s-6.4-3.6-9.2-5.1c-1.8-0.9-3.5-1.9-5.3-2.9c-4.1-2.3-8.2-4.7-12.3-7c-4-2.3-8.1-4.6-12.1-6.9
		C37.5,7.7,37,7.5,37,7c2.9-1.5,5.9-3.1,8.8-4.6c0.9-0.5,1.8-0.9,2.6-1.4c0.7-0.4,1.3-0.4,2,0c5.4,2.9,10.8,5.7,16.3,8.5
		C67.7,10.1,68.9,10.6,70,11.2z"/>
	<path class="st2" d="M11,79.5c1.6,0.3,2.8,1.4,4.3,2c0.6,0.3,1.2,0.8,1.9,0.8c0.6,0,0.4,0.5,0.5,0.9c-1.2-0.2-2.1-1.1-3.2-1.6
		c-0.9-0.4-1.7-1.1-2.8-1.2C11.2,80.3,11.1,79.9,11,79.5z"/>
	<path class="st4" d="M23.6,79.5c-3.6-1.8-6.9-3.5-10.3-5.1c-0.5-0.3-0.7-0.6-0.7-1.2c0-3.1,0-6.3,0-9.4c0-0.7,0.1-0.9,0.8-0.5
		c3.1,1.6,6.3,3.1,9.4,4.7c0.4,0.2,0.8,0.4,0.8,0.9C23.6,72.4,23.6,75.9,23.6,79.5z"/>
	<path class="st4" d="M86.1,68.5c0,1.8,0,3.4,0,5.1c0,0.5-0.3,0.7-0.6,0.8c-3.2,1.6-6.4,3.2-9.6,4.8c-0.6,0.3-0.8,0.3-0.8-0.4
		c0-1.4,0-2.8,0-4.2c0-0.4,0.1-0.6,0.5-0.8C79,72,82.4,70.3,86.1,68.5z"/>
	<path class="st4" d="M56.7,90.5c-1.1,0-1.6-0.6-1.8-1.4c-0.3-1,0.2-1.8,1-2.2c3.5-1.8,7.1-3.6,10.6-5.3c1.2-0.6,2.4-0.4,2.8,0.5
		c0.6,1.1,0.1,2.2-1.2,2.9c-3.5,1.7-6.9,3.4-10.4,5.2C57.4,90.4,57.1,90.5,56.7,90.5z"/>
	<path class="st4" d="M61.2,77.2c1.1-0.1,1.6,0.4,1.9,1.1c0.3,0.8,0.2,1.6-0.5,2c-1.7,1.1-3.5,1.9-5.4,2.7c-0.9,0.4-2-0.3-2.3-1.2
		c-0.3-0.8,0.2-1.9,1-2.3c1.5-0.8,3-1.5,4.5-2.3C60.7,77.2,61.1,77.2,61.2,77.2z"/>
	<path class="st5" d="M93.4,15.3c0,5-4.2,9.2-9.2,9.1c-5,0-9.1-4.1-9.1-9.1c0-5,4.1-9.2,9.2-9.1C89.3,6.2,93.4,10.3,93.4,15.3z
		 M86.1,13.1c0-0.8,0.1-1.3,0-1.7c-0.2-0.9-0.8-1.5-1.7-1.6c-1-0.1-1.9,0.5-1.9,1.4c-0.2,2.6-0.6,5.3,2,7.1c1.1,0.8,2.1,1,2.9,0.1
		c0.8-0.8,0.7-1.9-0.2-2.8C86.3,14.8,85.8,14,86.1,13.1z"/>
	<path class="st3" d="M86.1,13.1c-0.3,0.9,0.2,1.7,1.1,2.5c1,0.9,1,2,0.2,2.8c-0.8,0.8-1.8,0.6-2.9-0.1c-2.7-1.8-2.2-4.5-2-7.1
		c0.1-0.9,0.9-1.5,1.9-1.4c1,0.1,1.5,0.6,1.7,1.6C86.1,11.8,86.1,12.3,86.1,13.1z"/>
</g>
<polygon class="st4" points="22.3,13.9 36.7,6.4 78,29.9 78,44.6 64.1,52.1 63.5,37.5 "/>
</svg>
