<?xml version="1.0" encoding="utf-8"?>
<!-- Generator: Adobe Illustrator 23.1.0, SVG Export Plug-In . SVG Version: 6.00 Build 0)  -->
<svg version="1.1" id="Layer_1" xmlns="http://www.w3.org/2000/svg" xmlns:xlink="http://www.w3.org/1999/xlink" x="0px" y="0px"
	 viewBox="0 0 100 100" style="enable-background:new 0 0 100 100;" xml:space="preserve">
<style type="text/css">
	.st0{fill:#83A7BE;}
	.st1{fill:#DFE8EE;}
	.st2{fill:#83A8BE;}
	.st3{fill:#FEFEFE;}
	.st4{fill:#A2BECE;}
	.st5{fill:#FE93B0;}
	.st6{fill:#FED868;}
	.st7{fill:#FEFEFD;}
</style>
<g>
	<path class="st0" d="M15.1,1.4c23.5,0,47,0,70.5,0c0.1,0.1,0.1,0.1,0.2,0.2c5.1,1.4,7.7,4.7,7.7,10c0,25.5,0,51,0,76.5
		c0,5.8-4,9.9-9.9,9.9c-22.2,0-44.4,0-66.5,0c-0.6,0-1.1,0-1.7-0.1c-5-0.8-8.2-4.6-8.2-9.7c0-22,0-44.1,0-66.1c0-3.8,0-7.5,0-11.3
		c0-4,2.7-7.6,6.5-8.8C14.2,1.7,14.7,1.7,15.1,1.4z M11,49.6c0,12.8,0,25.6,0,38.4c0,3.8,2.3,6.1,6.1,6.1c22.2,0,44.4,0,66.5,0
		c3.8,0,6.2-2.3,6.2-6.2c0-25.5,0-51.1,0-76.6c0-3.8-2.3-6.2-6.2-6.2c-22.1,0-44.3,0-66.4,0c-3.9,0-6.2,2.3-6.2,6.2
		C11,24.1,11,36.9,11,49.6z"/>
	<path class="st1" d="M11,49.6c0-12.8,0-25.5,0-38.3c0-3.9,2.3-6.2,6.2-6.2c22.1,0,44.3,0,66.4,0c3.8,0,6.2,2.3,6.2,6.2
		c0,25.5,0,51.1,0,76.6c0,3.8-2.3,6.2-6.2,6.2c-22.2,0-44.4,0-66.5,0c-3.8,0-6.1-2.4-6.1-6.1C11,75.2,11,62.4,11,49.6z M50.4,30.7
		c-10.5,0-21,0-31.5,0c-2.1,0-2.6,0.5-2.6,2.6c0,17.6,0,35.2,0,52.9c0,2,0.6,2.6,2.6,2.6c21,0,42,0,63,0c2.1,0,2.6-0.6,2.6-2.6
		c0-17.6,0-35.2,0-52.8c0-2.2-0.5-2.7-2.7-2.7C71.3,30.7,60.8,30.7,50.4,30.7z M69.2,23.6c3.4,0,6.8,0,10.3,0c1.9,0,3.1-1.2,3.1-3.1
		c0-1.7,0-3.3,0-5c0-2.1-1.1-3.2-3.2-3.2c-6.8,0-13.6,0-20.4,0c-2,0-3.2,1.2-3.2,3.2c0,1.7,0,3.3,0,5c0,2,1.2,3.2,3.2,3.2
		C62.4,23.6,65.8,23.6,69.2,23.6z M22.9,22.7c2.6,0,4.7-2.1,4.7-4.6c0-2.6-2.1-4.8-4.7-4.8c-2.6,0-4.8,2.1-4.8,4.7
		C18.1,20.6,20.2,22.6,22.9,22.7z M38.6,22.7c2.6,0,4.7-2.1,4.7-4.7c0-2.6-2.1-4.7-4.7-4.7c-2.6,0-4.8,2.2-4.7,4.7
		C33.9,20.6,36,22.7,38.6,22.7z"/>
	<path class="st2" d="M50.4,30.7c10.5,0,20.9,0,31.4,0c2.2,0,2.7,0.5,2.7,2.7c0,17.6,0,35.2,0,52.8c0,2-0.6,2.6-2.6,2.6
		c-21,0-42,0-63,0c-2.1,0-2.6-0.6-2.6-2.6c0-17.6,0-35.2,0-52.9c0-2.1,0.5-2.6,2.6-2.6C29.4,30.7,39.9,30.7,50.4,30.7z M73.3,57.8
		c2.1,0,4.2,0,6.3,0.1c0.9,0,1.1-0.3,1.1-1.1c0-7,0-13.9,0-20.9c0-1.4,0-1.4-1.4-1.4c-19.3,0-38.6,0-58,0c-0.2,0-0.4,0-0.7,0
		c-0.5,0-0.7,0.2-0.7,0.7c0,7.3,0,14.6,0,22c0,0.5,0.1,0.7,0.7,0.7c2.2,0,4.5,0,6.7,0c6.2,0,12.4,0,18.6,0c2.9,0,5.8,0,8.7,0
		C60.9,57.8,67.1,57.8,73.3,57.8z M27.4,85c6.2,0,12.4,0,18.7,0c2.9,0,5.8,0,8.6,0c6.2,0,12.4,0,18.7,0c2.1,0,4.1,0,6.2,0.1
		c1,0,1.2-0.3,1.2-1.2c0-6.9,0-13.9,0-20.8c0-1.5,0.2-1.4-1.4-1.4c-19.3,0-38.6,0-57.8,0c-0.3,0-0.5,0-0.8,0c-0.5,0-0.7,0.2-0.7,0.7
		c0,7.3,0,14.6,0,21.9c0,0.5,0.1,0.7,0.7,0.7C22.9,85,25.1,85,27.4,85z"/>
	<path class="st3" d="M69.2,23.6c-3.4,0-6.8,0-10.2,0c-2,0-3.2-1.2-3.2-3.2c0-1.7,0-3.3,0-5c0-2,1.2-3.2,3.2-3.2
		c6.8,0,13.6,0,20.4,0c2.1,0,3.2,1.1,3.2,3.2c0,1.7,0,3.3,0,5c0,1.9-1.2,3.1-3.1,3.1C76.1,23.6,72.6,23.6,69.2,23.6z"/>
	<path class="st4" d="M22.9,22.7c-2.6,0-4.7-2.1-4.7-4.7c0-2.6,2.1-4.7,4.8-4.7c2.6,0,4.7,2.1,4.7,4.8
		C27.5,20.6,25.4,22.7,22.9,22.7z"/>
	<path class="st5" d="M38.6,22.7c-2.6,0-4.8-2.1-4.8-4.7c0-2.5,2.2-4.7,4.7-4.7c2.6,0,4.8,2.2,4.7,4.7
		C43.3,20.5,41.2,22.6,38.6,22.7z"/>
	<path class="st6" d="M54.7,85c-2.9,0-5.8,0-8.6,0c0.6-1.3,0.4-2.5-0.3-3.8c-1.1-1.7-1.9-3.6-3.1-5.3c-1.5-2.2-2.4-4.6-2-7.3
		c0-0.1,0-0.3,0-0.4c0-0.7-0.3-1-1-1c-1.9,0-3.9,0-5.8,0c-0.7,0-1,0.4-1,1.1c0,1,0,1.9,0,2.9c0,0.8-0.2,1.5-0.6,2.2
		c-1.5,2.6-3,5.2-4.5,7.7c-0.7,1.2-0.9,2.4-0.4,3.8c-2.2,0-4.5,0-6.7,0c-0.6,0-0.7-0.2-0.7-0.7c0-7.3,0-14.6,0-21.9
		c0-0.5,0.1-0.8,0.7-0.7c0.2,0,0.5,0,0.8,0c19.3,0,38.6,0,57.8,0c1.6,0,1.4-0.1,1.4,1.4c0,6.9,0,13.9,0,20.8c0,0.9-0.2,1.3-1.2,1.2
		c-2.1-0.1-4.1,0-6.2-0.1c0.6-1.3,0.4-2.5-0.4-3.8c-1-1.7-1.9-3.5-3-5.1c-1.6-2.3-2.5-4.7-2.1-7.6c0-0.1,0-0.2,0-0.3
		c0-0.7-0.3-1-1-1c-1.9,0-3.9,0-5.8,0c-0.7,0-1,0.4-1,1.1c0,0.9,0,1.8,0,2.7c0.1,0.9-0.2,1.8-0.7,2.6c-1.5,2.5-2.9,5.1-4.4,7.7
		C54.3,82.5,54.1,83.7,54.7,85z"/>
	<path class="st6" d="M54.7,57.8c-2.9,0-5.8,0-8.7,0c0.6-1.3,0.4-2.5-0.3-3.7c-1.1-1.8-2-3.7-3.1-5.4c-1.5-2.2-2.4-4.6-2-7.3
		c0-0.1,0-0.3,0-0.4c0-0.7-0.3-1-1-1c-1.9,0-3.9,0-5.8,0c-0.7,0-1,0.4-1,1.1c0,1,0,1.9,0,2.9c0,0.8-0.2,1.5-0.6,2.2
		c-1.5,2.6-3,5.2-4.5,7.7c-0.7,1.2-0.9,2.4-0.3,3.8c-2.2,0-4.5,0-6.7,0c-0.6,0-0.7-0.2-0.7-0.7c0-7.3,0-14.6,0-22
		c0-0.5,0.2-0.7,0.7-0.7c0.2,0,0.4,0,0.7,0c19.3,0,38.6,0,58,0c1.4,0,1.4,0,1.4,1.4c0,7,0,13.9,0,20.9c0,0.8-0.2,1.2-1.1,1.1
		c-2.1-0.1-4.2,0-6.3-0.1c0.6-1.3,0.4-2.5-0.3-3.8c-1-1.7-1.9-3.5-3-5.2c-1.6-2.3-2.4-4.7-2-7.5c0-0.1,0-0.2,0-0.3c0-0.7-0.3-1-1-1
		c-1.9,0-3.9,0-5.8,0c-0.7,0-1,0.4-1,1.1c0,0.9,0,1.8,0,2.7c0.1,0.9-0.2,1.8-0.7,2.6c-1.5,2.6-3,5.2-4.5,7.7
		C54.2,55.4,54.1,56.6,54.7,57.8z"/>
	<path class="st7" d="M27.4,57.8c-0.6-1.3-0.4-2.5,0.3-3.8c1.5-2.6,3-5.2,4.5-7.7c0.4-0.7,0.6-1.4,0.6-2.2c-0.1-1,0-1.9,0-2.9
		c0-0.7,0.3-1.1,1-1.1c1.9,0,3.9,0,5.8,0c0.7,0,1,0.3,1,1c0,0.1,0,0.3,0,0.4c-0.4,2.7,0.5,5.1,2,7.3c1.2,1.7,2.1,3.6,3.1,5.4
		c0.7,1.2,0.9,2.4,0.3,3.7C39.8,57.8,33.6,57.8,27.4,57.8z"/>
	<path class="st7" d="M54.7,57.8c-0.6-1.2-0.4-2.4,0.2-3.6c1.5-2.6,3-5.2,4.5-7.7c0.5-0.8,0.7-1.6,0.7-2.6c-0.1-0.9,0-1.8,0-2.7
		c0-0.7,0.3-1.1,1-1.1c1.9,0,3.9,0,5.8,0c0.7,0,1,0.3,1,1c0,0.1,0,0.2,0,0.3c-0.4,2.8,0.5,5.2,2,7.5c1.1,1.7,2,3.5,3,5.2
		c0.7,1.2,0.9,2.4,0.3,3.8C67.1,57.8,60.9,57.8,54.7,57.8z"/>
	<path class="st3" d="M54.7,85c-0.6-1.3-0.4-2.5,0.3-3.7c1.5-2.5,2.9-5.1,4.4-7.7c0.5-0.8,0.7-1.6,0.7-2.6c-0.1-0.9,0-1.8,0-2.7
		c0-0.7,0.3-1.1,1-1.1c1.9,0,3.9,0,5.8,0c0.7,0,1,0.3,1,1c0,0.1,0,0.2,0,0.3c-0.4,2.8,0.5,5.3,2.1,7.6c1.1,1.6,2,3.4,3,5.1
		c0.7,1.2,0.9,2.4,0.4,3.8C67.1,85,60.9,85,54.7,85z"/>
	<path class="st3" d="M27.4,85c-0.6-1.3-0.4-2.5,0.4-3.8c1.5-2.6,3-5.2,4.5-7.7c0.4-0.7,0.6-1.4,0.6-2.2c0-1,0-1.9,0-2.9
		c0-0.7,0.3-1.1,1-1.1c1.9,0,3.9,0,5.8,0c0.7,0,1,0.3,1,1c0,0.1,0,0.3,0,0.4c-0.4,2.7,0.4,5.1,2,7.3c1.1,1.7,2,3.5,3.1,5.3
		c0.7,1.2,0.9,2.4,0.3,3.8C39.8,85,33.6,85,27.4,85z"/>
</g>
</svg>
