<?xml version="1.0" encoding="utf-8"?>
<!-- Generator: Adobe Illustrator 23.1.0, SVG Export Plug-In . SVG Version: 6.00 Build 0)  -->
<svg version="1.1" id="Layer_1" xmlns="http://www.w3.org/2000/svg" xmlns:xlink="http://www.w3.org/1999/xlink" x="0px" y="0px"
	 viewBox="0 0 100 100" style="enable-background:new 0 0 100 100;" xml:space="preserve">
<style type="text/css">
	.st0{fill:#5BD79C;}
	.st1{fill:#FEDF4A;}
	.st2{fill:#FEDF4C;}
	.st3{fill:#3DB677;}
	.st4{fill:#FCDF4B;}
	.st5{fill:#5BD79D;}
	.st6{fill:#4AC588;}
	.st7{fill:#5C575E;}
	.st8{fill:#F9F6F0;}
	.st9{fill:#4AC587;}
	.st10{fill:#DEDCD9;}
	.st11{fill:#FCDE4A;}
	.st12{fill:#464E56;}
</style>
<polygon class="st0" points="16.3,22.4 91.5,23.7 91.5,71.2 79.7,87.5 20,87.5 16.3,78.8 "/>
<g>
	<path class="st1" d="M28.4,6.6C33.1,4.3,38,2.8,43.2,2C44.1,1.9,45,2,45.9,1.6c2.6,0,5.2,0,7.8,0c0.9,0.4,1.9,0.3,2.8,0.4
		c5.2,0.8,10.1,2.2,14.9,4.6c-1,0.6-1.9,1.1-2.6,2c-2.7,3.1-2.8,6.8-0.4,10.5c-9,0-18.1,0-27.1,0c-3.3,0-6.5,0-9.8,0
		c1-1.5,1.7-3.1,1.7-4.9C33.1,10.7,31.4,8.2,28.4,6.6z"/>
	<path class="st2" d="M95.5,33.5c1.2,3,1.9,6.1,2.5,9.3c0.2,1.3,0.2,2.6,0.6,3.8c0,2.5,0,4.9,0,7.4c-0.4,1.2-0.4,2.4-0.6,3.6
		c-0.5,3.2-1.2,6.3-2.5,9.3c0-5.7,0-11.3,0-17C95.5,44.5,95.5,39,95.5,33.5z"/>
	<path class="st3" d="M85,83.8c-1.2,1.3-2.5,2.6-4,3.7c-0.4,0-0.9,0-1.3-0.1c0-1.5,0-3,0-4.5c0-0.4-0.1-0.7-0.2-1.1
		c-0.7-1.7-2.1-2.4-3.8-2.4c-17.2,0-34.4,0-51.6,0c-0.1,0-0.3,0-0.4,0c-2.1,0.1-3.8,1.9-3.7,3.8c0.1,1.4,0,2.8,0,4.2
		c-0.4,0-0.9,0-1.3,0.1c-1.3,0-2.7,0-4,0c0-4.7,0-9.4,0-14.1c1.4-0.1,2.7-0.5,4-0.9c0.3-0.1,0.6-0.1,0.9-0.2
		c0.6,0.9,1.5,1.4,2.6,1.5c0.8,0.1,1.6,0,2.3,0c1,0,2.1,0,3.1,0c1.1,0,2-0.5,2.7-1.5c0.6-0.9,0.7-2,0.7-3.1c1.5-0.4,3-0.9,4.6-1.2
		c0,0.8,0,1.5,0,2.3c0,1.6,0.9,2.8,2.4,3.3c1,0.3,2.1,0.1,3.1,0.2c0.9,0,1.9,0,2.8,0c2.1,0.1,3.7-1.7,3.6-3.6c-0.1-1.8,0-3.5,0-5.3
		c1.5-0.4,3-0.8,4.6-1.3c0,2.1,0,4.2,0,6.3c0,1.9,0.9,3.2,2.6,3.7c1,0.3,1.9,0.1,2.9,0.1c1.1,0,2.2,0,3.3,0c1.7,0,3.1-1.5,3.2-3.1
		c0-3.4,0-6.8,0-10.2c1.6-0.5,3.2-0.9,4.8-1.3c0,3.8,0,7.5,0,11.3c0,1.6,1,2.8,2.6,3.2c0.9,0.2,1.8,0.1,2.7,0.1c1.1,0,2.1,0,3.2,0
		c1.9,0,3.3-1.5,3.3-3.3c0-4.8,0-9.7,0-14.5c1.5-0.4,2.9-0.8,4.4-1.2C85,64.5,85,74.2,85,83.8z"/>
	<path class="st4" d="M18.7,87.5c0.4,0,0.9,0,1.3-0.1c0.3,0,0.6,0,0.9,0c19.3,0,38.7,0,58,0c0.3,0,0.6,0,0.9,0c0.4,0,0.9,0,1.3,0.1
		c-3.9,3.4-8.3,6-13.1,7.9c-4.7,1.9-9.6,3-14.7,3.3c-12.9,0.8-24.3-3-34.4-11.1C18.8,87.6,18.7,87.6,18.7,87.5z"/>
	<path class="st5" d="M95.5,33.5c0,5.5,0,10.9,0,16.4c0,5.7,0,11.3,0,17c-0.9,3-2.4,5.7-4,8.4c-0.7,1.2-1.4,2.4-2.3,3.4
		c0-8.4,0-16.7,0-25.1c0.4-0.1,0.8-0.2,1.2-0.4c2.4-0.8,3.8-3,3.1-5.4c-1.4-5.5-3-11-4.4-16.5c0.3-0.3,0.1-0.7,0.1-1
		c0-3.6,0.1-7.2,0-10.8c0-1.8,0.7-2.9,2.3-3.6c2.8-0.1,4,1,4,3.7C95.5,24.4,95.5,28.9,95.5,33.5z"/>
	<path class="st6" d="M10.3,90.6c-1.1,0.1-2.3,0.1-3.4,0c-1.7-0.3-2.7-1.5-2.7-3.2c0-6.4,0-12.8,0-19.3c0-0.4,0-0.8,0-1.2
		c0-8,0-15.9,0-23.9c0-3.2,0-6.3,0-9.5c0-4.7,0-9.4,0-14c0-2.3,1.2-3.5,3.5-3.5c0.9,0,1.8,0,2.8,0c-1.9,0.8-2.3,2.3-2.3,4.2
		c0,9.7,0,19.3,0,29c-2.1,1.7-2.6,3.2-1.9,5.8c0.7,2.4,1.3,4.9,1.9,7.3c0,8.4,0,16.7,0,25.1c0,0.8,0.4,1.4,0.8,2.1
		C9.4,90,10,90.1,10.3,90.6z"/>
	<path class="st0" d="M8.2,49.3c0-9.7,0-19.3,0-29c0-1.9,0.4-3.4,2.3-4.2c1.4-0.2,2.6,0.1,3.6,1.2c0.4,0.6,0.4,1.2,0.6,1.8
		c0,9.4,0,18.9,0,28.3c-1.1,0.3-2.3,0.6-3.4,1c-0.1,0-0.1,0.1-0.2,0.1l0,0C10.1,48.6,9.1,48.9,8.2,49.3z"/>
	<path class="st0" d="M10.3,90.6C10,90.1,9.4,90,9,89.5c-0.4-0.6-0.8-1.3-0.8-2.1c0-8.4,0-16.7,0-25.1c0.7,2.5,1.4,5,2.1,7.6
		c0.6,2.1,2.1,3.4,4.4,3.5c0,4.7,0,9.4,0,14.1c-0.2,1.3-0.7,2.4-2.1,2.9C11.9,90.6,11.1,90.7,10.3,90.6z"/>
	<path class="st7" d="M28.4,6.6c3,1.7,4.7,4.1,4.7,7.6c0,1.8-0.7,3.4-1.7,4.9c-4.3,0-8.7,0-13,0c-1-1.3-1.5-2.8-1.7-4.4
		c0.1-4.3,2.1-7.2,5.7-8.4C24.4,5.6,26.4,5.8,28.4,6.6z M20.6,14c0,2.4,1.9,4.4,4.3,4.4c2.4,0,4.4-2,4.4-4.4c0-2.4-1.9-4.3-4.3-4.4
		C22.5,9.7,20.6,11.6,20.6,14z"/>
	<path class="st6" d="M89.2,53.7c0,8.4,0,16.7,0,25.1c-1.2,1.9-2.6,3.5-4.2,5.1c0-9.7,0-19.3,0-29C86.4,54.4,87.8,54.1,89.2,53.7z"
		/>
	<path class="st2" d="M4.2,33.5c0,3.2,0,6.3,0,9.5c0,8,0,15.9,0,23.9C3,64,2.3,61,1.8,57.9c-0.5-3.1-0.7-6.3-0.6-9.4
		C1.5,43.3,2.3,38.3,4.2,33.5z"/>
	<path class="st4" d="M16.8,14.7c0.2,1.6,0.7,3.1,1.7,4.4c-1.2,0-2.5,0-3.7,0c-0.2-0.6-0.3-1.3-0.6-1.8C15,16.4,15.7,15.4,16.8,14.7
		z"/>
	<path class="st3" d="M14.7,19.1c1.2,0,2.5,0,3.7,0c4.3,0,8.7,0,13,0c3.3,0,6.5,0,9.8,0c9,0,18.1,0,27.1,0c4.3,0,8.7,0,13,0
		c1.2,0,2.5,0,3.7,0c0,3.2,0,6.4,0,9.7c-1.5,0.1-2.9,0.8-4.4,1c0.1-1.6,0-3.1-1.5-4c-1.6-0.9-3.4-0.7-5.1-0.4c-0.7,0-1.5,0-2.2,0
		c-1.5,0-2.9,1.3-2.9,2.7c-0.1,1.6-0.1,3.2,0,4.8c-1.6,0.4-3.2,0.9-4.8,1.3c0-1.8,0-3.6,0-5.4c0-1.8-0.9-3-2.7-3.5
		c-1.3-0.3-2.6-0.1-4-0.1c-0.9,0.1-1.8,0.1-2.7,0.2c-1.4,0.2-2.6,1.9-2.6,3.6c0,2.8,0,5.6,0,8.3c-1.4,0.5-2.8,0.9-4.3,1.2
		c-0.4-0.3-0.3-0.7-0.3-1c0-2.9,0-5.8,0-8.7c0-0.7-0.2-1.4-0.6-2c-1-1.6-3.8-2.2-6.1-1.4c-0.7,0-1.5,0-2.2,0c-1.4,0-2.6,1-3,2.3
		c-0.2,0.8-0.2,1.5-0.2,2.3c0,3.9,0,7.9,0.1,11.8c-1.5,0.5-3.1,0.9-4.6,1.2c0-4.6,0-9.3,0-13.9c0-2.4-1.6-3.9-3.9-3.9
		c-0.9,0-1.8,0-2.7,0c-0.6,0.2-1.1,0.2-1.7,0.2c-2.4-0.2-3.7,1.6-3.6,3.6c0.1,5.8,0,11.5,0,17.3c-1.4,0.4-2.9,0.9-4.4,1.2
		C14.7,38,14.7,28.5,14.7,19.1z"/>
	<path class="st7" d="M81.3,19c-4.3,0-8.7,0-13,0c-2.4-3.7-2.2-7.4,0.4-10.5c0.7-0.8,1.7-1.4,2.6-2c3-1.1,5.9-1,8.5,1.1
		c2.3,1.8,3.2,4.2,3.1,7C82.8,16.3,82.2,17.7,81.3,19z M79.1,14c0-2.4-1.9-4.3-4.3-4.3c-2.4,0-4.4,1.9-4.4,4.4
		c0,2.4,2.1,4.4,4.4,4.4C77.2,18.4,79.1,16.4,79.1,14z"/>
	<path class="st6" d="M85,28.7c0-3.2,0-6.4,0-9.7c0.1-0.7,0.3-1.3,0.6-1.8c0.8-0.9,1.8-1.3,3-1.2c0.9,0.1,1.9,0,2.8,0
		c-1.6,0.7-2.3,1.8-2.3,3.6c0.1,3.6,0,7.2,0,10.8c0,0.3,0.1,0.7-0.1,1C88.2,29.8,86.8,28.9,85,28.7z"/>
	<path class="st4" d="M85.6,17.2c-0.3,0.6-0.5,1.2-0.6,1.8c-1.2,0-2.5,0-3.7,0c1-1.3,1.5-2.8,1.7-4.4C84,15.4,84.8,16.4,85.6,17.2z"
		/>
	<path class="st8" d="M85,28.7c1.8,0.2,3.2,1,4,2.7c1.5,5.5,3,11,4.4,16.5c0.6,2.4-0.7,4.7-3.1,5.4c-0.4,0.1-0.8,0.2-1.2,0.4
		c-1.4,0.4-2.8,0.8-4.2,1.1c-1.5,0.4-2.9,0.8-4.4,1.2c-1.5,0.4-2.9,0.8-4.4,1.2c-2.5,0.6-5,1.2-7.4,2c-1.6,0.3-3.2,0.8-4.8,1.3
		c-1.5,0.3-2.9,0.7-4.4,1.2c-2.6,0.6-5.1,1.3-7.6,2c-1.5,0.4-3,0.8-4.6,1.3c-1.5,0.3-2.9,0.7-4.4,1.2c-2.5,0.6-5.1,1.3-7.6,2.1
		c-1.5,0.3-3,0.8-4.6,1.2c-1.5,0.4-3.1,0.7-4.6,1.3c-2.3,0.5-4.6,1.2-6.8,1.8c-0.3,0.1-0.6,0.1-0.9,0.2c-1.7-0.6-3.1-1.5-3.6-3.4
		c-1.1-4.2-2.3-8.4-3.4-12.7c-0.5-1.8-1.2-3.6-1.3-5.5c0-0.9,0.5-1.6,0.5-2.5c0,0,0,0,0,0c0.1,0,0.1-0.1,0.2-0.1
		c1.1-0.3,2.3-0.6,3.4-1c1.5-0.3,2.9-0.7,4.4-1.2c2.5-0.7,5-1.3,7.4-2c1.5-0.4,3-0.8,4.5-1.2c1.6-0.3,3.1-0.8,4.6-1.2
		c2.5-0.7,5-1.4,7.5-2c1.6-0.3,3.1-0.8,4.6-1.3c1.5-0.3,2.9-0.7,4.3-1.2c2.6-0.5,5.1-1.3,7.6-2c1.5-0.4,2.9-0.8,4.4-1.2
		c1.6-0.4,3.2-0.9,4.8-1.3c2.5-0.6,4.9-1.2,7.4-2c1.5-0.3,2.9-0.7,4.4-1.2C82.1,29.5,83.5,28.8,85,28.7z M30.6,54.7
		c0.5,0.3,0.5,0.6,0.7,0.9c1.1,2.2,2.1,4.4,3.2,6.6c0.5,1,1.3,1.3,2.1,0.9c0.8-0.4,1-1.2,0.5-2.1c-1.9-3.9-3.8-7.9-5.7-11.8
		c-0.5-1-1.2-1.4-2-1.2C28.5,48.2,28,48.9,28,50c-0.1,2.9-0.1,5.8-0.2,8.6c0,0.3,0.1,0.5-0.1,0.8c-1.7-2.7-3.3-5.4-5-8.1
		c-0.5-0.8-1.1-1.2-2.1-0.9c-0.9,0.3-1.3,1-1.2,1.9c0.1,1,0.2,2,0.2,3c0.3,3.3,0.5,6.7,0.8,10c0.1,1.1,0.7,1.7,1.6,1.6
		c0.9-0.1,1.3-0.7,1.2-1.9c-0.1-1.6-0.3-3.2-0.4-4.7c-0.1-1.1-0.2-2.2-0.2-3.3c0.3,0.2,0.5,0.5,0.7,0.8c1.3,2.1,2.6,4.3,3.9,6.4
		c0.5,0.8,1.1,1.2,2,1c0.9-0.2,1.3-0.9,1.3-1.9c0-0.2,0-0.4,0-0.7C30.6,60.1,30.6,57.5,30.6,54.7z M56.5,41.1
		c-4.5,0-8.3,3.6-8.3,8.1c0,4.6,3.6,8.4,8.2,8.4c4.6,0,8.3-3.7,8.3-8.2C64.7,44.8,61,41.1,56.5,41.1z M72.3,46.8
		c0.2-0.1,0.3-0.2,0.5-0.3c2.1-1.4,2.9-3.9,2-6.1c-0.9-2.2-3.4-3.4-5.9-2.9c-1.2,0.3-2.4,0.6-3.6,0.9c-1,0.3-1.4,0.9-1.1,1.9
		c1.1,4.3,2.3,8.5,3.4,12.8c0.3,1,0.9,1.4,1.8,1.2c0.8-0.2,1.2-0.9,1-2c-0.3-1.3-0.7-2.6-1-3.9c0.4-0.2,0.7,0.1,0.9,0.3
		c1.5,1,2.9,2,4.4,2.9c0.1,0.1,0.2,0.1,0.2,0.2c1.1,0.7,2,0.7,2.5-0.1c0.5-0.8,0.2-1.5-0.9-2.3C75.2,48.7,73.8,47.8,72.3,46.8z
		 M41.4,44.9C40.2,45,38.6,45.6,37,46c-1.1,0.3-1.5,0.9-1.2,2c1.1,4.3,2.3,8.5,3.4,12.8c0.3,1,1,1.4,1.8,1.2c0.8-0.2,1.2-1,0.9-1.9
		c-0.2-0.9-0.5-1.7-0.7-2.6c-0.4-1.6-0.4-1.6,1.1-2.1c0.4-0.1,0.8-0.2,1.2-0.4c2.4-0.9,3.9-3.4,3.5-5.8
		C46.7,46.7,44.5,44.9,41.4,44.9z M74.4,37c0,1,0.8,1.6,1.7,1.4c0.5-0.1,1.1-0.2,1.6-0.4c0.7-0.3,0.9,0,1,0.6
		c0.9,3.6,1.9,7.2,2.9,10.8c0.3,1,0.9,1.5,1.8,1.3c0.9-0.2,1.2-0.9,1-2c-0.8-3.1-1.6-6.2-2.5-9.3c-0.2-0.7-0.7-1.6-0.5-2.2
		c0.2-0.6,1.3-0.5,2-0.7c0,0,0.1,0,0.1,0c0.8-0.3,1.2-1,1-1.8c-0.2-0.7-0.9-1.2-1.7-1c-2.4,0.6-4.9,1.3-7.3,2
		C74.8,35.9,74.4,36.4,74.4,37z M18,67c0-0.2,0-0.4-0.1-0.6c-1.1-4.3-2.3-8.5-3.4-12.8c-0.3-1-1-1.4-1.9-1.2c-0.8,0.2-1.1,1-0.9,1.9
		c0.5,1.8,1,3.7,1.5,5.5c0.7,2.5,1.3,4.9,2,7.4c0.3,0.9,0.9,1.3,1.7,1.1C17.6,68.3,18,67.8,18,67z"/>
	<path class="st9" d="M79.7,87.5c-0.3,0-0.6,0-0.9,0c-19.3,0-38.7,0-58,0c-0.3,0-0.6,0-0.9,0c0-1.4,0.1-2.8,0-4.2
		c-0.1-1.9,1.6-3.7,3.7-3.8c0.1,0,0.3,0,0.4,0c17.2,0,34.4,0,51.6,0c1.8,0,3.1,0.7,3.8,2.4c0.2,0.4,0.2,0.7,0.2,1.1
		C79.7,84.5,79.7,86,79.7,87.5z"/>
	<path class="st10" d="M11,48.5c-0.1,0.8-0.6,1.6-0.5,2.5c0.1,1.9,0.8,3.7,1.3,5.5c1.1,4.2,2.2,8.4,3.4,12.7
		c0.5,1.9,1.9,2.8,3.6,3.4c-1.3,0.4-2.6,0.9-4,0.9c-2.2-0.1-3.8-1.4-4.4-3.5c-0.7-2.5-1.4-5-2.1-7.6c-0.6-2.4-1.2-4.9-1.9-7.3
		c-0.7-2.6-0.3-4.1,1.9-5.8C9.1,48.9,10.1,48.6,11,48.5z"/>
	<path class="st0" d="M68.9,59.2c2.4-0.8,4.9-1.4,7.4-2c0,4.5,0,9,0,13.6c0,0.7-0.3,1.4-0.8,1.9c-0.4,0.4-1,0.5-1.2,1.1
		c-0.9,0-1.8,0.1-2.7-0.1c-1.6-0.4-2.6-1.6-2.6-3.2C68.9,66.7,68.9,62.9,68.9,59.2z"/>
	<path class="st0" d="M52.1,63.6c2.5-0.7,5-1.4,7.6-2c0,2.7,0,5.3,0,8c0,1.7-0.3,3.1-1.9,3.9c-0.1,0-0.1,0.2-0.2,0.3
		c-1,0-2,0.2-2.9-0.1c-1.7-0.5-2.6-1.8-2.6-3.7C52.1,67.8,52.1,65.7,52.1,63.6z"/>
	<path class="st6" d="M74.2,73.8c0.2-0.6,0.9-0.7,1.2-1.1c0.5-0.6,0.8-1.2,0.8-1.9c0-4.5,0-9,0-13.6c1.5-0.4,2.9-0.8,4.4-1.2
		c0,4.8,0,9.7,0,14.5c0,1.9-1.4,3.3-3.3,3.3C76.3,73.8,75.2,73.8,74.2,73.8z"/>
	<path class="st6" d="M57.6,73.8c0.1-0.1,0.1-0.3,0.2-0.3c1.6-0.8,2-2.2,1.9-3.9c0-2.7,0-5.3,0-8c1.4-0.5,2.9-0.9,4.4-1.2
		c0,3.4,0,6.8,0,10.2c0,1.7-1.5,3.1-3.2,3.1C59.9,73.8,58.7,73.8,57.6,73.8z"/>
	<path class="st0" d="M35.6,68.1c2.5-0.8,5.1-1.4,7.6-2.1c0,1.2,0,2.4,0,3.7c0,1.5-0.4,2.8-1.8,3.7c-0.2,0.1-0.3,0.2-0.3,0.4
		c-1-0.1-2.1,0.2-3.1-0.2c-1.5-0.5-2.4-1.7-2.4-3.3C35.6,69.6,35.6,68.8,35.6,68.1z"/>
	<path class="st6" d="M41.1,73.8c0-0.2,0.1-0.3,0.3-0.4c1.4-0.8,1.8-2.1,1.8-3.7c0-1.2,0-2.4,0-3.7c1.4-0.4,2.9-0.9,4.4-1.2
		c0,1.8,0,3.5,0,5.3c0.1,1.9-1.6,3.8-3.6,3.6C43,73.7,42.1,73.8,41.1,73.8z"/>
	<path class="st6" d="M26.5,70.5c1.5-0.5,3-0.9,4.6-1.3c0.1,1.1-0.1,2.1-0.7,3.1c-0.6,1-1.5,1.4-2.7,1.5c-1,0-2.1,0-3.1,0
		c0.1-0.5,0.5-0.6,0.8-0.9C26.1,72.2,26.6,71.5,26.5,70.5z"/>
	<path class="st5" d="M26.5,70.5c0.1,1-0.4,1.7-1.1,2.4c-0.3,0.3-0.7,0.4-0.8,0.9c-0.8,0-1.6,0.1-2.3,0c-1.1-0.1-2-0.6-2.6-1.5
		C21.9,71.7,24.2,71,26.5,70.5z"/>
	<path class="st10" d="M11.3,48.4c-0.1,0-0.1,0.1-0.2,0.1C11.1,48.4,11.2,48.4,11.3,48.4z"/>
	<path class="st11" d="M20.6,14c0-2.5,1.9-4.4,4.4-4.3c2.4,0,4.3,2,4.3,4.4c0,2.4-2.1,4.4-4.4,4.4C22.5,18.4,20.6,16.4,20.6,14z"/>
	<path class="st0" d="M26.5,44.2c-2.5,0.7-5,1.3-7.4,2c0-5.8,0-11.5,0-17.3c0-2,1.3-3.8,3.6-3.6c0.6,0,1.1,0,1.7-0.2
		c0,0.3,0.2,0.4,0.4,0.5c1.3,0.8,1.7,1.9,1.7,3.4C26.5,34.1,26.5,39.2,26.5,44.2z"/>
	<path class="st0" d="M43.2,39.8c-2.5,0.7-5,1.4-7.5,2c0-3.9,0-7.9-0.1-11.8c0-0.8-0.1-1.5,0.2-2.3c0.4-1.3,1.6-2.3,3-2.3
		c0.7,0,1.5,0,2.2,0c1.8,1,2.3,2.5,2.3,4.5C43.2,33.1,43.2,36.4,43.2,39.8z"/>
	<path class="st6" d="M26.5,44.2c0-5.1,0-10.1,0-15.2c0-1.5-0.4-2.7-1.7-3.4c-0.2-0.1-0.4-0.2-0.4-0.5c0.9,0,1.8,0,2.7,0
		c2.4,0,3.9,1.5,3.9,3.9c0,4.6,0,9.3,0,13.9C29.5,43.4,28,43.8,26.5,44.2z"/>
	<path class="st0" d="M59.8,35.3c-2.5,0.7-5,1.5-7.6,2c0-2.8,0-5.6,0-8.3c0-1.8,1.2-3.4,2.6-3.6c0.9-0.1,1.8-0.1,2.7-0.2
		c0,0.2,0.1,0.3,0.3,0.4c1.4,0.8,2,1.9,2,3.6C59.7,31.2,59.8,33.3,59.8,35.3z"/>
	<path class="st6" d="M43.2,39.8c0-3.3-0.1-6.6,0-9.9c0-2-0.5-3.5-2.3-4.5c2.2-0.8,5.1-0.1,6.1,1.4c0.4,0.6,0.6,1.2,0.6,2
		c0,2.9,0,5.8,0,8.7c0,0.4-0.1,0.8,0.3,1C46.3,39,44.8,39.4,43.2,39.8z"/>
	<path class="st5" d="M76.3,30.9c-2.4,0.8-4.9,1.4-7.4,2c-0.2-1.6-0.1-3.2,0-4.8c0.1-1.4,1.5-2.7,2.9-2.7c0.7,0,1.5,0,2.2,0
		c1,0.6,2,1.2,2.2,2.4C76.4,28.8,76.3,29.8,76.3,30.9z"/>
	<path class="st6" d="M59.8,35.3c0-2.1-0.1-4.1,0-6.2c0.1-1.6-0.6-2.8-2-3.6c-0.2-0.1-0.3-0.2-0.3-0.4c1.3,0,2.6-0.2,4,0.1
		c1.8,0.4,2.7,1.6,2.7,3.5c0,1.8,0,3.6,0,5.4C62.7,34.5,61.2,34.9,59.8,35.3z"/>
	<path class="st6" d="M76.3,30.9c0-1,0.1-2.1-0.1-3.1C76,26.5,75,25.9,74,25.3c1.7-0.3,3.5-0.5,5.1,0.4c1.6,0.9,1.6,2.4,1.5,4
		C79.2,30.2,77.8,30.6,76.3,30.9z"/>
	<path class="st11" d="M79.1,14c0,2.4-1.9,4.4-4.3,4.4c-2.4,0-4.4-2-4.4-4.4c0-2.4,2-4.4,4.4-4.4C77.3,9.7,79.1,11.6,79.1,14z"/>
	<path class="st12" d="M30.6,54.7c0,2.7,0,5.3,0,7.9c0,0.2,0,0.4,0,0.7c0,0.9-0.4,1.6-1.3,1.9c-0.9,0.2-1.6-0.2-2-1
		c-1.3-2.1-2.6-4.3-3.9-6.4c-0.2-0.3-0.3-0.5-0.7-0.8c0.1,1.1,0.2,2.2,0.2,3.3c0.1,1.6,0.3,3.2,0.4,4.7c0.1,1.1-0.3,1.8-1.2,1.9
		c-0.9,0.1-1.5-0.5-1.6-1.6c-0.3-3.3-0.6-6.7-0.8-10c-0.1-1-0.2-2-0.2-3c-0.1-0.9,0.3-1.6,1.2-1.9c0.9-0.3,1.6,0.1,2.1,0.9
		c1.7,2.7,3.3,5.4,5,8.1c0.3-0.3,0.1-0.6,0.1-0.8c0.1-2.9,0.1-5.8,0.2-8.6c0-1.1,0.5-1.7,1.3-1.9c0.8-0.2,1.6,0.2,2,1.2
		c1.9,3.9,3.8,7.8,5.7,11.8c0.4,0.9,0.2,1.8-0.5,2.1c-0.8,0.4-1.6,0-2.1-0.9c-1.1-2.2-2.1-4.4-3.2-6.6C31.1,55.3,31.1,55,30.6,54.7z
		"/>
	<path class="st12" d="M56.5,41.1c4.6,0,8.2,3.7,8.2,8.3c0,4.6-3.7,8.3-8.3,8.2c-4.6,0-8.3-3.8-8.2-8.4
		C48.2,44.7,51.9,41.1,56.5,41.1z M56.4,43.9c-3,0-5.4,2.4-5.4,5.4c0,3,2.5,5.4,5.4,5.4c2.9,0,5.4-2.4,5.4-5.4
		C61.9,46.4,59.5,43.9,56.4,43.9z"/>
	<path class="st12" d="M72.3,46.8c1.5,1,2.9,1.9,4.3,2.9c1.1,0.7,1.4,1.5,0.9,2.3c-0.5,0.8-1.3,0.8-2.5,0.1
		c-0.1-0.1-0.2-0.1-0.2-0.2c-1.5-1-2.9-2-4.4-2.9c-0.3-0.2-0.5-0.5-0.9-0.3c0.4,1.3,0.7,2.6,1,3.9c0.3,1-0.1,1.8-1,2
		c-0.9,0.2-1.5-0.2-1.8-1.2c-1.2-4.3-2.3-8.5-3.4-12.8c-0.3-1,0.1-1.6,1.1-1.9c1.2-0.3,2.4-0.7,3.6-0.9c2.5-0.6,4.9,0.6,5.9,2.9
		c0.9,2.2,0.1,4.7-2,6.1C72.6,46.5,72.5,46.6,72.3,46.8z M69.8,40.2c-0.5,0.1-1.3,0.4-2.1,0.5c-0.4,0.1-0.3,0.3-0.3,0.6
		c0.3,1.1,0.6,2.1,0.9,3.2c0.1,0.3,0.1,0.5,0.5,0.4c0.8-0.3,1.6-0.3,2.3-0.7c0.9-0.5,1.4-1.5,1.1-2.4C72,40.8,71.1,40.2,69.8,40.2z"
		/>
	<path class="st12" d="M41.4,44.9c3.1,0,5.3,1.8,5.7,4.5c0.4,2.4-1.1,4.9-3.5,5.8c-0.4,0.1-0.8,0.3-1.2,0.4
		c-1.6,0.4-1.6,0.4-1.1,2.1c0.2,0.9,0.5,1.7,0.7,2.6c0.2,0.9-0.2,1.7-0.9,1.9c-0.8,0.2-1.6-0.2-1.8-1.2c-1.2-4.3-2.3-8.5-3.4-12.8
		c-0.3-1.1,0.1-1.8,1.2-2C38.6,45.6,40.2,45,41.4,44.9z M41.5,47.7c-0.5,0-1.3,0.4-2,0.5C39,48.3,38.9,48.6,39,49
		c0.3,1.2,0.6,2.4,1,3.6c0.1,0.3,0.2,0.6,0.6,0.4c0.7-0.2,1.5-0.4,2.2-0.7c1.1-0.4,1.7-1.6,1.5-2.7C44,48.5,43,47.7,41.5,47.7z"/>
	<path class="st12" d="M74.4,37c0-0.6,0.4-1.1,1.1-1.3c2.4-0.7,4.9-1.3,7.3-2c0.8-0.2,1.5,0.2,1.7,1c0.2,0.8-0.2,1.5-1,1.8
		c0,0-0.1,0-0.1,0c-0.7,0.3-1.8,0.1-2,0.7c-0.2,0.6,0.3,1.4,0.5,2.2c0.8,3.1,1.7,6.2,2.5,9.3c0.3,1.1-0.1,1.8-1,2
		c-0.8,0.2-1.5-0.2-1.8-1.3c-1-3.6-2-7.2-2.9-10.8c-0.2-0.6-0.4-0.9-1-0.6c-0.5,0.2-1,0.3-1.6,0.4C75.2,38.6,74.4,38,74.4,37z"/>
	<path class="st12" d="M18,67c0,0.8-0.4,1.3-1.1,1.4c-0.8,0.2-1.4-0.2-1.7-1.1c-0.7-2.5-1.3-4.9-2-7.4c-0.5-1.8-1-3.7-1.5-5.5
		c-0.2-0.9,0.1-1.7,0.9-1.9c0.8-0.2,1.6,0.2,1.9,1.2c1.2,4.3,2.3,8.5,3.4,12.8C18,66.7,18,66.9,18,67z"/>
	<path class="st8" d="M56.4,43.9c3,0,5.4,2.4,5.4,5.4c0,3-2.4,5.4-5.4,5.4c-3,0-5.4-2.4-5.4-5.4C51,46.3,53.4,43.9,56.4,43.9z"/>
	<path class="st8" d="M69.8,40.2c1.3,0,2.2,0.6,2.5,1.5c0.2,0.9-0.2,1.9-1.1,2.4c-0.7,0.4-1.6,0.5-2.3,0.7c-0.3,0.1-0.4-0.1-0.5-0.4
		c-0.3-1.1-0.6-2.1-0.9-3.2c-0.1-0.3-0.1-0.5,0.3-0.6C68.5,40.5,69.2,40.3,69.8,40.2z"/>
	<path class="st8" d="M41.5,47.7c1.5,0,2.5,0.8,2.7,1.9c0.2,1-0.4,2.3-1.5,2.7c-0.7,0.3-1.4,0.4-2.2,0.7c-0.4,0.1-0.6-0.1-0.6-0.4
		c-0.3-1.2-0.6-2.4-1-3.6c-0.1-0.5,0-0.7,0.5-0.8C40.3,48.1,41,47.8,41.5,47.7z"/>
</g>
</svg>
