<?xml version="1.0" encoding="utf-8"?>
<!-- Generator: Adobe Illustrator 23.1.0, SVG Export Plug-In . SVG Version: 6.00 Build 0)  -->
<svg version="1.1" id="Layer_1" xmlns="http://www.w3.org/2000/svg" xmlns:xlink="http://www.w3.org/1999/xlink" x="0px" y="0px"
	 viewBox="0 0 100 100" style="enable-background:new 0 0 100 100;" xml:space="preserve">
<style type="text/css">
	.st0{fill:#5FD2AE;}
	.st1{fill:#B1E9D7;}
	.st2{fill:#8FDDCA;}
	.st3{fill:#F9A10B;}
	.st4{fill:#FCC005;}
</style>
<g>
	<path class="st0" d="M51.7,1.5c2.9,2.9,5.5,6.3,8.8,8.9c4.9,3.9,10.5,6.2,16.7,7.2c4.1,0.7,8.3,0.3,12.5,0.4c1.6,0,2,0.4,2,2
		c0,11.4-0.1,22.9,0,34.3c0.1,6.6-1.8,12.6-5.3,18.1c-5.5,8.9-13.2,15.6-22,21c-3.8,2.4-7.8,4.4-12.1,5.7c-0.7,0.2-1.3,0.2-1.9,0
		c-10.1-3.7-19-9.4-26.5-17.1c-4.9-5-8.9-10.6-11.3-17.2c-1.1-3.1-1.8-6.4-1.8-9.7c0-11.8,0-23.5,0-35.3c0-1.3,0.4-1.8,1.8-1.8
		c2.7,0,5.4,0.1,8.1,0c9.5-0.3,17.7-3.6,24.3-10.4c1.9-2,3.8-4,5.6-5.9C50.9,1.5,51.3,1.5,51.7,1.5z M53.6,16.2
		c-0.4-0.5-0.9-0.9-1.3-1.4c-0.8-0.7-1.6-0.7-2.4,0c-3.4,3.3-7.2,5.8-11.5,7.8c-5.5,2.6-11.2,3.8-17.2,4c-1.4,0-1.8,0.3-1.8,1.8
		c0,8.7,0,17.5,0,26.2c0,3.4,0.9,6.6,2.3,9.6c2.3,5.1,5.9,9.3,10,13.2c0.7,0.7,1.3,1.5,2.2,1.8c0.2,0.3,0.4,0.5,0.7,0.8
		c4.9,3.8,10,7.3,15.9,9.5c0.7,0.3,1.2,0.3,1.9,0c4.2-1.8,8.1-4.1,11.8-6.8c5.7-4.1,10.7-9,14.5-14.9c2.6-4.1,4.2-8.6,4.1-13.6
		c-0.1-3.9,0-7.8,0-11.7c0-4.7,0-9.3,0-14c0-1.3-0.5-1.8-1.8-1.8c-1,0-1.9-0.1-2.8-0.2c-3-0.2-5.8-0.8-8.6-1.6
		C63.6,23.1,58.3,20.1,53.6,16.2z"/>
	<path class="st1" d="M53.6,16.2c4.7,3.9,10,6.9,15.9,8.7c2.8,0.8,5.7,1.4,8.6,1.6c0.9,0.1,1.9,0.2,2.8,0.2c1.3,0,1.8,0.5,1.8,1.8
		c0,4.7,0,9.3,0,14c0,3.9-0.1,7.8,0,11.7c0.1,5-1.4,9.5-4.1,13.6c-3.8,6-8.8,10.8-14.5,14.9c-3.7,2.7-7.6,4.9-11.8,6.8
		c-0.7,0.3-1.2,0.2-1.9,0c-5.9-2.2-11-5.6-15.9-9.5c-0.3-0.2-0.5-0.5-0.7-0.8c0-0.6-0.5-0.8-0.8-1.1c-3.8-3.6-7-7.7-9.2-12.6
		c-1.1-2.6-2-5.3-2-8.1c-0.1-9.1,0-18.2,0-27.2c0-1.1,0.5-1.6,1.6-1.6c2.7,0,5.3-0.3,7.9-0.8c7.7-1.7,14.5-5,20.3-10.4
		C52.3,16.9,52.7,16.3,53.6,16.2z M41.6,67.1L41.6,67.1c2.9-1.6,5.8-3.1,8.7-4.7c0.6-0.3,1.1-0.3,1.7,0c3.4,1.9,6.9,3.8,10.3,5.7
		c0.5,0.3,1,0.5,1.5,0.1c0.5-0.3,0.4-0.8,0.3-1.3c-0.7-3.7-1.4-7.5-2.2-11.2c-0.2-1-0.1-1.7,0.7-2.4c2.8-2.5,5.6-5.1,8.4-7.6
		c0.8-0.7,0.8-1.6,0.1-2c-0.3-0.2-0.7-0.2-1.1-0.3c-3.8-0.5-7.7-0.9-11.5-1.3c-0.7-0.1-1-0.4-1.2-0.9c-1.3-2.8-2.6-5.5-3.9-8.3
		c-0.4-0.8-0.7-1.6-1.1-2.4c-0.2-0.5-0.5-1-1.1-1c-0.7,0-1,0.5-1.2,1c-1.6,3.6-3.3,7.1-4.9,10.7c-0.2,0.5-0.5,0.8-1.2,0.9
		c-3.9,0.4-7.9,0.9-11.8,1.4c-0.6,0.1-1.1,0.2-1.3,0.9c-0.2,0.7,0.3,1,0.7,1.4c2.9,2.7,5.8,5.3,8.7,8c0.4,0.3,0.5,0.7,0.4,1.2
		C39.7,59,39,63,38.2,66.9c-0.1,0.4-0.3,0.9,0.2,1.2c0.5,0.4,0.9,0.3,1.4,0c0.5-0.3,0.9-0.5,1.4-0.8C41.3,67.3,41.5,67.2,41.6,67.1z
		"/>
	<path class="st2" d="M53.6,16.2c-0.8,0-1.3,0.7-1.9,1.2c-5.8,5.4-12.6,8.7-20.3,10.4c-2.6,0.6-5.2,0.9-7.9,0.8
		c-1.1,0-1.6,0.5-1.6,1.6c0,9.1-0.1,18.2,0,27.2c0,2.8,0.8,5.5,2,8.1c2.1,4.9,5.3,9,9.2,12.6c0.3,0.3,0.8,0.6,0.8,1.1
		c-1-0.3-1.6-1.2-2.2-1.8c-4.1-3.8-7.7-8-10-13.2c-1.4-3-2.3-6.2-2.3-9.6c0-8.7,0-17.5,0-26.2c0-1.5,0.3-1.8,1.8-1.8
		c6-0.2,11.8-1.5,17.2-4c4.2-2,8.1-4.5,11.5-7.8c0.8-0.8,1.6-0.7,2.4,0C52.7,15.3,53.2,15.7,53.6,16.2z"/>
	<path class="st3" d="M53.4,33c1.3,2.8,2.6,5.5,3.9,8.3c0.3,0.5,0.5,0.9,1.2,0.9c3.8,0.4,7.7,0.9,11.5,1.3c0.4,0,0.8,0.1,1.1,0.3
		c0.7,0.4,0.7,1.3-0.1,2c-2.8,2.6-5.5,5.1-8.4,7.6c-0.8,0.7-0.9,1.4-0.7,2.4c0.8,3.7,1.5,7.4,2.2,11.2c0.1,0.5,0.2,1-0.3,1.3
		c-0.5,0.4-1,0.2-1.5-0.1c-3.4-1.9-6.9-3.8-10.3-5.7c-0.6-0.3-1.1-0.3-1.7,0c-2.9,1.6-5.8,3.1-8.7,4.7c0-0.4,0.2-0.7,0.5-1
		c2.4-3.3,4.5-6.9,6-10.7c1.3-3.2,2.4-6.4,3.2-9.7c0.7-2.9,1.2-5.9,1.6-8.8C53,35.6,52.9,34.3,53.4,33z"/>
	<path class="st4" d="M53.4,33c-0.4,1.3-0.3,2.6-0.5,3.9c-0.4,3-0.9,5.9-1.6,8.8c-0.8,3.3-1.9,6.5-3.2,9.7c-1.6,3.8-3.6,7.4-6,10.7
		c-0.2,0.3-0.5,0.6-0.5,1c0,0,0,0,0,0c-0.2,0-0.3,0-0.4,0.2c-0.5,0.3-0.9,0.5-1.4,0.8c-0.5,0.3-1,0.3-1.4,0
		c-0.4-0.3-0.3-0.8-0.2-1.2C39,63,39.7,59,40.5,55c0.1-0.6,0-0.9-0.4-1.2c-2.9-2.7-5.8-5.3-8.7-8c-0.4-0.4-0.9-0.7-0.7-1.4
		c0.2-0.7,0.7-0.8,1.3-0.9c3.9-0.4,7.9-0.9,11.8-1.4c0.6-0.1,0.9-0.4,1.2-0.9c1.6-3.6,3.3-7.1,4.9-10.7c0.2-0.5,0.5-1.1,1.2-1
		c0.6,0,0.9,0.5,1.1,1C52.6,31.4,53,32.2,53.4,33z"/>
	<path class="st3" d="M41.2,67.4c0-0.2,0.2-0.3,0.4-0.2C41.5,67.2,41.3,67.3,41.2,67.4z"/>
</g>
</svg>
