<?xml version="1.0" encoding="utf-8"?>
<!-- Generator: Adobe Illustrator 23.1.0, SVG Export Plug-In . SVG Version: 6.00 Build 0)  -->
<svg version="1.1" id="Layer_1" xmlns="http://www.w3.org/2000/svg" xmlns:xlink="http://www.w3.org/1999/xlink" x="0px" y="0px"
	 viewBox="0 0 1920 1920" style="enable-background:new 0 0 1920 1920;" xml:space="preserve">
<style type="text/css">
	.st0{fill:#FDD503;}
	.st1{fill:#EF4626;}
	.st2{fill:#FEFDF9;}
	.st3{fill:#EEE1DC;}
	.st4{fill:#E0D2CD;}
	.st5{fill:#FE5528;}
	.st6{fill:#FDD504;}
	.st7{fill:#FE5427;}
	.st8{fill:#EF4728;}
	.st9{fill:#FAC702;}
	.st10{fill:#FED405;}
	.st11{fill:#CCBFBA;}
	.st12{fill:#595259;}
</style>
<g>
	<path class="st0" d="M1018.1,1893.7c-26-23.1-23.7-41.7,7.6-58.1c31-16.2,64.4-24.2,99.1-25.4c12.8-0.5,18-3,17.4-17.2
		c-1.2-34.4-0.7-68.9-0.9-103.3c0.2-38.6,0.3-77.3,0.5-115.9c0.1-22.1,10.5-35.1,27.8-35c17.3,0.1,27.1,12.7,27.3,35.3
		c0.3,36.2,0.5,72.4,0.8,108.7c-0.2,39.3-0.3,78.6-0.9,117.9c-0.1,9.2,3.2,12.2,12.2,13.7c22.1,3.8,43.3,10.6,63.3,21.1
		c31.1,16.3,33.7,35,8,58.3c-6.1,0-12.1,0-18.2,0c-75.3-40.7-150.5-40.9-225.8,0C1030.2,1893.7,1024.2,1893.7,1018.1,1893.7z"/>
	<path class="st1" d="M413.4,32.4c0.1-1,0.2-2.1,0.3-3.1c15.8,0,31.6,0,47.3,0c1.2,3.6,4.7,3,7.4,4c39.1,14.5,62.7,42.3,66.9,83.9
		c3.6,37-11.1,66.8-41.3,88.8c-1.9,1.4-3.7,3-5.5,4.5c-15.5-5.2-31-10.4-46.5-15.7c1.2-2.1,2.2-4.3,3.7-6.2
		c37.9-47,28.9-108.1-20.8-143.4C420.2,42.1,413.5,40,413.4,32.4z"/>
	<path class="st2" d="M1036.3,1893.7c75.3-40.9,150.5-40.7,225.8,0C1186.8,1893.7,1111.6,1893.7,1036.3,1893.7z"/>
	<path class="st3" d="M441.9,194.9c15.5,5.2,31,10.4,46.5,15.7c87.3,35.2,150.3,96.1,193.5,179.6c44.8,86.5,90.5,172.6,138,257.7
		c29.3,52.5,76.7,80.2,137.1,80.4c219.5,0.7,439,0.4,658.5,0.5c-4.2,9.4-8.4,18.7-12.5,28.2c-15.5,36-34.1,71.5-34.7,111.7
		c-1,61.6-4.7,122.9-14.6,183.9c-12.8,78.7-34.8,154.1-73.9,224.2c-60.2,108.1-149.4,181.3-266,220.5
		c-99.2,33.4-201.3,41.4-305.7,33.2c-60.4-4.8-119.8-13.5-177.9-30c-79.6-22.7-154.7-55.3-222.8-103.3c-23.1-16.2-43-36.7-68.5-49.6
		c-23.3-36.6-36.7-77.4-50.9-118c-26-74.2-53-148-78.7-222.2c-18.5-53.7-28.8-109.2-34.7-165.9c-9.5-90.6,6.4-177.7,29.3-264.4
		c16.6-45.1,33.2-90.1,49.6-135.3c3.9-10.8,1-20.5-7.3-27.9c-7.1-6.4-15.2-11.6-22.9-17.3c-18.6-17-38.3-32.6-58.9-47
		c-17.7-14.5-24.3-36.4-36.4-54.6c0-4.8-0.1-9.6-0.1-14.3c0.7-2.9,1.8-5.8,2.2-8.7c7.6-55.4,42.5-86,98.1-87
		C366.5,184.2,404.4,186.6,441.9,194.9z M770.5,1212.9L770.5,1212.9c12,20.7,29.2,37.4,47.5,51.9c88.2,69.8,204,73.4,296.8,9.4
		c25.4-17.5,46.5-40.3,69.2-61.1c64.1-58.7,128.4-117.3,193.3-175.2c33.1-29.5,46.5-66.2,40.9-108.9c-5.1-39-23.7-70.6-61.4-87.7
		l0.1,0.1c-1.2-1.2-2.4-2.3-3.6-3.5c-15.4-9.4-32.9-14.4-50.1-14.2c-121.7,1.3-243.7-6.8-365.2,3.8C874,833,821.5,865.2,781,915.3
		c-41,50.6-58.6,108.8-54.3,173.8c2.8,42.4,14.2,81.8,40,116.3C766.9,1208.5,767.6,1211.2,770.5,1212.9z M366.9,322.5
		c16.6-0.1,29.4-13.5,29-30.4c-0.4-15.9-13.3-28.7-29-28.6c-16.2,0.1-29.9,14.4-29.4,30.5C337.9,309.4,351.5,322.5,366.9,322.5z"/>
	<path class="st4" d="M439,1347.4c25.5,12.9,45.4,33.4,68.5,49.6c68.2,48,143.2,80.6,222.8,103.3c58.1,16.5,117.4,25.3,177.9,30
		c104.3,8.2,206.5,0.2,305.7-33.2c116.6-39.2,205.7-112.4,266-220.5c39.1-70.1,61.1-145.5,73.9-224.2
		c9.9-60.9,13.5-122.2,14.6-183.9c0.7-40.2,19.2-75.7,34.7-111.7c4.1-9.4,8.3-18.8,12.5-28.2c21.2-0.1,42.5-0.4,63.7-0.2
		c54.7,0.5,96.3,56.5,77.6,107.7c-14.1,38.5-33,75.3-49.8,112.9c-13.2,29.7-18.7,60.4-19.5,93.2c-2.6,106.6-13.7,212-52.2,312.7
		c-22.9,59.9-54.4,114.3-96.8,162.8c-76.6,87.8-175.5,134-287.2,157.2c-17.6,3.7-35.7,5.3-53.6,7.8c-0.3-36.2-0.5-72.4-0.8-108.7
		c-0.2-22.6-10-35.2-27.3-35.3c-17.3-0.1-27.6,12.9-27.8,35c-0.2,38.6-0.3,77.3-0.5,115.9c-75.4,0.9-150.4-2.6-224.6-17.8
		c-5.8-1.2-12.1-0.4-18.1-0.5c-17.3-8.3-35.6-12.9-54.8-13.9c-21-12.3-45-16.9-67.4-25.4c-91.9-34.8-173-86.4-242.1-155.7
		C496.5,1438.4,462.5,1396.5,439,1347.4z"/>
	<path class="st5" d="M441.9,194.9c-37.5-8.3-75.4-10.7-113.7-10.1c-55.6,0.9-90.5,31.6-98.1,87c-0.4,2.9-1.4,5.8-2.2,8.7
		c-39.8-1.8-67.3-26.9-69-62.7c-1.7-35.6,22.9-63.8,60.7-68.3c8.4-1,10.7-3.6,11.8-11.8c7.9-54.8,58.5-83.3,108.8-61.1
		c8.9,3.9,13.1,3.9,18.6-4.8c12.7-20.2,31.7-32.7,54.5-39.4c0.1,7.5,6.8,9.6,11.4,12.9c49.7,35.3,58.7,96.4,20.8,143.4
		C444.1,190.6,443.1,192.9,441.9,194.9z"/>
	<path class="st6" d="M843.9,1657.5c19.2,1,37.4,5.6,54.8,13.9c-14.7,41-29,82.1-44.5,122.8c-5.2,13.5-1.5,17.3,11.6,19.8
		c21.5,4.1,42,11.7,60.6,23.5c15.5,9.9,20.1,24.8,12.3,38.7c-7.9,14-23.1,17.6-39.4,9.7c-69.8-33.9-139.7-34.3-209.6-0.4
		c-16.7,8.1-31.4,5.2-39.7-8.6c-8.6-14.2-3.9-29.8,12.7-39.8c35.1-21.1,74-29.2,114.4-30.8c8.2-0.3,14.7-0.4,18.1-10.3
		C811.1,1749.8,827.6,1703.7,843.9,1657.5z"/>
	<path class="st7" d="M249.1,551.1c-21.4-27.1-19.8-58.6-16-89.9c2.6-21.4,8.5-42.4,12.9-63.7c21.9,0,43.7,0,65.6,0
		c6,29.2,12.6,58,7.5,88.4c-5.6,33.8-27,56.6-60.9,60.4C254.5,546.8,251.2,547.6,249.1,551.1z"/>
	<path class="st8" d="M249.1,551.1c2.1-3.5,5.4-4.2,9.2-4.6c33.9-3.8,55.4-26.6,60.9-60.4c5-30.5-1.6-59.3-7.5-88.4
		c3.9-0.4,7.8-0.7,11.6-1.1c7.7,5.7,15.8,10.9,22.9,17.3c8.3,7.4,11.2,17.1,7.3,27.9c-16.4,45.1-33.1,90.2-49.6,135.3
		C281.8,576.6,261.7,571.7,249.1,551.1z"/>
	<path class="st9" d="M323.3,396.5c-3.9,0.4-7.8,0.7-11.6,1.1c-21.9,0-43.7,0-65.6,0c-21-0.2-42,0-63-0.6
		c-22.9-0.7-30.5-16.6-17.8-36.5c24.7,0.1,49.5,0.1,74.2,0.3c10.1,0.1,19.3-1.4,24.9-11.2C285.1,363.9,304.7,379.5,323.3,396.5z"/>
	<path class="st10" d="M264.4,349.5c-5.6,9.8-14.8,11.3-24.9,11.2c-24.7-0.2-49.5-0.2-74.2-0.3c15.1-27.4,37.4-47.9,62.7-65.5
		C240.1,313.1,246.7,335,264.4,349.5z"/>
	<path class="st4" d="M766.7,1205.5c-25.8-34.5-37.1-73.8-40-116.3c-4.3-65,13.3-123.2,54.3-173.8c40.5-50.1,93-82.4,157.1-87.9
		c121.5-10.5,243.4-2.5,365.2-3.8c17.2-0.2,34.7,4.9,50.1,14.2c1.2,1.2,2.4,2.3,3.6,3.5c0,0-0.1-0.1-0.1-0.1
		c1.2,10.7,2.7,21.5,3.6,32.2c4.3,51.7-25.2,86-60.5,117.5c-71.1,63.5-144.2,124.9-212.1,191.7c-76.8,75.5-207.9,94.3-300.3,35.2
		c-5.2-3.3-10.7-5.8-17.1-5.1c0,0,0.1,0.1,0.1,0.1C770.4,1209.8,769.8,1207,766.7,1205.5z"/>
	<path class="st11" d="M770.4,1212.8c6.4-0.7,11.9,1.8,17.1,5.1c92.5,59.1,223.5,40.3,300.3-35.2c67.9-66.7,141-128.2,212.1-191.7
		c35.3-31.5,64.8-65.8,60.5-117.5c-0.9-10.8-2.4-21.5-3.6-32.2c37.7,17.2,56.3,48.7,61.4,87.7c5.6,42.7-7.8,79.4-40.9,108.9
		c-64.9,57.9-129.2,116.4-193.3,175.2c-22.7,20.8-43.8,43.6-69.2,61.1c-92.8,64-208.7,60.4-296.8-9.4
		C799.6,1250.2,782.5,1233.5,770.4,1212.8z"/>
	<path class="st12" d="M366.9,322.5c-15.4,0.1-28.9-13.1-29.4-28.5c-0.5-16.1,13.2-30.4,29.4-30.5c15.6-0.1,28.6,12.7,29,28.6
		C396.2,309,383.5,322.4,366.9,322.5z"/>
	<path class="st11" d="M766.7,1205.5c3.1,1.5,3.7,4.3,3.8,7.4C767.6,1211.2,766.9,1208.5,766.7,1205.5z"/>
	<path class="st11" d="M1356.9,841.4c-1.2-1.2-2.4-2.3-3.6-3.5C1354.5,839,1355.7,840.2,1356.9,841.4z"/>
</g>
</svg>
