<?xml version="1.0" encoding="utf-8"?>
<!-- Generator: Adobe Illustrator 23.1.0, SVG Export Plug-In . SVG Version: 6.00 Build 0)  -->
<svg version="1.1" id="Layer_1" xmlns="http://www.w3.org/2000/svg" xmlns:xlink="http://www.w3.org/1999/xlink" x="0px" y="0px"
	 viewBox="0 0 1920 1920" style="enable-background:new 0 0 1920 1920;" xml:space="preserve">
<style type="text/css">
	.st0{fill:#E9E9E9;}
	.st1{fill:#D1D1D1;}
	.st2{fill:#FEFEFE;}
	.st3{fill:#FADC56;}
	.st4{fill:#E0C64E;}
	.st5{fill:#D3D3D3;}
	.st6{fill:#EDD152;}
	.st7{fill:#E0C54E;}
	.st8{fill:#BDBDBD;}
	.st9{fill:#FEA6B9;}
	.st10{fill:#C27C59;}
	.st11{fill:#AE7050;}
	.st12{fill:#495158;}
	.st13{fill:#F19EAF;}
</style>
<g>
	<path class="st0" d="M1890.6,931.6c0,43.5,0,87.1,0,130.6c-5.1,0.7-7.2,3.9-7.1,8.8c0.1,17.6-4.6,34.5-7.4,51.7
		c-20.7,124.3-68,238.2-135.3,344.1c-51.5,81.1-116.9,150.1-189.8,212c-27.3,23.2-55.6,45.9-88.2,62.1c-23.9,2.4-47.8,6.4-71.7,6.9
		c-49.8,1-99.5,2.6-149.4-2.7c-65.9-7-129-23.2-189.5-49.7c-116-50.8-203.6-134.6-270.7-240c-59.6-93.7-99.6-196.4-128.6-303.6
		c-14.9-55.2-25.2-111.4-36.8-167.4c5.7-3.3,11.3-6.9,17.2-9.8c77.7-39,155.8-77.2,233.2-116.9c64-32.9,126.5-32.5,190.6,0.1
		c115.1,58.6,231.1,115.6,346.6,173.7c38.2,19.2,76.2,21.2,114.7,2.3c15.7-7.7,30.7-16.7,46-25.1c66-34.2,132.3-67.8,197.8-102.8
		c23-12.3,46-21.1,72.3-18.4c20.2,8.4,38.9,18.8,48.9,39.8C1884.7,930.3,1887.4,931.3,1890.6,931.6z M1505.8,1267.8
		c0.4-13.9-11.9-26.9-25.9-27.6c-14-0.7-26.9,11.2-27.7,25.6c-0.7,12,13.9,27.6,26.2,28C1492.2,1294.3,1505.5,1281.8,1505.8,1267.8z
		 M1577.3,1439.6c13.8-0.3,25.2-11.7,25.3-25.3c0.1-14.2-12.1-25.5-27.4-25.5c-14,0-26.3,12.8-25.7,26.8
		C1550.2,1431.3,1560.2,1440,1577.3,1439.6z"/>
	<path class="st1" d="M29,946.1c2-1.1,5.4-1.8,5.7-3.3c7.4-29,27.3-45.4,54.2-55.1c27.1-3.2,50.5,6.4,74,18.9
		c65,34.7,130.7,68.1,196.1,101.9c15.3,8.5,30.2,17.7,45.9,25.2c29.9,14.3,61,19,92.8,6.5c32.6-12.8,63.5-29.1,94-46.3
		c8.1-3.2,16.3-6.4,24.4-9.6c11.5,55.9,21.8,112.1,36.8,167.4c29,107.1,69,209.8,128.6,303.6c67,105.4,154.7,189.2,270.7,240
		c60.5,26.5,123.6,42.8,189.5,49.7c49.9,5.3,99.6,3.6,149.4,2.7c23.9-0.5,47.8-4.5,71.7-6.9c-110,74.2-231.7,117.3-362,138.5
		c-13.6,2.2-30.2-3.7-41.1,10.3c-6,0-12.1,0-18.1,0c-1.2-2.9-2.4-2.7-3.6,0c-47.2,0-94.3,0-141.5,0c-1.2-1.8-2.4-2.3-3.6,0
		c-2.4,0-4.8,0-7.3,0c-2.4-3.8-4.8-3.9-7.3,0c-6,0-12.1,0-18.1,0c-8.1-13.5-22.7-8.4-33.8-10c-86-12.5-168.5-36.7-247.4-72.6
		c-152.8-69.7-278-173-375-310.1C104.5,1356.6,47.9,1201,36.1,1029.3c-0.4-5.6,1.9-12.8-7.1-14.3c0-14.5,0-29,0-43.5
		c4.7-3.6,4.7-7.3,0-10.9C29,955.8,29,950.9,29,946.1z M628.8,1704.4c14.1,0.5,26.8-11.7,27.4-26c0.4-11.9-14.5-27.5-26.6-27.7
		c-14-0.2-26.9,12.4-27.1,26.5C602.3,1691.1,614.7,1703.9,628.8,1704.4z M479.3,1240.1c-13.1,0-25.4,11.9-25.7,25
		c-0.3,15.3,10.6,27.7,24.8,28.1c14.2,0.4,26.1-11.7,26-26.5C504.3,1249.7,495.2,1240.1,479.3,1240.1z M322.9,1326.7
		c-0.1,16.7,8.8,25.8,25.1,25.8c13.1,0,25.3-11.8,25.7-24.8c0.5-16.5-9.7-26.2-27.3-26C330.7,1301.8,323,1310,322.9,1326.7z"/>
	<path class="st2" d="M29,960.6c4.7,3.6,4.7,7.3,0,10.9C29,967.9,29,964.2,29,960.6z"/>
	<path class="st2" d="M878.2,1889.6c2.4-3.9,4.8-3.8,7.3,0C883,1889.6,880.6,1889.6,878.2,1889.6z"/>
	<path class="st2" d="M892.7,1889.6c1.2-2.3,2.4-1.8,3.6,0C895.1,1889.6,893.9,1889.6,892.7,1889.6z"/>
	<path class="st2" d="M1037.8,1889.6c1.2-2.7,2.4-2.9,3.6,0C1040.2,1889.6,1039,1889.6,1037.8,1889.6z"/>
	<path class="st3" d="M616.1,984.4c-8.1,3.2-16.3,6.4-24.4,9.6c-0.8-4.1-1.3-8.3-2.3-12.4c-18.7-77.2-35.7-154.7-37.8-234.5
		c39.2,22.5,80.5,28.2,123.8,14.3c43.7-14,74.7-49.4,75.8-85.4c1.4-46.6-32-84.6-85.8-97.7c13.1-15.9,17.5-73.4,6.6-89.9
		c-6.2-9.4-15.3-13.6-26.4-11.8c-11.1,1.8-20,8-21.4,19.3c-3.1,25.7-6.2,51.6,3.4,76.8c-26.6,2.6-52.2,8.7-75.8,21.8
		c-2.4-28.6,3.7-56.5,8.4-84.2c16.8-99.5,48.2-194,102.6-279.8c33.1-52.1,71.3-99.6,118-140.5c16.7-14.6,35.6-26.7,50.2-43.6
		c54.9-14.1,111-16.8,167.1-13.6c79,4.5,155.2,22.3,227.2,55.9c133,62.1,234.8,157.3,303.7,287.2c49,92.4,72.7,191.3,73.9,295.7
		c0.2,16.3-1.5,32.5-2.3,48.8c-2.7,25.6-5,51.2-8.3,76.8c-9.1,70.6-18.6,141.1-28,211.6c-15.3,8.4-30.3,17.5-46,25.1
		c-38.5,18.9-76.5,16.9-114.7-2.3c-115.4-58.1-231.4-115.1-346.6-173.7c-64.1-32.6-126.6-33-190.6-0.1
		c-77.3,39.8-155.4,78-233.2,116.9C627.4,977.5,621.8,981.1,616.1,984.4z M976,728.1c32.9-10.4,54.8-36.4,80.3-57
		c18.2-14.7,21.4-36.1,8.1-55.3c-26.8-38.6-55.4-76-83.7-113.5c-7.6-10.1-18-13.7-30.1-6.7c-4.4,1-7.4,3.8-10,7.2
		c-26.7,36.4-54,72.4-80,109.4c-15.8,22.5-12.8,42.8,8.1,60.9c18.1,15.8,37,30.9,56.4,45.1C940.1,729.1,957,735,976,728.1z
		 M1295.7,572.6c9.7-23.3,5.6-47.6,4.6-71.5c-0.7-15.3-11-24.7-26.1-24.9c-16-0.2-26.3,9.6-27.3,25.7c-1.1,18-0.7,36.2-0.2,54.3
		c0.2,8.7,4.6,16.1,11.3,22c-20,4.1-37.6,13.6-53.1,26.1c-41.4,33.2-43.9,89.3-6.3,127.1c44.7,44.8,127.9,50.3,178.3,11.6
		c55.1-42.2,52.4-109.5-5.7-147.7C1348.1,580.1,1322.1,576,1295.7,572.6z"/>
	<path class="st4" d="M1564.3,1008.7c9.3-70.5,18.9-141.1,28-211.6c3.3-25.5,5.6-51.2,8.3-76.8c40.1-14.3,79.4-31.9,123.2-32.4
		c15-0.2,30.2-0.9,45,2.3c61.9,13.7,83.8,62.2,80.2,123.1c-1.5,25.3-7.2,49.9-14.6,74.2c-26.4-2.7-49.3,6.1-72.3,18.4
		C1696.5,940.9,1630.3,974.5,1564.3,1008.7z"/>
	<path class="st5" d="M1505.8,1267.8c-0.4,14-13.6,26.6-27.4,26c-12.3-0.5-26.8-16.1-26.2-28c0.8-14.5,13.6-26.3,27.7-25.6
		C1494,1240.8,1506.2,1253.9,1505.8,1267.8z"/>
	<path class="st5" d="M1577.3,1439.6c-17.1,0.4-27.1-8.3-27.8-24c-0.6-14,11.7-26.9,25.7-26.8c15.3,0,27.5,11.4,27.4,25.5
		C1602.5,1427.9,1591.1,1439.4,1577.3,1439.6z"/>
	<path class="st6" d="M831,46.2c-14.6,16.9-33.6,29-50.2,43.6c-46.7,40.9-85,88.4-118,140.5c-54.4,85.9-85.8,180.3-102.6,279.8
		c-4.7,27.7-10.8,55.6-8.4,84.2c-1.2,1.4-2.4,2.7-3.7,4.1c-55.3,39.7-55.3,104,0,144.2c1.2,1.4,2.4,2.8,3.6,4.3
		c2.1,79.9,19.1,157.3,37.8,234.5c1,4.1,1.6,8.3,2.3,12.4c-30.5,17.2-61.4,33.4-94,46.3c-31.8,12.5-62.9,7.8-92.8-6.5
		c-15.7-7.5-30.6-16.8-45.9-25.2c-1.1-8.9-2.2-17.8-3.4-26.7c-5.4-42.1-11-84.2-16.3-126.3c-5.7-45.1-11.1-90.2-16.7-135.3
		c-7.2-96.7,6.9-190.1,42.4-280.5c37.4-95.3,94.2-176.8,170.2-244.8C616,122.7,709.2,73.5,815,48.7C820.2,47.5,825.6,47,831,46.2z"
		/>
	<path class="st7" d="M322.7,720.2c5.6,45.1,11,90.2,16.7,135.3c5.3,42.1,10.8,84.2,16.3,126.3c1.1,8.9,2.2,17.8,3.4,26.7
		c-65.4-33.9-131.1-67.2-196.1-101.9c-23.5-12.6-46.9-22.1-74-18.9c-10.3-36.6-18.7-73.2-13.1-112c7.1-49.5,41.4-83.1,91.1-87.2
		c38.4-3.2,75.6,2.3,111.7,15.6C293.3,709.5,308,714.8,322.7,720.2z"/>
	<path class="st8" d="M628.8,1704.4c-14-0.5-26.4-13.3-26.3-27.3c0.1-14,13-26.7,27.1-26.5c12.1,0.2,27,15.8,26.6,27.7
		C655.6,1692.7,642.8,1704.9,628.8,1704.4z"/>
	<path class="st8" d="M479.3,1240.1c15.9,0,25,9.7,25.1,26.7c0.1,14.7-11.8,26.9-26,26.5c-14.2-0.4-25.2-12.8-24.8-28.1
		C453.9,1252,466.2,1240,479.3,1240.1z"/>
	<path class="st8" d="M322.9,1326.7c0.1-16.7,7.8-24.9,23.5-25c17.6-0.2,27.8,9.5,27.3,26c-0.4,13-12.6,24.8-25.7,24.8
		C331.7,1352.5,322.8,1343.4,322.9,1326.7z"/>
	<path class="st9" d="M1295.7,572.6c26.4,3.4,52.4,7.5,75.3,22.6c58.1,38.3,60.8,105.5,5.7,147.7c-50.4,38.6-133.6,33.2-178.3-11.6
		c-37.6-37.7-35.2-93.9,6.3-127.1c15.6-12.5,33.2-22,53.1-26.1C1272,586.2,1284.4,582.9,1295.7,572.6z"/>
	<path class="st9" d="M548,598.5c1.2-1.4,2.4-2.7,3.7-4.1c23.6-13.2,49.2-19.2,75.8-21.8c11.4,10.3,23.8,13.6,37.8,5.6
		c53.8,13,87.2,51,85.8,97.7c-1.1,36.1-32.1,71.4-75.8,85.4c-43.3,13.9-84.6,8.2-123.8-14.3c-1.2-1.4-2.4-2.8-3.6-4.3
		C548,694.7,548,646.6,548,598.5z"/>
	<path class="st10" d="M950.6,495.5c12.1-7,22.5-3.4,30.1,6.7c28.3,37.5,56.9,74.9,83.7,113.5c13.3,19.2,10,40.6-8.1,55.3
		c-25.5,20.6-47.4,46.7-80.3,57c-11.5-9.6-22.2-20-27.8-34.3c-14.1-36.8-14.6-75-10.3-113.3C941.2,552,946.3,523.8,950.6,495.5z"/>
	<path class="st11" d="M950.6,495.5c-4.3,28.3-9.4,56.5-12.6,84.9c-4.3,38.3-3.8,76.6,10.3,113.3c5.5,14.4,16.3,24.7,27.8,34.3
		c-19,6.9-35.9,1-50.9-9.9c-19.4-14.2-38.3-29.3-56.4-45.1c-20.8-18.2-23.8-38.5-8.1-60.9c25.9-37,53.2-73,80-109.4
		C943.1,499.3,946.2,496.5,950.6,495.5z"/>
	<path class="st12" d="M665.3,578.2c-14.1,8-26.5,4.7-37.8-5.6c-9.5-25.2-6.5-51.1-3.4-76.8c1.4-11.3,10.3-17.5,21.4-19.3
		c11.2-1.8,20.2,2.4,26.4,11.8C682.8,504.8,678.4,562.3,665.3,578.2z"/>
	<path class="st12" d="M1295.7,572.6c-11.4,10.3-23.8,13.6-37.8,5.6c-6.7-5.8-11-13.2-11.3-22c-0.5-18.1-0.9-36.3,0.2-54.3
		c1-16.1,11.3-25.9,27.3-25.7c15.1,0.2,25.4,9.6,26.1,24.9C1301.4,525,1305.4,549.3,1295.7,572.6z"/>
	<path class="st13" d="M548,598.5c0,48.1,0,96.2,0,144.2C492.7,702.6,492.7,638.2,548,598.5z"/>
</g>
</svg>
