<svg id="Layer_1" data-name="Layer 1" xmlns="http://www.w3.org/2000/svg" viewBox="0 0 141.73 141.73"><defs><style>.cls-1{fill:#a65f2b;}.cls-2{fill:#72c37f;}.cls-3{fill:#07af8e;}.cls-4{fill:#bf7e53;}.cls-5{fill:#179e97;}.cls-6{fill:#b1e0e6;}.cls-7{fill:#149491;}.cls-8{fill:#4cba7b;}.cls-9{fill:#ee8423;}.cls-10{fill:#f79523;}.cls-11{fill:#fbaf19;}.cls-12{fill:#49ba7a;}.cls-13{fill:#e92d3e;}.cls-14{fill:#ffd00f;}.cls-15{fill:#b8212e;}</style></defs><title>1vegetables</title><path class="cls-1" d="M64.78,141.7c-1.52-.69-3.19-.54-4.79-.81A66.67,66.67,0,0,1,35.73,132c.41-.44,1-.25,1.43-.25H104c.48,0,1-.19,1.43.26a66.42,66.42,0,0,1-24.25,8.88c-1.79.29-3.62.21-5.35.81Z"/><path class="cls-2" d="M23,21.37c.6-.34.31-.91.32-1.37,0-4.65.1-9.31,0-14-.08-2.86.88-4.9,3.58-6h2.21c2.73,1.06,3.72,3.08,3.63,6-.13,3.82,0,7.65,0,11.47,0,1.37,0,2.74,0,4.12,0,1.1,0,2.21,0,3.32H23.27C23.16,23.73,23.54,22.51,23,21.37Z"/><path class="cls-3" d="M128.63,33a15.39,15.39,0,0,1,8.15,6.63,14.5,14.5,0,0,1-.08,15.18c-.27.48-.56.94-.84,1.41l-1.16,1.16a14.52,14.52,0,0,1-17.43,2.8,2.12,2.12,0,0,0-2.7.2c-2.47.6-4.91,1.41-7.52.85-.76-.16-1.54-.2-2.31-.29l-3.39-1.62c-.87-.38-1.54-1.74-2.72-.74A17.65,17.65,0,0,1,93,61.47l-2.74.3A14.42,14.42,0,0,1,80,58.5c-.6-.47-.89-.25-1.17.28-1.52.48-2.74,1.63-4.37,1.86a14.23,14.23,0,0,1-7.55-5.25c-4.65-6.28-3.72-15.46,2.51-20.16,4.66-3.51,4.9-3.67,9.65-.31a1.59,1.59,0,0,0,2.08,0C85.91,31.77,91,31.35,96,34c2.1,1.11,3.35,1.31,5.51-.07,4.57-2.93,9.55-2.88,14.42-.32.48.25.92.55,1.55.24A15.93,15.93,0,0,1,128.63,33Zm4.5,17.91a2.06,2.06,0,0,0-1.86-2.14,2.08,2.08,0,1,0-.3,4.14A2.13,2.13,0,0,0,133.13,50.87Zm-11.51,1.18a2.12,2.12,0,0,0,2.1-2.08,2,2,0,0,0-1.92-2.07,2.08,2.08,0,1,0-.18,4.15ZM127.53,41a2.08,2.08,0,1,0,0,4.15,2.12,2.12,0,0,0,2-2.16A2,2,0,0,0,127.53,41Z"/><path class="cls-4" d="M105.45,132c-.41-.45-1-.26-1.43-.26H37.16c-.48,0-1-.19-1.43.25a63.94,63.94,0,0,1-13.17-10.27A28.33,28.33,0,0,1,19.17,118l2.19,0h8.83l3.54,0,5.85,0H75.06l3.85,0,4.67,0h36.21l2.21,0A62.38,62.38,0,0,1,105.45,132Z"/><path class="cls-5" d="M128.63,33a15.93,15.93,0,0,0-11.14.91c-.63.31-1.07,0-1.55-.24-4.87-2.56-9.85-2.61-14.42.32-2.16,1.38-3.41,1.18-5.51.07-5-2.67-10.1-2.25-14.88.89a1.59,1.59,0,0,1-2.08,0c-4.75-3.36-5-3.2-9.65.31-6.23,4.7-7.16,13.88-2.51,20.16a14.23,14.23,0,0,0,7.55,5.25A12.09,12.09,0,0,1,66.9,61c-6.32-1.56-11-6.73-11.52-12.77a14.87,14.87,0,0,1,9.15-15.36c.36-.15.85-.19.85-.76.22.06.46.21.65.17a16.9,16.9,0,0,1,7.08-.22c.76.13.81-.31.72-.92-.92-6.37,1.47-11.22,6.62-14.94,2.46-1.78,4.81-1.82,7.17,0,1.73,1.32,1.39,1.41,3.46-.41a.77.77,0,0,0,.27,0c5.06-3,10.18-2.95,15.35-.3.31.17.64.43,1,.17,1.17-.77,2.57-.91,3.82-1.47a15.9,15.9,0,0,1,10.13,1.67A14.83,14.83,0,0,1,128.63,33Zm-17.15-7.75a2.08,2.08,0,1,0,0,4.15,2.08,2.08,0,0,0,0-4.15Zm12.25,1a2,2,0,0,0-1.91-2.11,2.08,2.08,0,1,0-.06,4.15A2,2,0,0,0,123.73,26.21Zm-5.54-6.13A2,2,0,0,0,116.25,18a2.08,2.08,0,1,0,0,4.14A2,2,0,0,0,118.19,20.08Z"/><path class="cls-6" d="M65.38,32.13c0,.57-.49.61-.85.76a14.87,14.87,0,0,0-9.15,15.36c.54,6,5.2,11.21,11.52,12.77a12.09,12.09,0,0,0,7.54-.38c1.63-.23,2.85-1.38,4.37-1.86,1.78,3.15,3.58,6.3,5.35,9.46C86.09,71.68,88.23,75,90,78.55l-1.4.3a28.23,28.23,0,0,0-10.31-8.94l.68-.68c1.35-1.33,1.35-1.33,0-2.64a14.37,14.37,0,0,0-18.81-.91c-.88.67-1.42.78-2.31,0a12.36,12.36,0,0,0-6.34-2.81,10.76,10.76,0,0,0-4.95-.13c1.79-8.33,3.56-16.68,5.39-25,.85-3.85.4-7.31-2.55-10.17-2.12-2-4.78-2.6-7.6-2.69,1.23-2.2,2.5-4.38,3.7-6.59,1.65-3.06,3.74-5.89,5-9.17a68.9,68.9,0,0,1,23.08-3A59.48,59.48,0,0,1,85.62,7.83a19.41,19.41,0,0,0-2.29,4.07c-.24.69-.28,1.57-.74,2s-1.47-.06-2.24-.08A14.86,14.86,0,0,0,65.38,32.13Z"/><path class="cls-6" d="M122,118l-2.21,0c.25-.44.48-.88.74-1.31A22.58,22.58,0,0,0,124,104.83c0-8.91-3.83-16-10.91-21.21a9.46,9.46,0,0,1-3.48-4.94,42.22,42.22,0,0,1-1.28-7.31l6.28-11a2.12,2.12,0,0,1,2.7-.2,14.52,14.52,0,0,0,17.43-2.8l1.16-1.16a28.44,28.44,0,0,1,1.67,7,63,63,0,0,1,.83,13.16,69,69,0,0,1-5.81,25,70.64,70.64,0,0,1-10,16.08A3.65,3.65,0,0,1,122,118Z"/><path class="cls-7" d="M65.38,32.13a14.86,14.86,0,0,1,15-18.27c.77,0,1.64.68,2.24.08s.5-1.35.74-2a19.41,19.41,0,0,1,2.29-4.07,15.35,15.35,0,0,1,9.15-5.16,12.76,12.76,0,0,1,6.51.48C95.49,5.43,92,9.53,91.08,15.78c-2.07,1.82-1.73,1.73-3.46.41-2.36-1.79-4.71-1.75-7.17,0-5.15,3.72-7.54,8.57-6.62,14.94.09.61,0,1.05-.72.92A16.9,16.9,0,0,0,66,32.3C65.84,32.34,65.6,32.19,65.38,32.13Z"/><path class="cls-8" d="M50.45,9.14c-1.24,3.28-3.33,6.11-5,9.17-1.2,2.21-2.47,4.39-3.7,6.59H32.68c0-1.11,0-2.22,0-3.32A36.89,36.89,0,0,0,36,15.81c2.07-3.09,3.73-6.42,5.66-9.58A4.66,4.66,0,0,1,49.09,5.1,5.12,5.12,0,0,1,50.45,9.14Z"/><path class="cls-3" d="M91.08,15.78C92,9.53,95.49,5.43,101.28,3.15a14.57,14.57,0,0,1,10.26,11c-1.25.56-2.65.7-3.82,1.47-.38.26-.71,0-1-.17-5.17-2.65-10.29-2.73-15.35.3A.77.77,0,0,1,91.08,15.78Z"/><path class="cls-6" d="M36,15.81a36.89,36.89,0,0,1-3.35,5.77c0-1.38,0-2.75,0-4.12C34,17.27,34.72,15.94,36,15.81Z"/><path class="cls-6" d="M21.36,117.9l-2.19,0a27,27,0,0,1-3.55-4.36A67.68,67.68,0,0,1,4,86.7a66.29,66.29,0,0,1,2.9-35.77c.74,3.24,1.47,6.48,2.21,9.73.44,2.79,1.08,5.53,1.76,8.27.76,3.7,1.48,7.41,2.45,11.07A73.33,73.33,0,0,0,15,88c.07.44.13.89.23,1.32.73,3.26,1.47,6.51,2.2,9.77a60.16,60.16,0,0,0,1.68,7.73c0,.31,0,.63.1.94C19.93,111.16,20.65,114.53,21.36,117.9Z"/><path class="cls-9" d="M6.74,50.1c-.57-2.76-1.35-5.48-1.7-8.29l8.56,0c5,0,10,0,14.92,0a4.15,4.15,0,1,1,0,8.3c-4.24,0-8.47,0-12.71,0Z"/><path class="cls-8" d="M23,21.37c.55,1.14.17,2.36.28,3.53L20.49,25l-6.21-.09c-2.67-4.67-5.37-9.32-8-14a4.59,4.59,0,0,1,3.4-7.07,4.17,4.17,0,0,1,4.38,2C17.09,11,20,16.19,23,21.37Z"/><path class="cls-10" d="M14.28,24.89l6.21.09c-1.66.73-3.45,1.12-4.87,2.43-2.85,2.65-3.57,5.82-2.92,9.53a30.9,30.9,0,0,1,.9,4.85L5,41.81c-.7-2.7-1.62-5.39-1.36-8.23a9.53,9.53,0,0,1,9.22-8.64Z"/><path class="cls-10" d="M6.74,50.1l9.07,0a8.48,8.48,0,0,0,.25,2.45c.59,2.68,1.13,5.37,1.68,8l-8.64,0c-.74-3.25-1.47-6.49-2.21-9.73Z"/><path class="cls-11" d="M17.74,60.62c-.55-2.68-1.09-5.37-1.68-8a8.48,8.48,0,0,1-.25-2.45c4.24,0,8.47,0,12.71,0a4.15,4.15,0,1,0,0-8.3c-5,0-9.94,0-14.92,0a30.9,30.9,0,0,0-.9-4.85c-.65-3.71.07-6.88,2.92-9.53C17,26.1,18.83,25.71,20.49,25l2.78-.08h18.5c2.82.09,5.48.65,7.6,2.69,3,2.86,3.4,6.32,2.55,10.17-1.83,8.32-3.6,16.67-5.39,25a14.53,14.53,0,0,0-6.76,3.06c-2.34,1.92-2.34,1.92-.19,4.05A29.5,29.5,0,0,0,26.84,82.74c-.16-.15-.39-.27-.47-.45a4.18,4.18,0,0,0-4.46-2.59L19.68,69.21c1.51,0,3,.05,4.55,0A4.33,4.33,0,0,0,28,67.24a4.28,4.28,0,0,0-3.76-6.6C22.06,60.59,19.9,60.62,17.74,60.62Z"/><path class="cls-2" d="M114.57,60.34l-6.28,11c-.12-.48-.05-1-.47-1.47-1.08.63-1.76,1.78-2.84,2.52-.52-1.25-.59-2.56-1.34-3.73-1.6,2-3.07,4-4.69,5.9a9.39,9.39,0,0,1-5,3.44c-1.29.27-2.63.35-4,.52-1.75-3.54-3.89-6.87-5.82-10.31-1.77-3.16-3.57-6.31-5.35-9.46.28-.53.57-.75,1.17-.28a14.42,14.42,0,0,0,10.25,3.27A16.35,16.35,0,0,0,93,66.69c.91,2.42,2.55,4.45,3.68,6.75.35.72.69.29,1-.17q1.84-3.28,3.71-6.57l3.41-5.8c.77.09,1.55.13,2.31.29C109.66,61.75,112.1,60.94,114.57,60.34Z"/><path class="cls-12" d="M101.33,66.7Q99.47,70,97.62,73.27c-.26.46-.6.89-1,.17-1.13-2.3-2.77-4.33-3.68-6.75,0-1.74,0-3.48,0-5.22a17.65,17.65,0,0,0,5.66-2.93c1.18-1,1.85.36,2.72.74C101.34,61.75,101.34,64.23,101.33,66.7Z"/><path class="cls-12" d="M133.13,50.87a2.08,2.08,0,0,1-4.15-.08,2.16,2.16,0,0,1,2.29-2.06A2.06,2.06,0,0,1,133.13,50.87Z"/><path class="cls-12" d="M121.62,52.05a2.08,2.08,0,1,1,.18-4.15A2,2,0,0,1,123.72,50,2.12,2.12,0,0,1,121.62,52.05Z"/><path class="cls-12" d="M127.53,41a2,2,0,0,1,2,2,2.12,2.12,0,0,1-2,2.16,2.08,2.08,0,1,1,0-4.15Z"/><path class="cls-6" d="M101.33,66.7c0-2.47,0-5,0-7.42l3.39,1.62Z"/><path class="cls-6" d="M93,61.47c0,1.74,0,3.48,0,5.22a16.35,16.35,0,0,1-2.76-4.92Z"/><path class="cls-13" d="M78.27,69.91a28.23,28.23,0,0,1,10.31,8.94A36,36,0,0,0,83,81.11,24,24,0,0,0,70.3,107.72a28.38,28.38,0,0,0,4.76,10.18H39.58c-.27-.31-.52-.64-.81-.92A28.24,28.24,0,0,1,29.9,92a28.61,28.61,0,0,1,7.58-16.16c1.43-1.57,3.2-2.75,4.71-4.21l3,1.12c-.4.43-.7.75-1,1.09a12.89,12.89,0,0,0-3.41,8.32c0,.63-.19,1.49.88,1.54a15.15,15.15,0,0,0,4.88-.43A18.26,18.26,0,0,0,58.27,77c.44-.52.66-.87,1.29-.12,4.27,5.06,9.91,6.89,16.34,6.83.81,0,1.1-.24,1.12-1.1a12.14,12.14,0,0,0-2.64-7.81c-.52-.68-1.09-1.31-1.73-2.07A17.72,17.72,0,0,0,78.27,69.91Z"/><path class="cls-11" d="M75.06,117.9a28.38,28.38,0,0,1-4.76-10.18A24,24,0,0,1,83,81.11a36,36,0,0,1,5.63-2.26l1.4-.3c1.32-.17,2.66-.25,4-.52a9.39,9.39,0,0,0,5-3.44c1.62-1.87,3.09-3.87,4.69-5.9.75,1.17.82,2.48,1.34,3.73,1.08-.74,1.76-1.89,2.84-2.52.42.45.35,1,.47,1.47a42.22,42.22,0,0,0,1.28,7.31,9.46,9.46,0,0,0,3.48,4.94c7.08,5.25,10.92,12.3,10.91,21.21a22.58,22.58,0,0,1-3.43,11.76c-.26.43-.49.87-.74,1.31h-8c.22-.41.4-.84.64-1.22a29.94,29.94,0,0,0,4.56-15.5c.19-6.55-1.47-12.66-6-17.62A10.65,10.65,0,0,0,105.73,80a.25.25,0,0,0,0-.09s0,0-.07,0l.11.12a13.86,13.86,0,0,1,3.6,5.93,31,31,0,0,1,1.15,12.21,55.7,55.7,0,0,1-2.85,13c-.82,2.35-2.13,4.47-3,6.79H98a3,3,0,0,1,.12-.68,102.36,102.36,0,0,0,4.8-15.23,88.35,88.35,0,0,0,2.25-13.81,19,19,0,0,0-.44-7.26c-.75-2.32-2.17-2.65-3.82-.86a5.61,5.61,0,0,0-.41.55c-3.16,4.06-4.93,8.82-6.59,13.6a104.52,104.52,0,0,0-5.28,23.69h-5a31.5,31.5,0,0,1-.2-11.37,47.43,47.43,0,0,1,6.27-18.39c2.16-3.52,4.67-6.73,8.49-8.61a24.2,24.2,0,0,1,2.48-.88c-.24-.39-.55-.29-.8-.29-5.4,0-9.89,2.19-13.78,5.73A26.78,26.78,0,0,0,79.23,94a30.56,30.56,0,0,0-2.08,17.52c.41,2.17,1.15,4.24,1.76,6.34Z"/><path class="cls-14" d="M88.59,117.88a104.52,104.52,0,0,1,5.28-23.69c1.66-4.78,3.43-9.54,6.59-13.6a5.61,5.61,0,0,1,.41-.55c1.65-1.79,3.07-1.46,3.82.86a19,19,0,0,1,.44,7.26A88.35,88.35,0,0,1,102.88,102a102.36,102.36,0,0,1-4.8,15.23,3,3,0,0,0-.12.68Z"/><path class="cls-15" d="M42.19,71.67c-1.51,1.46-3.28,2.64-4.71,4.21A28.61,28.61,0,0,0,29.9,92,28.24,28.24,0,0,0,38.77,117c.29.28.54.61.81.92l-5.85,0a47.79,47.79,0,0,1-4.1-4.43,34.2,34.2,0,0,1-4.19-7.73,40.56,40.56,0,0,1-1.63-7.22c.05-2.79-.16-5.59.5-8.34l.61-2.71,1.92-4.74A29.5,29.5,0,0,1,39.58,69.87Z"/><path class="cls-14" d="M78.91,117.87c-.61-2.1-1.35-4.17-1.76-6.34A30.56,30.56,0,0,1,79.23,94,26.78,26.78,0,0,1,86,84.08c3.89-3.54,8.38-5.75,13.78-5.73.25,0,.56-.1.8.29a24.2,24.2,0,0,0-2.48.88c-3.82,1.88-6.33,5.09-8.49,8.61a47.43,47.43,0,0,0-6.27,18.39,31.5,31.5,0,0,0,.2,11.37Z"/><path class="cls-14" d="M104.63,117.89c.87-2.32,2.18-4.44,3-6.79a55.7,55.7,0,0,0,2.85-13,31,31,0,0,0-1.15-12.21,13.86,13.86,0,0,0-3.6-5.93h0A10.65,10.65,0,0,1,111,83.55c4.55,5,6.21,11.07,6,17.62a29.94,29.94,0,0,1-4.56,15.5c-.24.38-.42.81-.64,1.22Z"/><path class="cls-10" d="M25.44,105.75a34.2,34.2,0,0,0,4.19,7.73c-.4.33-.23.72-.14,1.12.26,1.09.47,2.19.7,3.29H21.36c-.71-3.37-1.43-6.74-2.13-10.12-.06-.31-.07-.63-.1-.94.77,0,1.54,0,2.3,0C22.88,106.87,24.35,107,25.44,105.75Z"/><path class="cls-11" d="M30.19,117.89c-.23-1.1-.44-2.2-.7-3.29-.09-.4-.26-.79.14-1.12a47.79,47.79,0,0,0,4.1,4.43Z"/><path class="cls-12" d="M111.48,25.21a2.08,2.08,0,0,1,0,4.15,2.08,2.08,0,1,1,0-4.15Z"/><path class="cls-12" d="M123.73,26.21a2,2,0,0,1-2,2,2.08,2.08,0,1,1,.06-4.15A2,2,0,0,1,123.73,26.21Z"/><path class="cls-12" d="M118.19,20.08a2,2,0,0,1-1.92,2.08,2.08,2.08,0,1,1,0-4.14A2,2,0,0,1,118.19,20.08Z"/><path class="cls-3" d="M78.27,69.91a17.72,17.72,0,0,1-5.62,2.79c.64.76,1.21,1.39,1.73,2.07A12.14,12.14,0,0,1,77,82.58c0,.86-.31,1.09-1.12,1.1-6.43.06-12.07-1.77-16.34-6.83-.63-.75-.85-.4-1.29.12a18.26,18.26,0,0,1-11.72,6.34,12.59,12.59,0,0,1,3.66-9.61c.73-.74.79-1-.29-1.41a13.48,13.48,0,0,1-5.78-3.62c-.59-.65-.7-1,0-1.66a18.11,18.11,0,0,1,7.35-4.12,12.36,12.36,0,0,1,6.34,2.81c.89.76,1.43.65,2.31,0a14.37,14.37,0,0,1,18.81.91c1.36,1.31,1.36,1.31,0,2.64ZM59.52,74.17a14.74,14.74,0,0,0,4-.86c1.27-.45,2.55-1.1,2.54-2.53s-1.4-2.13-2.65-2.64c-1.42-.59-3-.52-4.42-.84a11.17,11.17,0,0,0-5.77,1.44c-2,1.16-1.91,3,.09,4.13A10.88,10.88,0,0,0,59.52,74.17Z"/><path class="cls-5" d="M51.48,62.89A18.11,18.11,0,0,0,44.13,67c-.69.64-.58,1,0,1.66a13.48,13.48,0,0,0,5.78,3.62c1.08.36,1,.67.29,1.41a12.59,12.59,0,0,0-3.66,9.61,15.15,15.15,0,0,1-4.88.43c-1.07,0-.9-.91-.88-1.54a12.89,12.89,0,0,1,3.41-8.32c.3-.34.6-.66,1-1.09l-3-1.12-2.61-1.8c-2.15-2.13-2.15-2.13.19-4.05a14.53,14.53,0,0,1,6.76-3.06A10.76,10.76,0,0,1,51.48,62.89Z"/><path class="cls-9" d="M17.74,60.62c2.16,0,4.32,0,6.48,0A4.28,4.28,0,0,1,28,67.24a4.33,4.33,0,0,1-3.75,1.94c-1.52.08-3,0-4.55,0-2.05,0-4.1,0-6.14,0a5,5,0,0,1-2.68-.26c-.68-2.74-1.32-5.48-1.76-8.27Z"/><path class="cls-9" d="M26.84,82.74l-1.92,4.74A1.51,1.51,0,0,0,23.8,88H15a73.33,73.33,0,0,1-1.71-8c.4-.46.94-.27,1.42-.27,2.4,0,4.79,0,7.18,0a4.18,4.18,0,0,1,4.46,2.59C26.45,82.47,26.68,82.59,26.84,82.74Z"/><path class="cls-10" d="M21.91,79.7c-2.39,0-4.78,0-7.18,0-.48,0-1-.19-1.42.27-1-3.66-1.69-7.37-2.45-11.07a5,5,0,0,0,2.68.26c2,0,4.09,0,6.14,0Q20.79,74.46,21.91,79.7Z"/><path class="cls-10" d="M15,88H23.8a5.66,5.66,0,0,0,.51,2.18c-.66,2.75-.45,5.55-.5,8.34H18.63c-.46,0-1.06-.19-1.18.57-.73-3.26-1.47-6.51-2.2-9.77C15.15,88.91,15.09,88.46,15,88Z"/><path class="cls-9" d="M17.45,99.11c.12-.76.72-.56,1.18-.57h5.18a40.56,40.56,0,0,0,1.63,7.22c-1.09,1.27-2.56,1.12-4,1.09-.76,0-1.53,0-2.3,0A60.16,60.16,0,0,1,17.45,99.11Z"/><path class="cls-14" d="M105.73,80l-.11-.12s.06,0,.07,0a.25.25,0,0,1,0,.09Z"/><path class="cls-11" d="M24.31,90.19A5.66,5.66,0,0,1,23.8,88a1.51,1.51,0,0,1,1.12-.53C24.71,88.38,24.51,89.29,24.31,90.19Z"/><path class="cls-2" d="M59,67.3c1.46.32,3,.25,4.42.84,1.25.51,2.64,1.14,2.65,2.64s-1.27,2.08-2.54,2.53a14.74,14.74,0,0,1-4,.86c-.58-.51-1.36-.46-2-.72-1.36-.53-2.88-1.23-2.82-2.78s1.6-2.15,3-2.65C58.1,67.85,58.84,68.08,59,67.3Z"/><path class="cls-8" d="M59,67.3c-.14.78-.88.55-1.33.72-1.38.5-2.92,1.12-3,2.65s1.46,2.25,2.82,2.78c.67.26,1.45.21,2,.72a10.88,10.88,0,0,1-6.22-1.3c-2-1.14-2.07-3-.09-4.13A11.17,11.17,0,0,1,59,67.3Z"/></svg>