<svg id="Layer_1" data-name="Layer 1" xmlns="http://www.w3.org/2000/svg" viewBox="0 0 141.73 141.73"><defs><style>.cls-1{fill:#f79653;}.cls-2{fill:#815e47;}.cls-3{fill:#fffefd;}.cls-4{fill:#ffdbac;}.cls-5{fill:#dc864a;}.cls-6{fill:#e15e64;}.cls-7{fill:#9fb06c;}.cls-8{fill:#c67842;}.cls-9{fill:#56b79b;}.cls-10{fill:#78c5aa;}.cls-11{fill:#f1c27e;}.cls-12{fill:#f8b131;}.cls-13{fill:#ef9e28;}.cls-14{fill:#e48e26;}.cls-15{fill:#fdc05b;}.cls-16{fill:#e1af6d;}</style></defs><title>1miscellaneous</title><path class="cls-1" d="M0,68.79V59.13c.39-.18.26-.55.31-.85A50.09,50.09,0,0,1,11,33.8a14.75,14.75,0,0,1,12.16-6,23.08,23.08,0,0,1,6.42.81A2.1,2.1,0,0,0,32,27.94a7.07,7.07,0,0,1,8.43-2.27A17.06,17.06,0,0,0,53.61,27a73.19,73.19,0,0,1,8.2-2.26,13.31,13.31,0,0,1,7.4,1.76,41.22,41.22,0,0,1,5,3.09c.49.35.83.54,1.42.07a8.23,8.23,0,0,1,7.64-1.56c4.58,2.41,7.62,6.3,10.26,10.57a11.87,11.87,0,0,0,.21,1.35A35.69,35.69,0,0,1,94.9,52.21c-.45,5.32-3.39,8.76-9.13,8.86a23.15,23.15,0,0,1-7.69-1.41c-.1-.59-.19-1.18-.3-1.76C76.33,49.6,74.46,41.41,71,33.66c-.43-1,0-1.28.71-1.68s1.31-.87.76-1.75-1.23-.62-1.93-.22a1.9,1.9,0,0,0-.37.2,1.42,1.42,0,0,1-2.07-.1,16.24,16.24,0,0,0-4.59-2.5c-.81-.33-1.62-.41-2,.55s.44,1.28,1.13,1.59c.34.15.69.27,1,.42A10.55,10.55,0,0,1,70,36.89c1,3,2.08,6,2.86,9.07a87.87,87.87,0,0,1,3,15.66,20.39,20.39,0,0,1-13,10.19c0-1.14,0-2.29,0-3.44,0-.59-.15-1.12-.86-1.19a1.09,1.09,0,0,0-1.26,1,12.49,12.49,0,0,0-.1,1.51c-.08.9.19,1.84-.28,2.7a37.19,37.19,0,0,1-13.83-.29A119.57,119.57,0,0,1,47.13,57c.62-7.08,1.41-14.15,2.13-21.23.1-.91.22-1.82.28-2.73.05-.71-.16-1.34-1-1.43s-1.15.43-1.25,1.16-.2,1.18-.26,1.77c-.49,4.79-1,9.59-1.47,14.38-.59,5.57-1,11.15-1.33,16.74-.17,3-.14,6,0,8.94-.67.16-.89.77-1.22,1.25a16.07,16.07,0,0,1-10.1,7.1,3.92,3.92,0,0,1-.53-1.55,35.23,35.23,0,0,1-.89-6.4c0-.79-.13-1.81-1.32-1.71s-1.16,1-1.06,1.89a57.28,57.28,0,0,0,1.32,8,21.15,21.15,0,0,1-6.62-.82,47.22,47.22,0,0,1-2.38-9.19,47.34,47.34,0,0,1,.2-19.69,60.4,60.4,0,0,1,6.7-16.27c.46-.78.79-1.6-.19-2.13s-1.37.32-1.78,1a62.41,62.41,0,0,0-2.95,5.61A49.54,49.54,0,0,0,19,72.37c.56,3.26,1.41,6.45,2.08,9.69a33.13,33.13,0,0,1-7.24.57,23.35,23.35,0,0,1-2.77-7.72c-.15-.72-.48-1.38-1.36-1.22s-.9.82-.84,1.5c0,.41.12.82.2,1.22a40,40,0,0,0,1.75,5.64,13.71,13.71,0,0,1-6.91-4.94C2.39,75.29,1.6,73.07.55,71,0,70.35.65,69.42,0,68.79ZM91.08,57.07c0-.32,0-.65,0-1A51.55,51.55,0,0,0,84.9,37.78a23.91,23.91,0,0,0-5.16-6.59c-.62-.52-1.36-1.18-2.14-.26s0,1.4.57,1.94a25.25,25.25,0,0,1,2.46,2.61c3.8,5,5.93,10.76,7.37,16.79a32.55,32.55,0,0,1,.87,5.3c0,.76.41,1.42,1.21,1.42s1-.77,1-1.51ZM8.89,52.73c0,.79.3,1.33,1.1,1.4,1,.08,1.11-.65,1.23-1.34a48.8,48.8,0,0,1,2-7.6c2-5.66,5.45-10,11-12.64a4.48,4.48,0,0,0,.94-.58c.42-.33.73-.75.38-1.3a1.2,1.2,0,0,0-1.4-.62,5.35,5.35,0,0,0-.88.39A23.51,23.51,0,0,0,11.41,43.36,45.75,45.75,0,0,0,8.89,52.73Zm54-4.75a17.61,17.61,0,0,0-.32-3.78c-.6-5-1.74-9.75-4.43-14.06-.38-.61-.81-1.37-1.73-.82s-.7,1.22-.23,2c2.66,4.37,3.71,9.23,4.22,14.26.16,1.55.24,3.1.3,4.66a1.16,1.16,0,0,0,1.19,1.26c.72,0,1-.57,1-1.26Zm-33.2-1.92c0,.72.21,1.17.76,1.33a1.06,1.06,0,0,0,1.28-.58,8.33,8.33,0,0,0,.56-1.54,35.19,35.19,0,0,1,6-11.86c.51-.65,1.1-1.23,1.59-1.89a1.07,1.07,0,0,0-.22-1.59,1,1,0,0,0-1.47.14c-.42.43-.84.86-1.22,1.31a37.07,37.07,0,0,0-6.5,12.05C30.11,44.34,29.88,45.28,29.66,46.06Z"/><path class="cls-2" d="M138.89,43.37l2.82,0v5.24c-.26.12-.25.35-.27.58A43.34,43.34,0,0,1,137,64.8a48.26,48.26,0,0,1-8.27,11.43l-.68.1-.74-.33c-.24-1-1.09-1.76-1.44-2.74A16.62,16.62,0,0,0,123.07,67a5,5,0,0,0-5.13-2,9.45,9.45,0,0,0-3.62,1.24c-.32-.38-.63-.78-1-1.15-3.27-3.59-7.71-3.8-11.31-.53-.3.27-.53.65-1,.69l-.38-.35a63.24,63.24,0,0,0-1.74-13.71c-.65-2.68-1.81-5.18-2.61-7.81l40.77,0C137.69,43.42,138.29,43.39,138.89,43.37Z"/><path class="cls-3" d="M128.74,76.23A48.26,48.26,0,0,0,137,64.8a43.34,43.34,0,0,0,4.43-15.59c0-.23,0-.46.27-.58V84.26a3.73,3.73,0,0,1-.25-.78A16.27,16.27,0,0,0,137.8,75c-1.1-1.44-1.85-1.56-3.38-.58A10,10,0,0,1,128.74,76.23Z"/><path class="cls-4" d="M128.74,76.23a10,10,0,0,0,5.68-1.78c1.53-1,2.28-.86,3.38.58a16.27,16.27,0,0,1,3.66,8.45,3.73,3.73,0,0,0,.25.78v2.48A3.8,3.8,0,0,1,139.08,88c-2.08.13-3.67,1.45-5.43,2.34,1.44-4.78-1.59-12.11-5.59-14Z"/><path class="cls-5" d="M96.32,43.45c.8,2.63,2,5.13,2.61,7.81A63.24,63.24,0,0,1,100.67,65c-.56-.21-1.13-.39-1.67-.63a8.09,8.09,0,0,0-7.57.23,14,14,0,0,0-4.52,4c-.54-.07-1.08-.18-1.63-.21-4.5-.23-8.88,1.1-10,6.27-.78.09-1.55.2-2.32.28-4.16.41-7.42,2.05-8.78,6.33-.92,0-1.84,0-2.76,0a6.82,6.82,0,0,0-6.65,4.65,17.45,17.45,0,0,0-5.72.65c-3.49,1.12-6.19,3.14-7.29,6.83A44.94,44.94,0,0,0,37,94.46c-1.44.46-2.42,1.62-3.74,2.25,0,0-.11,0-.14,0-2.16-1.44-4.59-.78-6.92-.87-6.22-.23-12-1.62-16.84-5.86-4.26-3.78-6.49-8.73-7.89-14.1A20.69,20.69,0,0,1,.55,71c1.05,2.06,1.84,4.28,3.36,6.1a13.71,13.71,0,0,0,6.91,4.94,34.43,34.43,0,0,0,6.75,9.64c.61.59,1.3,1.34,2.09.51s.22-1.54-.44-2.17c-.43-.41-.87-.82-1.26-1.27a22.3,22.3,0,0,1-4.12-6.13,33.13,33.13,0,0,0,7.24-.57,5,5,0,0,1,.83,1.87,36.31,36.31,0,0,0,4,8.13c.44.65,1,1.24,1.79.71s.55-1.33.09-2c-.13-.19-.26-.38-.38-.58a29,29,0,0,1-3.57-7.85,21.15,21.15,0,0,0,6.62.82,30.57,30.57,0,0,0,2.73,6.77c.45.8.88,2,2.13,1.35s.27-1.71-.12-2.46a19.54,19.54,0,0,1-2.26-5.89A16.07,16.07,0,0,0,43,75.81c.33-.48.55-1.09,1.22-1.25.23,2.5.42,5,.7,7.51.09.76.36,1.69,1.39,1.55s1-1.09.91-2a78.41,78.41,0,0,1-.73-9.56,37.19,37.19,0,0,0,13.83.29,14.33,14.33,0,0,1-.64,4.21c-.2.85-.4,1.77.71,2s1.36-.7,1.58-1.52a34.93,34.93,0,0,0,.86-5.29,20.39,20.39,0,0,0,13-10.19c.44.85.24,1.8.47,2.69S76.5,66,77.58,66s1.08-1.11,1-1.92c-.12-1.46-.33-2.91-.51-4.37a23.15,23.15,0,0,0,7.69,1.41c5.74-.1,8.68-3.54,9.13-8.86a35.69,35.69,0,0,0-1.12-12.16,11.87,11.87,0,0,1-.21-1.35C94.73,40.15,95.28,41.94,96.32,43.45Z"/><path class="cls-6" d="M96.32,43.45c-1-1.51-1.59-3.3-2.75-4.75-2.64-4.27-5.68-8.16-10.26-10.57a21.14,21.14,0,0,1,8.15-5.83c.7-.2,1.39-.46,2.09-.61,2.64-.57,5.29-1.09,7.81.45a18.4,18.4,0,0,1-1.56,11.5c-.4.9-.87,1.76-1.46,2.94,5.21-3,9-6.64,9.17-12.79a26.63,26.63,0,0,1,5.15,4.68h0l.27.39c.13.37.34.52.72.28a19.77,19.77,0,0,1,6.81-2.35,22.7,22.7,0,0,1,7.89,1.09A38,38,0,0,1,131.88,30a16.61,16.61,0,0,1,7,13.41c-.6,0-1.2.05-1.8.05Z"/><path class="cls-7" d="M46.55,2a8.12,8.12,0,0,1,5.23,2.81,33.46,33.46,0,0,1,9.94,19.4l.09.54A73.19,73.19,0,0,0,53.61,27a17.06,17.06,0,0,1-13.16-1.36c4.11-2.59,4.38-6.53,3.79-10.76-.21-1.5-1.36-2.45-2.25-3.54.34-.29.78-.25,1.17-.37C47.77,9.55,48.83,4.45,46.55,2Z"/><path class="cls-8" d="M23.83,82.32a29,29,0,0,0,3.57,7.85c.12.2.25.39.38.58.46.69.82,1.44-.09,2s-1.35-.06-1.79-.71a36.31,36.31,0,0,1-4-8.13,5,5,0,0,0-.83-1.87c-.67-3.24-1.52-6.43-2.08-9.69a49.54,49.54,0,0,1,4.43-30.72A62.41,62.41,0,0,1,26.38,36c.41-.68.81-1.53,1.78-1s.65,1.35.19,2.13a60.4,60.4,0,0,0-6.7,16.27,47.34,47.34,0,0,0-.2,19.69A47.22,47.22,0,0,0,23.83,82.32Z"/><path class="cls-8" d="M46.52,72.1a78.41,78.41,0,0,0,.73,9.56c.09.87.2,1.8-.91,2S45,82.83,45,82.07c-.28-2.5-.47-5-.7-7.51-.12-3-.15-6,0-8.94C44.61,60,45,54.45,45.6,48.88c.51-4.79,1-9.59,1.47-14.38.06-.59.18-1.18.26-1.77s.44-1.26,1.25-1.16,1,.72,1,1.43c-.06.91-.18,1.82-.28,2.73-.72,7.08-1.51,14.15-2.13,21.23A119.57,119.57,0,0,0,46.52,72.1Z"/><path class="cls-8" d="M78.08,59.66c.18,1.46.39,2.91.51,4.37.07.81.14,1.82-1,1.92s-1-.86-1.24-1.64,0-1.84-.47-2.69a87.87,87.87,0,0,0-3-15.66C72.07,42.89,71,39.9,70,36.89a10.55,10.55,0,0,0-6.25-6.72c-.34-.15-.69-.27-1-.42-.69-.31-1.46-.67-1.13-1.59s1.16-.88,2-.55a16.24,16.24,0,0,1,4.59,2.5,1.42,1.42,0,0,0,2.07.1,1.9,1.9,0,0,1,.37-.2c.7-.4,1.42-.6,1.93.22s-.09,1.39-.76,1.75-1.14.7-.71,1.68c3.42,7.75,5.29,15.94,6.74,24.24C77.89,58.48,78,59.07,78.08,59.66Z"/><path class="cls-8" d="M91.08,57.07v.41c0,.74-.09,1.51-1,1.51s-1.16-.66-1.21-1.42a32.55,32.55,0,0,0-.87-5.3c-1.44-6-3.57-11.78-7.37-16.79a25.25,25.25,0,0,0-2.46-2.61c-.55-.54-1.32-1.07-.57-1.94s1.52-.26,2.14.26a23.91,23.91,0,0,1,5.16,6.59A51.55,51.55,0,0,1,91,56.1C91.07,56.42,91.06,56.75,91.08,57.07Z"/><path class="cls-8" d="M8.89,52.73a45.75,45.75,0,0,1,2.52-9.37A23.51,23.51,0,0,1,23.23,30.44a5.35,5.35,0,0,1,.88-.39,1.2,1.2,0,0,1,1.4.62c.35.55,0,1-.38,1.3a4.48,4.48,0,0,1-.94.58c-5.54,2.59-9,7-11,12.64a48.8,48.8,0,0,0-2,7.6c-.12.69-.27,1.42-1.23,1.34C9.19,54.06,8.91,53.52,8.89,52.73Z"/><path class="cls-8" d="M62.86,48v2.26c0,.69-.28,1.23-1,1.26a1.16,1.16,0,0,1-1.19-1.26c-.06-1.56-.14-3.11-.3-4.66-.51-5-1.56-9.89-4.22-14.26-.47-.78-.66-1.47.23-2s1.35.21,1.73.82c2.69,4.31,3.83,9.11,4.43,14.06A17.61,17.61,0,0,1,62.86,48Z"/><path class="cls-8" d="M13.84,82.63A22.3,22.3,0,0,0,18,88.76c.39.45.83.86,1.26,1.27.66.63,1.12,1.44.44,2.17s-1.48.08-2.09-.51a34.43,34.43,0,0,1-6.75-9.64,40,40,0,0,1-1.75-5.64c-.08-.4-.16-.81-.2-1.22-.06-.68,0-1.36.84-1.5s1.21.5,1.36,1.22A23.35,23.35,0,0,0,13.84,82.63Z"/><path class="cls-8" d="M29.66,46.06c.22-.78.45-1.72.76-2.63a37.07,37.07,0,0,1,6.5-12c.38-.45.8-.88,1.22-1.31a1,1,0,0,1,1.47-.14,1.07,1.07,0,0,1,.22,1.59c-.49.66-1.08,1.24-1.59,1.89a35.19,35.19,0,0,0-6,11.86,8.33,8.33,0,0,1-.56,1.54,1.06,1.06,0,0,1-1.28.58C29.87,47.23,29.65,46.78,29.66,46.06Z"/><path class="cls-8" d="M32.93,82.91a19.54,19.54,0,0,0,2.26,5.89c.39.75,1.48,1.72.12,2.46s-1.68-.55-2.13-1.35a30.57,30.57,0,0,1-2.73-6.77,57.28,57.28,0,0,1-1.32-8c-.1-.86-.09-1.79,1.06-1.89s1.3.92,1.32,1.71a35.23,35.23,0,0,0,.89,6.4A3.92,3.92,0,0,0,32.93,82.91Z"/><path class="cls-8" d="M62.86,71.81A34.93,34.93,0,0,1,62,77.1c-.22.82-.5,1.77-1.58,1.52s-.91-1.17-.71-2a14.33,14.33,0,0,0,.64-4.21c.47-.86.2-1.8.28-2.7a12.49,12.49,0,0,1,.1-1.51,1.09,1.09,0,0,1,1.26-1c.71.07.86.6.86,1.19C62.87,69.52,62.86,70.67,62.86,71.81Z"/><path class="cls-9" d="M101.36,22.14c-2.52-1.54-5.17-1-7.81-.45-.7.15-1.39.41-2.09.61-1.58-.29-3.17-.5-4.73-.92a13.14,13.14,0,0,1-7.79-5.54,36.08,36.08,0,0,1-3.51-6.35c1,.56,1.65.89,2.26,1.32a20.47,20.47,0,0,0,15.2,3.5,26.11,26.11,0,0,1,3.31-.15,7.89,7.89,0,0,1,5.89,2,15,15,0,0,0-.64-5.72A30.53,30.53,0,0,0,99.3,5.21c2.84.51,5.38,1.19,7.32,3.22a5.7,5.7,0,0,1,1.31,4,30,30,0,0,1-.91,7.78c-.44-.23-.89-.45-1.32-.69a2.86,2.86,0,0,0-3.4.46C101.59,20.5,101.69,21.41,101.36,22.14Z"/><path class="cls-9" d="M128.33,27.87a22.7,22.7,0,0,0-7.89-1.09,1.52,1.52,0,0,0,0-.21c1.45-4,2.68-5,6.89-5a10.53,10.53,0,0,0,9.25-4.53c.14-.2.24-.51.73-.52a10.41,10.41,0,0,1-4.38,9.12A21.61,21.61,0,0,1,128.33,27.87Z"/><path class="cls-10" d="M101.36,22.14c.33-.73.23-1.64.94-2.2a2.86,2.86,0,0,1,3.4-.46c.43.24.88.46,1.32.69.16,1.21.32,2.41.49,3.62-.18,6.15-4,9.76-9.17,12.79.59-1.18,1.06-2,1.46-2.94A18.4,18.4,0,0,0,101.36,22.14Z"/><path class="cls-10" d="M120.41,26.57a1.52,1.52,0,0,1,0,.21,19.77,19.77,0,0,0-6.81,2.35c-.38.24-.59.09-.72-.28,0-.17,0-.35-.27-.39h0c-.24-1.45-.56-2.89-.7-4.34-.35-3.83.33-7.35,3.48-10a1.14,1.14,0,0,1,1-.41,44.64,44.64,0,0,0,.4,6.1,13.85,13.85,0,0,0,2.51,5.76C119.6,26,119.85,26.47,120.41,26.57Z"/><path class="cls-11" d="M46.55,2c2.28,2.43,1.22,7.53-3.39,9-.39.12-.83.08-1.17.37a4.24,4.24,0,0,1-.91-5.48C42.22,3.68,43.76,2,46.55,2Z"/><path class="cls-12" d="M128.06,76.33c4,1.87,7,9.2,5.59,14l-.36.58c-2.37,3.44-5.65,3.83-9.48,2.68,2.08,2.91,3.44,5.91,3,9.46v.28l-.49,1c-1.28,2.68-3.3,4.21-6.4,4-.9-.06-1.81-.16-2.72-.25a6.22,6.22,0,0,0-.78-.76,7.22,7.22,0,0,1-3.17-4.81c-.25-1.31-.46-2.63-.7-4-.45.82-.8,1.57-1.24,2.26-2.44,3.78-7,4.73-10.53,2a13.31,13.31,0,0,1-5.41-12.83c.66-5.46,5.32-8,10.48-6,.43.16.88.25,1.32.38-.07-.49-.44-.78-.71-1.14a12.18,12.18,0,0,1-2.48-5.41c-.2-1.27.47-2.41.4-3.64,1.15-1.16,2.08-2.55,3.63-3.3,2.32-1.11,4.47-.42,6.62.5l.32,0c0,.13,0,.32.13.39,2.33,2,3.16,4.65,3.56,7.53.07.45.35,1,0,1.32s-.84-.13-1.22-.3a6.48,6.48,0,0,0-7,1.21,7.74,7.74,0,0,0-2.34,7c.48,4.19,2.19,7.7,6.29,9.53a6.51,6.51,0,0,0,9.14-4.93,13.61,13.61,0,0,0-3.82-11.37,1.19,1.19,0,0,1-.23-1.69,7.83,7.83,0,0,1,5.25-3.92c.92-.16,1.82.08,2.72-.12Z"/><path class="cls-13" d="M120.65,116.49c-.27.68-.56,1.36-.83,2-2,5.12-6.45,5.82-10.76,5.39-.45,0-.88-.27-1.35-.1a5.33,5.33,0,0,1-2.23-4.3c0-1.26.16-2.53.24-3.79h0s.07-.06.06-.09a1.17,1.17,0,0,0-.06-.2l0-.34c.53.13,1.07.24,1.6.39a6.73,6.73,0,0,0,8.05-3.11c.63-1.06,1.1-2.21,1.64-3.33C117,112.14,117.54,114.94,120.65,116.49Z"/><path class="cls-13" d="M95.22,126.79c-1.54.91-3,2-4.54,2.87a7.61,7.61,0,0,1-7.15.09c-.4-.18-.74-.6-1.26-.38-1.84-1.84-2.79-4-2-6.6a3.84,3.84,0,0,0,0-1h0l.29-.29a.75.75,0,0,1,.58-.58,11,11,0,0,0,10.2-.17c1.19-.61,2.4-1.16,3.6-1.73h.29c-.13.72-.31,1.44-.4,2.16C94.59,123.1,93.82,125,95.22,126.79Z"/><path class="cls-11" d="M12.41,133.43a31.88,31.88,0,0,0-4,0c-.75-.56-1.61-.26-2.43-.32-.6-.19-1.21-.36-1.79-.59s-1.11-.29-1.05-1.05c3.35-1,6.54-2.39,9.82-3.55.67-.24.48-.65.29-1.1a30.52,30.52,0,0,0-2.41-3.67v-.58l3.3-2.21a9.54,9.54,0,0,1,4,4.37c.39.76.8,1,1.63.63,1.31-.54,2.68-1,4-1.41a7.82,7.82,0,0,1,.62,3.91c-.2,2.24-1.68,3.54-3.41,4.66l-1.6.31-.52,0A14.28,14.28,0,0,0,19,127.4c-.13-1.15-.71-1.46-1.79-.94-.82.4-1.7.69-2.56,1-.56.21-.81.51-.61,1.14a18.68,18.68,0,0,1,.43,4.77Z"/><path class="cls-14" d="M95.22,126.79c-1.4-1.77-.63-3.69-.4-5.57.09-.72.27-1.44.4-2.16A.83.83,0,0,1,96,119c2.39.7,4.45-.07,6.47-1.3,1.08-.66,2-1.68,3.25-2-.08,1.26-.24,2.53-.24,3.79a5.33,5.33,0,0,0,2.23,4.3c-2.27,2.49-4.68,4.73-8.38,4.62A5.8,5.8,0,0,1,95.22,126.79Z"/><path class="cls-14" d="M120.65,116.49c-3.11-1.55-3.64-4.35-3.61-7.43,0-.33.07-.68.11-1,.91.09,1.82.19,2.72.25,3.1.21,5.12-1.32,6.4-4l.49-1c1.49,1,2.28,2.49,3.17,3.94a12.65,12.65,0,0,1-.56,4.44C128,115.29,125.24,116.83,120.65,116.49Z"/><path class="cls-13" d="M72.25,132.05c-2.53,2.07-5.11,4-8.58,4.25A11.68,11.68,0,0,1,57.3,135a7.63,7.63,0,0,1-.55-4.91v-.31a11.3,11.3,0,0,0,9-.64c1.64-.9,3.2-1.94,4.8-2.91C70.49,128.36,70.48,130.46,72.25,132.05Z"/><path class="cls-12" d="M21,132.56c1.73-1.12,3.21-2.42,3.41-4.66a8.36,8.36,0,0,1,1,.37,5.52,5.52,0,0,0,6.93-1,.35.35,0,0,1,.52-.08,6.06,6.06,0,0,0,.65,4.84,5.79,5.79,0,0,0-.58,3.06c-.92-.16-1.66.43-2.48.66a8.23,8.23,0,0,1-6.83-1.17,5.57,5.57,0,0,0-2-1.17Z"/><path class="cls-14" d="M72.25,132.05c-1.77-1.59-1.76-3.69-1.66-5.81l0,0a6.7,6.7,0,0,0,6.83-1.67l2.87-2.74a3.84,3.84,0,0,1,0,1c-.77,2.65.18,4.76,2,6.6a11.77,11.77,0,0,1-4.58,3.15A6.61,6.61,0,0,1,72.25,132.05Z"/><path class="cls-12" d="M16,118.18c.17-.66.35-1.32.51-2a8.27,8.27,0,0,1,5.71-6.09c.34-.12.66-.29,1-.44.9.45,1.29,1.67,2.49,1.66,0,2.13,1.47,3.34,3.38,4.61-3.9-.48-5.66.54-7,3.73a6.87,6.87,0,0,1-.51.81,5.89,5.89,0,0,0-5.53-1.12Z"/><path class="cls-14" d="M56.75,130.1A7.63,7.63,0,0,0,57.3,135c-3,2.14-6.21,3.55-10,2.6a13.38,13.38,0,0,1-2.4-1,5.71,5.71,0,0,1-.89-4.9,1.46,1.46,0,0,0,.05-.2,10.13,10.13,0,0,0,8.89.11C54.19,131.07,55.47,130.6,56.75,130.1Z"/><path class="cls-14" d="M33.22,96.71c1.32-.63,2.3-1.79,3.74-2.25a44.94,44.94,0,0,1,4.83-1.1A3.24,3.24,0,0,0,43,96.09c.51.48,1.16.88,1.29,1.67-4.11,1.13-8.28,2.17-10.18,6.67,0,.11-.21.17-.32.25a5.11,5.11,0,0,1-2.52-4.19C31.4,99,32.64,98,33.22,96.71Z"/><path class="cls-15" d="M126.77,103c.48-3.55-.88-6.55-3-9.46,3.83,1.15,7.11.76,9.48-2.68.25,1.24.5,2.49.76,3.74-.59.81-.22,1.8-.53,2.67C132.37,100.51,129.88,102.13,126.77,103Z"/><path class="cls-13" d="M44,131.7a5.71,5.71,0,0,0,.89,4.9,20.94,20.94,0,0,1-5.44,2.21,6.16,6.16,0,0,1-6-2.2,2.3,2.3,0,0,1-.52-1.52,5.79,5.79,0,0,1,.58-3.06,6,6,0,0,0,6.64,1.16Z"/><path class="cls-13" d="M31.26,100.49a5.11,5.11,0,0,0,2.52,4.19v.24a18.11,18.11,0,0,0-4.43,1.45,5.65,5.65,0,0,0-3.61,4.95c-1.2,0-1.59-1.21-2.49-1.66-1.4-2.49-.26-5.8,2.55-7.34A21,21,0,0,1,31.26,100.49Z"/><path class="cls-13" d="M126.77,103c3.11-.9,5.6-2.52,6.75-5.73.31-.87-.06-1.86.53-2.67a16.53,16.53,0,0,1,1.8,5.31c.48,3-.54,4.94-3.21,6.35a7.45,7.45,0,0,1-2.71,1c-.89-1.45-1.68-3-3.17-3.94Z"/><path class="cls-4" d="M10.81,123.19a30.52,30.52,0,0,1,2.41,3.67c.19.45.38.86-.29,1.1-3.28,1.16-6.47,2.58-9.82,3.55-.22-1.14,1-1.73,1.06-2.78a2.53,2.53,0,0,0,1.64-1.91c1.29-.52,2.09-1.63,3.07-2.52C9.54,124,10,123.21,10.81,123.19Z"/><path class="cls-4" d="M16.05,119.35a5.89,5.89,0,0,1,5.53,1.12A7.58,7.58,0,0,1,23.76,124c-1.34.46-2.71.87-4,1.41-.83.34-1.24.13-1.63-.63a9.54,9.54,0,0,0-4-4.37c.1-.16.19-.32.29-.47A3.72,3.72,0,0,0,16.05,119.35Z"/><path class="cls-4" d="M14.45,133.38a18.68,18.68,0,0,0-.43-4.77c-.2-.63.05-.93.61-1.14.86-.32,1.74-.61,2.56-1,1.08-.52,1.66-.21,1.79.94a14.28,14.28,0,0,1-.13,5.45c-1.24.51-2.61.19-3.88.57Z"/><path class="cls-16" d="M16.05,119.35a3.72,3.72,0,0,1-1.66.58l-4.29-2.24c-.66-.35-1.17-.83-.75-1.65s1.09-.73,1.78-.38c1.64.83,3.28,1.68,4.91,2.52Z"/><path class="cls-16" d="M21,132.56l.66.85c-.63,1.72-1.25,3.44-1.9,5.16-.26.68-.76,1.1-1.51.8s-.86-1-.57-1.72c.6-1.58,1.15-3.18,1.72-4.78Z"/><path class="cls-16" d="M10.81,123.19c-.84,0-1.27.76-1.93,1.11-1.17-.53-2.33-1.06-3.51-1.56-.79-.33-1.27-.85-.87-1.69s1.07-.72,1.77-.41l4.53,2Z"/><path class="cls-16" d="M14.45,133.38l.52,0q-1.08,2.29-2.17,4.59c-.32.69-.82,1.18-1.62.79s-.78-1-.44-1.76c.57-1.2,1.12-2.4,1.67-3.61Z"/><path class="cls-16" d="M5.81,126.82a2.53,2.53,0,0,1-1.64,1.91l-2.47-.8a1.1,1.1,0,0,1-.84-1.47,1.1,1.1,0,0,1,1.55-.69C3.55,126.11,4.68,126.47,5.81,126.82Z"/><path class="cls-16" d="M6,133.15c.82.06,1.68-.24,2.43.32-.62,1.07-1.22,2.13-1.85,3.19a1.13,1.13,0,0,1-1.63.51,1.1,1.1,0,0,1-.33-1.66C5,134.71,5.49,133.94,6,133.15Z"/><path class="cls-15" d="M127.32,76c-.9.2-1.8,0-2.72.12A7.83,7.83,0,0,0,119.35,80a1.19,1.19,0,0,0,.23,1.69A13.61,13.61,0,0,1,123.4,93.1,6.51,6.51,0,0,1,114.26,98c-4.1-1.83-5.81-5.34-6.29-9.53a7.74,7.74,0,0,1,2.34-7,6.48,6.48,0,0,1,7-1.21c.38.17.8.69,1.22.3s.08-.87,0-1.32c-.4-2.88-1.23-5.56-3.56-7.53-.09-.07-.09-.26-.13-.39a13.48,13.48,0,0,1,5.75-1,8.41,8.41,0,0,1,5.23,3C126.23,74.24,127.08,75,127.32,76Z"/><path class="cls-13" d="M86.91,68.54a14,14,0,0,1,4.52-4A8.09,8.09,0,0,1,99,64.34c.54.24,1.11.42,1.67.63l.38.35a1,1,0,0,1,0,.91,5.3,5.3,0,0,0,.63,4.79,5.25,5.25,0,0,1,1,1.93l-1.54-.57a7.82,7.82,0,0,0-4.67-.66,7.33,7.33,0,0,0-5.15,4.52h-.55c-.47-1.11-1.6-1.59-2.34-2.45C87.1,72.25,86.19,70.65,86.91,68.54Z"/><path class="cls-14" d="M102.69,73a5.25,5.25,0,0,0-1-1.93,5.3,5.3,0,0,1-.63-4.79,1,1,0,0,0,0-.91c.46,0,.69-.42,1-.69,3.6-3.27,8-3.06,11.31.53.34.37.65.77,1,1.15.26,1.65.93,3.27.26,5-2.15-.92-4.3-1.61-6.62-.5-1.55.75-2.48,2.14-3.63,3.3Z"/><path class="cls-13" d="M114.58,71.27c.67-1.69,0-3.31-.26-5a9.45,9.45,0,0,1,3.62-1.24,5,5,0,0,1,5.13,2,16.62,16.62,0,0,1,2.81,6.22,8.41,8.41,0,0,0-5.23-3,13.48,13.48,0,0,0-5.75,1Z"/><path class="cls-13" d="M64.21,81.21c1.36-4.28,4.62-5.92,8.78-6.33.77-.08,1.54-.19,2.32-.28a6.87,6.87,0,0,0,2.83,3.89c.74.57,1.72.93,2.13,1.88v.27c-5,1-9.55,2.49-11.6,7.77a1.76,1.76,0,0,1-1.12-.25c-.2-.43-.65-.61-1-.9C64.71,85.65,63.41,83.83,64.21,81.21Z"/><path class="cls-14" d="M80.27,80.37c-.41-1-1.39-1.31-2.13-1.88a6.87,6.87,0,0,1-2.83-3.89c1.09-5.17,5.47-6.5,10-6.27.55,0,1.09.14,1.63.21-.72,2.11.19,3.71,1.53,5.25.74.86,1.87,1.34,2.34,2.45a19.55,19.55,0,0,0-5.28.66,6.77,6.77,0,0,0-4.07,2.61C81.13,79.92,80.85,80.34,80.27,80.37Z"/><path class="cls-13" d="M44.28,97.76c-.13-.79-.78-1.19-1.29-1.67a3.24,3.24,0,0,1-1.2-2.73c1.1-3.69,3.8-5.71,7.29-6.83a17.45,17.45,0,0,1,5.72-.65,4.66,4.66,0,0,0,1.68,4.34,1.42,1.42,0,0,1,.55.91l0,.25c-5,.39-9.73,1.49-12.42,6.41Z"/><path class="cls-14" d="M57,91.13a1.42,1.42,0,0,0-.55-.91,4.66,4.66,0,0,1-1.68-4.34,6.82,6.82,0,0,1,6.65-4.65c.92,0,1.84,0,2.76,0-.8,2.62.5,4.44,2.35,6.05.34.29.79.47,1,.9-1.56,0-3.12,0-4.68,0A5.58,5.58,0,0,0,58,90.44C57.73,90.77,57.51,91.12,57,91.13Z"/><path class="cls-3" d="M112.64,28.46c.22,0,.24.22.27.39Z"/><path class="cls-15" d="M102.69,73l1.64,1.12c.07,1.23-.6,2.37-.4,3.64a12.18,12.18,0,0,0,2.48,5.41c.27.36.64.65.71,1.14h0c-.43-.13-.88-.22-1.31-.38-5.16-2-9.82.54-10.48,6a13.31,13.31,0,0,0,5.41,12.83c3.57,2.71,8.09,1.76,10.53-2,.44-.69.79-1.44,1.24-2.26.24,1.41.45,2.73.7,4a7.22,7.22,0,0,0,3.17,4.81,6.22,6.22,0,0,1,.78.76c0,.34-.07.69-.11,1-.54,1.12-1,2.27-1.64,3.33a6.73,6.73,0,0,1-8.05,3.11c-.53-.15-1.07-.26-1.6-.39-.59-1-1.74-1.32-2.41-2.23A11.41,11.41,0,0,1,101,106a4.72,4.72,0,0,0-.23-2.44c-3.34,3.09-6.75,5.82-11.47,3.19a10.44,10.44,0,0,1-5.62-10.21c.44-6.87,5.23-8.57,11.58-8.08-3.36-3.72-5.62-7.35-3.94-12.17a7.33,7.33,0,0,1,5.15-4.52,7.82,7.82,0,0,1,4.67.66Z"/><path class="cls-12" d="M91.33,76.24c-1.68,4.82.58,8.45,3.94,12.17-6.35-.49-11.14,1.21-11.58,8.08a10.44,10.44,0,0,0,5.62,10.21c4.72,2.63,8.13-.1,11.47-3.19A4.72,4.72,0,0,1,101,106a11.41,11.41,0,0,0,2.33,6.93c.67.91,1.82,1.27,2.41,2.23l0,.34v.29h0c-1.3.28-2.17,1.3-3.25,2-2,1.23-4.08,2-6.47,1.3a.83.83,0,0,0-.78.07h-.29c-.19-.76-.93-.83-1.47-1.13-2.64-1.5-4.31-3.56-4.08-6.78.06-.84,0-1.69,0-2.8-1,.84-1.78,1.5-2.58,2.09-3.34,2.48-6.6,2.69-9.43.52a13.06,13.06,0,0,1-4.86-8.55c-1.06-6.1,2-9.29,7.1-10a18.28,18.28,0,0,1,4,.11,3.13,3.13,0,0,0-.18-.31c-.33-.33-.65-.66-1-1-3.07-2.61-3.7-5.77-2.2-9.44.15-.36.4-.76.07-1.16v-.27c.58,0,.86-.45,1.16-.86A6.77,6.77,0,0,1,85.5,76.9a19.55,19.55,0,0,1,5.28-.66Z"/><path class="cls-14" d="M105.72,115.74v-.29a1.17,1.17,0,0,1,.06.2S105.74,115.71,105.72,115.74Z"/><path class="cls-15" d="M80.27,80.64c.33.4.08.8-.07,1.16-1.5,3.67-.87,6.83,2.2,9.44.35.3.67.63,1,1a3.13,3.13,0,0,1,.18.31,18.28,18.28,0,0,0-4-.11c-5.06.71-8.16,3.9-7.1,10A13.06,13.06,0,0,0,77.38,111c2.83,2.17,6.09,2,9.43-.52.8-.59,1.55-1.25,2.58-2.09,0,1.11,0,2,0,2.8-.23,3.22,1.44,5.28,4.08,6.78.54.3,1.28.37,1.47,1.13-1.2.57-2.41,1.12-3.6,1.73a11,11,0,0,1-10.2.17c-3.26-2-3.06-5.06-2.75-8.34-1,.76-1.69,1.68-2.54,2.42-2.4,2.08-5.1,3.31-8.37,2.38-.86-.25-1,.09-1,.85a8.09,8.09,0,0,0,4.15,8l0,0c-1.6,1-3.16,2-4.8,2.91a11.3,11.3,0,0,1-9,.64,6.15,6.15,0,0,1-2.73-4,14.34,14.34,0,0,1-.32-3.27c0-.35.15-.81-.23-1s-.64.24-.9.46a15.18,15.18,0,0,1-3.58,2.3,7.42,7.42,0,0,1-6.26.32c-1.38-.59-1.8-.25-1.72,1.32a6.71,6.71,0,0,0,3,5.57,1.46,1.46,0,0,1-.05.2l-3.83,1.49A6,6,0,0,1,33.51,132a6.06,6.06,0,0,1-.65-4.84.35.35,0,0,0-.52.08,5.52,5.52,0,0,1-6.93,1,8.36,8.36,0,0,0-1-.37,7.82,7.82,0,0,0-.62-3.91,7.58,7.58,0,0,0-2.18-3.52,6.87,6.87,0,0,0,.51-.81c1.37-3.19,3.13-4.21,7-3.73-1.91-1.27-3.37-2.48-3.38-4.61a5.65,5.65,0,0,1,3.61-4.95,18.11,18.11,0,0,1,4.43-1.45c0,.55,0,1.1,0,1.65-.21,2.14.87,3.67,2.34,5,.55.51.91.53,1.2-.22,1.16-3,3.7-4.17,6.61-4.73,1.28-.24,2.61-.29,4.08-.45a34.36,34.36,0,0,1-2.89-3.76,5.71,5.71,0,0,1-.52-4.65c2.69-4.92,7.37-6,12.42-6.41a.74.74,0,0,1,.17.77c-1.28,3.22.51,5.56,2.26,7.9.4.53.81.89,1.32,0a7.63,7.63,0,0,1,5.83-3.68,21.67,21.67,0,0,1,6.13,0c-2.84-2.14-5.14-4.25-4-8C70.72,83.13,75.32,81.62,80.27,80.64ZM57.85,101.11a18.91,18.91,0,0,0-4.48.82,6.67,6.67,0,0,0-4.18,3.16c-2.09,4.15-1,10.3,2.66,13.89,1.65,1.65,3.57,2.8,6,2.56,3.16-.31,5.53-2.14,7.81-4.11.69-.59-.09-.83-.43-1.12a15,15,0,0,1-5.42-13.5C60,101.09,60,101.09,57.85,101.11Zm-23,11.3c-3.08,0-4.62,1.17-5.23,4.19a9.22,9.22,0,0,0,2.14,7.82c2.34,3,5.81,3.17,8.49.53.72-.71.84-1.21.11-2.06a14.63,14.63,0,0,1-3.47-8.54C36.69,112.42,36.76,112.41,34.81,112.41Z"/><path class="cls-12" d="M70.57,126.22a8.09,8.09,0,0,1-4.15-8c0-.76.19-1.1,1-.85,3.27.93,6-.3,8.37-2.38.85-.74,1.55-1.66,2.54-2.42-.31,3.28-.51,6.39,2.75,8.34a.75.75,0,0,0-.58.58l-.29.29h0l-2.87,2.74A6.7,6.7,0,0,1,70.57,126.22Z"/><path class="cls-14" d="M80.26,121.82l.29-.29Z"/><path class="cls-12" d="M44,131.5a6.71,6.71,0,0,1-3-5.57c-.08-1.57.34-1.91,1.72-1.32a7.42,7.42,0,0,0,6.26-.32,15.18,15.18,0,0,0,3.58-2.3c.26-.22.48-.68.9-.46s.24.66.23,1a14.34,14.34,0,0,0,.32,3.27,6.15,6.15,0,0,0,2.73,4v.31c-1.28.5-2.56,1-3.83,1.51A10.13,10.13,0,0,1,44,131.5Z"/><path class="cls-12" d="M44.59,97.79a5.71,5.71,0,0,0,.52,4.65A34.36,34.36,0,0,0,48,106.2c-1.47.16-2.8.21-4.08.45-2.91.56-5.45,1.7-6.61,4.73-.29.75-.65.73-1.2.22-1.47-1.36-2.55-2.89-2.34-5,0-.55,0-1.1,0-1.65v-.24c.11-.08.28-.14.32-.25,1.9-4.5,6.07-5.54,10.18-6.67Z"/><path class="cls-12" d="M68.67,88.41c-1.09,3.71,1.21,5.82,4,8a21.67,21.67,0,0,0-6.13,0,7.63,7.63,0,0,0-5.83,3.68c-.51.89-.92.53-1.32,0-1.75-2.34-3.54-4.68-2.26-7.9a.74.74,0,0,0-.17-.77c0-.08,0-.17,0-.25.48,0,.7-.36.95-.69a5.58,5.58,0,0,1,4.89-2.33c1.56,0,3.12,0,4.68,0A1.76,1.76,0,0,0,68.67,88.41Z"/><path class="cls-12" d="M57.85,101.11c2.16,0,2.13,0,2,1.7a15,15,0,0,0,5.42,13.5c.34.29,1.12.53.43,1.12-2.28,2-4.65,3.8-7.81,4.11-2.45.24-4.37-.91-6-2.56-3.62-3.59-4.75-9.74-2.66-13.89a6.67,6.67,0,0,1,4.18-3.16A18.91,18.91,0,0,1,57.85,101.11Z"/><path class="cls-12" d="M34.81,112.41c1.95,0,1.88,0,2,1.94a14.63,14.63,0,0,0,3.47,8.54c.73.85.61,1.35-.11,2.06-2.68,2.64-6.15,2.42-8.49-.53a9.22,9.22,0,0,1-2.14-7.82C30.19,113.58,31.73,112.42,34.81,112.41Z"/></svg>