<svg id="Layer_1" data-name="Layer 1" xmlns="http://www.w3.org/2000/svg" viewBox="0 0 141.73 141.73"><defs><style>.cls-1{fill:#86c664;}.cls-2{fill:#ffd15c;}.cls-3{fill:#ee6362;}.cls-4{fill:#f59696;}.cls-5{fill:#9cce7b;}.cls-6{fill:#e84544;}.cls-7{fill:#9ccd7a;}.cls-8{fill:#fec347;}.cls-9{fill:#fec447;}.cls-10{fill:#f37d7c;}.cls-11{fill:#87c765;}.cls-12{fill:#9dce7a;}.cls-13{fill:#fff0d1;}.cls-14{fill:#965c52;}</style></defs><title>1fruit</title><path class="cls-1" d="M116.49,23.57c.86-.89,1.7-1.79,2.59-2.66,1.72-1.68,3.33-1.65,5,.16a67.18,67.18,0,0,1,12.56,20,65.58,65.58,0,0,1,4.7,19.81.42.42,0,0,0,.27.42V72.11a35.17,35.17,0,0,0-.79,5.22,67,67,0,0,1-15.2,33.45,67.63,67.63,0,0,1-38.26,23c-.4.09-.81.11-1.22.17l2.79-3.11.28-.29h0a10.76,10.76,0,0,0,4-1.44,68.1,68.1,0,0,0,23.48-17.54,70.37,70.37,0,0,0,10.58-16.46,68.07,68.07,0,0,0,6.05-24.33,64.2,64.2,0,0,0-1.14-16.94,68,68,0,0,0-11.21-26.35C119.76,25.86,118.84,23.89,116.49,23.57Z"/><path class="cls-2" d="M4.61,99.69A65.08,65.08,0,0,1,1.08,79.58C1,69.21,2.75,59.2,7.52,49.89A34.2,34.2,0,0,1,19.52,37,37.42,37.42,0,0,1,34.9,31.89,1.69,1.69,0,0,0,36,32.4a31.06,31.06,0,0,1,9.21,3,34.05,34.05,0,0,1,11.4,9,19.73,19.73,0,0,1,4.22,6.82c-.81.82-1.68,1.58-2.4,2.47s-1.46,1.17-2.31,0a17.84,17.84,0,0,0-1.83-1.86c-1.14-1.1-2.34-1.16-3.25-.19s-.78,2,.3,3.14Q53.4,56.93,55.51,59c1.33,1.3,2.28,1.28,3.65,0L62.7,55.5a60.09,60.09,0,0,1,3.65,18.07C65.16,74.78,64,76,62.79,77.21q-8.3,8.36-16.6,16.69c-.37-.18-.74-.35-1.1-.54a16.55,16.55,0,0,0-7.7-2.16c-2.58-.27-5,.55-7.46,1.09a35.28,35.28,0,0,0-2.51-7,22.34,22.34,0,0,0-6.52-7.7c-.72-.52-1.47-1.19-2.48-1a2,2,0,0,0-1.72,1.59,2.34,2.34,0,0,0,1.18,2.56A17.54,17.54,0,0,1,25.23,92a7.19,7.19,0,0,1-.81-.13,17.41,17.41,0,0,0-13.63,2A25,25,0,0,0,4.61,99.69Zm19-35.28a2.1,2.1,0,0,0-1.85,1.21,2.08,2.08,0,0,0,.36,2.43c1.55,1.56,3.09,3.14,4.68,4.67a2,2,0,0,0,3.06,0q2.41-2.25,4.68-4.67A2.11,2.11,0,0,0,34.46,65a2,2,0,0,0-3,.16c-.84.79-1.65,1.6-2.44,2.44-.48.51-.88.53-1.37,0-.75-.8-1.56-1.56-2.33-2.34A2.46,2.46,0,0,0,23.64,64.41ZM44.83,53.2a2.07,2.07,0,0,0-1.2-2,2,2,0,0,0-2.4.42c-.92.83-1.79,1.71-2.63,2.61-.42.45-.7.42-1.1,0-.85-.89-1.71-1.79-2.64-2.6a2.07,2.07,0,0,0-3.06,0,2.21,2.21,0,0,0,.2,3.08q2.16,2.2,4.37,4.37a2.07,2.07,0,0,0,3.35,0c1.48-1.43,2.92-2.91,4.37-4.36A2.13,2.13,0,0,0,44.83,53.2Zm9.59,13.33A2.41,2.41,0,0,0,53,64.63,1.76,1.76,0,0,0,50.9,65c-.91.84-1.8,1.7-2.63,2.62-.55.6-.92.53-1.43,0-.77-.85-1.59-1.65-2.43-2.43a1.93,1.93,0,0,0-3-.06c-.93.95-.92,2,.11,3q2.19,2.28,4.47,4.48c1.15,1.11,2.06,1.1,3.22,0,1.48-1.44,2.92-2.92,4.38-4.37A2.61,2.61,0,0,0,54.42,66.53Z"/><path class="cls-3" d="M46.19,93.9q8.3-8.34,16.6-16.69c1.2-1.2,2.37-2.43,3.56-3.64l7.71-7.72c.37-.33.77-.65,1.12-1l33.33-33.33c.36-.35.74-.68,1.11-1a60.5,60.5,0,0,1,7.88,12.65,56.82,56.82,0,0,1,5,20,55.46,55.46,0,0,1-.75,13.54,57,57,0,0,1-21.71,35.71A23.14,23.14,0,0,1,94.42,116a42.51,42.51,0,0,0-.32-4.8c-2-10.83-8.11-18.1-18.64-21.49a21.4,21.4,0,0,0-10.27-.8c-.55.07-1.1.1-1.64.2a26.69,26.69,0,0,0-14,7.32A24.35,24.35,0,0,1,46.19,93.9ZM98.28,90a2,2,0,0,0-1.61,1.1,1.75,1.75,0,0,0,.14,2.18c1.21,1.32,2.48,2.59,3.8,3.79a1.72,1.72,0,0,0,2.07.18,2,2,0,0,0,1.16-1.89C103.8,94,100,90.06,98.28,90Zm12.06-5.76c1.46,0,2-.45,2.37-1.51a1.84,1.84,0,0,0-.91-2.34c-1.51-.77-3.08-1.43-4.65-2.07a1.92,1.92,0,0,0-2.39.87,1.76,1.76,0,0,0,.25,2.5A17.64,17.64,0,0,0,110.34,84.26Zm1.31-19.84v-.07h-2.06a1.75,1.75,0,0,0-2,1.84,2.05,2.05,0,0,0,1.7,2.3c1.5.15,3,.24,4.52.27a2.08,2.08,0,0,0,2.38-1.94,2.12,2.12,0,0,0-2.11-2.38A22.76,22.76,0,0,0,111.65,64.42ZM108,54.19c1.17-.38,2.74-.87,4.3-1.41a2.09,2.09,0,0,0,1.43-2.61,1.89,1.89,0,0,0-2.42-1.47,31.76,31.76,0,0,0-4.69,1.54,2,2,0,0,0-1.13,2.54C105.77,53.82,106.54,54.24,108,54.19Z"/><path class="cls-4" d="M4.61,99.69a25,25,0,0,1,6.18-5.79,17.41,17.41,0,0,1,13.63-2,7.19,7.19,0,0,0,.81.13,17.23,17.23,0,0,1,.85,5.92c0,1.67.94,2.79,2.22,2.77s2.21-1.16,2.12-2.83c-.09-1.87-.32-3.73-.49-5.59,2.46-.54,4.88-1.36,7.46-1.09a19.85,19.85,0,0,1,8.53,9.37,37,37,0,0,1,2.62,23.28A30.21,30.21,0,0,1,42,138c-.72.86-1.73,1.51-2.14,2.63a16.67,16.67,0,0,1-8.41-.5,11.15,11.15,0,0,0-6.62,0,18.19,18.19,0,0,1-21-9C.73,125.46.07,119.32.6,113a28.58,28.58,0,0,1,3.1-11.6Z"/><path class="cls-2" d="M49.5,96.4a26.69,26.69,0,0,1,14-7.32c.54-.1,1.09-.13,1.64-.2a.78.78,0,0,0,.58.32,23.9,23.9,0,0,1,9.47,3.85c9,6.3,13.17,16.24,11.14,26.74a25.61,25.61,0,0,1-11,16.65A29.83,29.83,0,0,1,65,140.71a25.69,25.69,0,0,1-14.26-6.44,29.38,29.38,0,0,0,3.51-6.2,36.56,36.56,0,0,0,1.55-17.33,26.48,26.48,0,0,0-3.48-10.47C51.44,98.9,50.19,97.86,49.5,96.4Zm23.33,5.5a2.08,2.08,0,1,0-2.07-2.12A2.12,2.12,0,0,0,72.83,101.9Z"/><path class="cls-5" d="M34.9,31.89A37.42,37.42,0,0,0,19.52,37,24,24,0,0,0,15,25.56c-.83-1.15-1.66-2.3-2.48-3.46a2.24,2.24,0,0,1-.22-2.66,6.59,6.59,0,0,1,2.68.92,24,24,0,0,0,7.15,2.57c1,.13,2,.37,2.85-.42.08-.09.24-.19.24-.29.29-6.19.31-12.3-4.06-17.43-.64-.76-1.53-1.51-1.34-2.73A37.73,37.73,0,0,1,32.18,10,32.88,32.88,0,0,1,38,17.23l0,0c.09.14.18.13.27,0A16.53,16.53,0,0,1,47.1,3.82c1.28-.72,2.66-1.24,4-1.86,0,1.52-1.11,2.48-1.9,3.53a11.7,11.7,0,0,0-2.13,11.07,10.37,10.37,0,0,0,3.78,5.63c.45.63.81,0,1.15-.12,2.21-1,4.39-2,6.58-2.95.69,1.53,0,2.7-.9,3.89-2.67,3.41-5,7-6,11.33A38.22,38.22,0,0,0,34.9,31.89Z"/><path class="cls-6" d="M94.42,116a23.14,23.14,0,0,0,5.63-3.62,57,57,0,0,0,21.71-35.71,55.46,55.46,0,0,0,.75-13.54,56.82,56.82,0,0,0-5-20,60.5,60.5,0,0,0-7.88-12.65,28.33,28.33,0,0,1,4.25-4.16c.32.38.63.78,1,1.15,13.38,14.74,18.49,31.94,14.26,51.4-4.32,19.92-16.44,33.59-35.25,41.37Z"/><path class="cls-7" d="M93.85,120.26c18.81-7.78,30.93-21.45,35.25-41.37,4.23-19.46-.88-36.66-14.26-51.4-.34-.37-.65-.77-1-1.15a18.56,18.56,0,0,1,2.62-2.77c2.35.32,3.27,2.29,4.43,3.92a68,68,0,0,1,11.21,26.35,64.2,64.2,0,0,1,1.14,16.94,68.07,68.07,0,0,1-6.05,24.33,70.37,70.37,0,0,1-10.58,16.46,68.1,68.1,0,0,1-23.48,17.54,10.76,10.76,0,0,1-4,1.44A34.07,34.07,0,0,0,93.85,120.26Z"/><path class="cls-8" d="M93.85,120.26a34.07,34.07,0,0,1-4.67,10.29h0l-.28.29-2.79,3.11A27.11,27.11,0,0,1,74,140.32a21.51,21.51,0,0,1-9,.39,29.83,29.83,0,0,0,10.46-4.27,25.61,25.61,0,0,0,11-16.65c2-10.5-2.11-20.44-11.14-26.74a23.9,23.9,0,0,0-9.47-3.85.78.78,0,0,1-.58-.32,21.4,21.4,0,0,1,10.27.8C86,93.07,92.14,100.34,94.1,111.17a42.51,42.51,0,0,1,.32,4.8Z"/><path class="cls-9" d="M34.9,31.89a38.22,38.22,0,0,1,16.8,2.45l4.91,2.5a41.61,41.61,0,0,1,8.78,7.87c4.4,5.41,6.54,11.81,8.08,18.46.21.89.39,1.79.59,2.68l-7.71,7.72A60.09,60.09,0,0,0,62.7,55.5c.82-1,2-1.89,1.07-3.4a2.24,2.24,0,0,0-3-.88A19.73,19.73,0,0,0,56.6,44.4a34.05,34.05,0,0,0-11.4-9,31.06,31.06,0,0,0-9.21-3A1.69,1.69,0,0,1,34.9,31.89Z"/><path class="cls-10" d="M49.5,96.4c.69,1.46,1.94,2.5,2.78,3.87a26.48,26.48,0,0,1,3.48,10.47,36.56,36.56,0,0,1-1.55,17.33,29.38,29.38,0,0,1-3.51,6.2,22.3,22.3,0,0,1-7.2,5.27,18,18,0,0,1-3.64,1.1c.41-1.12,1.42-1.77,2.14-2.63a30.21,30.21,0,0,0,6.54-14.16,37,37,0,0,0-2.62-23.28,19.85,19.85,0,0,0-8.53-9.37,16.55,16.55,0,0,1,7.7,2.16c.36.19.73.36,1.1.54A24.35,24.35,0,0,0,49.5,96.4Z"/><path class="cls-1" d="M56.61,36.84l-4.91-2.5c1-4.31,3.3-7.92,6-11.33.92-1.19,1.59-2.36.9-3.89.69-.34,1.37-.71,2.07-1a2.38,2.38,0,0,1,3,.73,2.35,2.35,0,0,1,.22,3c-.8,1.23-1.67,2.41-2.54,3.59A24.8,24.8,0,0,0,56.61,36.84Z"/><path class="cls-1" d="M50.84,22.19a10.37,10.37,0,0,1-3.78-5.63A11.7,11.7,0,0,1,49.19,5.49c.79-1,1.91-2,1.9-3.53L53.93.62A1.6,1.6,0,0,1,56,1.2a1.6,1.6,0,0,1,.15,2C55.57,4.11,55,5,54.33,5.81A17.82,17.82,0,0,0,50.87,16.7C50.88,18.53,50.85,20.36,50.84,22.19Z"/><path class="cls-11" d="M38,17.23A32.88,32.88,0,0,0,32.18,10a37.73,37.73,0,0,0-12.4-7.9C20.22.71,21,.11,22,.58c3.31,1.52,6.86,2.63,9.72,5A16.33,16.33,0,0,1,38,17.23Z"/><path class="cls-11" d="M24.94,22.51c-.86.79-1.88.55-2.85.42a24,24,0,0,1-7.15-2.57,6.59,6.59,0,0,0-2.68-.92c.66-1.45,1.73-2,3.17-1.34C18.62,19.52,21.85,20.86,24.94,22.51Z"/><path class="cls-11" d="M38.19,17.2c-.09.14-.18.15-.27,0Z"/><path class="cls-7" d="M88.91,130.83l.28-.29Z"/><path class="cls-12" d="M29.93,92.29c.17,1.86.4,3.72.49,5.59.09,1.67-.84,2.8-2.12,2.83s-2.19-1.1-2.22-2.77A17.23,17.23,0,0,0,25.23,92a17.54,17.54,0,0,0-7.35-11.2,2.34,2.34,0,0,1-1.18-2.56,2,2,0,0,1,1.72-1.59c1-.23,1.76.44,2.48,1a22.34,22.34,0,0,1,6.52,7.7A35.28,35.28,0,0,1,29.93,92.29Z"/><path class="cls-13" d="M23.64,64.41a2.46,2.46,0,0,1,1.72.83c.77.78,1.58,1.54,2.33,2.34.49.53.89.51,1.37,0,.79-.84,1.6-1.65,2.44-2.44a2,2,0,0,1,3-.16,2.11,2.11,0,0,1,.11,3.08q-2.26,2.41-4.68,4.67a2,2,0,0,1-3.06,0c-1.59-1.53-3.13-3.11-4.68-4.67a2.08,2.08,0,0,1-.36-2.43A2.1,2.1,0,0,1,23.64,64.41Z"/><path class="cls-13" d="M44.83,53.2a2.13,2.13,0,0,1-.74,1.57c-1.45,1.45-2.89,2.93-4.37,4.36a2.07,2.07,0,0,1-3.35,0Q34.17,57,32,54.75a2.21,2.21,0,0,1-.2-3.08,2.07,2.07,0,0,1,3.06,0c.93.81,1.79,1.71,2.64,2.6.4.43.68.46,1.1,0,.84-.9,1.71-1.78,2.63-2.61a2,2,0,0,1,2.4-.42A2.07,2.07,0,0,1,44.83,53.2Z"/><path class="cls-13" d="M60.82,51.22a2.24,2.24,0,0,1,3,.88c.91,1.51-.25,2.41-1.07,3.4L59.16,59c-1.37,1.33-2.32,1.35-3.65,0s-2.8-2.78-4.18-4.19c-1.08-1.09-1.17-2.21-.3-3.14s2.11-.91,3.25.19a17.84,17.84,0,0,1,1.83,1.86c.85,1.13,1.5,1,2.31,0S60,52,60.82,51.22Z"/><path class="cls-13" d="M54.42,66.53a2.61,2.61,0,0,1-.85,1.7c-1.46,1.45-2.9,2.93-4.38,4.37-1.16,1.12-2.07,1.13-3.22,0q-2.28-2.2-4.47-4.48c-1-1.06-1-2.07-.11-3a1.93,1.93,0,0,1,3,.06c.84.78,1.66,1.58,2.43,2.43.51.56.88.63,1.43,0C49.1,66.72,50,65.86,50.9,65A1.76,1.76,0,0,1,53,64.63,2.41,2.41,0,0,1,54.42,66.53Z"/><path class="cls-14" d="M98.28,90c1.75,0,5.52,3.93,5.56,5.36a2,2,0,0,1-1.16,1.89,1.72,1.72,0,0,1-2.07-.18c-1.32-1.2-2.59-2.47-3.8-3.79a1.75,1.75,0,0,1-.14-2.18A2,2,0,0,1,98.28,90Z"/><path class="cls-14" d="M110.34,84.26A17.64,17.64,0,0,1,105,81.71a1.76,1.76,0,0,1-.25-2.5,1.92,1.92,0,0,1,2.39-.87c1.57.64,3.14,1.3,4.65,2.07a1.84,1.84,0,0,1,.91,2.34C112.39,83.81,111.8,84.25,110.34,84.26Z"/><path class="cls-14" d="M111.65,64.42a22.76,22.76,0,0,1,2.48,0,2.12,2.12,0,0,1,2.11,2.38,2.08,2.08,0,0,1-2.38,1.94c-1.51,0-3-.12-4.52-.27a2.05,2.05,0,0,1-1.7-2.3,1.75,1.75,0,0,1,2-1.84h2.06Z"/><path class="cls-14" d="M108,54.19c-1.47.05-2.24-.37-2.51-1.41a2,2,0,0,1,1.13-2.54,31.76,31.76,0,0,1,4.69-1.54,1.89,1.89,0,0,1,2.42,1.47,2.09,2.09,0,0,1-1.43,2.61C110.75,53.32,109.18,53.81,108,54.19Z"/><path class="cls-13" d="M72.83,101.9a2.08,2.08,0,1,1,2.24-2.11A2.12,2.12,0,0,1,72.83,101.9Z"/></svg>