<svg id="Layer_1" data-name="Layer 1" xmlns="http://www.w3.org/2000/svg" viewBox="0 0 141.73 141.73"><defs><style>.cls-1{fill:#ffc955;}.cls-2{fill:#ffd786;}.cls-3{fill:#bfda73;}.cls-4{fill:#afd357;}.cls-5{fill:#d4e384;}.cls-6{fill:#ffdc65;}</style></defs><title>1paddy</title><path class="cls-1" d="M58,46.88c-4.35,3.35-7.28,7.47-10.2,11.58A97,97,0,0,0,39.66,72.7c-1.53,3.17-1.08,6.47-1.24,9.74L36,86.86a52.74,52.74,0,0,1-3.47-10.08c.88-10.53,2.39-21,5.61-31.29,3-9.64,7.26-18.9,14.48-27.18A48.52,48.52,0,0,1,78.77,2.43,60.14,60.14,0,0,1,90.66.7c2,0,4.1,0,6.15,0,1,0,2.09.34,3-.25h.71c1.31.56,2.8.45,4.2.69,16.8,2.85,27.44,11,33.13,23.38,3.93,8.53,4.51,17.37,3.26,26.32-.11.8.09,1.66-.71,2.34-.47-.25-.42-.63-.42-1a52.33,52.33,0,0,0-1.41-11.11c-1.88-8.75-5.1-17.1-12-24.35a36,36,0,0,0-16.93-10A52.16,52.16,0,0,0,88.44,5.34a55.28,55.28,0,0,0-21.28,7.29c-.67.41-1.78.63-1.84,1.53h0a.72.72,0,0,0-.7.3c-3.75,2.24-6.32,5.26-8.75,8.32-5.93,7.47-9.39,15.7-12,24.16-1.09,3.47-1.89,7-2.73,10.55,1-.08,1.06-.67,1.35-1.07A72,72,0,0,1,55.24,42C61,37.23,67.55,33.32,76,32c15-2.4,29,1.51,37.79,11.86,5.51,6.49,8.47,13.7,10.38,21.23a92.61,92.61,0,0,1,2.4,26.19,4.77,4.77,0,0,1-.61,2.79c0-1.73-.34-3.46-.31-5.18a62.51,62.51,0,0,0-1.21-11.41,68.75,68.75,0,0,0-5.82-18.78c-3.33-6.72-7.82-12.81-15.14-17.45-7.65-4.83-16.25-6.32-25.8-4.7a37.49,37.49,0,0,0-16.74,7.6c-.67.5-1.46,1.07-1.56,1.91l-.77.49C58.27,46.54,58,46.62,58,46.88Z"/><path class="cls-2" d="M99.84.43c-.94.59-2,.22-3,.25-2,.06-4.1,0-6.15,0a.24.24,0,0,0,0-.27Z"/><path class="cls-3" d="M42.42,131.05c.49,2.13,1.88,4,2.84,6,1.19,2.48,0,3.85-3.43,3.85-3.82,0-7.63,0-11.45,0-3.4,0-5.39-1.07-6.55-3.54A242.33,242.33,0,0,1,9.25,98.1,254.53,254.53,0,0,1,2.71,66.63,223.22,223.22,0,0,1,.48,42.18c-.11-3.2-.2-6.4-.3-9.6,0-.7-.08-1.5,1.08-1.62s1.31.74,1.51,1.38c3.22,10,6.39,19.92,10,29.79.08.21,0,.47.37.57.35,1.07.63,2.16,1,3.24,4.53,12.53,9.71,24.91,14.9,37.28.26.62.25,1.48,1.36,1.75A4.92,4.92,0,0,0,31,107.5c2.92,6.24,5.74,12.5,8.75,18.7C40.53,127.84,41,129.61,42.42,131.05Z"/><path class="cls-4" d="M42.42,131.05c-1.41-1.44-1.89-3.21-2.69-4.85-3-6.2-5.83-12.46-8.75-18.7a4.92,4.92,0,0,1-.55-2.53A70.94,70.94,0,0,1,36,86.86l2.38-4.42a36,36,0,0,1,5.7-6.4c5-4.08,10.94-5.12,17.82-3.28,7.93,2.12,14.5,5.92,20.81,10a221.62,221.62,0,0,1,28.68,23c2.88,2.65,5.66,5.37,8.49,8,.53.51,1.18,1,.36,1.66s-1.5.12-2.17-.29c-10.33-6.32-20.68-12.63-31.49-18.47A184.92,184.92,0,0,0,66.3,86.93a30.08,30.08,0,0,0-5.56-1.68c-2.8-.52-3.93-.17-5.39,1.79a28.56,28.56,0,0,0-3.79,7.49c-3.59,9.86-5.75,19.94-7.78,30C43.35,126.73,42.88,128.89,42.42,131.05Z"/><path class="cls-5" d="M36,86.86A70.94,70.94,0,0,0,30.43,105c-1.11-.27-1.1-1.13-1.36-1.75C23.88,90.85,18.7,78.47,14.17,65.94c-.38-1.08-.66-2.17-1-3.24-.28-3.65-.6-7.29-.84-10.93a107.36,107.36,0,0,1,0-14.79c.29-3.91.58-7.82,1.16-11.72A106.2,106.2,0,0,1,18.56,5,1.27,1.27,0,0,1,20,4c1,.05,1,.62,1,1.19.2,3.1.42,6.19.6,9.29.46,7.84,1.32,15.65,2.42,23.46A255.64,255.64,0,0,0,29.76,67.5a52.64,52.64,0,0,0,2.81,9.28A52.74,52.74,0,0,0,36,86.86Z"/><path class="cls-6" d="M59.35,46c.1-.84.89-1.41,1.56-1.91a37.49,37.49,0,0,1,16.74-7.6c9.55-1.62,18.15-.13,25.8,4.7,7.32,4.64,11.81,10.73,15.14,17.45a68.75,68.75,0,0,1,5.82,18.78,62.51,62.51,0,0,1,1.21,11.41c0,1.72.36,3.45.31,5.18-.44,1.06-1.55,1.34-2.77,1.29a2.77,2.77,0,0,1-2.56-1.64c-1.29-2.78-2.49-5.59-3.88-8.35A109.72,109.72,0,0,0,98.91,59a56.92,56.92,0,0,0-14-11.29C76.85,43.25,68.38,41.89,59.35,46Z"/><path class="cls-6" d="M65.32,14.16c.06-.9,1.17-1.12,1.84-1.53A55.28,55.28,0,0,1,88.44,5.34a52.16,52.16,0,0,1,21.21,1.37,36,36,0,0,1,16.93,10c6.92,7.25,10.14,15.6,12,24.35A52.33,52.33,0,0,1,140,52.17c0,.36,0,.74.42,1-.49,1-1.58,1.1-2.74,1.05a2.66,2.66,0,0,1-2.53-1.65,54,54,0,0,0-3.89-7.6c-6-9.33-14.71-16.74-25.72-22.57A76.84,76.84,0,0,0,82.3,14.33,45.1,45.1,0,0,0,65.32,14.16Z"/><path class="cls-6" d="M64.62,14.45a.72.72,0,0,1,.7-.3A.81.81,0,0,1,64.62,14.45Z"/><path class="cls-6" d="M58,46.88c.07-.26.32-.34.63-.36Z"/></svg>