<svg id="Layer_1" data-name="Layer 1" xmlns="http://www.w3.org/2000/svg" viewBox="0 0 141.73 141.73"><defs><style>.cls-1{fill:#cc7867;}.cls-2{fill:#b56752;}.cls-3{fill:#fcf6b5;}.cls-4{fill:#09b59f;}.cls-5{fill:#53bd8a;}.cls-6{fill:#98cd76;}.cls-7{fill:#9e543c;}.cls-8{fill:#f9a97c;}.cls-9{fill:#41599f;}.cls-10{fill:#f176a4;}.cls-11{fill:#fcc6ab;}.cls-12{fill:#faee58;}.cls-13{fill:#47324d;}.cls-14{fill:#bbd866;}.cls-15{fill:#ee4595;}</style></defs><title>1profiling</title><path class="cls-1" d="M80.52.54a49.72,49.72,0,0,1,5.79,1.81A5.64,5.64,0,0,1,90.05,8L77.81,7.88a5.61,5.61,0,0,1-.17-6.82,1.48,1.48,0,0,0,.14-.52Z"/><path class="cls-2" d="M77.78.54a1.48,1.48,0,0,1-.14.52,5.61,5.61,0,0,0,.17,6.82L66.09,8l.12-1.14c.26-2.24,1.64-3.5,3.61-4.42,1.77-.83,3.69-1.15,5.5-1.85Z"/><path class="cls-3" d="M66.21,6.81,66.09,8q-.69,3.25-1.37,6.52l-4.63,0c-1.71,0-2.83,1-2.84,2.46s1.1,2.45,2.81,2.47h6.27c.09,2.73-.26,5.48.22,8.18.4,2.19,1,4.33,3,5.71a11,11,0,0,0,10.16,3.92c5.34-.51,10.1-5.56,10.12-10.93,0-2.28,0-4.56,0-6.84,2.13,0,4.26,0,6.39-.05A2.39,2.39,0,0,0,98.88,17a2.46,2.46,0,0,0-2.66-2.46c-1.59,0-3.18,0-4.77,0l-.92-4.89a49.89,49.89,0,0,1,12.24,5A65.85,65.85,0,0,1,119.9,27.76,67.58,67.58,0,0,1,138,76.33a52,52,0,0,1-1.27,10.23,9.35,9.35,0,0,0-9.91-4.4,9.76,9.76,0,0,0-5.21,3l0,.28v0c-1.71.58-2.95-.07-4.26-1.24a9.16,9.16,0,0,0-12.34.25c-1.93,1.72-2.81,1.71-4.79-.06a9.25,9.25,0,0,0-12.55.05c-1.84,1.7-2.85,1.67-4.7,0a9.11,9.11,0,0,0-9.77-1.87,27.82,27.82,0,0,0-3.37,2,2.6,2.6,0,0,1,.34-1.57c1.68-5,3.42-10,5.07-15A34,34,0,0,0,77,62.47c0-.55.51-.64.83-.9a1.48,1.48,0,0,1,.8.48l6.94,6.37a8.33,8.33,0,0,0,4.33,2.18c2.19.35,4.42.52,6.6.91,2,.36,4.28.11,5.85,1.53,1.82,1.64,4,1.78,6.14,2.29,2.89.7,4.94-.45,6.53-2.76A15.79,15.79,0,0,0,124.08,68c.86-.87,1.77-1.94,1.14-3.26s-2.15-1.33-3.48-1.35c-.13,0-.27.06-.4.07-1.81,0-3.41.93-5.15,1.26a18.37,18.37,0,0,0,1-9.25c-.26-1.5-.6-3.12-2.26-3.61s-2.77.78-3.75,1.95a8.83,8.83,0,0,0-.92,1.34,19.91,19.91,0,0,0-2.71,9.2,3.64,3.64,0,0,0-2.26,0,7.71,7.71,0,0,1-4.56,0c-2.45-.64-4.9-1.31-7.37-1.88a4.54,4.54,0,0,1-2.73-1.85c-1.69-2.24-3.44-4.44-5.17-6.65-2.86-4-5.73-8-8.55-12a7.13,7.13,0,0,0-5.77-3.1c-1.51-.68-3.08-.32-4.63-.24.39-3.28-1.91-3.85-4.24-2.93a17.59,17.59,0,0,0-3.43,1.94c-1.31.91-2.2,2.25-3.52,3.14a15.52,15.52,0,0,0-2.42-7.31c-.73-1.18-1.57-2.41-3.28-2.27a2.41,2.41,0,0,0-2.74-.64,10.61,10.61,0,0,0-4.2,2.17c-1.22,1-2.36,2.09-3.54,3.14a17.47,17.47,0,0,0-2.61-7.41c-.83-1.22-1.78-2.51-3.5-2.14s-2,1.85-2.37,3.23a18.79,18.79,0,0,0,.12,8.14l-2.66-.61a2.61,2.61,0,1,0-1.3,5c.52.15,1.09.16,1.47.63l-.49,6.8a3,3,0,0,0-.13.52L25.21,81.9a10.25,10.25,0,0,0-7.54,3c-1.22,1.2-2.53,1.13-3.88-.14a9.36,9.36,0,0,0-9.34-2.4,50.7,50.7,0,0,1-.58-12.11A67.8,67.8,0,0,1,9.51,46.64,66.85,66.85,0,0,1,52.3,9.24,58.72,58.72,0,0,1,66.21,6.81Z"/><path class="cls-4" d="M4.45,82.34a9.36,9.36,0,0,1,9.34,2.4c1.35,1.27,2.66,1.34,3.88.14a10.25,10.25,0,0,1,7.54-3,11.28,11.28,0,0,1,6.33,3.15c1.06,1,2.4.91,3.64-.28a10.31,10.31,0,0,1,5.08-2.7,10,10,0,0,1,7.67,2c1.74,2,3.07,2.11,4.83.47a9.3,9.3,0,0,1,12.94,0,3.63,3.63,0,0,0,3,1.17,2.24,2.24,0,0,1-.52,1.21,8.65,8.65,0,0,0-1.38,4.14c-2.06-.28-3.21.49-3.74,3a18.47,18.47,0,0,0,2.66,14.45,3.38,3.38,0,0,0,2.73,1.79l1.61.68a27.22,27.22,0,0,0,.25,2.84,9.83,9.83,0,0,0,9.57,8.94c.12.44.25.87.37,1.3a14.78,14.78,0,0,0,3,6.32,2.72,2.72,0,0,0,2.17,1.19l1.39.78a12.4,12.4,0,0,0,2.77,5.75,52,52,0,0,1-12,2.38,64.61,64.61,0,0,1-35.61-6.3Q12.3,119.39,5.16,86.92A28.5,28.5,0,0,1,4.45,82.34Zm46.73,49.2c1.85,1.31,3.66.76,5.39-.22a19.78,19.78,0,0,0,8.13-8.82,7.22,7.22,0,0,0,.82-3.42,2.17,2.17,0,0,0-2.59-2.41,8,8,0,0,0-3.67,1.38,27.23,27.23,0,0,0-4.75,4.08c-.54-3-1.25-6-3.34-8.39-2-2.21-3.91-1.81-4.91,1a14.58,14.58,0,0,0-.53,7,17.34,17.34,0,0,0,2.79,7.91C49.17,130.53,49.84,131.53,51.18,131.54ZM37.54,100.69c-.28-.29-.25-.66-.32-1a15.65,15.65,0,0,0-3.12-7.32c-1.84-2.17-3.83-1.81-4.86.83a6.33,6.33,0,0,0-.3.9,18.32,18.32,0,0,0,2.87,14.67,3,3,0,0,0,2.45,1.51,4.07,4.07,0,0,0,4.41.06,19,19,0,0,0,9.45-10.51,5.25,5.25,0,0,0,.34-2.42,2.14,2.14,0,0,0-2.23-2.11,5,5,0,0,0-2.13.39A18.46,18.46,0,0,0,37.54,100.69Z"/><path class="cls-5" d="M66.84,91.06a8.65,8.65,0,0,1,1.38-4.14,2.24,2.24,0,0,0,.52-1.21v0l.3-.25.54-.56a.28.28,0,0,0,.27-.31l0,0a27.82,27.82,0,0,1,3.37-2A9.11,9.11,0,0,1,83,84.48c1.85,1.62,2.86,1.65,4.7,0a9.25,9.25,0,0,1,12.55-.05c2,1.77,2.86,1.78,4.79.06a9.16,9.16,0,0,1,12.34-.25c1.31,1.17,2.55,1.82,4.26,1.24a32.67,32.67,0,0,0-.56,7.19,10.61,10.61,0,0,0,5.76,9.29c1.33.73,2.8,1,4.17,1.63a64,64,0,0,1-14.38,19.3,66.13,66.13,0,0,1-26.08,15c-.3.09-.62.13-.93.2a12.4,12.4,0,0,1-2.77-5.75,7,7,0,0,0,3.79-.94,18.84,18.84,0,0,0,6.5-5.89,14.29,14.29,0,0,0,2.5-5.12c.65-2.88-.95-4.36-3.75-3.46a11.67,11.67,0,0,0-3.91,2.18c-1.18,1-2.32,2-3.47,3.06a9.76,9.76,0,0,0-.74-3.86,11.58,11.58,0,0,0-2.78-5c-1.68-1.63-3.39-1.3-4.34.82a12.2,12.2,0,0,0-.63,2.08c-.58,2.16-.16,4.34-.06,6.5a9.83,9.83,0,0,1-9.57-8.94A27.22,27.22,0,0,1,70.1,111a6,6,0,0,0,2.26-.45,17.32,17.32,0,0,0,7-5.51,14.68,14.68,0,0,0,3.26-6.52c.4-2.07-.65-3.28-2.74-3.17a8.3,8.3,0,0,0-3.64,1.41c-1.87,1-3.13,2.76-4.75,4.07a18.9,18.9,0,0,0-.3-2C70.43,95.82,69.47,93,66.84,91.06Zm38.89,9.71c-.1-.44-.19-.89-.29-1.33-.62-2.77-1.38-5.47-3.51-7.53-1.56-1.51-3-1.31-4.1.58a6,6,0,0,0-.6,1.51,15.91,15.91,0,0,0-.31,6.19,18.19,18.19,0,0,0,2.8,8,4.08,4.08,0,0,0,3,2.09,4,4,0,0,0,4.16,0A18.56,18.56,0,0,0,116.34,100c.54-1.39,1-3.08-.33-4.22s-2.85-.46-4.24.18A19.41,19.41,0,0,0,105.73,100.77Z"/><path class="cls-6" d="M131,103.54c-1.37-.6-2.84-.9-4.17-1.63A10.61,10.61,0,0,1,121,92.62a32.67,32.67,0,0,1,.56-7.19v0c.21-.07.19-.17,0-.28a9.76,9.76,0,0,1,5.21-3,9.35,9.35,0,0,1,9.91,4.4A60.33,60.33,0,0,1,131,103.54Z"/><path class="cls-7" d="M90.53,9.62c.31,1.63.62,3.26.92,4.89l-26.73,0Q65.4,11.2,66.09,8l11.72-.07L90.05,8Z"/><path class="cls-7" d="M47.93,84.11a10,10,0,0,0-7.67-2l.54-4c.44-3.18.91-6.36,1.31-9.55a34.51,34.51,0,0,0,.5-5.8c-.18-3.91-2.55-6.62-5.54-8.81a32,32,0,0,0-9.24-4.32c.16-2.27.33-4.53.49-6.8a5.13,5.13,0,0,1,1.74.17c2,.56,4,1,6.06,1.57l21.19,5.4c-.16.62-.29,1.24-.48,1.84-2,6.21-3.92,12.43-5.48,18.76-1.26.34-2.53.66-3.79,1a2.82,2.82,0,0,0-1.09,4.87c.91.85,2,.59,3.11.55Z"/><path class="cls-2" d="M27.83,49.55a32,32,0,0,1,9.24,4.32c3,2.19,5.36,4.9,5.54,8.81a34.51,34.51,0,0,1-.5,5.8c-.4,3.19-.87,6.37-1.31,9.55l-.54,4a10.31,10.31,0,0,0-5.08,2.7c-1.24,1.19-2.58,1.33-3.64.28a11.28,11.28,0,0,0-6.33-3.15L27.7,50.07A3,3,0,0,1,27.83,49.55Z"/><path class="cls-8" d="M85.49,53.92c1.73,2.21,3.48,4.41,5.17,6.65a4.54,4.54,0,0,0,2.73,1.85c2.47.57,4.92,1.24,7.37,1.88a7.71,7.71,0,0,0,4.56,0,3.64,3.64,0,0,1,2.26,0c2.17.49,4.49.53,6.32,2A6.12,6.12,0,0,1,115,72.57c-1.59,2.31-3.64,3.46-6.53,2.76-2.14-.51-4.32-.65-6.14-2.29-1.57-1.42-3.85-1.17-5.85-1.53-2.18-.39-4.41-.56-6.6-.91a8.33,8.33,0,0,1-4.33-2.18L78.6,62.05a1.48,1.48,0,0,0-.8-.48c-.66-1-1.79-1.65-2.52-2.63A19.31,19.31,0,0,0,85.49,53.92Z"/><path class="cls-9" d="M47.93,84.11l1.65-7.18a1.34,1.34,0,0,1,.23-.13c9.85-2.32,18.28-7.35,26-13.68.34-.28.6-.73,1.15-.65a34,34,0,0,1-1.74,5.58c-1.65,5-3.39,10-5.07,15a2.6,2.6,0,0,0-.34,1.57l0,0c-.24,0-.24.16-.27.31l-.54.56-.3.25v0a3.63,3.63,0,0,1-3-1.17,9.3,9.3,0,0,0-12.94,0C51,86.22,49.67,86.09,47.93,84.11Z"/><path class="cls-10" d="M85.49,53.92a19.31,19.31,0,0,1-10.21,5c-.63-.39-1-1.13-1.84-1.24a8.79,8.79,0,0,0-2.19-2.36c-2.46-2.43-5.4-4.43-6.9-7.72,0-.41,0-.82,0-1.22-.12-4.33,2.48-7.19,6.84-7.54A7.13,7.13,0,0,1,76.94,42C79.76,46,82.63,49.94,85.49,53.92Z"/><path class="cls-11" d="M89.86,19.5c0,2.28,0,4.56,0,6.84,0,5.37-4.78,10.42-10.12,10.93a11,11,0,0,1-10.16-3.92,26.79,26.79,0,0,0,6.13-2.11,3.24,3.24,0,0,0,1.88-3.06c0-.73,0-1.46,0-2.18l0-6.52Z"/><path class="cls-1" d="M89.86,19.5l-12.32,0c-1.54.05-3.1-.32-4.61.24-.36-.42-.85-.26-1.28-.26-1.77,0-3.55,0-5.32,0H60.06c-1.71,0-2.81-1-2.81-2.47s1.13-2.43,2.84-2.46l4.63,0,26.73,0c1.59,0,3.18,0,4.77,0A2.46,2.46,0,0,1,98.88,17a2.39,2.39,0,0,1-2.63,2.46C94.12,19.48,92,19.49,89.86,19.5Z"/><path class="cls-9" d="M71.17,38.86c-4.36.35-7,3.21-6.84,7.54,0,.4,0,.81,0,1.22-1.19,3.87-2.41,7.72-3.54,11.6a5.35,5.35,0,0,0,2,6.06,41.43,41.43,0,0,1-11.47,5.21c1.56-6.33,3.5-12.55,5.48-18.76.19-.6.32-1.22.48-1.84A33.59,33.59,0,0,0,59,45a11.46,11.46,0,0,1,7.55-6.38C68.09,38.54,69.66,38.18,71.17,38.86Z"/><path class="cls-12" d="M51.35,70.49a41.43,41.43,0,0,0,11.47-5.21A59.28,59.28,0,0,0,73.44,57.7c.81.11,1.21.85,1.84,1.24.73,1,1.86,1.58,2.52,2.63-.32.26-.82.35-.83.9-.55-.08-.81.37-1.15.65-7.73,6.33-16.16,11.36-26,13.68a1.34,1.34,0,0,0-.23.13c-1.08,0-2.2.3-3.11-.55a2.82,2.82,0,0,1,1.09-4.87C48.82,71.15,50.09,70.83,51.35,70.49Z"/><path class="cls-1" d="M59,45a33.59,33.59,0,0,1-1.68,4.89l-21.19-5.4c-2-.52-4-1-6.06-1.57a5.13,5.13,0,0,0-1.74-.17c-.38-.47-.95-.48-1.47-.63a2.61,2.61,0,1,1,1.3-5l2.66.61a59.16,59.16,0,0,0,6.42,1.63l9.59,2.54,6.86,1.69Z"/><path class="cls-13" d="M66.33,19.46c1.77,0,3.55,0,5.32,0,.43,0,.92-.16,1.28.26A4.29,4.29,0,0,0,77.51,26c0,.72,0,1.45,0,2.18a3.24,3.24,0,0,1-1.88,3.06,26.79,26.79,0,0,1-6.13,2.11c-2-1.38-2.6-3.52-3-5.71C66.07,24.94,66.42,22.19,66.33,19.46Z"/><path class="cls-4" d="M113.9,66.38c-1.83-1.52-4.15-1.56-6.32-2a19.91,19.91,0,0,1,2.71-9.2,8.83,8.83,0,0,1,.92-1.34c1-1.17,2-2.46,3.75-1.95s2,2.11,2.26,3.61a18.37,18.37,0,0,1-1,9.25C115.55,65.42,114.46,65.54,113.9,66.38Z"/><path class="cls-4" d="M37.23,39.31a59.16,59.16,0,0,1-6.42-1.63,18.79,18.79,0,0,1-.12-8.14c.33-1.38.75-2.88,2.37-3.23s2.67.92,3.5,2.14a17.47,17.47,0,0,1,2.61,7.41C38.76,37.15,37.45,37.92,37.23,39.31Z"/><path class="cls-6" d="M53.68,43.54l-6.86-1.69a9.91,9.91,0,0,0-.08-1.64,13.18,13.18,0,0,1,.46-6.6c.37-1.15.91-2.35,2.45-2.42,1.71-.14,2.55,1.09,3.28,2.27a15.52,15.52,0,0,1,2.42,7.31C55.1,41.87,54.06,42.51,53.68,43.54Z"/><path class="cls-5" d="M49.65,31.19c-1.54.07-2.08,1.27-2.45,2.42a13.18,13.18,0,0,0-.46,6.6,9.91,9.91,0,0,1,.08,1.64l-9.59-2.54c.22-1.39,1.53-2.16,1.94-3.45,1.18-1,2.32-2.14,3.54-3.14a10.61,10.61,0,0,1,4.2-2.17A2.41,2.41,0,0,1,49.65,31.19Z"/><path class="cls-5" d="M113.9,66.38c.56-.84,1.65-1,2.29-1.68,1.74-.33,3.34-1.22,5.15-1.26.13,0,.27-.07.4-.07,1.33,0,2.8-.06,3.48,1.35s-.28,2.39-1.14,3.26A15.79,15.79,0,0,1,115,72.57,6.12,6.12,0,0,0,113.9,66.38Z"/><path class="cls-14" d="M53.68,43.54c.38-1,1.42-1.67,1.67-2.77,1.32-.89,2.21-2.23,3.52-3.14a17.59,17.59,0,0,1,3.43-1.94c2.33-.92,4.63-.35,4.24,2.93A11.46,11.46,0,0,0,59,45Z"/><path class="cls-5" d="M121.62,85.17c.16.11.18.21,0,.28Z"/><path class="cls-14" d="M37.54,100.69a18.46,18.46,0,0,1,6.56-5,5,5,0,0,1,2.13-.39,2.14,2.14,0,0,1,2.23,2.11,5.25,5.25,0,0,1-.34,2.42,19,19,0,0,1-9.45,10.51,4.07,4.07,0,0,1-4.41-.06,7.09,7.09,0,0,1,.47-5.27A24.46,24.46,0,0,1,37.54,100.69Z"/><path class="cls-14" d="M88.47,122.15c1.15-1,2.29-2.07,3.47-3.06a11.67,11.67,0,0,1,3.91-2.18c2.8-.9,4.4.58,3.75,3.46a14.29,14.29,0,0,1-2.5,5.12,18.84,18.84,0,0,1-6.5,5.89,7,7,0,0,1-3.79.94l-1.39-.78a7.91,7.91,0,0,1,1-5.94C87,124.39,88.06,123.46,88.47,122.15Z"/><path class="cls-14" d="M54.51,122.13a27.23,27.23,0,0,1,4.75-4.08,8,8,0,0,1,3.67-1.38,2.17,2.17,0,0,1,2.59,2.41,7.22,7.22,0,0,1-.82,3.42,19.78,19.78,0,0,1-8.13,8.82c-1.73,1-3.54,1.53-5.39.22a12.06,12.06,0,0,1-.09-2.95C51.64,126.1,53.11,124.15,54.51,122.13Z"/><path class="cls-14" d="M71.48,100.78c1.62-1.31,2.88-3,4.75-4.07a8.3,8.3,0,0,1,3.64-1.41c2.09-.11,3.14,1.1,2.74,3.17A14.68,14.68,0,0,1,79.35,105a17.32,17.32,0,0,1-7,5.51,6,6,0,0,1-2.26.45l-1.61-.68a6.77,6.77,0,0,1,.31-5A41.52,41.52,0,0,1,71.48,100.78Z"/><path class="cls-6" d="M71.48,100.78a41.52,41.52,0,0,0-2.68,4.51,6.77,6.77,0,0,0-.31,5,3.38,3.38,0,0,1-2.73-1.79A18.47,18.47,0,0,1,63.1,94c.53-2.48,1.68-3.25,3.74-3,2.63,1.91,3.59,4.76,4.34,7.72A18.9,18.9,0,0,1,71.48,100.78Z"/><path class="cls-6" d="M37.54,100.69a24.46,24.46,0,0,0-2.81,4.3,7.09,7.09,0,0,0-.47,5.27,3,3,0,0,1-2.45-1.51,18.32,18.32,0,0,1-2.87-14.67,6.33,6.33,0,0,1,.3-.9c1-2.64,3-3,4.86-.83a15.65,15.65,0,0,1,3.12,7.32C37.29,100,37.26,100.4,37.54,100.69Z"/><path class="cls-6" d="M88.47,122.15c-.41,1.31-1.44,2.24-2.06,3.45a7.91,7.91,0,0,0-1,5.94,2.72,2.72,0,0,1-2.17-1.19,14.78,14.78,0,0,1-3-6.32c-.12-.43-.25-.86-.37-1.3-.1-2.16-.52-4.34.06-6.5a12.2,12.2,0,0,1,.63-2.08c1-2.12,2.66-2.45,4.34-.82a11.58,11.58,0,0,1,2.78,5A9.76,9.76,0,0,1,88.47,122.15Z"/><path class="cls-6" d="M54.51,122.13c-1.4,2-2.87,4-3.42,6.46a12.06,12.06,0,0,0,.09,2.95c-1.34,0-2-1-2.66-1.92a17.34,17.34,0,0,1-2.79-7.91,14.58,14.58,0,0,1,.53-7c1-2.78,3-3.18,4.91-1C53.26,116.13,54,119.1,54.51,122.13Z"/><path class="cls-14" d="M105.73,100.77a19.41,19.41,0,0,1,6-4.8c1.39-.64,3-1.31,4.24-.18s.87,2.83.33,4.22a18.56,18.56,0,0,1-9.44,10.33,4,4,0,0,1-4.16,0c-.85-1.36-.58-2.74-.12-4.16A21.15,21.15,0,0,1,105.73,100.77Z"/><path class="cls-6" d="M105.73,100.77a21.15,21.15,0,0,0-3.11,5.37c-.46,1.42-.73,2.8.12,4.16a4.08,4.08,0,0,1-3-2.09,18.19,18.19,0,0,1-2.8-8A15.91,15.91,0,0,1,97.23,94a6,6,0,0,1,.6-1.51c1.09-1.89,2.54-2.09,4.1-.58,2.13,2.06,2.89,4.76,3.51,7.53C105.54,99.88,105.63,100.33,105.73,100.77Z"/><path class="cls-3" d="M69.57,84.92c0-.15,0-.33.27-.31A.28.28,0,0,1,69.57,84.92Z"/><path class="cls-4" d="M68.73,85.73l.3-.25Z"/><path class="cls-15" d="M73.44,57.7a59.28,59.28,0,0,1-10.62,7.58,5.35,5.35,0,0,1-2-6.06c1.13-3.88,2.35-7.73,3.54-11.6,1.5,3.29,4.44,5.29,6.9,7.72A8.79,8.79,0,0,1,73.44,57.7Z"/><path class="cls-8" d="M77.51,26a4.29,4.29,0,0,1-4.58-6.28c1.51-.56,3.07-.19,4.61-.24Z"/></svg>