<svg id="Layer_1" data-name="Layer 1" xmlns="http://www.w3.org/2000/svg" viewBox="0 0 141.73 141.73"><defs><style>.cls-1{fill:#efe7e4;}.cls-2{fill:#c9de78;}.cls-3{fill:#aad481;}.cls-4{fill:#fcfbfb;}.cls-5{fill:#76707a;}</style></defs><title>1retail-price</title><path class="cls-1" d="M140,97.76c-1,5.36-2.62,10.43-5.89,14.84-4.89,6.6-12.55,8.9-20.38,5.72A31.25,31.25,0,0,1,102,109.63a54.18,54.18,0,0,1-7.08-10,1.91,1.91,0,0,0-.85-.86A68.3,68.3,0,0,1,99.82,93a2.64,2.64,0,0,0,.44,1.42,44.09,44.09,0,0,0,10.54,13.8,18.62,18.62,0,0,0,6.86,3.88,8.78,8.78,0,0,0,8.37-1.53,17.11,17.11,0,0,0,5.33-8.29,47.88,47.88,0,0,0,2-11.09A61.88,61.88,0,0,0,133,79.63a63.16,63.16,0,0,0-2.71-12.36,30.86,30.86,0,0,0-2.41-6.35,18.09,18.09,0,0,0-1.37-3.42c-2.73-5.61-5.95-10.87-10.68-15.07a9.49,9.49,0,0,0-1.26-1.2c-1.1-.73-1.92-1.94-3.42-2a.76.76,0,0,0-.56-.7c-2.35-1-4.69-1.78-7.35-1.28s-6.58,3.87-7.2,6.57c-.56.17-.94-.21-1.33-.5a11,11,0,0,1-4.07-5.24,3.53,3.53,0,0,0,.81-.91,16.77,16.77,0,0,1,14.47-7.29c2.39,0,4.61.95,6.86,1.64a7.88,7.88,0,0,0,2.19,1.14,40,40,0,0,1,9.22,7.9c.84,1,1.71,2,2.57,3a92.65,92.65,0,0,1,6.39,11.11A78.63,78.63,0,0,1,139.63,76c.19,1.25.38,2.5.54,3.76C140.22,80.13,140.1,96.92,140,97.76Z"/><path class="cls-2" d="M114.92,32.7a7.88,7.88,0,0,1-2.19-1.14,10,10,0,0,0-4.15-7.41,11.71,11.71,0,0,0-14.15.21,11.91,11.91,0,0,0-3.84,13.76,11,11,0,0,0,4.07,5.24c.39.29.77.67,1.33.5,5.52,2.6,12.31.53,15.11-4.59,1.5,0,2.32,1.23,3.42,2a9,9,0,0,1,1.26,1.21c-.19,4.83.65,9.62.55,14.45a5.79,5.79,0,0,1-1.77,4.26l-8.14,8.13a3.4,3.4,0,0,1-1.26,1,6.14,6.14,0,0,0-1.27-1.6L66.05,30.88l-.39-.39c-1.25-1.19-2.08-1.21-3.29,0-.88.86-1.73,1.76-2.61,2.63L15,77.83c-1.41,1.41-1.44,2.13-.13,3.45L53.5,119.91a2.94,2.94,0,0,0,1.33.92c-2.8,2.65-5.14,5.8-8.5,7.84-.43-.4-.87-.8-1.29-1.21L3,85.37C0,82.43-.59,79.21,1.16,76.07a8.37,8.37,0,0,1,1.37-1.7L68,8.91a5.56,5.56,0,0,1,4.4-1.83L96.05,8.43l11.22.62,6,.34c.1.35.21.7.28,1a57.76,57.76,0,0,1,.58,7.31C114.43,22.73,114.91,27.7,114.92,32.7Z"/><path class="cls-3" d="M105.16,70.31a3.4,3.4,0,0,0,1.26-1l8.14-8.13a5.79,5.79,0,0,0,1.77-4.26c.1-4.83-.74-9.62-.55-14.45,4.73,4.19,8,9.45,10.68,15.06a18.09,18.09,0,0,1,1.37,3.42c.33,2.94-1,5.08-3,7.08-5.8,5.63-11.46,11.4-17.17,17.12-2.61,2.62-5.2,5.26-7.8,7.88a68.3,68.3,0,0,0-5.77,5.77c-.37.34-.75.67-1.1,1l-32.1,32.1c-3.68,3.68-7.74,3.69-11.39,0-1.06-1.06-2.09-2.16-3.13-3.25,3.36-2,5.7-5.19,8.5-7.84a2.82,2.82,0,0,0,2.24-1.11q8.52-8.55,17.06-17.07L104,72.78C104.7,72.09,105.4,71.43,105.16,70.31Z"/><path class="cls-3" d="M114.92,32.7c0-5-.49-10-.78-15a57.76,57.76,0,0,0-.58-7.31c-.07-.35-.18-.7-.28-1a16.43,16.43,0,0,1,6.2.75,8.74,8.74,0,0,1,5.81,8.19c.37,5.55.59,11.11.89,16.67.16,2.86.35,5.73.53,8.6-.86-1-1.73-2-2.57-3A40,40,0,0,0,114.92,32.7Z"/><path class="cls-4" d="M105.16,70.31c.24,1.12-.46,1.78-1.15,2.47L74.13,102.65q-8.53,8.53-17.06,17.07a2.82,2.82,0,0,1-2.24,1.11,2.94,2.94,0,0,1-1.33-.92L14.91,81.28c-1.31-1.32-1.28-2,.13-3.45L59.76,33.1c.88-.87,1.73-1.77,2.61-2.63,1.21-1.19,2-1.17,3.29,0l.39.39,37.84,37.83A6.14,6.14,0,0,1,105.16,70.31Zm-33.57.86c0,.28,0,.42,0,.55-.11,2.2,1.12,3.82,3,4s3.48-1,3.9-3.18a11.17,11.17,0,0,0-1.62-8.26c-.42-.68-.42-1.08.18-1.61a21.33,21.33,0,0,0,2.21-2.25,3.49,3.49,0,0,0-5-4.82,16.91,16.91,0,0,0-1.75,1.74c-.72.89-1.31,1-2.37.34A11.87,11.87,0,0,0,55.26,75.81c1,1.17,2.19,2.21,3.23,3.36a4.64,4.64,0,0,1,.87,5.23,4.75,4.75,0,0,1-4.58,2.88c-2.32,0-6.42-3.59-7.12-6.15A4.92,4.92,0,0,1,47.55,79a3.52,3.52,0,1,0-6.94-1.1,11.66,11.66,0,0,0,.51,5.94c.45,1.13,1.58,2.34,1.38,3.27s-1.67,1.85-2.52,2.8a3.49,3.49,0,0,0,4.9,5A22.54,22.54,0,0,0,47,92.72c.53-.61.94-.62,1.61-.19a11,11,0,0,0,7.45,1.76c4.92-.64,8.4-3.26,10-8s.46-8.89-3-12.47c-.82-.86-1.71-1.66-2.51-2.54a4.86,4.86,0,0,1,6.88-6.86c.81.74,1.54,1.57,2.34,2.32A4.92,4.92,0,0,1,71.59,71.17Z"/><path class="cls-5" d="M71.59,71.17a4.92,4.92,0,0,0-1.71-4.41c-.8-.75-1.53-1.58-2.34-2.32a4.86,4.86,0,0,0-6.88,6.86c.8.88,1.69,1.68,2.51,2.54,3.41,3.58,4.59,7.75,3,12.47s-5.12,7.34-10,8a11,11,0,0,1-7.45-1.76c-.67-.43-1.08-.42-1.61.19a22.54,22.54,0,0,1-2.14,2.12,3.49,3.49,0,0,1-4.9-5c.85-.95,2.28-1.73,2.52-2.8s-.93-2.14-1.38-3.27a11.66,11.66,0,0,1-.51-5.94A3.52,3.52,0,1,1,47.55,79a4.92,4.92,0,0,0,.11,2.16c.7,2.56,4.8,6.11,7.12,6.15a4.75,4.75,0,0,0,4.58-2.88,4.64,4.64,0,0,0-.87-5.23c-1-1.15-2.2-2.19-3.23-3.36A11.87,11.87,0,0,1,70.11,57.7c1.06.63,1.65.55,2.37-.34a16.91,16.91,0,0,1,1.75-1.74,3.49,3.49,0,0,1,5,4.82,21.33,21.33,0,0,1-2.21,2.25c-.6.53-.6.93-.18,1.61a11.17,11.17,0,0,1,1.62,8.26c-.42,2.17-1.9,3.38-3.9,3.18s-3.14-1.82-3-4C71.56,71.59,71.57,71.45,71.59,71.17Z"/></svg>