<svg id="Layer_1" data-name="Layer 1" xmlns="http://www.w3.org/2000/svg" viewBox="0 0 141.73 141.73"><defs><style>.cls-1{fill:#fefefd;}.cls-2{fill:#8bc640;}.cls-3{fill:#905fa7;}.cls-4{fill:#fac715;}.cls-5{fill:#ea79af;}.cls-6{fill:#a7cf3a;}.cls-7{fill:#9aca3d;}.cls-8{fill:#a7cf3d;}.cls-9{fill:#ee96c0;}.cls-10{fill:#fdd40c;}.cls-11{fill:#9bcb3e;}.cls-12{fill:#9bcb3d;}.cls-13{fill:#dff0f9;}</style></defs><title>1floriculture</title><path class="cls-1" d="M64.16,24.67a1.68,1.68,0,0,1,2.37.17c2,1.65,4.11,1.44,5.6-.32,1.19-1.4,1.08-3.12-.42-5.14-.57-.76-.74-1.27,0-2.09a3.94,3.94,0,0,0,1-4.07c-.9-2.57-3.62-3.34-6.09-1.52-1.14.85-1.89.8-2.79-.1a3.77,3.77,0,0,0-4.47-.38c-2.05,1.26-2.27,3.84-.46,6.12.55.7.71,1.21,0,1.88a4.3,4.3,0,0,0-.73,1.16,3.8,3.8,0,0,0,1,4.93A3.74,3.74,0,0,0,64.16,24.67Zm54.62,44.54c1-1.09,1.92-1,2.92,0a3.09,3.09,0,0,0,1.2.64,3.58,3.58,0,0,0,3.84-.73,3.45,3.45,0,0,0,.93-3.79,4.37,4.37,0,0,0-.92-1.68c-.8-.81-.78-1.42,0-2.3a4,4,0,0,0,1-3.71c-.71-2.68-3.61-3.66-6-1.84-1.1.83-1.87,1.05-2.87.11a3.5,3.5,0,0,0-3.8-.83c-2.54.93-3.22,3.84-1.34,6.26a1.58,1.58,0,0,1-.07,2.44,3.94,3.94,0,0,0,0,5.28C115,70.39,117,70.45,118.78,69.21Z"/><path class="cls-2" d="M133.9,126.78l4.83.07c1.73,0,2.69.79,2.69,2.1s-1,2-2.71,2H82.24q-39.54,0-79.1,0c-1.32,0-2.48-.13-3.11-1.48v-1.38a3.28,3.28,0,0,1,3.08-1.32c1.46.06,2.93,0,4.39,0a6.85,6.85,0,0,0,4.13,0h8.28a6.52,6.52,0,0,0,4.14,0h8.29a7.4,7.4,0,0,0,4.42,0h8a7.37,7.37,0,0,0,4.41,0h8a7.4,7.4,0,0,0,4.42,0H69.9a6.52,6.52,0,0,0,4.14,0h8.29a6.52,6.52,0,0,0,4.14,0H94.2a6.52,6.52,0,0,0,4.14,0h8.29a6.52,6.52,0,0,0,4.14,0h8.29a7.48,7.48,0,0,0,4.42,0Z"/><path class="cls-3" d="M69.92,44a20.23,20.23,0,0,1,2.67-1.91,5.45,5.45,0,0,1,5.32,9.5A13.26,13.26,0,0,1,74.59,53a15.6,15.6,0,0,1,3.28,1.34,5.34,5.34,0,0,1,1.92,7.43,5.27,5.27,0,0,1-7.39,2A24.32,24.32,0,0,1,70,62l-.22-.15.08.28c.11.78.29,1.55.32,2.32a5.53,5.53,0,0,1-3.32,5.69.2.2,0,0,0-.21.1,8.33,8.33,0,0,1-4-.09c-3.12-1.63-3.77-3.4-3-8.4-2.48,2.23-5,3.93-8.29,1.89a5.34,5.34,0,0,1-2.47-5.47c.27-2.35,1.87-3.78,5.79-5.13-2.9-1-5.58-2.1-5.81-5.65a5.14,5.14,0,0,1,3.05-5.28c3.1-1.53,5.45.12,7.75,2.25-.16-1.48-.6-2.75-.36-4.1a5.43,5.43,0,0,1,10.82.71,25.59,25.59,0,0,1-.31,3c0,.09-.06.18-.1.27ZM67.45,59.27a6.87,6.87,0,0,0-.32-12.73C64.46,45.33,62.07,46,60,47.83a6.62,6.62,0,0,0-2.09,6.77C58.85,58.88,64,61.32,67.45,59.27Z"/><path class="cls-4" d="M106.61,40.72c0,.31,0,.64.09,1,.67,3.43-.13,5.25-3.17,7.23a13.23,13.23,0,0,1-4.07,0c-3.6-1.79-3.85-4.83-2.94-8.55-1.79,1.54-3.4,2.93-5.64,2.83a5.26,5.26,0,0,1-4.82-3.36c-1.54-3.5.34-6.33,5.4-8.13-3-1-5.67-2.17-5.83-5.8a5.14,5.14,0,0,1,3-5.07c3.13-1.59,5.54,0,7.79,2.18-.44-6.1,1-8.65,4.88-8.79a5.15,5.15,0,0,1,4.94,2.7c1,1.83.73,3.79.35,5.83,5.22-3.28,8.32-3.12,10.16.44s.18,6.27-5.25,8.56a9.72,9.72,0,0,1,4.08,1.95,5.45,5.45,0,0,1-5.67,9.08,22.3,22.3,0,0,1-3.19-2.11,3.54,3.54,0,0,1-.16-.34s-.09.08-.08.1S106.55,40.62,106.61,40.72Zm-3-2.51a6.63,6.63,0,0,0,4.71-6.38,6.61,6.61,0,0,0-4.69-6.67,5.46,5.46,0,0,0-3.86-.23,7.08,7.08,0,0,0-5,8.77A6.87,6.87,0,0,0,103.61,38.21Z"/><path class="cls-5" d="M25.18,48.82c-3.54-1.67-3.72-4.66-3-8-.73,0-1,.54-1.38.86-3.59,2.88-8.14,1.51-9.25-2.81A5.35,5.35,0,0,1,14.15,33a10.78,10.78,0,0,1,3.09-1.22c-5.35-2.38-7-4.91-5.35-8.33a5.28,5.28,0,0,1,4.77-3.21c2.21-.13,3.73,1.26,5.54,2.67-.51-2.7-.74-5.08,1.13-7a5.11,5.11,0,0,1,4-1.63A5.21,5.21,0,0,1,32,17c1,1.81.59,3.73.32,5.89,2.13-1.82,4.17-3.32,6.95-2.42a5.25,5.25,0,0,1,3.3,2.93c1.64,3.59-.05,6.23-5.37,8.32,2.83.82,5.39,2,5.84,5.26a5.19,5.19,0,0,1-2.73,5.47c-3.14,1.79-5.6.19-8.06-2.11.69,3.63.72,6.77-3,8.49A7.14,7.14,0,0,1,25.18,48.82Zm4.4-23.61c-2.6-1.16-4.92-.48-6.93,1.3a6.63,6.63,0,0,0-2,7.34c1.14,3.87,6.15,6.15,9.49,4.08a6.81,6.81,0,0,0-.53-12.72Z"/><path class="cls-6" d="M133.9,126.78l-10.42,0v-7.19c.32-.2.26-.53.27-.83V116c.33-.2.27-.53.28-.83V113.2a.55.55,0,0,0,.27-.55v-1.94a.55.55,0,0,0,.27-.55,5.3,5.3,0,0,1,0-.69,100.83,100.83,0,0,1,3-14.19c.26-.88.27-1.93,1.14-2.56A64.27,64.27,0,0,1,132,105.5,136.74,136.74,0,0,1,133.9,126.78Z"/><path class="cls-6" d="M32.34,126.76H24.05a103.14,103.14,0,0,1,.62-11.66A98.56,98.56,0,0,1,26.84,101a47.22,47.22,0,0,1,2.53-8.69,77.5,77.5,0,0,1,3.53,14c.4,2.19.4,4.45,1.09,6.59l-.27,2.78a6.14,6.14,0,0,0-.55,2.49v.56a2.2,2.2,0,0,0-.28,1.38V121a2.8,2.8,0,0,0-.27,1.66v1.66a5.13,5.13,0,0,0-.28,1.94Z"/><path class="cls-6" d="M57.19,126.76h-8A109.53,109.53,0,0,1,50,112.63a106.6,106.6,0,0,1,2.78-15.36,22.83,22.83,0,0,0,1.13-4.52l.66-.27A99.29,99.29,0,0,1,58.66,112c0,.39,0,.85.43,1.11a78.57,78.57,0,0,0-1.43,8.48C57.44,123.32,57.81,125.09,57.19,126.76Z"/><path class="cls-6" d="M82.33,126.76H74v-3.87c.53-.59.17-1.3.28-1.94v-3c.4-.29.23-.73.27-1.11v-2.21c.33-.2.27-.53.28-.83V112.1a.57.57,0,0,0,.27-.56v-1.66a.55.55,0,0,0,.27-.55v-1.39a.57.57,0,0,0,.28-.55,65.59,65.59,0,0,1,2.71-12.3c.25-.8,0-1.91,1.08-2.37a85.18,85.18,0,0,1,4.23,20.71l.23.31a44.44,44.44,0,0,0-1.35,10.53.56.56,0,0,0-.27.55Z"/><path class="cls-6" d="M106.63,126.76H98.34c.07-1.69.13-3.39.21-5.08.2-4.22.62-8.4,1.16-12.58a84,84,0,0,1,3-13.95,4.86,4.86,0,0,1,1-2.48,80,80,0,0,1,3.73,15.93c.25,1.68.39,3.38.59,5.07l0,1.75c-.32.2-.27.52-.27.83v.27a1.83,1.83,0,0,0-.28,1.11v1.11c-.33.2-.27.52-.28.83V121c-.32.2-.26.53-.27.83v2.49c-.5.49-.19,1.11-.28,1.66Z"/><path class="cls-6" d="M19.91,126.76h-8v-6.92c.5-.48.19-1.1.28-1.66V116c.46-.39.21-.92.27-1.38V113.2c.41-.29.24-.72.28-1.1v-1.39c.33-.2.27-.52.28-.83v-1.1c.32-.2.26-.53.27-.84v-1.1c.33-.2.27-.53.28-.83v-.83a.57.57,0,0,0,.27-.56v-.83c.32-.19.26-.52.27-.83v-.55c.33-.2.27-.53.28-.83V101a.57.57,0,0,0,.27-.56v-.55l1.94-6.64a.93.93,0,0,1,.57-.56,69.06,69.06,0,0,1,3.29,12.89c.21,1.13.38,2.27.57,3.4v.59c0,.5,0,1,0,1.51A109.27,109.27,0,0,0,19.91,126.76Z"/><path class="cls-2" d="M25.18,48.82a7.14,7.14,0,0,0,4.12,0q0,8.1,0,16.21c0,3.52,0,7,0,10.57l-.06,15.72c-.44-1-.87-2-1.32-3-.13-.3-.32-.57-.69-.57s-.58.31-.73.68c-.33.78-.72,1.55-1.09,2.32h-.21q0-10.71,0-21.43c0-.87,0-1.75,0-2.62V48.82Z"/><path class="cls-2" d="M99.46,48.9a13.23,13.23,0,0,0,4.07,0q0,20.94,0,41.89c-.79-.45-.76-1.39-1.19-2.06-.23-.36-.2-1-.81-.94s-.7.54-.89.93c-.4.86-.76,1.74-1.14,2.61q0-7.85,0-15.71l0-1.44q0-4.49,0-9Q99.43,57.05,99.46,48.9Z"/><path class="cls-7" d="M99.48,91.33c.38-.87.74-1.75,1.14-2.61.19-.39.32-.92.89-.93s.58.58.81.94c.43.67.4,1.61,1.19,2.06l.21,1.88a4.86,4.86,0,0,0-1,2.48,84,84,0,0,0-3,13.95c-.54,4.18-1,8.36-1.16,12.58-.08,1.69-.14,3.39-.21,5.08a6.52,6.52,0,0,1-4.14,0A120.35,120.35,0,0,1,95,111.82c.27-.18.29-.36,0-.55A107.18,107.18,0,0,1,99.48,91.33Z"/><path class="cls-7" d="M25.43,90.79c.37-.77.76-1.54,1.09-2.32.15-.37.29-.69.73-.68s.56.27.69.57c.45,1,.88,2,1.32,3,0,.34.07.67.11,1A47.22,47.22,0,0,0,26.84,101a98.56,98.56,0,0,0-2.17,14.08,103.14,103.14,0,0,0-.62,11.66,6.52,6.52,0,0,1-4.14,0A109.27,109.27,0,0,1,21,111.11c.06-.5,0-1,0-1.51a.57.57,0,0,0,.23-.63,78.07,78.07,0,0,1,3.51-15.92c.18-.56.3-1.15.45-1.72Z"/><path class="cls-7" d="M75.42,107.94v1.39c-.35,0-.69.11-.27.55v1.66c-.35.06-.69.12-.27.56v1.66c-.59.11-.73.37-.28.83v2.21c-.78.2-.65.62-.27,1.11v3c-.94.53-.63,1.23-.28,1.94v3.87a6.52,6.52,0,0,1-4.14,0,103.25,103.25,0,0,1,.82-13.84,81.26,81.26,0,0,1,3.5-18.15,33.6,33.6,0,0,1,2.15-6c.21-.38.24-1,.82-1s.66.55.84.95a21.83,21.83,0,0,1,1.46,4c-1.06.46-.83,1.57-1.08,2.37a65.59,65.59,0,0,0-2.71,12.3C75.35,107.45,75,107.51,75.42,107.94Z"/><path class="cls-7" d="M124,113.2v1.94c-.59.11-.73.37-.28.83v2.77c-.59.11-.73.37-.27.83V124a1.26,1.26,0,0,0,0,2.22v.55a7.48,7.48,0,0,1-4.42,0v-.55c1-.73.55-1.62.27-2.49v-3.88c.87-.3.64-.83.28-1.38v-2.21c.78-.2.66-.62.28-1.11l0-1.58c.94-8.3,2.37-16.47,5.59-24.24a9,9,0,0,1,.46-1c.43-.79.89-.75,1.24,0a17.43,17.43,0,0,1,1.6,4.36c-.87.63-.88,1.68-1.14,2.56a100.83,100.83,0,0,0-3,14.19,5.3,5.3,0,0,0,0,.69c-.35,0-.69.11-.27.55v1.94C124,112.7,123.61,112.76,124,113.2Z"/><path class="cls-8" d="M70.72,112.92a103.25,103.25,0,0,0-.82,13.84H61.61c0-1.65.09-3.29.23-4.94A58.76,58.76,0,0,1,65,107.09c.45-1.26.73-2.68,1.9-3.59A38.37,38.37,0,0,1,70.08,112C70.18,112.31,69.9,113,70.72,112.92Z"/><path class="cls-7" d="M14.11,102.41V103c-.59.12-.73.38-.27.83v.83c-.35.06-.69.12-.27.56V106c-.59.11-.73.37-.28.83v1.1c-.59.12-.73.38-.27.84v1.1c-.59.11-.73.37-.28.83v1.39c-.78.19-.66.62-.28,1.1v1.39c-.86.3-.63.83-.27,1.38v2.21c-.9.72-.95,1.06-.28,1.66v3.32c-.93.86-1,2.08-.27,3.6a6.85,6.85,0,0,1-4.13,0,132.35,132.35,0,0,1,1.4-18C10,102,11.2,95.28,14.05,89c.21-.47.25-1.21,1-1.16s.66.7.84,1.16a14.31,14.31,0,0,1,1.32,3.75.93.93,0,0,0-.57.56c-.5,0-.56.41-.66.75l-1.5,5.29a.53.53,0,0,0,.22.6v.55c-.35.06-.69.12-.27.56v.55C13.8,101.69,13.66,102,14.11,102.41Z"/><path class="cls-6" d="M119.61,116.25v2.21c-.46.39-.21.92-.28,1.38v3.88c-.55.78-.15,1.66-.27,2.49v.55h-8.29v-1.94c.41-.29.24-.72.28-1.1v-2.49a.57.57,0,0,0,.27-.56,9.47,9.47,0,0,1,.27-2.31,47.3,47.3,0,0,1,4.48-15.21,39.47,39.47,0,0,1,3.54,9.78c.06.21.15.42.23.63,0,.52,0,1,0,1.58C119.48,115.43,119.65,115.86,119.61,116.25Z"/><path class="cls-6" d="M44.77,126.76h-8v-4.15c.32-.2.26-.53.27-.83v-1.94a.56.56,0,0,0,.28-.55v-1.38a.6.6,0,0,0,.28-.56,54.35,54.35,0,0,1,2.71-10.72c.43-1.25,1.32-2.32,1.44-3.68a41.87,41.87,0,0,1,3.58,9.82,5.19,5.19,0,0,0,.23.62,8.48,8.48,0,0,1,0,1.51C44.9,118.83,45.19,122.82,44.77,126.76Z"/><path class="cls-7" d="M44.77,126.76c.42-3.94.13-7.93.8-11.86a8.48,8.48,0,0,0,0-1.51A102.25,102.25,0,0,1,50,92.2a2.37,2.37,0,0,1,.19-.35,6.25,6.25,0,0,0,3.65.9,22.83,22.83,0,0,1-1.13,4.52A106.6,106.6,0,0,0,50,112.63a109.53,109.53,0,0,0-.79,14.13A7.37,7.37,0,0,1,44.77,126.76Z"/><path class="cls-6" d="M95,111.82a120.35,120.35,0,0,0-.83,14.94H86.47v-1.94c.32-.19.27-.52.27-.83a51.89,51.89,0,0,1,5-20.83,29.61,29.61,0,0,1,3,8.08A.57.57,0,0,0,95,111.82Z"/><path class="cls-2" d="M62.63,70.11a8.33,8.33,0,0,0,4,.09.18.18,0,0,0,.12.09c0,5.51.06,11,.06,16.54,0,5.1,0,10.2-.08,15.3-.77-.16-.76-.95-1.14-1.43-.61-.75-1.15-1-1.74,0-.33.58-.74,1.12-1.11,1.68,0-3.31-.06-6.62-.06-9.93Q62.62,81.29,62.63,70.11Z"/><path class="cls-9" d="M118.86,55.9c1,.94,1.77.72,2.87-.11,2.43-1.82,5.33-.84,6,1.84a4,4,0,0,1-1,3.71c-.76.88-.78,1.49,0,2.3a4.37,4.37,0,0,1,.92,1.68,3.45,3.45,0,0,1-.93,3.79,3.58,3.58,0,0,1-3.84.73,3.09,3.09,0,0,1-1.2-.64c-1-1-2-1.08-2.92,0-1.44-2.11-1.58-3.81,0-5.53a1.51,1.51,0,0,0,0-2.4,5.16,5.16,0,0,1-.61-.91A3.48,3.48,0,0,1,118.86,55.9Z"/><path class="cls-10" d="M53.88,92.75a6.25,6.25,0,0,1-3.65-.9c-.7-1.08-1.5-1-2.37-.2C46.27,90.14,46.3,88,48,86.06c.44-.51.73-.85.18-1.49a4.83,4.83,0,0,1-.65-6.16c1,1.12,1.87,1,3.06,0a3.67,3.67,0,0,1,5.16,5.19c-1,1.21-.83,1.93,0,3.11,1.6,2.18,1,4.29-1.24,5.72Z"/><path class="cls-9" d="M63.85,11.6c.9.9,1.65,1,2.79.1,2.47-1.82,5.19-1,6.09,1.52a3.94,3.94,0,0,1-1,4.07c-.73.82-.56,1.33,0,2.09,1.5,2,1.61,3.74.42,5.14-1.49,1.76-3.56,2-5.6.32a1.68,1.68,0,0,0-2.37-.17,1.7,1.7,0,0,1-.94-1.1c-.65-1.81.15-3.22,1.17-4.57.32-.42.66-.7.15-1.26A4.73,4.73,0,0,1,63.85,11.6Z"/><path class="cls-7" d="M62.71,102.41c.37-.56.78-1.1,1.11-1.68.59-1,1.13-.78,1.74,0,.38.48.37,1.27,1.14,1.43.07.45.13.91.2,1.37-1.17.91-1.45,2.33-1.9,3.59a58.76,58.76,0,0,0-3.16,14.73c-.14,1.65-.19,3.29-.23,4.94a7.4,7.4,0,0,1-4.42,0c.62-1.67.25-3.44.47-5.17a78.57,78.57,0,0,1,1.43-8.48,38.31,38.31,0,0,1,2.9-8.92C62.25,103.6,62.47,103,62.71,102.41Z"/><path class="cls-7" d="M91.76,103.16a51.89,51.89,0,0,0-5,20.83c-.58.12-.72.38-.27.83v1.94a6.52,6.52,0,0,1-4.14,0v-1.94c.35,0,.69-.11.27-.55A44.44,44.44,0,0,1,84,113.74c0-.1,0-.2,0-.31a40.49,40.49,0,0,1,4.9-12.68c.58-.94,1.09-1.06,1.65,0A9.24,9.24,0,0,1,91.76,103.16Z"/><path class="cls-7" d="M110.77,124.82v1.94a6.52,6.52,0,0,1-4.14,0v-.83c1-.41.58-1,.28-1.66v-2.49c.58-.11.73-.37.27-.83v-1.38c.59-.11.73-.38.28-.83v-1.11c.78-.2.65-.62.28-1.11v-.27c.29-.21.77-.36.27-.83l0-1.75c1-2.69,1.52-5.52,2.7-8.14a42.7,42.7,0,0,1,2.44-4.76c.55-.91,1.07-1.12,1.65,0a9.3,9.3,0,0,1,1.24,2.43,47.3,47.3,0,0,0-4.48,15.21,9.47,9.47,0,0,0-.27,2.31c-.35.06-.69.12-.27.56v2.49C110.27,123.91,110.39,124.34,110.77,124.82Z"/><path class="cls-7" d="M41.74,103c-.12,1.36-1,2.43-1.44,3.68a54.35,54.35,0,0,0-2.71,10.72c-.36.06-.7.12-.28.56v1.38c-.35.06-.7.11-.28.55v1.94c-.59.11-.73.37-.27.83v3c-.15.08-.39.12-.41.22-.07.3.21.3.41.34v.55a7.4,7.4,0,0,1-4.42,0v-.55c1-.58,1.13-1.14.28-1.94v-1.66c1-.39,1.3-.92.27-1.66v-.83c.67-.35,1.36-.69.28-1.38v-.56c1.19-.6.93-1.53.55-2.49l.27-2.78a81.23,81.23,0,0,1,2.82-8.17,36.32,36.32,0,0,1,2.2-4.13c.53-.84,1-.82,1.51,0A9.94,9.94,0,0,1,41.74,103Z"/><path class="cls-6" d="M40.35,60.69c.64-.14.74.23.81.76.73,5.94-3.71,12.25-9.63,13.63,0-1.84,0-3.68,0-5.52A3.52,3.52,0,0,1,32,67.73a13.4,13.4,0,0,1,7.32-6.33C39.67,61.26,40.26,61.32,40.35,60.69Z"/><path class="cls-5" d="M63.85,11.6a4.73,4.73,0,0,0,.69,6.14c.51.56.17.84-.15,1.26-1,1.35-1.82,2.76-1.17,4.57a1.7,1.7,0,0,0,.94,1.1,3.74,3.74,0,0,1-5,.64,3.8,3.8,0,0,1-1-4.93,4.3,4.3,0,0,1,.73-1.16c.69-.67.53-1.18,0-1.88-1.81-2.28-1.59-4.86.46-6.12A3.77,3.77,0,0,1,63.85,11.6Z"/><path class="cls-4" d="M47.53,78.41a4.83,4.83,0,0,0,.65,6.16c.55.64.26,1-.18,1.49-1.7,1.94-1.73,4.08-.14,5.59a3.87,3.87,0,0,1-5.22.27,3.61,3.61,0,0,1-.41-5.1,2.23,2.23,0,0,0,0-3.25,3.67,3.67,0,0,1,.27-5C43.87,77.22,45.57,77.18,47.53,78.41Z"/><path class="cls-5" d="M118.86,55.9a3.48,3.48,0,0,0-.71,4.47,5.16,5.16,0,0,0,.61.91,1.51,1.51,0,0,1,0,2.4c-1.55,1.72-1.41,3.42,0,5.53-1.83,1.24-3.81,1.18-5.12-.16a3.94,3.94,0,0,1,0-5.28,1.58,1.58,0,0,0,.07-2.44c-1.88-2.42-1.2-5.33,1.34-6.26A3.5,3.5,0,0,1,118.86,55.9Z"/><path class="cls-6" d="M99.41,65.21q0,4.49,0,9a6,6,0,0,1-3.48-2c-3.3-3-4.46-6.88-4.25-11.25C94.84,61.34,97.23,63.08,99.41,65.21Z"/><path class="cls-6" d="M25.17,56.23q0,4.56,0,9.1c-2.21-.61-3.63-2.23-5-3.91-2.2-2.73-2.7-5.93-2.48-9.32a12.64,12.64,0,0,1,6.55,3.37C24.54,55.74,24.72,56.15,25.17,56.23Z"/><path class="cls-11" d="M17.7,52.1c-.22,3.39.28,6.59,2.48,9.32,1.35,1.68,2.77,3.3,5,3.91,0,.47,0,.94,0,1.41A13.21,13.21,0,0,1,13.28,52.86c0-.73.24-1.12,1-1.08A9,9,0,0,1,17.7,52.1Z"/><path class="cls-11" d="M91.72,60.93c-.21,4.37,1,8.24,4.25,11.25a6,6,0,0,0,3.48,2c0,.48,0,1,0,1.44A13.11,13.11,0,0,1,87.55,61.81c0-.89.27-1.26,1.18-1.18S90.76,60.46,91.72,60.93Z"/><path class="cls-11" d="M40.35,60.69c-.09.63-.68.57-1.06.71A13.4,13.4,0,0,0,32,67.73a3.52,3.52,0,0,0-.47,1.83c0,1.84,0,3.68,0,5.52a5.87,5.87,0,0,1-2.21.53c0-3.52,0-7,0-10.57a18.13,18.13,0,0,1,5.28-3.54A12.29,12.29,0,0,1,40.35,60.69Z"/><path class="cls-11" d="M95,111.82a.57.57,0,0,1-.26-.58l.28,0C95.32,111.46,95.3,111.64,95,111.82Z"/><path class="cls-12" d="M21.26,109a.57.57,0,0,1-.23.63V109A.37.37,0,0,0,21.26,109Z"/><path class="cls-12" d="M25.43,90.79l-.21.54v-.54Z"/><path class="cls-11" d="M84,113.43c0,.11,0,.21,0,.31a3.55,3.55,0,0,0-.23-.31A.2.2,0,0,0,84,113.43Z"/><path class="cls-8" d="M66.72,70.29a.18.18,0,0,1-.12-.09.2.2,0,0,1,.21-.1A.23.23,0,0,1,66.72,70.29Z"/><path class="cls-12" d="M11.63,126.76c-.75-1.52-.66-2.74.27-3.6v3.6Z"/><path class="cls-1" d="M67.13,46.54a6.87,6.87,0,0,1,.32,12.73c-2.16-.4-4.33-3.16-4.46-5.62A7.13,7.13,0,0,1,67.13,46.54Z"/><path class="cls-13" d="M67.13,46.54A7.13,7.13,0,0,0,63,53.65c.13,2.46,2.3,5.22,4.46,5.62-3.49,2-8.6-.39-9.54-4.67A6.62,6.62,0,0,1,60,47.83C62.07,46,64.46,45.33,67.13,46.54Z"/><path class="cls-1" d="M69.92,44l-.2.17c0-.09.07-.18.1-.27A.94.94,0,0,0,69.92,44Z"/><path class="cls-1" d="M69.81,62.09l-.08-.28L70,62Z"/><path class="cls-9" d="M103.63,25.16a6.61,6.61,0,0,1,4.69,6.67,6.63,6.63,0,0,1-4.71,6.38c-.37-.27-.72-.55-1.1-.81a6.82,6.82,0,0,1-2.64-8.07C100.54,27.4,102.08,26.27,103.63,25.16Z"/><path class="cls-5" d="M103.63,25.16c-1.55,1.11-3.09,2.24-3.76,4.17a6.82,6.82,0,0,0,2.64,8.07c.38.26.73.54,1.1.81a6.87,6.87,0,0,1-8.82-4.51,7.08,7.08,0,0,1,5-8.77A5.46,5.46,0,0,1,103.63,25.16Z"/><path class="cls-1" d="M106.61,40.72c-.06-.1-.12-.2-.17-.3s0-.06.08-.1a3.54,3.54,0,0,0,.16.34Z"/><path class="cls-10" d="M29.58,25.21a6.81,6.81,0,0,1,.53,12.72c-2.19-.14-4.54-3-4.68-5.63C25.25,29,26.84,26.77,29.58,25.21Z"/><path class="cls-4" d="M29.58,25.21c-2.74,1.56-4.33,3.79-4.15,7.09.14,2.62,2.49,5.49,4.68,5.63-3.34,2.07-8.35-.21-9.49-4.08a6.63,6.63,0,0,1,2-7.34C24.66,24.73,27,24.05,29.58,25.21Z"/><path class="cls-12" d="M123.48,126.21a1.26,1.26,0,0,1,0-2.22Z"/><path class="cls-12" d="M123.48,119.57c-.46-.46-.32-.72.27-.83C123.74,119,123.8,119.37,123.48,119.57Z"/><path class="cls-12" d="M123.75,116c-.45-.46-.31-.72.28-.83C124,115.44,124.08,115.77,123.75,116Z"/><path class="cls-12" d="M124,113.2c-.42-.44-.08-.5.27-.55A.55.55,0,0,1,124,113.2Z"/><path class="cls-12" d="M124.31,110.71c-.42-.44-.08-.5.27-.55A.55.55,0,0,1,124.31,110.71Z"/><path class="cls-12" d="M33.72,115.69c.38,1,.64,1.89-.55,2.49A6.14,6.14,0,0,1,33.72,115.69Z"/><path class="cls-12" d="M32.62,124.27c.85.8.77,1.36-.28,1.94A5.13,5.13,0,0,1,32.62,124.27Z"/><path class="cls-12" d="M32.89,121c1,.74.77,1.27-.27,1.66A2.8,2.8,0,0,1,32.89,121Z"/><path class="cls-12" d="M33.17,118.74c1.08.69.39,1-.28,1.38A2.2,2.2,0,0,1,33.17,118.74Z"/><path class="cls-12" d="M74,122.89c-.35-.71-.66-1.41.28-1.94C74.21,121.59,74.57,122.3,74,122.89Z"/><path class="cls-12" d="M74.32,117.91c-.38-.49-.51-.91.27-1.11C74.55,117.18,74.72,117.62,74.32,117.91Z"/><path class="cls-12" d="M74.59,114.59c-.45-.46-.31-.72.28-.83C74.86,114.06,74.92,114.39,74.59,114.59Z"/><path class="cls-12" d="M74.87,112.1c-.42-.44-.08-.5.27-.56A.57.57,0,0,1,74.87,112.1Z"/><path class="cls-12" d="M75.15,109.88c-.42-.44-.08-.5.27-.55A.55.55,0,0,1,75.15,109.88Z"/><path class="cls-12" d="M75.42,107.94c-.42-.43-.07-.49.28-.55A.57.57,0,0,1,75.42,107.94Z"/><path class="cls-11" d="M82.6,124.27c.42.44.08.5-.27.55A.56.56,0,0,1,82.6,124.27Z"/><path class="cls-12" d="M106.91,124.27c.3.62.69,1.25-.28,1.66C106.72,125.38,106.41,124.76,106.91,124.27Z"/><path class="cls-12" d="M107.74,116.52c.37.49.5.91-.28,1.11A1.83,1.83,0,0,1,107.74,116.52Z"/><path class="cls-12" d="M107.18,121c.46.46.31.72-.27.83C106.92,121.48,106.86,121.15,107.18,121Z"/><path class="cls-12" d="M107.46,118.74c.45.45.31.72-.28.83C107.19,119.26,107.13,118.94,107.46,118.74Z"/><path class="cls-12" d="M108,115.42c.5.47,0,.62-.27.83C107.74,115.94,107.69,115.62,108,115.42Z"/><path class="cls-12" d="M14.66,99.92a.53.53,0,0,1-.22-.6L15.94,94c.1-.34.16-.75.66-.75C16,95.49,15.31,97.71,14.66,99.92Z"/><path class="cls-12" d="M11.9,119.84c-.67-.6-.62-.94.28-1.66C12.09,118.74,12.4,119.36,11.9,119.84Z"/><path class="cls-12" d="M12.18,116c-.36-.55-.59-1.08.27-1.38C12.39,115.05,12.64,115.58,12.18,116Z"/><path class="cls-12" d="M12.45,113.2c-.38-.48-.5-.91.28-1.1C12.69,112.48,12.86,112.91,12.45,113.2Z"/><path class="cls-12" d="M13,108.78c-.46-.46-.32-.72.27-.84C13.27,108.25,13.33,108.58,13,108.78Z"/><path class="cls-12" d="M13.28,106.84c-.45-.46-.31-.72.28-.83C13.55,106.31,13.61,106.64,13.28,106.84Z"/><path class="cls-12" d="M12.73,110.71c-.45-.46-.31-.72.28-.83C13,110.19,13.06,110.51,12.73,110.71Z"/><path class="cls-12" d="M13.84,103.79c-.46-.45-.32-.71.27-.83C14.1,103.27,14.16,103.6,13.84,103.79Z"/><path class="cls-12" d="M14.11,102.41c-.45-.46-.31-.72.28-.83C14.38,101.88,14.44,102.21,14.11,102.41Z"/><path class="cls-12" d="M14.39,101c-.42-.44-.08-.5.27-.56A.57.57,0,0,1,14.39,101Z"/><path class="cls-12" d="M13.56,105.18c-.42-.44-.08-.5.27-.56A.57.57,0,0,1,13.56,105.18Z"/><path class="cls-12" d="M119.06,126.21c.12-.83-.28-1.71.27-2.49C119.61,124.59,120.08,125.48,119.06,126.21Z"/><path class="cls-12" d="M119.33,119.84c.07-.46-.18-1,.28-1.38C120,119,120.2,119.54,119.33,119.84Z"/><path class="cls-12" d="M119.61,116.25c0-.39-.13-.82.28-1.11C120.27,115.63,120.39,116.05,119.61,116.25Z"/><path class="cls-12" d="M110.77,124.82c-.38-.48-.5-.91.28-1.1C111,124.1,111.18,124.53,110.77,124.82Z"/><path class="cls-12" d="M111.05,121.23c-.42-.44-.08-.5.27-.56A.57.57,0,0,1,111.05,121.23Z"/><path class="cls-12" d="M36.76,122.61c-.46-.46-.32-.72.27-.83C37,122.08,37.08,122.41,36.76,122.61Z"/><path class="cls-12" d="M37.31,117.91c-.42-.44-.08-.5.28-.56A.6.6,0,0,1,37.31,117.91Z"/><path class="cls-12" d="M37,119.84c-.42-.44-.07-.49.28-.55A.56.56,0,0,1,37,119.84Z"/><path class="cls-12" d="M36.76,126.21c-.2,0-.48,0-.41-.34,0-.1.26-.14.41-.22Z"/><path class="cls-11" d="M86.47,124.82c-.45-.45-.31-.71.27-.83C86.74,124.3,86.79,124.63,86.47,124.82Z"/></svg>