<?xml version="1.0" encoding="utf-8"?>
<!-- Generator: Adobe Illustrator 23.1.0, SVG Export Plug-In . SVG Version: 6.00 Build 0)  -->
<svg version="1.1" id="Layer_1" xmlns="http://www.w3.org/2000/svg" xmlns:xlink="http://www.w3.org/1999/xlink" x="0px" y="0px"
	 viewBox="0 0 1920 1920" style="enable-background:new 0 0 1920 1920;" xml:space="preserve">
<style type="text/css">
	.st0{fill:#E7D0BA;}
	.st1{fill:#F8E7D3;}
	.st2{fill:#E49770;}
	.st3{fill:#DB8058;}
	.st4{fill:#FDBF07;}
	.st5{fill:#EEAD0B;}
</style>
<g>
	<path class="st0" d="M1888.6,1096.2c-3.6,22.9-7.1,45.8-10.7,68.7c-12.1,75.6-37.5,146.4-76.3,212.5
		c-58.7,99.9-141,174.3-242.7,228.3c-67.8,36-139.7,56.9-216.2,64.2c-29.6,2.8-58.9,1.8-88.3,2.2c0.3-4.4,2.9-6.2,7.1-6.5
		c44.2-3,86.2-15.1,127.7-29.8c86.7-30.8,160.9-81.5,225.9-145.5c42.7-42,76.4-91.2,103.5-144.9c63.1-125,80.2-258.2,63.7-395.2
		c-10.3-85.8-31.7-169.9-60.5-251.8c-51.7-147.4-129.9-278-242.7-386.8c-50.8-49-110.7-82.3-178.8-101.6c-15.3-4.3-32.8-1.4-46-12.9
		c84.3-5.5,164.5,9,238.6,50.6c46.6,26.1,86,60.8,122.2,100.5c44.9,49.2,84.4,101.9,118.8,158.8c51.8,85.8,87.5,178.2,114.4,274.3
		c16,57.4,25.7,116,36.1,174.5c2.1,11.7-3,24.1,4.2,35.2C1888.6,1026,1888.6,1061.1,1888.6,1096.2z"/>
	<path class="st1" d="M1254.3,197.1c13.2,11.5,30.7,8.6,46,12.9c68.1,19.3,128,52.6,178.8,101.6
		c112.7,108.8,190.9,239.4,242.7,386.8c28.8,82,50.1,166,60.5,251.8c16.5,137.1-0.6,270.2-63.7,395.2
		c-27.1,53.6-60.9,102.9-103.5,144.9c-65,63.9-139.2,114.7-225.9,145.5c-41.5,14.7-83.5,26.8-127.7,29.8c-4.2,0.3-6.8,2.1-7.1,6.5
		c-43.8-5.9-87.4-12.8-129.9-25.9c-52.6-16.2-101.6-39.7-147.5-69.9c-6.4-4.2-12.3-10.1-21-9.1c-11.2-18.1-30.7-26.6-46.2-39.7
		c-21.8-21.7-44.8-41.9-64.9-65.4c-89.7-104.7-134.3-227.4-145.2-363c-6.6-82.8,3.1-164.7,20.9-245.9
		c27-122.8,67.8-240.1,132.8-348.1c17.7-29.4,37.5-57.5,56.3-86.1c15.4-18,30.9-35.9,46.4-53.8c2.9-3.4,4.6-6.9,2.7-11.3
		c10.1-1.2,15.3-9.2,21.4-15.7c40.9-43.2,86.7-79.7,141.3-104.1c37.4-16.7,76.1-29.1,117.1-33.7
		C1243.8,199.7,1249,198.2,1254.3,197.1z M1101.3,1387l-0.3-0.2c3.4,3.4,6.4,7.3,10.2,10c75.5,54.5,159.3,74.4,250,52.4
		c189.8-46,286.8-243.6,207-422c-30.6-68.3-80.9-119.2-151.1-148.6c-39.5-20.3-82.4-28.5-125.9-27.2
		c-113.5,3.2-201.3,53.4-260.2,151.2c-73.4,121.9-44.4,291.8,64.1,379.9C1096,1385.5,1098.4,1386.7,1101.3,1387z"/>
	<path class="st2" d="M909.7,418.9c-18.8,28.7-38.6,56.8-56.3,86.1c-65.1,108-105.9,225.4-132.8,348.1
		c-17.8,81.2-27.6,163.1-20.9,245.9c10.9,135.6,55.5,258.4,145.2,363c20.1,23.5,43.2,43.7,64.9,65.4c-4.5,0.2-7.7,2.7-11.1,5.4
		c-79.7,64.6-169,108.4-270.6,126.3c-12.4,2.2-27.1-1.7-37.5,9.4c-122.3-8.6-230.4-53.2-326.6-128.3
		C143.4,1446,72.8,1321.6,44,1172.8C26,1080,29,987,46.6,894.1c25.2-133.1,65.2-261,134.1-378.3c57.9-98.6,126.2-188.9,222.1-254.4
		c55.3-37.7,117.1-59,184-64.5c2,1.1,4,2.9,6.2,3.2c40.2,5.3,78.3,17.7,114.7,35.5C792.7,277.1,853.8,345.2,909.7,418.9z"/>
	<path class="st3" d="M909.7,418.9c-56-73.7-117.1-141.8-202.2-183.3c-36.3-17.7-74.4-30.1-114.7-35.5c-2.2-0.3-4.1-2.1-6.2-3.2
		c34.8-7.1,69.5-3.7,104.1,1.7c95.8,15,175.9,59.5,242.4,129.5c8.3,8.7,17,17.1,25.6,25.6c1.9,4.4,0.3,7.9-2.7,11.3
		C940.6,383,925.2,401,909.7,418.9z"/>
	<path class="st3" d="M590.6,1668.6c10.4-11.1,25.1-7.2,37.5-9.4c101.7-17.9,191-61.7,270.6-126.3c3.4-2.7,6.6-5.2,11.1-5.4
		c15.5,13.1,35,21.6,46.2,39.7c-73.6,48.9-153.3,82.6-241,96.3C673.6,1670.1,632.2,1670.3,590.6,1668.6z"/>
	<path class="st4" d="M1095.1,1382.5c-108.5-88.1-137.5-258-64.1-379.9c58.9-97.8,146.7-147.9,260.2-151.2
		c43.5-1.2,86.3,7,125.9,27.2c3.5,15,16.2,23.4,24.8,34.9c43.4,57.9,64.4,122.6,62.5,195.3c-1.9,74.3-28,139.2-77.9,193
		c-73,78.8-164,110.8-270.9,95.3c-18.3-2.7-36.4-6.8-54.6-10.3c0,0,0.3,0.2,0.3,0.2C1100.5,1383.7,1098,1382.8,1095.1,1382.5z"/>
	<path class="st5" d="M1101,1386.9c18.2,3.5,36.3,7.6,54.6,10.3c106.8,15.5,197.9-16.5,270.9-95.3c49.9-53.8,76-118.7,77.9-193
		c1.9-72.7-19.1-137.4-62.5-195.3c-8.6-11.4-21.2-19.9-24.8-34.9c70.1,29.4,120.5,80.3,151.1,148.6c79.8,178.4-17.1,375.9-207,422
		c-90.7,22-174.4,2.1-250-52.4C1107.3,1394.1,1104.3,1390.2,1101,1386.9z"/>
	<path class="st5" d="M1095.1,1382.5c2.9,0.4,5.5,1.2,6.2,4.6C1098.4,1386.7,1096,1385.5,1095.1,1382.5z"/>
</g>
</svg>
