<?xml version="1.0" encoding="utf-8"?>
<!-- Generator: Adobe Illustrator 23.1.0, SVG Export Plug-In . SVG Version: 6.00 Build 0)  -->
<svg version="1.1" id="Layer_1" xmlns="http://www.w3.org/2000/svg" xmlns:xlink="http://www.w3.org/1999/xlink" x="0px" y="0px"
	 viewBox="0 0 1920 1920" style="enable-background:new 0 0 1920 1920;" xml:space="preserve">
<style type="text/css">
	.st0{fill:#030302;}
	.st1{fill:#CD9D75;}
	.st2{fill:#DBAF89;}
	.st3{fill:#CC9B69;}
	.st4{fill:#E4E7EB;}
	.st5{fill:#A8B0BA;}
	.st6{fill:#C6CBD3;}
	.st7{fill:#030202;}
	.st8{fill:#060606;}
	.st9{fill:#A7AFBA;}
	.st10{fill:#C9CED6;}
	.st11{fill:#A3AAB5;}
	.st12{fill:#CE9C69;}
</style>
<g>
	<path class="st0" d="M159.7,1891.1c-3.3-6.1-10.1-5.6-15.3-8c-57.8-26.4-73.6-100.2-31.7-148.1c0.4-0.5,0.7-1,1.2-1.3
		c33.6-22.1,36-54.5,35.6-91.4c-1.6-167.3-0.4-334.5-0.9-501.8c-0.2-51.7,11.4-99.5,40.8-142.3c5.4-7.9,4.2-9.9-4.2-13.7
		c-25.2-11.4-36.6-32.1-36.3-59.6c0.2-18.2-0.3-36.4,0.1-54.5c0.8-34.7,25.3-61.6,59.5-59.5c26.8,1.6,39-5.2,47.9-32.4
		c15.5-47.7,49.9-82.3,94.8-105.2c9.6-4.9,15.9-10.7,21-20.6c30.3-59.2,79.6-93.3,144.7-103.1c25.7-3.9,45.3-14.4,63.7-33
		c89.2-90.1,219.3-91.4,306.8-0.5c26.5,27.5,57.9,27.7,89.1,36.4c20.5,5.7,31-0.9,41.6-18.2c21.8-35.6,46.3-69.5,69-104.5
		c44.2-68,106.2-102.8,187.5-99.9c21.5,0.8,33.1-5.7,43.9-24.6c36.2-63.6,75.4-125.4,112.2-188.6c21.4-36.9,42.8-72.8,85.9-88
		c13.3,0,26.7,0,40,0c25.5,7.4,47.1,22.2,68.9,36.9c59.8,40.4,72,94.3,34.7,156.4c-36.4,60.7-72.8,121.4-109.4,181.9
		c-4.8,7.9-6.4,13.5-0.4,22.4c49.5,74.5,53.5,152.2,14.3,232.3c-22.3,45.6-45.3,90.8-67.8,136.3c-2.2,4.5-7,8.7-4,15.2
		c72,0,144.2-0.2,216.3,0.1c36.8,0.2,61.3,24.9,62,61.6c0.3,17-0.2,34,0.1,50.9c0.6,28.8-10.6,50.8-37.7,62.4
		c-8.7,3.7-7.4,6.4-3.1,12.8c30,44,41.2,93,40.9,146c-0.7,167.3,0.5,334.6-0.9,502c-0.3,35.1,2.4,65.7,34.1,86.7
		c2.4,1.6,4.1,4.4,6,6.8c34.3,43.3,23.8,106.5-22.3,137c-11,7.3-23.8,9.5-35.4,15C1221.9,1891.1,690.8,1891.1,159.7,1891.1z
		 M959.2,1830.6c238.8,0,477.6,0,716.4,0c17,0,34-0.4,50.9,0.1c18.1,0.5,34.1-2.2,41.9-21.3c7.5-18.4-2-31.2-14.4-43.2
		c-11.4-10.9-21.9-22.7-33.6-33.3c-7.4-6.7-10-14-9.9-23.9c0.5-43.6,0.2-87.3,0.2-130.9c0-147.9-0.3-295.8,0.1-443.7
		c0.2-53.4-18.2-98-57.2-134.4c-8-7.5-16.4-10.7-27.6-10.7c-443.7,0.2-887.4,0.2-1331,0c-11.9,0-20.8,3.4-29.2,11.3
		c-38.3,36.1-56.7,80.2-56.6,132.9c0.4,176.4,0.3,352.8-0.2,529.2c0,14.1,3.4,18.3,17.9,18.2c79.4-0.7,158.8-0.3,238.2-0.3
		c44.5,0,43.9,0,44.4,44c0.2,13.6-3.4,17.3-17.1,17.2c-89.7-0.6-179.5,1.8-269.1-1.4c-34-1.2-51.1,17-68,38.5
		c-15.9,20.2-2,48.4,23.8,51.4c6.6,0.8,13.3,0.5,20,0.5C452.4,1830.6,705.8,1830.6,959.2,1830.6z M308.3,809.9
		c45.8,0,88.8-0.4,131.8,0.3c11.6,0.2,16.3-3.1,19.8-14.8c16.3-54.2,52.2-88.8,107.7-102c9.5-2.3,15.3-7.1,20.9-15
		c37.7-52.9,110.2-65,162.7-27.5c21.5,15.4,21.5,15.4,3.4,33.6c-4.3,4.3-8.9,8.3-12.8,12.9c-7.8,9.4-14.5,14.6-25.7,2.9
		c-7-7.3-17.7-9.9-28.4-10.4c-28.5-1.3-47.7,12.3-58.3,37.6c-6.5,15.7-14.9,22.4-33.2,22.6c-32.6,0.4-57,17.6-72.7,46.6
		c-5.1,9.4-4.6,13.6,8,13.5c215.2-0.3,430.3-0.3,645.5,0.1c13.8,0,13.6-4.5,8.9-14.7c-16-34.5-40.7-60.3-76.4-73.7
		c-15.9-6-24.8-14-31.3-30.5c-16.8-43.1-49.7-68.9-95.6-77.6c-11.3-2.1-22.6-5.6-33.9-5.9c-43.6-1.3-75.8-20.4-106.3-52.2
		c-60.5-63.2-153.1-64.1-213.8-1.3c-31.9,33-66.8,49.8-110.8,56.6c-49.6,7.7-82.7,38.5-99,85.8c-4.3,12.4-10.6,18.4-22.4,22.6
		C353.3,734.4,324.7,764.3,308.3,809.9z M960.1,930c237,0,473.9,0,710.9,0c39.9,0,38.9,0,40.3-39.6c0.6-18-4.9-21.7-22.2-21.7
		c-479.4,0.5-958.8,0.4-1438.2,0.4c-41.8,0-41,0-42.1,41.3c-0.4,16.4,4.6,19.9,20.3,19.9C472.8,929.9,716.4,930,960.1,930z
		 M1410.8,541.4c-0.2-70.1-40.4-126.7-103.5-145.9c-64.4-19.6-127.7,4.1-167.2,62.9c-24.6,36.6-48.8,73.6-73.7,110.1
		c-5.5,8.1-5.5,12.3,3.3,18.3c25.9,17.8,45.8,41.3,59.2,69.8c3.7,8,9.8,11.6,16.9,15.1c52,26,86,67.3,104.1,122.2
		c2,6.2,0.1,15.1,11,16.2c10,0.9,15-3.4,20.1-11.6c35.2-57.1,70.9-113.9,106.6-170.8C1403.9,601.3,1411.4,572.5,1410.8,541.4z
		 M1374.2,329.3c43.6,2.2,81.1,14.2,115.1,36.8c6.3,4.2,10.6,6.5,15.7-2.1c36.6-61.9,74.1-123.3,110.4-185.4
		c12.4-21.2,6-42.7-14.3-57.1c-10.8-7.7-22-14.9-33.2-22.2c-26.8-17.5-48.9-12.6-65.6,15c-40.5,67.3-80.8,134.8-121.2,202.2
		C1379,320,1377.2,323.6,1374.2,329.3z M1344.4,809.9c24.2,0,44.7-0.5,65.3,0.2c9.3,0.3,13.9-3.1,17.9-11.2
		c28.8-58.6,58.6-116.7,87.1-175.4c18.5-38,21.6-78.1,8.6-118.4c-16.4-51.2-50.3-86.2-102.5-107c66,94.9,66.9,187.5,5.1,281.5
		C1398.5,721.5,1372.8,764.5,1344.4,809.9z"/>
	<path class="st1" d="M959.2,1830.6c-253.4,0-506.7,0-760.1,0c-6.7,0-13.4,0.3-20-0.5c-25.7-3-39.6-31.2-23.8-51.4
		c16.9-21.5,34.1-39.7,68-38.5c89.6,3.2,179.4,0.8,269.1,1.4c13.7,0.1,17.3-3.6,17.1-17.2c-0.5-44,0-44-44.4-44
		c-79.4,0-158.8-0.4-238.2,0.3c-14.5,0.1-18-4.1-17.9-18.2c0.5-176.4,0.5-352.8,0.2-529.2c-0.1-52.7,18.3-96.8,56.6-132.9
		c8.4-8,17.3-11.4,29.2-11.3c443.7,0.3,887.4,0.3,1331,0c11.2,0,19.6,3.2,27.6,10.7c39,36.4,57.4,81,57.2,134.4
		c-0.4,147.9-0.1,295.8-0.1,443.7c0,43.6,0.3,87.3-0.2,130.9c-0.1,9.9,2.5,17.2,9.9,23.9c11.6,10.6,22.2,22.4,33.6,33.3
		c12.5,12,21.9,24.7,14.4,43.2c-7.8,19.2-23.8,21.9-41.9,21.3c-17-0.5-33.9-0.1-50.9-0.1C1436.8,1830.6,1198,1830.6,959.2,1830.6z
		 M1170.7,1170.1c0,0-0.1,0-0.1,0c0-16.4,0.2-32.7-0.1-49.1c-0.6-33.6-19.5-59.4-49.6-68.3c-29.9-8.9-60,3.1-78.2,31.5
		c-8.8,13.8-18.7,27.2-25,42.1c-14.4,34.2-36.1,52.7-75.6,45.1c-8.3-1.6-14.1-2.3-18.6-10.2c-14.1-24.7-28.9-49-43.7-73.3
		c-19-31.2-48.8-44.3-79.9-35.6c-31.2,8.8-50.2,35.5-50.4,71.4c-0.2,33.3-0.4,66.7,0.2,100c0.1,8.9-2.9,12.8-11.3,14.9
		c-65.2,16.8-112,57.3-146.8,113.8c-6.5,10.5-4.7,13.3,5.7,17.4c46.2,18,92.2,36.7,138.2,55.2c4.9,2,13.3,2.5,13.1,7.9
		c-1.2,21.7,8,44.2-7.1,64.8c-30,41-28.9,87,1.5,127.9c14,18.8,31.8,33.3,52.1,44.6c76.1,42.4,157.5,48.1,241.3,32.7
		c49.7-9.2,95.3-28.1,131-65.5c36-37.8,45-86.2,18.9-126.2c-13.8-21.2-15.5-41.7-16-64.7c-0.3-12.5,4-17.7,15.4-22
		c46.3-17.7,92.2-36.5,138.2-55c5.4-2.2,13.7-2.6,7.2-13.2c-27.4-44.1-61.5-80.4-109-103.8c-16.8-8.3-42.8-4.8-49.8-22.9
		C1165.5,1212.1,1170.7,1190.1,1170.7,1170.1z M1574.1,1749.2c0.7-7.6-5.3-8.5-9-10.8c-20.6-12.7-41.4-25.2-62.3-37.4
		c-6.6-3.9-10.3-6.9-4.8-15.2c12.3-18.7,23.9-37.9,35.3-57.2c4-6.7,7.6-7.7,14.4-3.5c15.9,9.9,32.2,19.3,48.6,28.4
		c13,7.2,27.4,23.4,38.7,19.3c11.1-4,15.8-24.3,24.6-36.5c7.1-9.9,3.9-13.9-5.5-18.9c-17.6-9.3-34.6-20-51.8-30.1
		c-31.9-18.8-31.9-18.9-12.2-50.7c7.6-12.3,13.2-31,24-35c12.4-4.5,25.9,11.7,39.4,18c2.7,1.3,5.3,2.9,8.1,4.2
		c3.2,1.5,6,0.8,7.7-2.3c8.4-15.4,20.5-30.2,23.2-46.6c1.2-7.3-19.8-12.6-30.4-19.5c-1.5-1-3.1-1.9-4.8-2.6
		c-9.4-3.7-11.4-8.7-5-17.6c7.1-9.8,12.7-20.6,19.3-30.8c3.7-5.6,3.4-8.8-2.3-13.4c-38-30.6-41.3-30.2-66.8,10.8
		c-0.6,1-1.4,2-1.9,3.1c-4.2,10-9.8,11.8-19.5,5.7c-16.4-10.2-33.4-19.7-50.7-28.3c-10.5-5.2-12.9-10-6.2-20.4
		c9.9-15.2,18.3-31.4,27.2-47.2c2.6-4.6,6.6-9.4-0.9-13.5c-14.8-8-29.3-21.6-44.5-22.4c-10-0.5-14.4,21.4-22,32.8
		c-2.7,4-4.9,8.4-7.3,12.6c-12.2,21.4-12.9,22.4-33.3,9.3c-14.1-9.1-22.4-7.8-28.1,8c-0.8,2.2-2.3,4.2-3.5,6.4
		c-15.3,27.7-15.6,28.2,11.5,43.4c8.9,5,10.8,9,5.3,17.8c-9.9,15.9-19.2,32.3-28,48.8c-3.8,7.1-7.2,8-14,3.7
		c-13.3-8.4-27.1-16-40.7-24c-42.2-24.7-41.9-24.5-65,18.4c-4.7,8.7-3,12.2,4.9,16.6c23.3,13,45.9,27,69.2,39.9
		c8.1,4.5,9.9,8.4,4.7,16.8c-10.8,17.5-21,35.4-30.7,53.6c-4.4,8.3-8,9.5-16.3,4.3c-11.6-7.4-24-21.7-35.8-18.6
		c-12.7,3.4-15.8,22.7-24.1,34.5c-0.7,1-1.1,2.2-1.9,3.1c-6.4,7.8-3.5,12.2,4.6,16.7c12.1,6.8,29.8,12.5,33.5,22.8
		c4.3,12.1-10.8,25.2-17.8,37.6c-5.1,8.9-6.9,14.3,4.6,19.3c13.7,5.9,26.5,22,39.5,19.3c12.3-2.5,16-22.5,23.1-34.9
		c4.6-8,8.5-10.1,16.8-4.6c12,8.1,24.3,16.3,37.4,22.2c16.2,7.3,15.3,15.2,6.5,28.3c-14.8,21.8-14.1,22.3,8.4,36
		c28.1,17.1,28.7,17.4,46.1-11.2c6.1-10,10.8-10.2,19.9-4.5c20.4,13,41.4,25.2,62.3,37.5c3.2,1.9,7.4,7.4,10.8,2.3
		C1556.4,1778.5,1565.3,1763.4,1574.1,1749.2z M628.9,1741.3c5.5,0,10.9,0,16.4,0c50.3,0,50.1,0,45-50.9
		c-0.8-8.1-3.8-10.2-11.2-10.1c-32.7,0.2-65.4,0.1-98.2,0.1c-5.7,0-11.4-0.1-11.1,8c0.7,16.9-6.1,36.6,2.8,49.7
		c6.6,9.6,26.1,2.1,39.8,3.2C618,1741.6,623.5,1741.3,628.9,1741.3z"/>
	<path class="st2" d="M308.3,809.9c16.4-45.6,45-75.5,88.1-90.7c11.8-4.2,18.1-10.2,22.4-22.6c16.3-47.2,49.4-78.1,99-85.8
		c44-6.8,78.9-23.6,110.8-56.6c60.8-62.9,153.4-62,213.8,1.3c30.4,31.8,62.7,50.9,106.3,52.2c11.4,0.3,22.6,3.8,33.9,5.9
		c45.8,8.6,78.7,34.5,95.6,77.6c6.5,16.5,15.4,24.6,31.3,30.5c35.6,13.4,60.4,39.2,76.4,73.7c4.7,10.2,5,14.7-8.9,14.7
		c-215.2-0.3-430.3-0.3-645.5-0.1c-12.6,0-13.1-4.1-8-13.5c15.7-29,40.1-46.2,72.7-46.6c18.3-0.2,26.7-6.9,33.2-22.6
		c10.6-25.3,29.8-38.9,58.3-37.6c10.7,0.5,21.4,3.1,28.4,10.4c11.2,11.7,17.9,6.5,25.7-2.9c3.8-4.6,8.5-8.6,12.8-12.9
		c18.2-18.2,18.2-18.2-3.4-33.6c-52.4-37.4-125-25.4-162.7,27.5c-5.6,7.9-11.4,12.7-20.9,15c-55.4,13.2-91.4,47.8-107.7,102
		c-3.5,11.7-8.2,15-19.8,14.8C397.1,809.5,354.1,809.9,308.3,809.9z M873.4,690.4c-26.6-0.1-48.1,6.8-67,21.2
		c-19.4,14.9-19.3,15-1.8,32.6c6,6,12.3,11.7,17.8,18.1c5.9,6.9,10.1,6.6,17.1,0.4c16.6-14.6,37.6-19.2,51.1-6.3
		c18.1,17.3,27,7,38.1-5.8c4.4-5,9-9.9,14.2-14c7.6-6.1,6.9-10.8-0.2-17.2C922.3,700.6,898.4,690.8,873.4,690.4z"/>
	<path class="st3" d="M960.1,930c-243.6,0-487.3-0.2-730.9,0.4c-15.7,0-20.8-3.5-20.3-19.9c1.1-41.3,0.2-41.3,42.1-41.3
		c479.4,0,958.8,0.1,1438.2-0.4c17.2,0,22.8,3.7,22.2,21.7c-1.4,39.5-0.4,39.6-40.3,39.6C1434,930,1197,930,960.1,930z"/>
	<path class="st4" d="M1410.8,541.4c0.6,31-6.9,59.8-23.4,86.2c-35.6,56.9-71.3,113.7-106.6,170.8c-5,8.1-10.1,12.5-20.1,11.6
		c-10.9-1-9-10-11-16.2c-18.1-54.9-52.2-96.2-104.1-122.2c-7.1-3.6-13.1-7.1-16.9-15.1c-13.3-28.5-33.2-52-59.2-69.8
		c-8.8-6-8.8-10.2-3.3-18.3c24.9-36.5,49.1-73.4,73.7-110.1c39.5-58.7,102.8-82.5,167.2-62.9
		C1370.4,414.7,1410.6,471.4,1410.8,541.4z"/>
	<path class="st5" d="M1374.2,329.3c3-5.6,4.9-9.3,6.9-12.8c40.4-67.4,80.7-134.9,121.2-202.2c16.6-27.6,38.7-32.5,65.6-15
		c11.1,7.3,22.3,14.5,33.2,22.2c20.3,14.4,26.7,35.9,14.3,57.1c-36.3,62.1-73.7,123.5-110.4,185.4c-5.1,8.6-9.4,6.3-15.7,2.1
		C1455.3,343.4,1417.7,331.5,1374.2,329.3z"/>
	<path class="st6" d="M1344.4,809.9c28.3-45.4,54-88.5,81.6-130.3c61.8-94,60.9-186.6-5.1-281.5c52.2,20.7,86.1,55.8,102.5,107
		c12.9,40.3,9.9,80.4-8.6,118.4c-28.6,58.7-58.3,116.8-87.1,175.4c-4,8.2-8.7,11.6-17.9,11.2
		C1389.2,809.5,1368.6,809.9,1344.4,809.9z"/>
	<path class="st7" d="M1170.7,1170.1c0,20-5.2,42,1.4,59.4c6.9,18.1,32.9,14.7,49.8,22.9c47.5,23.4,81.6,59.7,109,103.8
		c6.6,10.5-1.7,11-7.2,13.2c-46,18.6-91.9,37.3-138.2,55c-11.3,4.3-15.6,9.5-15.4,22c0.5,23,2.2,43.5,16,64.7
		c26.1,40,17,88.5-18.9,126.2c-35.7,37.5-81.3,56.4-131,65.5c-83.8,15.5-165.2,9.8-241.3-32.7c-20.3-11.3-38-25.8-52.1-44.6
		c-30.5-40.9-31.5-86.9-1.5-127.9c15.1-20.6,5.9-43.2,7.1-64.8c0.3-5.4-8.2-6-13.1-7.9c-46-18.5-92-37.2-138.2-55.2
		c-10.4-4.1-12.2-6.9-5.7-17.4c34.8-56.5,81.6-97,146.8-113.8c8.4-2.2,11.4-6,11.3-14.9c-0.5-33.3-0.3-66.7-0.2-100
		c0.2-35.9,19.2-62.6,50.4-71.4c31-8.7,60.8,4.4,79.9,35.6c14.8,24.3,29.6,48.6,43.7,73.3c4.5,7.9,10.3,8.6,18.6,10.2
		c39.4,7.6,61.2-10.8,75.6-45.1c6.3-14.9,16.2-28.4,25-42.1c18.2-28.5,48.3-40.4,78.2-31.5c30.2,8.9,49,34.8,49.6,68.3
		c0.3,16.4,0.1,32.7,0.1,49.1C1170.6,1170.1,1170.7,1170.1,1170.7,1170.1z M960.1,1651c45.2-1,90-7.4,130.6-30.1
		c24-13.4,48.8-29,48.5-60.6c-0.3-31.4-24.4-48.3-49.1-60.1c-86.6-41-174.3-41.1-260.8,0.3c-24.7,11.8-48.8,28.8-48.6,60.4
		c0.2,31.4,25.1,46.9,49.1,60.2C870,1643.4,914.2,1650,960.1,1651z M810.1,1397.1c0,10.9,0.3,21.8-0.1,32.7
		c-0.3,8.7,1,11.9,11.1,7.9c92.5-37.1,185.2-36.8,277.8-0.2c10.1,4,11.3,1.1,11.1-7.7c-0.4-18.8,0.2-37.6-0.5-56.4
		c-3.7-99.4-103.6-167.6-197.6-135.3C845.7,1260.9,810.2,1316.4,810.1,1397.1z M810.2,1231.6c19.2-15.6,35.3-29,54.3-38.1
		c5.4-2.6,5-5.6,2.4-10.1c-13.5-22.2-26.8-44.5-40.2-66.8c-2.4-4.1-5.9-5.9-10.7-4.8c-5.4,1.3-5.8,5.6-5.8,9.9
		C810.2,1157.1,810.2,1192.5,810.2,1231.6z M1109.7,1231.7c0-39.9,0-75.8-0.1-111.8c0-3.8-1.2-7.2-5.6-8.2
		c-4.7-1.1-8.2,0.6-10.7,4.7c-13.4,22.3-26.7,44.6-40.1,66.8c-2.6,4.3-3.3,7.3,2.2,10C1074.4,1202.5,1090.7,1215.7,1109.7,1231.7z
		 M679.3,1337.5c21.7,8.8,41.7,16.8,61.6,25c6.7,2.8,10.5,1.3,10.9-6.2c1.2-21.1,8.6-40.7,16-62.4
		C733.1,1299.2,705.5,1314.1,679.3,1337.5z M1152.7,1295.6c6.9,20,14.2,39.6,15.4,60.7c0.4,7.5,4.4,9,11,6.3
		c19.9-8.2,39.9-16.2,60.3-24.5C1217,1314.1,1180.5,1296.2,1152.7,1295.6z"/>
	<path class="st7" d="M1574.1,1749.2c-8.8,14.2-17.7,29.3-27.5,43.8c-3.4,5.1-7.7-0.5-10.8-2.3c-20.9-12.2-41.8-24.5-62.3-37.5
		c-9-5.7-13.8-5.5-19.9,4.5c-17.5,28.7-18,28.3-46.1,11.2c-22.5-13.7-23.2-14.2-8.4-36c8.9-13.1,9.7-21.1-6.5-28.3
		c-13.2-5.9-25.4-14.2-37.4-22.2c-8.2-5.5-12.2-3.4-16.8,4.6c-7.2,12.4-10.8,32.4-23.1,34.9c-13,2.7-25.7-13.4-39.5-19.3
		c-11.4-4.9-9.6-10.4-4.6-19.3c7-12.4,22.2-25.5,17.8-37.6c-3.7-10.3-21.4-16.1-33.5-22.8c-8-4.5-11-8.9-4.6-16.7
		c0.8-0.9,1.2-2.1,1.9-3.1c8.3-11.7,11.4-31,24.1-34.5c11.8-3.2,24.2,11.2,35.8,18.6c8.2,5.2,11.8,4,16.3-4.3
		c9.7-18.2,19.9-36.1,30.7-53.6c5.2-8.3,3.4-12.2-4.7-16.8c-23.3-12.9-46-26.9-69.2-39.9c-7.9-4.4-9.6-7.9-4.9-16.6
		c23.1-42.9,22.8-43,65-18.4c13.6,7.9,27.4,15.6,40.7,24c6.7,4.2,10.2,3.4,14-3.7c8.9-16.5,18.1-32.9,28-48.8
		c5.5-8.9,3.6-12.8-5.3-17.8c-27-15.2-26.8-15.7-11.5-43.4c1.2-2.1,2.7-4.1,3.5-6.4c5.7-15.8,14-17.1,28.1-8
		c20.4,13.1,21.1,12.1,33.3-9.3c2.4-4.2,4.6-8.6,7.3-12.6c7.6-11.4,12-33.3,22-32.8c15.2,0.8,29.6,14.4,44.5,22.4
		c7.5,4.1,3.5,8.9,0.9,13.5c-9,15.8-17.4,32-27.2,47.2c-6.8,10.4-4.3,15.3,6.2,20.4c17.3,8.6,34.3,18.1,50.7,28.3
		c9.8,6.1,15.3,4.3,19.5-5.7c0.5-1.1,1.3-2.1,1.9-3.1c25.4-41,28.8-41.4,66.8-10.8c5.6,4.5,6,7.8,2.3,13.4
		c-6.7,10.1-12.2,21-19.3,30.8c-6.4,8.8-4.4,13.9,5,17.6c1.7,0.7,3.3,1.6,4.8,2.6c10.6,6.9,31.6,12.2,30.4,19.5
		c-2.7,16.4-14.8,31.2-23.2,46.6c-1.7,3.1-4.5,3.8-7.7,2.3c-2.7-1.3-5.3-2.9-8.1-4.2c-13.5-6.3-27-22.5-39.4-18
		c-10.8,3.9-16.4,22.6-24,35c-19.7,31.8-19.7,31.9,12.2,50.7c17.2,10.2,34.2,20.8,51.8,30.1c9.4,5,12.7,9,5.5,18.9
		c-8.8,12.2-13.5,32.5-24.6,36.5c-11.3,4.1-25.6-12.1-38.7-19.3c-16.4-9.1-32.7-18.5-48.6-28.4c-6.7-4.2-10.4-3.2-14.4,3.5
		c-11.4,19.3-22.9,38.5-35.3,57.2c-5.5,8.3-1.8,11.3,4.8,15.2c20.9,12.2,41.7,24.7,62.3,37.4
		C1568.8,1740.7,1574.8,1741.6,1574.1,1749.2z M1484.9,1592c-0.8-4.6-4.3-5.9-7.4-7.7c-17.2-10.1-34.6-19.9-51.5-30.4
		c-7.1-4.4-10.4-2.3-14,4.3c-10.5,19.1-21.2,38-32.3,56.7c-3.6,6.2-4.6,10,2.9,14.1c16.9,9.4,33.5,19.4,49.8,29.8
		c6.8,4.3,10.4,3.1,14.3-3.5c11.4-19.2,23.2-38.2,34.9-57.3C1482.8,1596,1483.9,1593.8,1484.9,1592z M1559.2,1472.1
		c1.2-5.8-3.2-6.6-6-8.2c-9.9-5.7-20-11.3-30-16.8c-36.2-19.9-36.2-19.9-56.2,15.3c-19.7,34.5-19.7,34.6,14.7,54.5
		c12,6.9,25.9,20.5,35.8,18.1c9.8-2.4,15.8-21,23.2-32.7C1547,1492.2,1553.2,1481.9,1559.2,1472.1z"/>
	<path class="st8" d="M628.9,1741.3c-5.5,0-10.9,0.3-16.4-0.1c-13.7-1-33.2,6.5-39.8-3.2c-8.9-13-2.1-32.8-2.8-49.7
		c-0.3-8.2,5.3-8,11.1-8c32.7,0,65.4,0.1,98.2-0.1c7.4,0,10.4,2.1,11.2,10.1c5.1,50.9,5.3,50.9-45,50.9
		C639.8,1741.3,634.4,1741.3,628.9,1741.3z"/>
	<path class="st0" d="M873.4,690.4c25,0.4,48.9,10.2,69.4,29.1c7,6.4,7.7,11.1,0.2,17.2c-5.1,4.2-9.8,9-14.2,14
		c-11.1,12.8-20,23.1-38.1,5.8c-13.6-13-34.5-8.4-51.1,6.3c-7,6.2-11.2,6.5-17.1-0.4c-5.5-6.4-11.8-12.1-17.8-18.1
		c-17.5-17.6-17.7-17.7,1.8-32.6C825.3,697.1,846.8,690.3,873.4,690.4z"/>
	<path class="st9" d="M960.1,1651c-46-1-90.1-7.6-130.3-29.8c-24.1-13.3-48.9-28.8-49.1-60.2c-0.2-31.5,23.8-48.5,48.6-60.4
		c86.5-41.5,174.2-41.4,260.8-0.3c24.8,11.7,48.9,28.6,49.1,60.1c0.3,31.6-24.5,47.2-48.5,60.6
		C1050.1,1643.6,1005.3,1650,960.1,1651z M930.1,1561.4c0.6-16-13-30.2-29.3-30.6c-16.4-0.4-30.5,12.7-31,28.9
		c-0.6,16.3,12.7,30,29.3,30.5C915.8,1590.6,929.5,1577.9,930.1,1561.4z M1050.3,1561.2c0.4-16-13.2-30.1-29.6-30.4
		c-16.3-0.3-30.4,13-30.8,29.1c-0.4,16.2,13,30,29.6,30.3C1036.2,1590.5,1049.8,1577.6,1050.3,1561.2z"/>
	<path class="st10" d="M810.1,1397.1c0-80.7,35.6-136.2,101.7-158.9c94.1-32.3,193.9,35.9,197.6,135.3c0.7,18.8,0.1,37.6,0.5,56.4
		c0.2,8.8-1,11.7-11.1,7.7c-92.5-36.7-185.3-37-277.8,0.2c-10.1,4-11.4,0.8-11.1-7.9C810.4,1418.9,810.1,1408,810.1,1397.1z
		 M899.5,1349.7c-0.3-16.6-13.9-29.8-30.2-29.5c-16.2,0.3-29.6,14.3-29.3,30.6c0.3,16.3,14.3,29.9,30.4,29.6
		C886.8,1380.1,899.8,1366.3,899.5,1349.7z M1080,1351.1c0.5-16.2-12.8-30.4-29-30.9c-16.4-0.5-30.1,12.5-30.5,29.2
		c-0.5,16.6,12.4,30.5,28.8,31C1065.3,1380.9,1079.6,1367.3,1080,1351.1z"/>
	<path class="st9" d="M810.2,1231.6c0-39.1,0-74.5,0-109.9c0-4.3,0.4-8.7,5.8-9.9c4.8-1.1,8.2,0.7,10.7,4.8
		c13.4,22.3,26.7,44.6,40.2,66.8c2.7,4.4,3,7.5-2.4,10.1C845.5,1202.5,829.4,1215.9,810.2,1231.6z"/>
	<path class="st9" d="M1109.7,1231.7c-19.1-16-35.4-29.3-54.3-38.5c-5.5-2.7-4.8-5.7-2.2-10c13.5-22.2,26.8-44.5,40.1-66.8
		c2.5-4.1,6-5.8,10.7-4.7c4.4,1,5.6,4.4,5.6,8.2C1109.8,1155.9,1109.7,1191.9,1109.7,1231.7z"/>
	<path class="st11" d="M679.3,1337.5c26.1-23.4,53.8-38.3,88.6-43.6c-7.4,21.7-14.8,41.3-16,62.4c-0.4,7.5-4.2,9-10.9,6.2
		C721,1354.3,701.1,1346.3,679.3,1337.5z"/>
	<path class="st11" d="M1152.7,1295.6c27.8,0.6,64.3,18.5,86.6,42.5c-20.4,8.3-40.4,16.4-60.3,24.5c-6.5,2.7-10.5,1.2-11-6.3
		C1166.9,1335.3,1159.6,1315.7,1152.7,1295.6z"/>
	<path class="st12" d="M1484.9,1592c-1,1.8-2.1,4-3.3,6c-11.6,19.1-23.5,38.1-34.9,57.3c-3.9,6.6-7.5,7.8-14.3,3.5
		c-16.3-10.4-32.9-20.4-49.8-29.8c-7.4-4.2-6.5-8-2.9-14.1c11.1-18.7,21.9-37.6,32.3-56.7c3.6-6.6,6.9-8.6,14-4.3
		c17,10.5,34.3,20.3,51.5,30.4C1480.6,1586.2,1484.2,1587.4,1484.9,1592z"/>
	<path class="st12" d="M1559.2,1472.1c-6,9.7-12.1,20.1-18.6,30.3c-7.4,11.6-13.4,30.3-23.2,32.7c-9.9,2.4-23.8-11.2-35.8-18.1
		c-34.4-19.9-34.3-20-14.7-54.5c20-35.2,20-35.2,56.2-15.3c10,5.5,20.1,11,30,16.8C1556,1465.6,1560.4,1466.4,1559.2,1472.1z"/>
	<path class="st8" d="M930.1,1561.4c-0.6,16.4-14.3,29.1-31.1,28.7c-16.6-0.4-29.8-14.2-29.3-30.5c0.6-16.2,14.7-29.3,31-28.9
		C917.1,1531.3,930.7,1545.5,930.1,1561.4z"/>
	<path class="st8" d="M1050.3,1561.2c-0.4,16.5-14.1,29.3-30.8,29c-16.5-0.3-29.9-14-29.6-30.3c0.4-16.2,14.4-29.4,30.8-29.1
		C1037,1531.1,1050.7,1545.2,1050.3,1561.2z"/>
	<path class="st8" d="M899.5,1349.7c0.3,16.6-12.8,30.3-29.1,30.6c-16.1,0.3-30.1-13.3-30.4-29.6c-0.3-16.3,13.1-30.2,29.3-30.6
		C885.7,1319.9,899.2,1333.1,899.5,1349.7z"/>
	<path class="st8" d="M1080,1351.1c-0.5,16.2-14.7,29.7-30.8,29.3c-16.4-0.5-29.2-14.4-28.8-31c0.5-16.6,14.2-29.7,30.5-29.2
		C1067.2,1320.8,1080.5,1334.9,1080,1351.1z"/>
</g>
</svg>
