<?xml version="1.0" encoding="utf-8"?>
<!-- Generator: Adobe Illustrator 23.1.0, SVG Export Plug-In . SVG Version: 6.00 Build 0)  -->
<svg version="1.1" id="Layer_1" xmlns="http://www.w3.org/2000/svg" xmlns:xlink="http://www.w3.org/1999/xlink" x="0px" y="0px"
	 viewBox="0 0 1920 1920" style="enable-background:new 0 0 1920 1920;" xml:space="preserve">
<style type="text/css">
	.st0{fill:#FE4F19;}
	.st1{fill:#FE9900;}
	.st2{fill:#BFE3F7;}
	.st3{fill:#BFE2F5;}
	.st4{fill:#FEFEFD;}
	.st5{fill:#FEFDFB;}
</style>
<g>
	<path class="st0" d="M960,39c23.9,0,47.8,0,71.7,0c2.5,4.8,7.3,3,11.1,3.5c23.7,2.8,47.6,4.2,71,8.4
		c214.7,38.7,395.3,138.7,538.9,303.2c116.5,133.4,188.2,288.1,215.3,463.4c3.5,22.6,2.7,45.9,10.1,67.9c0,49,0,98,0,147
		c-2.5,1-3.3,3.1-3.4,5.6c-1.4,26.8-5.5,53.3-10.4,79.7c-45.2,244.8-169.4,440.3-370.2,586.5c-117.9,85.9-250,138.8-394.4,160.9
		c-22.6,3.5-45.9,2.7-67.9,10.1c-23.9,0-47.8,0-71.7,0c0.1-164.8,0.1-329.6,0.2-494.5c11.2-1.5,22.6-2.2,33.5-4.7
		c38.8-9,61.1-31.3,61.1-62c0.3-148.6,0-297.3,0.3-445.9c0-23.7-11.1-39.4-31.1-50.1c-19.9-10.8-41.8-13-63.8-15.2
		c0-36,0.1-72,0.1-107.9c6.5-1,12.9-2.1,19.4-3.1c35.1-5.4,68.8-34.8,76.4-66.7c7.6-31.5-5.2-63.9-32.9-84.5
		c-18.8-13.9-40-20.1-63-21.3C960.2,359.1,960.1,199.1,960,39z"/>
	<path class="st1" d="M960.4,694.8c0,36-0.1,72-0.1,107.9l-0.1,1.7c-10.7,0.9-21.5,0.9-32,2.8c-44.6,8.1-61.3,28.2-61.3,72.7
		c0,142.5,0.6,285-0.5,427.5c-0.2,31.1,14,49.3,39.8,61.1c16.9,7.8,35,11.4,53.8,10.8l0.2,1.4c-0.1,164.8-0.1,329.6-0.2,494.5
		c-23.9,0-47.8,0-71.7,0c-3.1-5.4-8.5-3.1-12.9-3.7c-28.9-4.2-58.1-7.1-86.8-12.6c-182.2-34.6-339.9-117.1-471.9-247.1
		C171.8,1469,83.7,1296.4,52.2,1095c-3.5-22.1-2.3-44.9-10.2-66.2c0-49,0-98,0-147c4.4-1.8,3.4-5.8,3.7-9.1
		c3.8-38.7,9.9-76.9,17.9-115C139.9,394,454,100.8,822.2,49.2c22-3.1,44.8-2.3,66.1-10.2c23.9,0,47.8,0,71.7,0
		c0.1,160,0.2,320.1,0.2,480.1c0,0-0.2,1.4-0.2,1.4c-15.1-0.6-29.5,2.8-43.3,8.7c-48.9,20.8-69.9,71.6-45.7,113.7
		c19.4,33.8,49.9,49.8,88.9,49.3C960,693.1,960.2,693.9,960.4,694.8z"/>
	<path class="st2" d="M960.3,802.7c22,2.1,43.9,4.4,63.8,15.2c19.9,10.8,31.1,26.4,31.1,50.1c-0.3,148.6,0,297.3-0.3,445.9
		c-0.1,30.7-22.4,53-61.1,62c-11,2.5-22.3,3.2-33.5,4.7c0,0-0.2-1.4-0.2-1.4c0-191.6,0.1-383.2,0.1-574.9L960.3,802.7z"/>
	<path class="st3" d="M960.4,694.8c-0.2-0.8-0.4-1.7-0.6-2.5c0.1-57.2,0.1-114.5,0.2-171.7c0,0,0.2-1.4,0.2-1.4
		c23,1.2,44.3,7.4,63,21.3c27.8,20.6,40.5,53,32.9,84.5c-7.7,31.9-41.3,61.3-76.4,66.7C973.3,692.7,966.9,693.8,960.4,694.8z"/>
	<path class="st4" d="M960.2,804.4c0,191.6-0.1,383.2-0.1,574.9c-18.8,0.6-36.9-3-53.8-10.8c-25.9-11.9-40.1-30.1-39.8-61.1
		c1.1-142.5,0.5-285,0.5-427.5c0-44.5,16.7-64.6,61.3-72.7C938.7,805.3,949.5,805.3,960.2,804.4z"/>
	<path class="st5" d="M960,520.5c-0.1,57.2-0.1,114.5-0.2,171.7c-39,0.4-69.5-15.6-88.9-49.3c-24.2-42.1-3.1-92.9,45.7-113.7
		C930.5,523.3,944.9,520,960,520.5z"/>
</g>
</svg>
