<?xml version="1.0" encoding="utf-8"?>
<!-- Generator: Adobe Illustrator 23.1.0, SVG Export Plug-In . SVG Version: 6.00 Build 0)  -->
<svg version="1.1" id="Layer_1" xmlns="http://www.w3.org/2000/svg" xmlns:xlink="http://www.w3.org/1999/xlink" x="0px" y="0px"
	 viewBox="0 0 1920 1920" style="enable-background:new 0 0 1920 1920;" xml:space="preserve">
<style type="text/css">
	.st0{fill:#FEC942;}
	.st1{fill:#FEAE3E;}
	.st2{fill:#314754;}
	.st3{fill:#314653;}
	.st4{fill:#FEFEFE;}
	.st5{fill:#4D5A68;}
	.st6{fill:#DC864D;}
	.st7{fill:#B02E65;}
	.st8{fill:#E8336D;}
	.st9{fill:#304653;}
	.st10{fill:#ADB4CB;}
	.st11{fill:#C9D3E3;}
	.st12{fill:#D36936;}
	.st13{fill:#4E5A68;}
	.st14{fill:#ACB4CB;}
</style>
<g>
	<path class="st0" d="M743.3,1893c-189.6,0-379.2,0-568.7,0c-15.4-6.6-32.4-8.4-47.3-16.4c-64.4-34.5-93.9-89.2-93.9-161.2
		c0-406.9,0-813.8,0-1220.7c0-6,0.4-12.1,0.6-18.1c228.7,0,457.4,0,686.1,0c7.8,0,15.7,0.4,23.5,0.7c0,325.6-0.1,651.2-0.1,976.7
		c-6,0.2-12,0.6-18.1,0.6c-139.3,0-278.6-0.1-418,0.1c-32.9,0.1-56.1,22.5-56.6,53.3c-0.5,31.7,23,54.7,56.6,55.2
		c24.1,0.3,48.3,0,72.4,0.1c121.2,0.2,242.4,0.4,363.7,0.6C743.3,1673.6,743.3,1783.3,743.3,1893z M469.8,1237.3
		c53.6,0,107.3,0,160.9,0c19.9,0,36.8-6.5,48.1-23.5c12.4-18.6,13.8-37.9,2.3-57.9c-11.1-19.3-28.3-27.2-49.6-27.2
		c-107.3-0.1-214.6-0.2-321.9,0c-34.9,0-59.3,23-59,54.8c0.3,31.8,24.5,53.7,60,53.8C363.7,1237.4,416.8,1237.3,469.8,1237.3z
		 M415.3,802.6c-34.9,0-69.9-0.1-104.8,0c-35.4,0.2-59.6,22.1-59.8,54c-0.2,31.8,24.1,54.5,59.2,54.6c70.5,0.2,141,0.2,211.4,0
		c34.9-0.1,59.2-23,58.9-54.8c-0.3-31-24.5-53.5-58.2-53.7C486.4,802.4,450.9,802.6,415.3,802.6z"/>
	<path class="st1" d="M743.3,1893c0-109.7,0-219.3,0-329l0-1.3c32.3-0.9,53.9-21.8,54.3-52.8c0.4-31.9-21.3-53.7-54.3-54.6l0-1.3
		c0-325.6,0.1-651.2,0.1-976.7c0,0-0.2-1.3-0.2-1.3c91,0.2,182,0.5,272.9,0.6c133.8,0.2,267.5,0.4,401.3,0.5
		c-3.8,5.4-7.3,11-11.4,16.2c-90.1,115.5-182,229.6-269.9,346.8c-90.4,120.4-138.5,258.2-153.1,407.7c-1.4,9.5-3.5,19-4.1,28.6
		c-4,64.9-8.1,129.8-11.3,194.8c-1.2,23.9-5.7,46-19.6,66.2c-11.5,16.8-21.4,34.9-30.8,53.1c-15.3,29.4-7,56.7,21.6,74.1
		c26.3,14.4,54.4,8.4,70.6-17c14.6-22.7,27.8-46.4,41.1-70c5.7-10.3,13-18.2,22.9-24.7c42.4-27.5,84.7-55.2,126.5-83.4
		c25.9-17.4,53.6-32.3,76.2-54.3c4.5-3,9.1-5.8,13.5-9c61.6-45.1,114.3-99.5,163.1-157.8c0.1,162.8,1.1,325.7-0.2,488.5
		c-0.4,46.5-22.5,85.1-57.4,116.6c-23.1,20.8-51.3,29.9-79.5,39.5C1124.9,1893,934.1,1893,743.3,1893z"/>
	<path class="st2" d="M1888,697.5c-2.7,0.8-3.3,2.9-3.7,5.4c-6.4,38.3-26,69.3-53.3,96.2c-53,52.2-100.5,108.7-135.7,174.9
		c-40.1,75.6-62,156.2-68.3,241.3c-2.6,34.6-27.6,57.2-59.2,54.5c-30.9-2.6-51.3-27.9-49.1-62.1c1.1-17.4,3.7-34.7,5.5-52.1
		c0.5-5.3,0.7-10.7,1-16.1c8.6-18.5,17.3-37,25.7-55.6c37.7-82.8,65.8-169.6,105.2-251.7c2-1.3,4.6-2.1,5.9-3.9
		c29.7-41.7,65.2-78.3,100.5-115.1c7.2-7.4,11.9-16.3,13.8-26.7c5.1-26.9-4.9-44.8-37-64.8c2.9-8.5,6.4-16.8,8.7-25.4
		c7.4-27.5,27-49.3,35.3-76.3c0.8,0,1.5,0,2.3,0.1c2.6,7.1,9.7,8.6,15.2,11.8c46.4,27.2,75.3,66.5,83.6,120.2
		c0.4,2.4,0.7,4.7,3.4,5.6C1888,671,1888,684.2,1888,697.5z"/>
	<path class="st3" d="M1785.8,520c-0.8,0-1.5-0.1-2.3-0.1c-46.9-25.2-92.8-52-138.2-79.7c0.5-1.7,0.6-3.7,1.5-5.2
		c41.6-72.4,82.8-145,125.3-216.9c11.5-19.4,19.1-41.6,36.8-57.1c42,24.7,67,61.2,75.9,109c0.3,1.4,2.1,2.5,3.2,3.7
		c0,16.9,0,33.8,0,50.7C1867,396.4,1821.2,455.5,1785.8,520z"/>
	<path class="st4" d="M1785.8,520c35.4-64.5,81.2-123.6,102.2-195.6c0,111.1,0,222.2,0,333.3c-2.7-0.9-3-3.2-3.4-5.6
		c-8.3-53.7-37.2-93-83.6-120.2C1795.5,528.6,1788.4,527.2,1785.8,520z"/>
	<path class="st5" d="M359.3,147.2c37.4,0,74.8,0,112.2,0c0,53.1-0.1,106.1,0.1,159.2c0.1,36.7,22.1,61.4,54.3,61.4
		c32.2,0,54.2-24.7,54.3-61.4c0.2-53.1,0.1-106.1,0.1-159.2c36.2,0,72.4,0,108.5,0c0,54.6-0.2,109.1,0.2,163.7
		c0.3,34.1,20.8,54.8,54.3,56.3l-0.2,1.5c0,35.8,0,71.5,0,107.3c0,0,0.2,1.3,0.2,1.3c-7.8-0.2-15.7-0.7-23.5-0.7
		c-228.7,0-457.4,0-686.1,0c-0.2-60.8-4.8-121.9,1.9-182.4c9.6-86.6,77.3-145.6,164.1-147.2c16.9-0.3,33.7,0.1,50.6,0.2
		c0,53.1-0.1,106.1,0.1,159.2c0.1,36.7,22.1,61.4,54.3,61.4c32.2,0,54.2-24.7,54.3-61.4C359.4,253.3,359.3,200.2,359.3,147.2z"/>
	<path class="st6" d="M743.3,1564c-121.2-0.2-242.4-0.4-363.7-0.6c-24.1,0-48.3,0.2-72.4-0.1c-33.6-0.4-57-23.5-56.6-55.2
		c0.5-30.8,23.7-53.3,56.6-53.3c139.3-0.2,278.6-0.1,418-0.1c6,0,12-0.4,18.1-0.6c0,0,0,1.3,0,1.3c0,35.8,0,71.6,0,107.4L743.3,1564
		z"/>
	<path class="st6" d="M469.8,1237.3c-53,0-106.1,0.1-159.1,0c-35.5-0.1-59.8-22-60-53.8c-0.3-31.8,24.1-54.7,59-54.8
		c107.3-0.1,214.6-0.1,321.9,0c21.3,0,38.5,8,49.6,27.2c11.5,19.9,10.1,39.3-2.3,57.9c-11.3,17-28.2,23.5-48.1,23.5
		C577.1,1237.3,523.5,1237.3,469.8,1237.3z"/>
	<path class="st6" d="M415.3,802.6c35.5,0,71.1-0.2,106.6,0.1c33.8,0.2,57.9,22.7,58.2,53.7c0.3,31.8-24.1,54.8-58.9,54.8
		c-70.5,0.2-141,0.2-211.4,0c-35-0.1-59.3-22.8-59.2-54.6c0.2-31.8,24.4-53.8,59.8-54C345.4,802.5,380.4,802.6,415.3,802.6z"/>
	<path class="st7" d="M1645.3,440.2c45.4,27.7,91.3,54.6,138.2,79.7c-8.3,27.1-27.9,48.8-35.3,76.3c-2.3,8.6-5.8,17-8.7,25.4
		c-0.8,0.8-2.1,1.5-2.5,2.4c-27.6,68-55.2,136-82.6,204c-0.4,0.9,1.2,2.7,1.9,4.1c-39.4,82.1-67.5,168.9-105.2,251.7
		c-8.5,18.6-17.2,37.1-25.7,55.6c-24.2,36.3-48.4,72.6-72.5,108.9c-48.8,58.4-101.4,112.7-163.1,157.8c-4.3,3.2-9,6-13.5,9
		c-0.6-20.3,0.8-41-2.2-61c-8.2-54.9-38.4-95.8-85-125.1c49.3-85.7,98.4-171.5,147.8-257.1c82.8-143.6,166.1-286.9,248.6-430.7
		c19.1-33.4,41-65.3,56.3-100.8C1642.9,440.4,1644.1,440.3,1645.3,440.2z"/>
	<path class="st8" d="M1641.6,440.5c-15.3,35.5-37.2,67.5-56.3,100.8c-82.4,143.8-165.7,287.1-248.6,430.7
		c-49.4,85.6-98.6,171.4-147.8,257.1c-1.1,0.2-2.2,0.3-3.2,0.5c-31.4-19.1-65.5-25.2-101.9-22.5c-38.1,2.9-69.7,20.8-100.8,40.7
		c14.6-149.6,62.7-287.3,153.1-407.7c87.9-117.1,179.8-231.3,269.9-346.8c4.1-5.2,7.6-10.8,11.4-16.2c13.7-14.3,25.7-29.9,36.4-46.5
		c21.7-19.8,32.8-47.1,49.1-70.7C1549.2,386.8,1595.4,413.7,1641.6,440.5z"/>
	<path class="st9" d="M1453.9,430.6c-10.7,16.6-22.8,32.2-36.4,46.5c-133.8-0.2-267.5-0.3-401.3-0.5c-91-0.1-182-0.4-272.9-0.6
		c0-35.8,0-71.5,0-107.3c36.9-4,54.4-23.5,54.4-60.6c0-53.6,0-107.3,0-160.9c37.4,0,74.8,0,112.2,0c0,53.1-0.1,106.2,0.1,159.2
		c0.1,36.8,22.1,61.5,54.3,61.5c32.2,0,54.2-24.7,54.3-61.5c0.2-53.1,0.1-106.2,0.1-159.2c36.2,0,72.4,0,108.6,0
		c0,53.1-0.1,106.2,0.1,159.2c0.1,36.8,22.1,61.5,54.3,61.5s54.2-24.7,54.3-61.5c0.2-53.1,0.1-106.2,0.1-159.2
		c34.2,0.8,68.7-3.5,102.3,7.4c65.6,21.2,113.3,84,114.8,153.1C1454,348.5,1453.6,389.6,1453.9,430.6z"/>
	<path class="st10" d="M1185.7,1229.6c1.1-0.2,2.2-0.3,3.2-0.5c46.5,29.3,76.7,70.2,85,125.1c3,20,1.6,40.6,2.2,61
		c-22.6,22-50.3,36.9-76.2,54.3c-41.9,28.3-84.1,56-126.5,83.4c-9.9,6.4-17.2,14.4-22.9,24.7c-13.2,23.6-26.5,47.3-41.1,70
		c-16.3,25.3-44.3,31.4-70.6,17c1.2-3.4,2-7,3.7-10.1c63.9-110.6,128.1-221,191.6-331.8C1151.7,1291.9,1172.5,1262.8,1185.7,1229.6z
		"/>
	<path class="st11" d="M1185.7,1229.6c-13.3,33.2-34,62.3-51.6,93.1c-63.5,110.8-127.7,221.2-191.6,331.8c-1.8,3.1-2.5,6.7-3.7,10.1
		c-28.6-17.4-36.9-44.6-21.6-74.1c9.4-18.2,19.3-36.3,30.8-53.1c13.9-20.3,18.4-42.3,19.6-66.2c3.2-65,7.3-129.9,11.3-194.8
		c0.6-9.6,2.7-19.1,4.1-28.6c31-19.8,62.6-37.8,100.8-40.7C1120.2,1204.4,1154.3,1210.5,1185.7,1229.6z"/>
	<path class="st12" d="M743.3,1562.7c0-35.8,0-71.6,0-107.4c33,0.9,54.7,22.7,54.3,54.6C797.2,1540.9,775.6,1561.8,743.3,1562.7z"/>
	<path class="st13" d="M1641.6,440.5c-46.2-26.9-92.5-53.7-138.7-80.6c28.1-51.1,55.1-103,88.2-151c51.1-74.3,139-92.5,217.8-47.9
		c-17.7,15.5-25.3,37.7-36.8,57.1c-42.5,71.9-83.7,144.5-125.3,216.9c-0.9,1.5-1,3.4-1.5,5.2
		C1644.1,440.3,1642.9,440.4,1641.6,440.5z"/>
	<path class="st11" d="M359.3,147.2c0,53.1,0.1,106.1-0.1,159.2c-0.1,36.7-22.1,61.4-54.3,61.4c-32.2,0-54.2-24.7-54.3-61.4
		c-0.2-53.1-0.1-106.1-0.1-159.2c0-18-0.3-36.1,0.2-54.1c0.8-31.3,25-55.2,55.1-54.8c29.3,0.5,52.6,24.2,53.3,54.8
		C359.6,111.1,359.3,129.1,359.3,147.2z"/>
	<path class="st11" d="M580.3,147.2c0,53.1,0.1,106.1-0.1,159.2c-0.1,36.7-22.1,61.4-54.3,61.4c-32.2,0-54.2-24.7-54.3-61.4
		c-0.2-53.1-0.1-106.1-0.1-159.2c0-18-0.3-36.1,0.2-54.1c0.8-31.3,25-55.2,55.1-54.8c29.3,0.5,52.6,24.2,53.3,54.8
		C580.6,111.1,580.3,129.1,580.3,147.2z"/>
	<path class="st14" d="M1018.6,147c0,53.1,0.1,106.2-0.1,159.2c-0.1,36.8-22.1,61.5-54.3,61.5c-32.2,0-54.2-24.7-54.3-61.5
		c-0.2-53.1-0.1-106.2-0.1-159.2c0-18.1-0.4-36.2,0.2-54.3c0.9-30.5,25-54.4,54.2-54.4c29.2,0,53.3,23.9,54.2,54.4
		C1019,110.8,1018.6,129,1018.6,147z"/>
	<path class="st14" d="M1236,147c0,53.1,0.1,106.2-0.1,159.2c-0.1,36.8-22.1,61.5-54.3,61.5s-54.2-24.7-54.3-61.5
		c-0.2-53.1-0.1-106.2-0.1-159.2c0-18.1-0.4-36.2,0.2-54.3c0.9-30.5,25-54.4,54.2-54.4c29.2,0,53.3,23.9,54.2,54.4
		C1236.3,110.8,1236,129,1236,147z"/>
	<path class="st14" d="M797.7,147c0,53.6,0,107.3,0,160.9c0,37.2-17.6,56.7-54.4,60.6c0,0,0.2-1.5,0.2-1.5
		c0.1-109.5,0.1-218.9,0.2-328.4c32.6,1.5,53.4,22.3,54,54.5C797.9,111.2,797.6,129.1,797.7,147z"/>
	<path class="st11" d="M743.6,38.7c-0.1,109.5-0.1,218.9-0.2,328.4c-33.5-1.5-54.1-22.2-54.3-56.3c-0.4-54.6-0.2-109.1-0.2-163.7
		c0-18,0.1-35.9,0.1-53.9C688.9,67.9,707.8,38.8,743.6,38.7z"/>
</g>
</svg>
