<?xml version="1.0" encoding="utf-8"?>
<!-- Generator: Adobe Illustrator 23.1.0, SVG Export Plug-In . SVG Version: 6.00 Build 0)  -->
<svg version="1.1" id="Layer_1" xmlns="http://www.w3.org/2000/svg" xmlns:xlink="http://www.w3.org/1999/xlink" x="0px" y="0px"
	 viewBox="0 0 1920 1920" style="enable-background:new 0 0 1920 1920;" xml:space="preserve">
<style type="text/css">
	.st0{fill:#5F656F;}
	.st1{fill:#696F77;}
	.st2{fill:#95B948;}
	.st3{fill:#81AA41;}
	.st4{fill:#B1CB5E;}
	.st5{fill:#CF4F4F;}
	.st6{fill:#535762;}
	.st7{fill:#ED615F;}
	.st8{fill:#E15656;}
	.st9{fill:#EAD9B4;}
	.st10{fill:#9FC04C;}
	.st11{fill:#DCCCAB;}
	.st12{fill:#FEFEFE;}
	.st13{fill:#885844;}
	.st14{fill:#94634A;}
	.st15{fill:#B57F59;}
</style>
<g>
	<path class="st0" d="M1247.4,439.6c5,7.3,12.1,11.6,19.6,15.9c74.7,43.3,149.3,86.7,223.8,130.2c6.2,3.6,13.4,6,18,12.1
		c-12.7,30.3-27.8,59.3-43.5,88.3c-38,70.6-73.5,142.5-109.3,214.3c-6.4,12.7-12,16.2-24.8,8.3c-26.3-16.2-53.2-31.4-79.8-47
		c-32.9-19.3-65.8-38.7-98.8-57.9c-49.8-29.1-99.4-58.6-149.5-87.2c-27.4-15.7-55.6-30.1-83.4-45.1c1.7-15.7,3-31.5,5.3-47.1
		c7.8-51.6,16.1-103.2,24.1-154.8c8.6-55.8,17.7-111.5,25-167.5c2.2-17,8.8-12,17.3-7c61.6,36,122.8,72.9,185.1,107.7
		C1199.6,415.9,1220.7,433.4,1247.4,439.6z"/>
	<path class="st1" d="M1247.4,439.6c-26.7-6.2-47.8-23.7-70.9-36.7c-62.3-34.9-123.4-71.7-185.1-107.7c-8.5-4.9-15.1-10-17.3,7
		c-7.3,56-16.4,111.7-25,167.5c-7.9,51.6-16.3,103.2-24.1,154.8c-2.4,15.6-3.6,31.4-5.3,47.1c-4.5,15.2,10.5,18.2,18.1,26.4
		c-3.1,2.1-5,3.6-7.1,4.8c-66.9,39-133.7,78.3-201,116.8c-32.2,18.4-62.9,39.7-97.1,54.5c-16.8-7.7-19.7-24.9-27.1-39.2
		C562,749.5,517.9,664.4,474.2,579c-3.6-6.9-8.2-12-15.4-14.7c19.6-15.9,42.4-26.5,64-39.1c191.6-111.6,383.5-222.8,574.9-334.7
		c14.9-8.7,20.3-6.1,27.7,8.5c37.1,73.9,75.4,147.1,113.2,220.7C1241.9,426.1,1244.5,432.9,1247.4,439.6z"/>
	<path class="st2" d="M964,1719.8c-6.1,0.7-10.3-3.4-14.9-6.1C650.5,1541.4,352,1369,53.1,1197.2c-15.8-9.1-23.5-18.7-20.8-37.1
		c2.9-19.7-3.6-40.1,3.5-59.6c21.3,19.6,49.4,28.6,72,45.6c16.5,12.4,29.3,8.5,44.4-0.5c42.3-25.3,85.3-49.5,127.5-75.1
		c30.6-18.6,63.6-33.3,91.7-56c1-0.2,2-0.4,3-0.4c1.4,0.2,2.7,0.5,4.1,0.7l0.2,0.4c27.8,22,59.8,37.2,90.4,54.7
		c26.9,15.4,51.8,34.4,81.5,44.7c0.5,1.9,1,3.8,1.5,5.7c-7.8-0.2-13.9,3.5-20.4,7.3c-19.4,11.6-39.1,22.7-58.7,34.1
		c-55.3,32.3-110.6,64.6-167.6,97.9C525.9,1386.9,745,1513.4,964,1639.9C964,1666.5,964,1693.2,964,1719.8z"/>
	<path class="st3" d="M964,1719.8c0-26.6,0-53.3,0-79.9c4.6-3,9.1-6.1,13.9-8.9c83-48.3,165.9-96.5,249-144.7
		c78.3-45.4,156.8-90.4,234.8-136.2c52.6-30.9,106.5-59.8,157.6-93.3c3.4-1.1,7.2-1.7,10.2-3.5c30.6-17.6,61.6-34.4,91.3-53.4
		c22.4-14.3,47.7-24,67.8-42.1c34.9-14.7,65.5-37.1,98.5-55.2c0.3,24.5,0.1,49,1.1,73.4c0.5,11.8-8.8,13.7-15.7,17.7
		c-112.6,65.6-225.4,131-338.1,196.5c-184.7,107.3-369.3,214.7-554,322C975.2,1715.1,970.7,1719.9,964,1719.8z"/>
	<path class="st4" d="M371.3,1014.5c-28.1,22.7-61.1,37.4-91.7,56c-42.1,25.6-85.1,49.8-127.5,75.1c-15.1,9-27.9,13-44.4,0.5
		c-22.6-17-50.7-26-72-45.6c61.1-36,122.1-72.2,183.3-108.1c32.2-18.9,64.7-37.2,97-55.8c-7.8,35.8,8.5,57.3,40.8,69.8
		C362,1008.3,366.5,1011.8,371.3,1014.5z"/>
	<path class="st5" d="M1661.5,863c-0.3,2.4-0.6,4.7-0.9,7.1c-8.7,3.7-17.1,7.7-22.7,15.8c-33.2,20.7-66.8,40.5-101.6,58.4
		c-1.8,1.2-3.6,2.3-5.4,3.5l0.2-0.1c-9.1,2.5-19.3,3.2-22.5,14.8c-29.7,16.9-58.8,34.9-89.3,50.2c-18.5,9.2-29.2,20.3-25.4,41.7
		c-0.4,0.3-1.2,0.8-1.1,1c0.2,0.9,0.7,1.7,1.1,2.6c0,19.6,0.1,39.2,0.1,58.8c-7.7,0.7-12.6,9.6-21.3,7.4c-27-15.5-54-30.8-80.9-46.4
		c-83.3-48.3-166.6-96.7-249.9-145.1c0-2.4,0-4.8,0-7.2c2.9,0.9,6,1.4,8.6,2.9c76,44.2,151.9,88.6,227.9,132.9
		c31.5,18.4,63.3,36.4,95.7,55.1c4.9-14.6,1-21.8-10.6-28.5c-89.5-51.4-178.4-103.8-267.9-155.2c-18.7-10.8-35.4-26.3-58.2-29
		l0.2-0.1c-1.1-1.4-2.2-2.7-3.2-4.1c-1.6-3.4-3.2-6.8-4.8-10.2c4.6-1,8.5,1.1,12.2,3.2c87.2,50.8,174.3,101.6,261.5,152.4
		c23.6,13.7,47.3,27.2,71.4,41.1c5.3-16.4-1.9-23.8-14.1-30.8c-73.2-41.9-146-84.7-219-126.9c-61.4-35.5-123.1-70.6-184.6-105.8
		c-51.2,29.6-102.3,59.2-153.5,88.8c-65.4,37.9-130.8,75.7-196.2,113.6c0-3.7,0.1-7.3,0.1-11c50.9-22.5,96.8-54,145.1-81.2
		c68.5-38.6,136.4-78.5,204.5-117.8c4.5,1.8,9.4,3,13.5,5.4c36,20.8,71.8,41.9,107.8,62.7c93.6,54.4,187.1,108.7,280.8,163
		c5.1,3,11.3,11.7,16.4,3.5c3.9-6.3,2.2-14.7-7-19.9c-27.2-15.3-53.7-31.7-80.7-47.3c-81.9-47.6-163.8-95.4-245.9-142.6
		c-28-16.1-54.8-34.4-84.9-46.7c-1.2,0.2-2.6,0-3.6,0.6c-83.9,48.7-167.6,97.8-251.9,146.1c-31.2,17.8-60.5,39.2-94.3,52.2
		c0,0,0,0,0,0c0-1.3,0-2.5,0-3.8c0-1.2,0.1-2.4,0.1-3.6c1.2-0.2,2.6,0,3.6-0.6C694.9,934.7,779,885,863.8,836.6
		c30.7-17.5,59.8-37.9,92.8-51.1c5.8-0.4,10.2,2.5,15.1,5.3c40.6,23.8,81.4,47.2,122.1,70.8c87.7,50.9,175.3,102,263.1,152.8
		c5.9,3.4,11,9.9,19.3,6.8c3.5-0.7,7.6-0.5,10.6-2.2c65.5-37.8,130.4-76.5,196.3-113.5C1609.1,891,1633.2,873.1,1661.5,863z"/>
	<path class="st6" d="M632.7,874.1c34.3-14.8,64.9-36.1,97.1-54.5c67.3-38.5,134-77.8,201-116.8c2.1-1.2,4-2.7,7.1-4.8
		c-7.6-8.2-22.6-11.2-18.1-26.4c27.8,15,56,29.4,83.4,45.1c50.1,28.7,99.7,58.1,149.5,87.2c32.9,19.3,65.8,38.6,98.8,57.9
		c26.6,15.6,53.5,30.8,79.8,47c12.8,7.9,18.4,4.4,24.8-8.3c35.8-71.8,71.3-143.7,109.3-214.3c15.6-29,30.8-58,43.5-88.3
		c25.7,14.3,46.9,34.7,70.2,52.2c28.3,21.2,56,43.3,83.9,65c22.2,17.2,21.9,22.8-1.6,38.2c-9.9,4.1-18,13.3-30.3,9.9
		c-2.3-1.2-4.6-2.5-6.9-3.7c-0.4-6-0.8-11.9-1.2-17.9l1.1,0.7c8.2,7.3,16.8,8.9,26.1,2.2c3.3-2.4,8.8-4.5,6.9-9.2
		c-2.5-5.9-9.2-7.1-15-8.5c-3.8-1.3-7.6-2.6-11.4-3.9c-3.7-7.5-11.7-8-18.2-11c-2.3-1.3-4.6-2.6-6.9-3.8c-5-5.8-11.5-9-18.7-11
		c-2.3-1.2-4.7-2.5-7-3.7c-4.9-5.9-11.4-8.9-18.5-11.1c-16.1-13.4-35.8-21-53-32.6c-6.5-4.4-9.6-1.2-12.5,4.7
		c-13.7,28-27.6,55.9-41.4,83.9c-5.5,10.9-11.1,21.9-16.6,32.8c-2,3.8-3.9,7.5-5.9,11.3c-5.5,9.5-12.5,18.3-15.2,29.3
		c-4.4,4-6.6,9-7.2,14.8c-10.5,13.5-15,30.3-24.4,44.3c-7.7,11.5-8,20.3,4.6,27.7l0,1.2c-1.3,15.4-16.4,17.3-25,25.5
		c-2.3,1.4-4.6,2.8-6.9,4.3c-6.9,0.4-12.8,2.7-20.6-1.9c-89.9-53-179.9-105.7-270.6-157.3c-36.5-20.8-71.3-44.7-109.9-61.8
		c-9-6.8-14.8,2.2-20.5,5.4c-36.4,20.4-72.1,41.9-108.2,62.9c-66.3,38.6-132.6,77.2-198.9,115.7
		C628.6,885.7,629.1,879.6,632.7,874.1z"/>
	<path class="st4" d="M1887,1102.6c-33,18-63.6,40.5-98.5,55.2c-1.9-2.3-3.4-5.3-5.8-6.7c-45.7-26.8-91.8-53-137.3-80.2
		c-10.6-6.3-24-9.5-30.3-22.1c10.2-6.8,20.4-13.6,30.6-20.4c13.2-3.4,18.7-11.4,17.3-25.4c-1-10.2,0.2-20.7,0.4-31
		c73.5,42.1,147,84.3,220.4,126.5C1885.2,1099.2,1886,1101.2,1887,1102.6z"/>
	<path class="st7" d="M371.3,1014.5c-4.8-2.7-9.3-6.2-14.4-8.1c-32.3-12.5-48.6-34-40.8-69.8c0.2-65.7,0.5-131.3,0.8-197
		c0-7.3,0.7-14.5,1.1-21.8c8.5-0.2,13.8,13.6,24.1,5.5c2-0.3,4.1-0.5,6.1-0.8c45.8,26.6,91.4,53.6,137.5,79.7
		c33.8,19.2,66.2,41.1,101.8,57c-2.8,15.6,11.4,18.2,19.4,25.5c-2,11.7-8.7,5.1-13.1,2.8c-13.9-6.9-26.1-17.4-41.8-21
		c1.2-11.7-7.8-15.5-15.6-20c-47.7-27.5-95.3-54.9-143.1-82.2c-5.1-2.9-10.3-9.8-16-6.1c-5.2,3.4-2.3,11.3-2.3,17.2
		c-0.4,79.5-0.6,159.1-0.8,238.6C373.3,1014.1,372.3,1014.2,371.3,1014.5z"/>
	<path class="st0" d="M607,884.8c-8-7.3-22.3-9.9-19.4-25.5c1.6-2.3,3.3-4.7,4.9-7c5.2-2.8,4.1-7.1,2-10.9
		c-10.9-19.6-18.6-40.9-31.6-59.4c-0.7-5.8-3-10.8-7.3-14.8c-23.7-46.6-47.3-93.4-71.4-139.8c-3.5-6.7-4.9-15.5-13.5-18.7
		c-3.9-20.4-5.7-21.1-21.6-9.5c-17.1,12.5-35.6,23.6-51,38c-12.5,11.7-31.3,16.8-37.7,34.9l0.1-0.2c-3.2-0.1-6.1,0.5-7.6,3.9
		l0.3-0.3c-1.4,1.2-2.7,2.3-4.1,3.5l0,0c-3,0.2-5.7,0.8-7.3,3.7c-0.5,2.5-0.9,5-1.4,7.4c-8.2,0.8-16.1,2.3-23.4,9.3
		c7.9,4.7,14.5,8.7,21.1,12.7c0.1,4.2-0.5,8.6,4,11.2c-10.3,8.1-15.6-5.7-24.1-5.5c-4.6-3.1-9.3-6-13.7-9.2
		c-10.2-7.5-10.6-17-1.3-24.3c51.6-40.4,103.8-80.1,155.8-120.1c7.2,2.7,11.9,7.8,15.4,14.7c43.7,85.3,87.8,170.5,131.4,255.8
		c7.3,14.3,10.2,31.5,27.1,39.2c-3.6,5.5-4.1,11.6-3.7,18C619.9,894.8,615,885.2,607,884.8z"/>
	<path class="st5" d="M1661.6,833.6c-0.4,2.3-0.8,4.7-1.3,7c-3.3,1.3-6.9,2.3-9.9,4c-36.5,20.9-73,41.8-109.5,62.9
		c-54.9,31.7-109.8,63.5-164.7,95.3c-30.1-17.5-60.1-34.9-90.2-52.4c-89.1-51.8-177.9-104.3-267.6-155.1
		c-20.1-11.4-37.5-28.6-61.9-31.9c-5.1,2-10.6,3.3-15.2,6c-64.4,37.3-128.7,74.9-193.2,112.2c-46.9,27.1-94.1,53.8-141.2,80.7
		c0.1-3.7,0.1-7.3,0.2-11c4.7-1.2,9.9-1.4,13.9-3.7c31.3-17.9,62.3-36.3,93.4-54.4c80.7-47,161.5-93.9,242.3-140.8
		c29.2,16.4,58.5,32.6,87.4,49.4c89.7,52,179.2,104.6,269.1,156.2c20.6,11.8,39.6,27.1,63.1,33.7c5.1-1.9,10.6-3.2,15.2-5.9
		c67-38.6,133.8-77.8,201-116C1615.1,857,1635.5,839.8,1661.6,833.6z"/>
	<path class="st5" d="M1660.8,800.4c0,2.3,0,4.7-0.1,7c-13.2,7.7-26.3,15.5-39.5,23.1c-67.6,39.1-135.2,78.4-203.1,117.1
		c-14.6,8.4-28.4,18.9-45.6,22.1c-16.4-9.5-32.8-18.9-49.2-28.4c-81.4-47.2-162.6-94.6-244.2-141.5c-40.7-23.4-80.3-48.8-122.5-69.4
		c-29.7,16.9-59.5,33.5-89,50.6c-87,50.5-173.8,101.2-260.7,151.8c0-3.7,0.1-7.3,0.1-11c5.1-2,10.6-3.3,15.2-6
		c70.7-41.1,140.9-83.1,212.1-123.3c40.8-23.1,79.9-49.4,122.3-69.6c5.1,2,10.5,3.4,15.2,6.1c55.9,32.4,111.7,65,167.5,97.5
		c76.4,44.5,152.8,88.9,229.2,133.3c3.1,1.8,5.6,1.8,7.8-1.2c7.2,0.7,13.1-2.6,19-6c34.9-20.1,69.7-40.6,104.7-60.6
		C1553.5,861.4,1607.2,830.9,1660.8,800.4z"/>
	<path class="st8" d="M1372.5,969.7c17.2-3.1,31-13.7,45.6-22.1c67.9-38.7,135.4-78,203.1-117.1c13.2-7.6,26.3-15.4,39.5-23.1
		c0.3,8.7,0.6,17.5,0.9,26.2c-26.1,6.3-46.5,23.4-69.1,36.2c-67.3,38.2-134,77.4-201,116c-4.7,2.7-10.1,4-15.2,5.9
		C1376.3,984.2,1377,976.5,1372.5,969.7z"/>
	<path class="st8" d="M1660.8,800.4c-53.6,30.5-107.3,61-160.8,91.7c-35,20-69.8,40.5-104.7,60.6c-5.8,3.4-11.8,6.7-19,6
		c-0.1-6.1-0.1-12.3-0.2-18.4c32.8-18.7,65.7-37.3,98.5-56c61.9-35.3,123.8-70.6,185.7-105.9C1662.1,785.6,1662.1,793,1660.8,800.4z
		"/>
	<path class="st8" d="M1376.2,1002.8c54.9-31.8,109.8-63.6,164.7-95.3c36.4-21,72.9-42,109.5-62.9c3.1-1.8,6.6-2.7,9.9-4
		c0.4,7.5,0.8,14.9,1.2,22.4c-28.3,10.1-52.4,28-78.3,42.5c-65.9,37-130.9,75.7-196.3,113.5c-3,1.7-7,1.5-10.6,2.2
		C1376.3,1015.1,1376.2,1009,1376.2,1002.8z"/>
	<path class="st8" d="M1630.9,763c12.3,3.4,20.5-5.8,30.3-9.9c0,5.9,0,11.8,0,17.7c-2.4,0.4-5.2,0.1-7.1,1.2
		c-88.6,51.3-177.2,102.5-265.7,154.2c-8.9,5.2-16.3,8.4-23.7-1.5c8.6-8.2,23.7-10.2,25-25.5c27.2-9.3,50.3-26.5,75.1-40.5
		C1520.5,827.6,1575.5,795,1630.9,763z"/>
	<path class="st8" d="M1663.4,971.9c-0.2,10.4-1.4,20.8-0.4,31c1.4,14-4.1,22-17.3,25.4c-0.2-42.7-0.2-85.4-0.9-128.1
		c-0.1-4.9,5.9-14.8-6.9-14.2c5.6-8.1,14.1-12.1,22.7-15.8C1661.6,904.1,1662.5,938,1663.4,971.9z"/>
	<path class="st5" d="M1364.7,924.8c7.3,9.9,14.8,6.7,23.7,1.5c88.4-51.6,177-102.9,265.7-154.2c2-1.1,4.7-0.8,7.1-1.2
		c1.3,2.6,0.9,5.1-0.9,7.4c-61.9,35.3-123.8,70.6-185.7,105.9c-32.8,18.7-65.7,37.3-98.5,56c-6.1-3.8-13.7-5.2-18.4-11.2
		C1360,927.7,1362.4,926.2,1364.7,924.8z"/>
	<path class="st4" d="M1619.3,1256.7c-51.1,33.5-105,62.4-157.6,93.3c-78,45.8-156.5,90.8-234.8,136.2c-83,48.2-166,96.4-249,144.7
		c-4.7,2.8-9.3,5.9-13.9,8.9c-219.1-126.5-438.1-253-658.6-380.3c57-33.3,112.3-65.6,167.6-97.9c19.5-11.4,39.3-22.5,58.7-34.1
		c6.4-3.8,12.6-7.5,20.4-7.3c19.9,6.4,34.7,22.5,54.9,28.4c19.1-10.7,38-21.6,57.2-32.1c35.1-19.2,67.8-42.7,104.8-58.6
		c0.1,16.2,2.8,32,12.1,45.3c8.7,12.5,19.2,28.3,35.9,24.1c19.3-4.8,25.1,4.9,32.8,17.8c8.5,14.2,21.8,27,38.6,21
		c14.2-5.1,17.2-0.6,22.7,9.9c13.7,26.1,29.8,33.1,52.9,24.6c42.6-24.6,85.1-49.4,127.9-73.8c8-4.5,13.6-10,15.5-19
		c5.1-25.3-17.7-59.6-43.3-65.1c0,0,0,0,0,0c1.2-10.6,12.3-17.4,10.8-29c95.2,55.3,190.5,110.2,285.3,166.1
		c15.5,9.1,25.9,6.4,35.7-6.9c12.8-6.6,25.6-13.1,38.4-19.7c30.3,17.2,60.3,34.8,90.9,51.4
		C1556.5,1221.9,1585.3,1243.9,1619.3,1256.7z M676.6,1304.5c-9.3,0.4-10.8,8.6-14.5,14.6c-2.5,1.3-4.9,2.7-7.4,4
		c-6.2,3-10.9,7.1-11.1,14.6c-3.7,2.4-7.5,4.8-11.2,7.2c-11.2,1.4-11.2,9.5-10.9,17.9c-3.6,1.6-7.2,3.1-10.8,4.7
		c-13.5,6.2-15.3,18.3-6.1,26.4c14,12.3,31.3,20.9,47.4,30.7c1.2,0.7,4.3-1.8,6.5-2.8c1.2,0.1,2.3,0.2,3.5,0.2
		c5,11.4,10.8,21.6,26.1,18.3l1.5,0.1l1.5-0.3c9.2,6.7,11.5,26.2,29.8,15.9l1.8,0l1.8,0c7.5,26.7,37.4,23.6,53.2,39.5
		c0.4,0.4,3.8-2.1,5.8-3.2c1.2,0,2.4,0.1,3.7,0.1c3.6,13.2,8.7,24.2,25.8,18.2l1.8,0.1l1.8-0.1c10.2,23.6,37.4,22.4,53.9,36.9
		c0.9,0.8,3.5-0.3,5.3-0.5c1.1,0.1,2.3,0.2,3.4,0.2c5,11.3,10.6,21.9,26.1,18.3c2.3-0.9,4.6-1.9,6.9-2.8
		c2.8,14.3,7.6,25.9,25.9,18.4c1.2,0,2.4,0,3.6,0c8.4,22,15.6,25.6,29.5,14.5c1.2-0.1,2.7,0.3,3.6-0.3
		c39.3-22.2,78.7-44.3,117.8-66.9c5.7-3.3,7.3-9.1,4.8-16c-4.8-13-16.9-21.9-11.7-40.7c2.6-9.5-13.9-24.7-8.3-41
		c0.7-2.1-2.1-5.5-3.2-8.3c-1.8-4.4-8.6-7.3-6.4-12.5c9.4-21.5-17.9-36.4-9.9-57.4c-14.4-9.7,0.4-26.8-8.6-36.7
		c-13.8-15.3-33.7-22.3-51.7-31.6c-2.7-1.4-7.4-0.1-9.9-4.4c-10-17-34.2-14.2-44.2-31.2c-0.3-0.4-1.2-0.9-1.6-0.7
		c-11.6,3.5-16.9-4.6-23-12c-2.1-2.6-6.3-5.1-9.3-4.9c-9.2,0.8-14.9-3-19.4-10.5c-3.3-5.5-9-8.7-15.6-7.8c-6.7,0.9-9.8-2.7-13.1-7.6
		c-8.7-13-18.9-14.2-30.3-3.1c-37.4,21.1-75.3,41.4-110.9,65.5c-4.1,3.2-10.7,3.9-10.8,11c-4.9,0.7-8.8,3.1-11.5,7.3
		c-6.4,1-10.5,4.3-10.7,11.2C684,1299.5,680.3,1302,676.6,1304.5z"/>
	<path class="st9" d="M374.3,1014.1c0.2-79.5,0.4-159.1,0.8-238.6c0-5.9-2.9-13.8,2.3-17.2c5.7-3.7,10.9,3.2,16,6.1
		c47.8,27.3,95.4,54.7,143.1,82.2c7.8,4.5,16.9,8.3,15.6,20c0,2.4,0.1,4.8,0.1,7.2c-0.1,28.3-0.1,56.5-0.2,84.8c0,2.4,0,4.8,0.1,7.3
		c-0.5,49.5-1.1,99.1-1.6,148.6c-29.7-10.3-54.6-29.3-81.5-44.7c-30.5-17.5-62.6-32.7-90.4-54.7c3.6-4,3.8-8.8,3.7-13.8
		c0-31.1,0-62.1,0-93.2c0-27.4,0-54.7,0-82.1c-1.3,0-2.6,0-3.9,0c0,62.9,0,125.8,0,188.6C377.1,1014.6,375.7,1014.4,374.3,1014.1z
		 M445,1039.4L445,1039.4c1.3,2.8,2.8,5.9,6.3,5.8c5.4-0.1,4.6-4.7,4.6-8.1c0.2-12.8,0.6-25.6-0.1-38.4c-0.5-10.1,1.9-20-3-30.3
		c-9.3-19.4-28.9-24.4-45.1-33c-14.1-7.6-21.6-0.8-21.7,15c-0.1,15.2-0.1,30.5,0,45.7c0,5.9-1.5,12.8,7.4,14.2c1,8.8,7,13,14.8,11.9
		c13-1.9,21.1,5.2,29.6,12.7C438.7,1038.8,441.6,1039.5,445,1039.4z M469.9,855.4c4.9,9.7,17.9,9.3,23,18.6
		c-9.2,3.3-14-6.5-21.8-7.5c-1.1,1.4-3.1,2.8-3.1,4.2c-0.4,29.9-0.5,59.8-0.6,89.6c0,3.8,0.7,7.2,4.4,9.4
		c22.2,12.9,44.3,25.8,69.1,40.2c-2.2-36.9,2.3-69.7-2.9-102.4c-0.5-1.3-1-2.6-1.6-3.9c4.2-2.2,0.8-5.4,1.1-8.1
		c7.3-27.8,5.5-33.1-17.6-47.2c-8.3-5.1-16.9-9.9-25.4-14.5c-7.2-3.9-14.6-13-22.6-8.6c-9.4,5.2-3.7,16.7-4.4,25.4
		C467.4,852.1,469,853.8,469.9,855.4z M444.8,848.1c4.6-2,10.2,0.3,11.4-9.2c3-22.4-11.6-27.6-28-34.5c-3.8,17.2-0.7,30.4,13.1,40.2
		c-8.3-0.2-15.2-1.2-14,12.2c1.8,18.8,0.3,37.9,0.3,56.8c-0.1,24.6,2.2,27.5,27.9,34.3c0-24.6-0.7-49.1,0.3-73.5
		C456.3,863.2,453.6,854.7,444.8,848.1z M419.6,928c0-23.6,0-46.5,0-69.4c0-25.1-2.6-28.3-29.9-35.1c0,22.2,1.8,44.2-0.5,65.9
		C386.8,912.4,397.6,922.5,419.6,928z M474.5,989.4c0,19.7,0,36.7,0,53.8c0,4.9-0.1,10.2,4.7,13.1c17,10.1,34.2,20,53.8,31.5
		c0-21.8,0-39.9,0-58.1c0-5.4-2.2-9.1-6.9-11.9C510,1008.2,494.8,997,474.5,989.4z M391.6,783.6c-4.7,30.3-2.1,34.1,28.7,42.9
		C420.1,795.7,420.1,795.7,391.6,783.6z"/>
	<path class="st7" d="M550.5,1114.5c0.5-49.5,1.1-99.1,1.6-148.6c6.9,0.8,11.8,5.6,17.7,8.3c12.3,5.8,22.4,16.5,37,17.5c0,0,0,0,0,0
		c0.1,7.4,0.1,14.7,0.2,22.1c0,3.7-0.1,7.3-0.1,11c0.1,6.2,0.1,12.3,0.2,18.5c-0.1,3.7-0.1,7.3-0.2,11c0,7.4,0.1,14.7,0.1,22.1
		c0,2.5-0.1,5-0.1,7.4c0.1,7.4,0.1,14.7,0.2,22.1c0,3.7-0.1,7.3-0.1,11c0,7.4,0,14.7,0,22.1c0,3.2,0,6.5,0,9.7
		c-20.1-5.9-35-22-54.9-28.4C551.5,1118.3,551,1116.4,550.5,1114.5z"/>
	<path class="st10" d="M1619.3,1256.7c-33.9-12.8-62.8-34.9-94.4-52c-30.6-16.6-60.6-34.2-90.9-51.4c25.3-15.6,50.5-31.3,75.8-47
		c7.9-2.4,15.3-5.9,21.3-11.8c28-15.3,56-30.6,84.1-45.8c6.3,12.5,19.7,15.7,30.3,22.1c45.5,27.2,91.5,53.4,137.3,80.2
		c2.4,1.4,3.9,4.5,5.8,6.7c-20,18.1-45.3,27.8-67.8,42.1c-29.7,19-60.7,35.8-91.3,53.4C1626.4,1255,1622.7,1255.6,1619.3,1256.7z"/>
	<path class="st7" d="M956.6,822.4c61.6,35.3,123.2,70.3,184.6,105.8c73.1,42.2,145.8,85,219,126.9c12.2,7,19.4,14.5,14.1,30.8
		c-24.1-13.9-47.8-27.4-71.4-41.1c-87.2-50.8-174.3-101.6-261.5-152.4c-3.7-2.1-7.5-4.2-12.1-3.2c0,0,0.7-0.3,0.7-0.3
		c-0.8-2.8-2.1-2.9-3.6-0.5c-10-5.8-14.9-19.7-29.4-18c-2.4-0.4-4.8-0.8-7.2-1.2c2.7-4.3,0.5-6.1-3.3-8.1
		c-10.1-5.3-20-11.1-29.9-16.8C956.6,837.1,956.6,829.8,956.6,822.4z"/>
	<path class="st7" d="M1376.2,1002.8c0,6.1,0.1,12.3,0.1,18.4c-8.3,3.1-13.5-3.4-19.3-6.8c-87.8-50.8-175.4-101.9-263.1-152.8
		c-40.7-23.6-81.5-47-122.1-70.8c-4.9-2.9-9.3-5.8-15.1-5.3c-0.1-7.3-0.1-14.7-0.1-22c24.3,3.3,41.8,20.5,61.9,31.9
		c89.7,50.7,178.5,103.2,267.6,155.1C1316.1,967.9,1346.1,985.3,1376.2,1002.8z"/>
	<path class="st7" d="M956.6,793c30.1,12.3,56.9,30.7,84.9,46.7c82.2,47.2,164,94.9,245.9,142.6c27,15.7,53.5,32.1,80.7,47.3
		c9.2,5.2,11,13.6,7,19.9c-5.1,8.2-11.3-0.5-16.4-3.5c-93.6-54.3-187.2-108.6-280.8-163c-35.9-20.9-71.8-41.9-107.8-62.7
		c-4.2-2.4-9-3.6-13.5-5.4C956.6,807.6,956.6,800.3,956.6,793z"/>
	<path class="st8" d="M956.6,793c0,7.3,0,14.7,0.1,22c-68.1,39.3-136,79.2-204.5,117.8c-48.3,27.2-94.2,58.6-145.1,81.2
		c-0.1-7.4-0.1-14.7-0.2-22.1c33.8-13,63.1-34.3,94.3-52.2C785.3,891.4,869,842.3,953,793.6C954,793,955.4,793.1,956.6,793z"/>
	<path class="st8" d="M956.6,822.4c0,7.3,0,14.7,0,22c-7.4,4.3-14.8,8.6-22.1,12.9C848,907.9,762,959.1,674.9,1008.5
		c-22,12.5-41.5,30.7-67.9,34.9c-0.1-6.2-0.1-12.3-0.2-18.5c65.4-37.9,130.8-75.7,196.2-113.6C854.3,881.7,905.5,852.1,956.6,822.4z
		"/>
	<path class="st8" d="M956.5,763.5c0,7.3,0.1,14.7,0.1,22c-33,13.2-62.1,33.6-92.8,51.1c-84.8,48.4-168.9,98-253.3,147.1
		c-1,0.6-2.4,0.4-3.6,0.6c0-7.4,0-14.7-0.1-22.1c47.1-26.9,94.3-53.6,141.2-80.7c64.5-37.2,128.7-74.9,193.2-112.2
		C946,766.8,951.4,765.4,956.5,763.5z"/>
	<path class="st7" d="M1041.8,932.7c83.3,48.4,166.5,96.8,249.9,145.1c26.9,15.6,53.9,30.9,80.9,46.4c4.4,6.8,3.7,14.5,3.7,22
		c-8.3-0.7-14.9-5.4-21.7-9.4c-85.9-50.1-171.5-100.6-257.8-150.1c-15.6-8.9-29.2-22.4-48.3-24.5l0.2,0.1c-1.5-1.3-3-2.5-4.6-3.8
		c-4.6-1.3-9.2-2.6-13.8-3.8l0,0C1034.4,947.7,1042.5,942.5,1041.8,932.7z"/>
	<path class="st7" d="M1037.2,903.8c22.8,2.7,39.5,18.2,58.2,29c89.5,51.4,178.4,103.8,267.9,155.2c11.7,6.7,15.5,13.9,10.6,28.5
		c-32.5-18.7-64.2-36.7-95.7-55.1c-76-44.2-151.9-88.6-227.9-132.9c-2.6-1.5-5.7-1.9-8.6-2.9C1040.2,918.3,1038.7,911,1037.2,903.8z
		"/>
	<path class="st11" d="M1037.2,903.8c1.5,7.3,3.1,14.5,4.6,21.8c0,2.4,0,4.8,0,7.2c0.8,9.8-7.4,14.9-11.5,22.1
		c-6.2,2.5-12.8,4.3-18.5,7.6c-32.1,18.7-63.9,37.9-96.1,56.4c-4,2.3-11.6,10.8-13.6-0.6c-2-11.5-3.5-24.1,8-33.8
		c8.1-6.9,18.5-9.7,26.5-16c31.9-25.2,67.9-48.3,60.5-97.9c14.5-1.7,19.5,12.2,29.4,18c1.2,0.2,2.4,0.3,3.6,0.5c0,0-0.7,0.3-0.7,0.3
		c1.6,3.4,3.2,6.8,4.8,10.2c1.1,1.4,2.2,2.7,3.2,4.1L1037.2,903.8z"/>
	<path class="st12" d="M1509.8,1106.4c-25.3,15.7-50.5,31.3-75.8,47c-12.8,6.6-25.6,13.1-38.5,19.7c-0.5-1.5-1-3-1.6-4.5
		c0-7.4,0-14.8,0-22.1c0-2.5,0-4.9,0-7.4c0-7.4,0-14.8-0.1-22.2c0-19.6-0.1-39.2-0.1-58.8c0-1.2,0-2.4,0.1-3.6
		c-3.8-21.4,7-32.5,25.4-41.7c30.5-15.2,59.6-33.3,89.3-50.2C1509,1010.4,1509.4,1058.4,1509.8,1106.4z M1417.8,1151.1
		c21.9-12.2,43.8-24.4,65.6-36.8c3.9-2.3,12.5-5.1,9.9-8.6c-9.1-12.4-23.6-18.8-35.8-27.8c-4-3-6.7-0.1-8.4,3.7
		c-0.5,1.1-1.3,2.1-1.8,3.2c-11,21.2-22,42.4-32.9,63.6c-0.2,1.4-0.4,2.9-0.6,4.3C1415.1,1152.1,1416.4,1151.6,1417.8,1151.1z
		 M1403.3,1042.1c0,34.6,0,69.3,0,108.8c8.9-16.4,15.4-28.6,22.1-40.9c23.6-43.4,23.6-43.4-19.8-68.3
		C1405.2,1041.5,1404.5,1041.8,1403.3,1042.1z M1406.6,1029.9c13.8,9.9,24.6,17.7,35.6,25.4c3.9,2.7,8.3,6.8,12.1-0.1
		c12.6-23.1,25-46.3,37.5-69.4c-1.3-0.9-2.7-1.9-4-2.8C1461.6,998.2,1435.3,1013.4,1406.6,1029.9z M1501,990.9
		c-1-0.2-2.1-0.5-3.1-0.7c-11.8,22-23.5,44.1-35.4,66.1c-2.7,5.1-5.3,9.8,1.2,14.2c11.9,8,23.6,16.3,37.3,25.7
		C1501,1058.9,1501,1024.9,1501,990.9z"/>
	<path class="st12" d="M1615.1,1048.7c-28,15.3-56,30.6-84.1,45.8c0-49,0-97.9,0.1-146.9c0,0-0.2,0.1-0.2,0.1
		c1.8-1.2,3.6-2.3,5.4-3.5c34.8-17.9,68.4-37.7,101.6-58.4c12.9-0.6,6.8,9.3,6.9,14.2c0.7,42.7,0.7,85.4,0.9,128.1
		C1635.5,1035.1,1625.3,1041.9,1615.1,1048.7z M1570.7,1032c-1.2,2.2-2.5,4.4-3.7,6.6c-7.1,10.7-14.2,21.5-17.7,34.1
		c-0.7,0.7-1.3,1.5-2,2.2c0.5,0.1,1.1,0.2,1.6,0.2c0-0.9,0-1.8,0.1-2.6c30.7-8.6,54.5-29.4,82.4-43.6c-4.6-7-9.6-10.2-15.4-12.5
		c-3.7-2.7-7.4-5.3-11.1-8c-10.5-11.9-19.1-13.5-25.3,3.9C1577.2,1019.1,1573.7,1025.5,1570.7,1032z M1637.4,911.5
		c-0.9-0.5-1.9-1-2.8-1.4c-13,24.3-25.9,48.6-38.9,72.8c-1.9,3.5-0.7,6.1,2,7.8c12.9,8.3,24.1,19.5,39.7,25.6
		C1637.4,980.1,1637.4,945.8,1637.4,911.5z M1627.8,906.8c-1.1-1-2.1-1.9-3.2-2.9c-26.7,15.5-53.4,31-82.1,47.7
		c13.8,9.8,25.3,17.7,36.5,26.1c6,4.5,9.5,3,12.7-3.3C1603.7,951.8,1615.8,929.4,1627.8,906.8z M1538.6,1066.2
		c1.1,0.4,2.2,0.9,3.3,1.3c12.2-22.9,24.4-45.7,36.7-68.5c2.9-5.3,1.8-8.9-3.1-12.3c-11.8-8-23.4-16.3-36.9-25.7
		C1538.6,998.2,1538.6,1032.2,1538.6,1066.2z"/>
	<path class="st7" d="M606.9,962.3c0,7.4,0,14.7,0.1,22.1c-0.1,1.2-0.1,2.4-0.1,3.6c-18.2-9.9-34.5-23.3-54.8-29.3
		c0.1-28.3,0.1-56.5,0.2-84.8c14.8,3,25.3,14.3,38.8,19.9c12.8,5.3,18.7,14.1,16,28.1c0,3.7-0.1,7.3-0.1,11c0,6.2,0.1,12.3,0.1,18.5
		C607,955,606.9,958.6,606.9,962.3z"/>
	<path class="st8" d="M1531.1,947.7c0,49,0,97.9-0.1,146.9c-6,5.9-13.3,9.4-21.3,11.8c-0.4-48-0.8-95.9-1.2-143.9
		C1511.8,951,1522,950.2,1531.1,947.7z"/>
	<path class="st8" d="M1393.9,1116.8c0,7.4,0,14.8,0.1,22.2c-5.9,2.4-11.8,4.8-17.7,7.3c0.1-7.6,0.7-15.2-3.7-22
		C1381.3,1126.4,1386.1,1117.5,1393.9,1116.8z"/>
	<path class="st8" d="M552,958.6c20.3,6,36.6,19.4,54.8,29.3c0,1.3,0,2.5,0,3.8c-14.6-1-24.7-11.7-37-17.5
		c-5.9-2.8-10.9-7.5-17.7-8.3C552.1,963.5,552,961.1,552,958.6z"/>
	<path class="st8" d="M1536.3,944.4c-1.8,1.2-3.6,2.3-5.4,3.5C1532.7,946.7,1534.5,945.5,1536.3,944.4z"/>
	<path class="st7" d="M1393.9,1054.4c0,1.2,0,2.4-0.1,3.6c-0.4-0.9-0.9-1.7-1.1-2.6C1392.7,1055.2,1393.4,1054.7,1393.9,1054.4z"/>
	<path class="st7" d="M1037.4,903.6c-1.1-1.4-2.2-2.7-3.2-4.1C1035.2,900.9,1036.3,902.3,1037.4,903.6z"/>
	<path class="st8" d="M1612.2,711.7c6.5,3,14.5,3.5,18.2,11c-17.4,15-40.7,21.4-61.6,40.7c23.2-4,34.9-22.2,54-22
		c0.4,6,0.8,11.9,1.2,17.9c-62.1,35.5-124.4,70.5-185.9,107c-16.5,9.8-36,15.6-48.4,31.8c-12.6-7.4-12.3-16.3-4.6-27.7
		c9.4-14,13.9-30.8,24.4-44.3c16.5-3.5,29.6-14,43.7-22.1C1506.3,773.5,1559.2,742.5,1612.2,711.7z M1494,807.7
		c5.8-0.6,11-2.1,13.9-9.9C1499.8,798.3,1494.9,800.3,1494,807.7c-0.3,0.5-0.6,1-0.9,1.5C1493.4,808.7,1493.7,808.2,1494,807.7z
		 M1518.8,792.4c10.7-1.8,17.2-4.1,23.6-13.5C1532,780.7,1525.4,783,1518.8,792.4z M1547.7,775.2c7.7,0.3,14.5-1.4,20.1-10.8
		C1558,765.5,1552.3,769,1547.7,775.2z M1469.5,821.5c5.7-1.1,10.5-0.7,12.4-9.2C1476.2,813.3,1471.4,813,1469.5,821.5z
		 M1452.5,827.5c-0.4,1-0.9,2-1.3,3.1c1,0.4,2.3,1.5,3,1.2c0.7-0.3,1-1.9,1.4-2.9C1454.6,828.4,1453.6,827.9,1452.5,827.5z"/>
	<path class="st8" d="M607,921.8c2.8-14-3.1-22.8-16-28.1c-13.5-5.5-24-16.9-38.8-19.9c0-2.4-0.1-4.8-0.1-7.2
		c15.7,3.6,27.8,14,41.8,21c4.5,2.2,11.1,8.9,13.1-2.8c8,0.4,12.9,10.1,21.9,7.3c66.3-38.6,132.7-77.1,198.9-115.7
		c36-21,71.8-42.5,108.2-62.9c5.8-3.2,11.5-12.2,20.5-5.4c0,4.9,0,9.9,0,14.8c-42.5,20.2-81.5,46.5-122.3,69.6
		c-71.2,40.3-141.4,82.2-212.1,123.3C617.5,918.5,612.1,919.8,607,921.8z"/>
	<path class="st7" d="M956.7,722.9c0-4.9,0-9.9,0-14.8c38.6,17.1,73.4,41,109.9,61.8c90.7,51.6,180.7,104.3,270.6,157.3
		c7.8,4.6,13.7,2.3,20.6,1.9c4.8,6,12.3,7.4,18.4,11.2c0.1,6.1,0.1,12.3,0.2,18.4c-2.2,3-4.7,3-7.8,1.2
		c-76.4-44.5-152.8-88.9-229.2-133.3c-55.8-32.5-111.6-65.1-167.5-97.5C967.2,726.3,961.7,724.9,956.7,722.9z"/>
	<path class="st8" d="M1416.7,811.3c2.7-11,9.7-19.7,15.2-29.3c5.1,0.2,9.1-1.9,13.6-4.4c47-27.1,94.1-53.9,141.3-80.8
		c7.2,2,13.7,5.2,18.6,11.1c-59.2,34.5-118.4,69-177.6,103.4C1424.2,813.3,1420.3,816.6,1416.7,811.3z"/>
	<path class="st5" d="M1454.3,737.9c13.8-27.9,27.7-55.8,41.4-83.9c2.9-5.9,6-9.1,12.5-4.7c17.2,11.7,36.9,19.2,52.9,32.6
		c-9.5,5.1-18.9,10.5-28.6,15.2C1506.2,710.1,1483.6,730.4,1454.3,737.9z"/>
	<path class="st8" d="M1454.3,737.9c29.2-7.5,51.8-27.8,78.3-40.7c9.7-4.7,19.1-10.1,28.6-15.2c7,2.2,13.6,5.2,18.5,11.1
		c-24.8,14.1-49.5,28.5-74.5,42.3c-22.2,12.2-43.1,27.1-67.4,35.4C1443.3,759.8,1448.8,748.8,1454.3,737.9z"/>
	<path class="st5" d="M1389.6,898.1c12.3-16.3,31.9-22.1,48.4-31.8c61.5-36.5,123.9-71.5,185.9-107c2.3,1.2,4.6,2.5,6.9,3.7
		c-55.3,32-110.4,64.5-166.1,95.8c-24.8,13.9-47.8,31.1-75.1,40.5C1389.7,899.3,1389.6,898.1,1389.6,898.1z"/>
	<path class="st5" d="M1416.7,811.3c3.7,5.3,7.6,2,11,0c59.2-34.4,118.4-68.9,177.6-103.4c2.3,1.3,4.6,2.6,6.9,3.8
		c-53,30.8-105.9,61.8-159.1,92.3c-14.1,8.1-27.2,18.6-43.7,22.1C1410,820.3,1412.3,815.3,1416.7,811.3z"/>
	<path class="st5" d="M1437.8,770.7c24.3-8.3,45.2-23.1,67.4-35.4c25-13.8,49.7-28.1,74.5-42.3c2.3,1.2,4.7,2.5,7,3.7
		c-47.1,26.9-94.3,53.7-141.3,80.8c-4.4,2.6-8.5,4.6-13.6,4.4C1433.8,778.3,1435.8,774.5,1437.8,770.7z"/>
	<path class="st5" d="M1622.8,741.4c-19.1-0.2-30.8,18-54,22c20.9-19.3,44.2-25.6,61.6-40.7c3.8,1.3,7.6,2.6,11.4,3.9
		c-3.1,8.5-14.5,7.4-18,15.5L1622.8,741.4z"/>
	<path class="st0" d="M1623.9,742.1c3.5-8.1,14.9-7,18-15.5c5.9,1.4,12.6,2.5,15.1,8.5c1.9,4.7-3.6,6.8-6.9,9.2
		C1640.7,751,1632,749.4,1623.9,742.1z"/>
	<path class="st8" d="M592.5,852.2c-1.6,2.3-3.3,4.7-4.9,7c-35.7-15.9-68-37.9-101.8-57c-46.1-26.1-91.7-53.1-137.5-79.7
		c2.8-2.2,5.6-4.3,8.4-6.5c2.9,5.7,7.9,8.9,13.3,12c53.8,31,106.9,63,161.3,92.8C551.4,831.7,568.7,848.5,592.5,852.2z"/>
	<path class="st6" d="M356.7,716c-2.8,2.2-5.6,4.3-8.4,6.5c-2,0.3-4.1,0.5-6.1,0.8c-4.5-2.6-3.9-7.1-4-11.2c6-3.6,12-7.3,18.1-10.9
		C356.4,706.1,356.5,711,356.7,716z"/>
	<path class="st7" d="M356.7,716c-0.2-4.9-0.3-9.9-0.5-14.9c-2.8-7.2-9.7-8.6-15.8-11.2c0.5-2.5,0.9-5,1.4-7.4c3.1,0,5.6-1,7.3-3.7
		c0,0,0,0,0,0c1.4-1.2,2.7-2.3,4.1-3.5c0,0-0.3,0.3-0.3,0.3c3.2-0.1,5.9-1,7.6-3.9c0,0-0.1,0.2-0.1,0.2c2.3-0.3,4.6-0.7,6.9-1
		c1.7,1.6,3.3,3.6,5.3,4.8c52.4,30.6,104.7,61.5,157.6,91.4c10.2,5.8,19.4,15.2,32.6,14.9c13,18.5,20.7,39.8,31.6,59.4
		c2.2,3.9,3.2,8.1-2,10.9c-23.8-3.7-41.1-20.5-61.1-31.5C476.9,791,423.8,758.9,370,728C364.6,724.8,359.6,721.7,356.7,716z"/>
	<path class="st7" d="M470.6,608.5c8.6,3.2,10,12,13.5,18.7c24.1,46.5,47.6,93.2,71.4,139.8c-6.6,6.8-11.1-0.3-15.8-2.9
		c-20.2-11.4-40.5-22.8-60.2-34.9c-34.8-21.4-72-38.7-105.3-62.6C406.3,647.3,438.5,627.9,470.6,608.5z"/>
	<path class="st6" d="M470.6,608.5c-32.2,19.4-64.3,38.8-96.5,58.2c-2.3,1.4-4.6,2.8-6.9,4.2c-2.3,0.3-4.6,0.7-6.9,1
		c6.4-18.1,25.2-23.2,37.7-34.9c15.4-14.4,33.9-25.5,51-38C464.9,587.4,466.7,588.2,470.6,608.5z"/>
	<path class="st8" d="M367.3,670.8c2.3-1.4,4.6-2.8,6.9-4.2c33.3,23.8,70.5,41.1,105.3,62.6c19.8,12.2,40,23.6,60.2,34.9
		c4.7,2.6,9.1,9.7,15.8,2.9c4.3,4,6.6,9.1,7.3,14.8c-13.2,0.3-22.4-9.1-32.6-14.9c-52.9-29.9-105.2-60.8-157.6-91.4
		C370.6,674.5,369.1,672.5,367.3,670.8z"/>
	<path class="st1" d="M340.4,690c6.1,2.6,13,3.9,15.8,11.2c-6,3.6-12,7.3-18.1,10.9c-6.6-4-13.3-8-21.1-12.7
		C324.4,692.2,332.3,690.8,340.4,690z"/>
	<path class="st6" d="M349.1,678.8c-1.7,2.7-4.2,3.7-7.3,3.7C343.4,679.6,346.2,679,349.1,678.8z"/>
	<path class="st6" d="M360.5,671.7c-1.7,3-4.4,3.8-7.6,3.9C354.4,672.1,357.3,671.6,360.5,671.7z"/>
	<path class="st6" d="M353.2,675.3c-1.4,1.2-2.7,2.3-4.1,3.5C350.5,677.6,351.9,676.5,353.2,675.3z"/>
	<path class="st7" d="M1372.5,969.7c4.4,6.8,3.7,14.5,3.7,22c-23.5-6.6-42.4-21.9-63.1-33.7c-90-51.6-179.4-104.2-269.1-156.2
		c-29-16.8-58.3-32.9-87.4-49.4c0-7.3,0-14.7,0-22c42.2,20.7,81.8,46,122.5,69.4c81.6,46.9,162.8,94.3,244.2,141.5
		C1339.7,950.8,1356.1,960.2,1372.5,969.7z"/>
	<path class="st8" d="M956.6,730.4c0,7.3,0,14.7,0,22c-80.8,46.9-161.5,93.8-242.3,140.8c-31.1,18.1-62.1,36.5-93.4,54.4
		c-4,2.3-9.3,2.5-13.9,3.7c0-6.2-0.1-12.3-0.1-18.5c86.9-50.6,173.7-101.3,260.7-151.8C897.1,763.9,926.9,747.3,956.6,730.4z"/>
	<path class="st9" d="M997,870.5c7.4,49.6-28.6,72.7-60.5,97.9c-8,6.3-18.3,9.1-26.5,16c-11.4,9.7-10,22.3-8,33.8
		c2,11.4,9.6,2.9,13.6,0.6c32.2-18.6,64-37.8,96.1-56.4c5.7-3.3,12.3-5.1,18.5-7.6c0,0,0,0,0,0c0.1,18.9,0.8,37-13.1,53.5
		c-18.9,22.2-38.5,42.6-65.8,54.1c-12.2,5.1-18.6,13.1-16.9,26.9c0.8,6.6,0.1,13.5,0.2,20.2c-0.3,0.5-0.6,1-0.9,1.5
		c0.3-0.5,0.6-1,0.8-1.5c20.3-11.1,40.4-22.7,61-33.2c22.6-11.5,41.4-30.9,68.3-33.5c0,0,0,0,0,0c-1.6,14.3,2.7,29.4-6.8,42.5
		c-15.7,21.7-31.1,44.2-56.5,55.3c-27,11.7-43,28.7-36.7,60c-23.1,8.5-39.2,1.5-52.9-24.6c-5.5-10.5-8.5-15-22.7-9.9
		c-16.8,6-30.1-6.8-38.6-21c-7.7-12.9-13.5-22.6-32.8-17.8c-16.6,4.2-27.2-11.6-35.9-24.1c-9.3-13.4-12-29.2-12.1-45.3
		c0,0-0.1,0.1-0.1,0.1c1.2-1.3,2.4-2.6,3.6-3.8c7.9-5.9,15.8-11.8,23.7-17.7c0.9,0,1.6-0.2,2.2-0.9c3.8-1.1,4.7-3.8,4.2-7.3
		c0.1-9,2.6-17.5,6.7-25.5c8.8-8.3,27.5-6.7,25.6-25.7c1.5-7.1,3.1-14.2,4.6-21.4l-0.4-0.3c1.6-1.3,3.2-2.5,4.8-3.8
		c0.9,0.1,1.7-0.1,2.3-0.8c1.5-1,3.1-2,4.6-3c38.8-20.4,76.4-42.7,113.6-65.9c7.2-4,14.4-8.1,21.6-12.1c1.3-0.2,2.5-0.3,3.8-0.5
		C992.2,869.7,994.6,870.1,997,870.5z"/>
	<path class="st13" d="M831.5,1202c11.4-11.1,21.6-9.9,30.3,3.1c3.2,4.9,6.3,8.5,13.1,7.6c6.6-0.9,12.2,2.3,15.6,7.8
		c4.6,7.6,10.2,11.3,19.4,10.5c3-0.3,7.2,2.3,9.3,4.9c6.1,7.4,11.3,15.5,23,12c0.4-0.1,1.4,0.3,1.6,0.7
		c10.1,17.1,34.2,14.2,44.2,31.2c2.5,4.3,7.1,3,9.9,4.4c18,9.2,37.8,16.3,51.7,31.6c9,9.9-5.9,27,8.6,36.7c-8,21,19.3,35.8,9.9,57.4
		c-2.2,5.1,4.6,8,6.4,12.5c1.1,2.8,4,6.2,3.2,8.3c-5.6,16.2,10.9,31.5,8.3,41c-5.2,18.8,7,27.7,11.7,40.7c2.5,6.9,0.9,12.7-4.8,16
		c-39.1,22.5-78.5,44.7-117.8,66.9c-1,0.5-2.4,0.2-3.6,0.3c0-2.5-0.1-5-0.1-7.6c15.7-13.4,31.4-26.4,49.4-37.2
		c13.9-8.3,26.9-19,35.6-33.5c2.1-3.5,5.5-7.8,1.4-11.6c-3.6-3.3-6.4,1.2-9.3,2.9c-9,5.2-17.6,11-27,15.3
		c-20.8,9.5-37.1,28.1-61.3,30.9c0-2.5,0.1-5,0.1-7.5c27.5-30.1,72.3-41.6,89.7-82.9c-20.5,9.6-39.5,21.6-59.3,31.8
		c-13.2,6.8-24.3,19-41,17.9c0-2.4,0-4.8,0-7.2c30.9-25.1,70.8-40.1,89.5-79c-12,4.1-22,11-32.9,16.1
		c-21.8,10.4-39.6,28.6-64.4,33.3c0-3.7,0-7.4,0-11c29.9-22.5,67.2-36,91.2-74.4c-21.7,3.8-33.8,15.6-48.1,22.5
		c-17.9,8.7-32.7,23.9-53.9,26.1c0-2.4,0-4.8,0-7.2c17-6.3,25.7-23.8,42.3-30.8c15.4-6.5,27.4-18.1,38.5-30.3
		c3.5-3.8,10.2-7.9,5.1-13.5c-4-4.6-8.8,1.1-12.7,3.3c-27.1,15-52.5,32.9-80.9,45.5c0-4.9,0-9.8,0-14.7c22.9-14.9,46-29.5,68.5-45
		c8.5-5.9,14.8-14.5,20.2-23.5c1.9-3.2,4.6-6.5,1.4-9.8c-3.4-3.5-7-0.1-9.8,1.6c-16.9,9.8-33.3,20.5-50.5,29.8
		c-10.2,5.5-19,14.6-32.5,14.5c22.5-20.5,54.6-31.3,65.5-69.4c-36,20.8-68,39.2-100.1,57.7c1.7-10,8.5-12.8,14.6-16.4
		c17.1-9.9,31.7-22.8,44.7-37.6c3.3-3.8,9-8.9,4.4-14.1c-4-4.5-8.9,0.8-13.2,2.6c-2.2,0.9-3.8,3.2-6,4.2
		c-21.9,9.9-40.4,26.4-67.3,36.5c6.1-10.5,12.6-13.5,18.4-17.3c13.9-9.1,26.9-19.3,35.4-33.9c1.9-3.2,8-6.2,3.3-10.7
		c-3.8-3.7-8.2,0.1-11.7,2.1c-11.1,6.3-21.7,13.8-33.2,19.4c-16.7,8.2-31.3,20.6-50.5,24.6c24.2-21,57.2-32.8,68.9-70.7
		c-33.5,16.8-61.3,37.7-93.7,49.6c10.6-10.4,21.9-19.4,33.9-27.3c12.8-8.5,22.1-18.8,25.8-38.7c-35.5,20.4-67.4,38.7-99.2,56.9
		c3.5-11.4,12.8-15.2,20.9-20.8C802.7,1242.9,825.9,1230.3,831.5,1202z"/>
	<path class="st14" d="M831.5,1202c-5.6,28.3-28.8,40.9-49.7,55.4c-8.1,5.6-17.4,9.4-20.9,20.8c31.9-18.3,63.7-36.6,99.2-56.9
		c-3.7,19.8-13,30.2-25.8,38.7c-12,8-23.4,16.9-33.9,27.3c32.4-11.9,60.2-32.7,93.7-49.6c-11.7,37.8-44.7,49.7-68.9,70.7
		c19.2-4.1,33.8-16.5,50.5-24.6c11.5-5.6,22-13.1,33.2-19.4c3.5-2,7.9-5.8,11.7-2.1c4.7,4.5-1.4,7.5-3.3,10.7
		c-8.6,14.6-21.5,24.8-35.4,33.9c-5.8,3.8-12.3,6.7-18.4,17.3c26.9-10,45.4-26.6,67.3-36.5c2.2-1,3.8-3.3,6-4.2
		c4.3-1.8,9.2-7.1,13.2-2.6c4.6,5.2-1.1,10.4-4.4,14.1c-13,14.7-27.6,27.7-44.7,37.6c-6.2,3.6-13,6.4-14.6,16.4
		c32-18.5,64.1-37,100.1-57.7c-10.9,38.1-43,49-65.5,69.4c13.5,0,22.2-9,32.5-14.5c17.2-9.3,33.6-20,50.5-29.8
		c2.9-1.7,6.4-5.1,9.8-1.6c3.2,3.3,0.5,6.6-1.4,9.8c-5.4,9-11.7,17.7-20.2,23.5c-22.5,15.5-45.6,30.1-68.5,45
		c-7.3-5.1-9.3-20.1-21-15.6c-9.2,3.5-3.6,15.1-4.8,23c-12.8-0.3-8.1-9.1-7.3-15.6c1.3-10.4-3.7-17.4-11.6-22.9
		c-3.2-2.3-7.1-2.4-10.1,0.2c-8,6.9-2,14.5-0.6,21.8c0.1,0.6,0.1,1.2,0.2,1.8c-13-1-8.7-9.1-7.9-17.1c1.2-12.5-3.2-25.4-16.7-26.1
		c-15.3-0.8-5.7,13.8-8.6,21.1c-9.8,0.4-11.5-2.1-6.2-11.4c6.1-10.7-3.3-17.7-9.8-24.7c-3.6-3.8-8.2-6-12.9-2.2
		c-8.2,6.7-2.1,14.4-0.8,21.7c0.1,0.6,0.1,1.2,0.2,1.8c-13.2-1-8.9-9.2-7.8-17.2c1.4-9.7-1.9-18.1-10.9-23.3
		c-3.7-2.1-7.9-4.8-11.5-0.4c-5.9,7.3-2.4,15,0.2,22.5c0.4,1.1,0.4,2.4,0.5,3.6c-8.1-2.1-16.1-3.5-9.5-15.5
		c5.8-10.6-1.4-18.6-8.1-25.9c-3.2-3.5-6.8-7.8-12.4-3.6c-4,3-7.3,6.8-6,12.4c0.8,3.6,1.9,7,2.9,10.5c-4.5-0.2-10.4-2-8.7-6.5
		c6.2-17-4.4-27.1-13.8-37.9C756.2,1243.4,794.1,1223.1,831.5,1202z M788.6,1294.6c1,0.4,2.3,1.5,3,1.2c0.7-0.3,1-1.9,1.4-2.9
		c-1-0.4-2.3-1.5-3-1.2C789.3,1291.9,789.1,1293.5,788.6,1294.6z M859.5,1327.7c-0.4-1-0.6-2.6-1.3-3c-0.7-0.3-2,0.6-3.1,1.1
		c0.4,1,0.6,2.6,1.3,3C857.2,1329.1,858.5,1328.1,859.5,1327.7z"/>
	<path class="st14" d="M949.5,1514.3c16.7,1.1,27.8-11,41-17.9c19.8-10.2,38.7-22.2,59.3-31.8c-17.4,41.3-62.3,52.8-89.7,82.9
		c-6.3-4.8-6.3-14.4-14.2-18.3c-6.2-3-12.3-4.9-14.3,3.7c-2.5,10.7,4.4,18.2,11.6,25.1c6.9,6.5,11.9,2,16.8-3
		c24.2-2.9,40.5-21.4,61.3-30.9c9.4-4.3,18-10.1,27-15.3c2.9-1.7,5.6-6.3,9.3-2.9c4.1,3.7,0.6,8.1-1.4,11.6
		c-8.6,14.5-21.6,25.2-35.6,33.5c-17.9,10.7-33.7,23.8-49.4,37.2c-3.1-4.9-5.6-10.3-9.4-14.6c-3.5-3.9-8.6-7.5-14.1-5.9
		c-6.4,1.8-5.7,8.2-5.9,13.5c-1.2,0-2.4,0-3.6,0c-0.4-6,1.7-12.6-2-17.9c-4.2-6-8.6-12.4-17.3-11.6c-7,0.6-6.2,6.3-6.5,11.1
		c-2.3,0.9-4.6,1.9-6.9,2.8c4.7-9.7-1.3-19.3-0.3-28.9c6.1,2.4,10.9,11.7,18.8,4.3c5.2-4.9,3.6-11,0.7-16.7
		c-3.6-7.3-8.3-15.5-17.3-12.6c-10.9,3.5-5.1,12.6-3.2,19.8c0.5,1.7,0.7,3.5,1.1,5.3c-9.4,1.7-25.5-13.2-25.8,10.6
		c-1.1,0-2.3,0-3.4-0.1c-0.1-7.2-0.2-14.3-0.3-21.5c7.3-1,17.3,3.4,20.7-6.3c3.1-8.7-3.9-16-8.5-22.8c-3.4-5-9.4-5.3-14.6-2.2
		c-5,2.9-5.3,7.6-3.1,12.6c2.6,6,6.6,11.6,5.6,18.7c-9.1-4.1-16.3-21.4-28-3.5c-2.9-5.9-5.3-11.4-8.1-16.7
		c-3.1-5.8-8.3-9.3-14.7-8.5c-8,0.9-8.2,7.6-8.2,13.8l-1.8,0.1c0,0-1.8-0.1-1.8-0.1c0-8.6,0-17.1,0-25.7c8,3.4,18.4,8.5,20.7-4
		c1.8-10-4.6-24.1-15.4-23.4c-14.2,0.9-18.2-6.7-24.5-15.1c-4.7-6.3-11.5-7.8-16.3,0.6c-4.9,8.7,9.4,33,17.5,29.2
		c16.7-7.9,14.8,4.9,18,12.9c-8.8,1.9-24.3-19.9-25.9,7.4c-1.2-0.1-2.4-0.1-3.7-0.1c-1.4-22.4-6.4-28.3-25.9-29.9
		c-3.5-0.3-6.6-1-6.4-4.6c0.4-7.6,5.4-3.9,9.2-3.2c7.8,1.4,12.2-2.7,11.6-10c-0.9-11.8-7.1-22.1-18.5-24.5c-9.3-2-6.4,8-6.8,13.4
		c-0.5,7.2,2.4,15.3-10.9,10c-11-4.4-10.8,5.4-11.3,12.7l-1.8,0c0,0-1.8,0-1.8,0c0.2-14-2.2-29.4-18.8-29c-14,0.3-15.8-6.2-18-15.7
		c5.5-0.4,8.5,4.4,13,6c7.6,2.8,12.5-1.2,12.4-8.5c-0.2-11-4.7-21.8-16.8-22.5c-13.2-0.9-7,11.1-8.3,17.8c-0.5,2.3-0.1,4.9-0.1,7.3
		c-10.3-2.5-22.5-8.8-22.1,10.7c-1.2,0-2.3,0-3.5-0.2c0.8-8.8-1.6-17-3.9-25.3c8.2,0.1,18.4,10,24.1-2.3c3.9-8.5-3.1-16.3-8.7-22.4
		c-3.6-3.9-9.4-6.8-14.7-2.5c-6.6,5.2-4,11.8-1.6,18.3c1,2.8,0.7,6,1,9c-6.6-1.9-14.2-11.4-19.2-5.2c-7,8.6-6.5,3.5-8.3-1.8
		c-1.8-5.1-3.8-10.1-5.7-15.1c2.8,1,6,1.5,8.3,3.2c4.8,3.4,10.2,6.6,14.8,2.1c4.9-4.7,3.4-11.6,0.2-17c-3.7-6.3-8.3-11.9-12.6-17.8
		c3.7-2.4,7.5-4.8,11.2-7.2c2,5,3.4,10.4,6.3,14.9c3.4,5.3,9,9.5,15.4,6.1c6.9-3.7,5-10.9,2.4-16.1c-3.4-7-8.7-13-13.1-19.5
		c2.5-1.3,4.9-2.7,7.4-4c4,5.8,7.7,11.9,12.1,17.4c3.1,4,7.6,5.8,12.8,4c5.2-1.8,4.4-6.5,4.5-10.5c0.2-3.6,0-7.2,0-10.7
		c8.2,0.9,7.4,5.5,5.5,11.6c-3.7,12,4.8,18.9,12.1,25.9c3.4,3.3,7.8,4,11.4,0.7c8.6-7.5,0.8-15.6,0.4-23.5c12.9,1,8.8,9.1,7.8,17
		c-1.5,12.9,4,24.9,17.2,25.3c12.4,0.4,6.6-12.8,8.1-20.3c3,0.5,7.4,1.1,5.9,4.9c-4.6,12.1,0.1,21.2,8.1,29.5c3.4,3.5,3.8,7,2,11.5
		c-2.3,5.8-2,11.9,1.1,17.6c3.8,6.9,7.8,16.4,17.1,12.3c10.9-4.7,5.4-14,2-21.9c-2.2-5.2-12-8.2-7.4-14.9c6.8-9.9-0.1-18.8,0.5-28
		c8,3.6,9.4,9.1,7.8,17.7c-2.5,13.1,3.4,25,16.7,25.6c15.4,0.7,5.7-13.9,8.6-21.2c6.4,2.7,7.1,6.8,4.9,13.3
		c-3.3,9.2,1.9,16.5,7.9,23c3.1,3.4,7.2,4.8,11.7,3.6c5.6-1.5,5-6.3,5.1-10.5c0.1-3.7,0-7.4,0-11c15.9,1.3,6.5,12.7,7,19.3
		c0.7,9.1,5.7,14.4,12,19.2c3.1,2.4,7.1,2.4,10.1-0.2c7.1-6.2,3-13.2,1-20c-0.7-2.3-0.4-4.8-0.6-7.2c9.5,4.4,9.9,11,8.1,20.8
		c-2.2,12.2,3.1,25.3,16.5,26c15.3,0.8,5.9-13.8,8.4-21.1c0.4-1.1,0.1-2.4,0.1-3.6c6.9,3.1,12.4,5.1,6.3,15.4
		c-6.5,11,3.8,18.7,11.1,25.4c6.6,6.1,12,3.1,15.8-4c24.8-4.7,42.5-22.9,64.4-33.3c10.8-5.2,20.9-12.1,32.9-16.1
		c-18.7,38.9-58.6,53.9-89.5,79c-1.4-2.7-2.7-5.5-4.3-8c-4.4-7.1-11.3-15-18.7-8.3c-8,7.2-2.1,17.4,3.9,24.4
		C936.3,1522.1,943.8,1527.3,949.5,1514.3z M857.1,1461.2c-0.1-8.3-3.2-14.2-7.9-19.1c-3.6-3.8-7.1-10-13.3-7.6
		c-7.6,2.9-6,11.5-3.8,15.8c6.2,12.2,13.5,23.5,7.3,38c-0.5,1.2,1,3.4,1.8,5c4,7.7,9.1,17.1,18.9,12.3c9-4.5,4.8-14.3,0.4-20.6
		C854.8,1476.9,851.5,1469.4,857.1,1461.2z M919.3,1492.8c-3.5-9.1-6.7-22.9-18.4-21.2c-12.7,1.8-15.5-4.3-20.2-12.2
		c-2.8-4.7-7.2-8.9-13.7-6.6c-3.7,1.3-6.1,4.6-5.8,8.6c0.8,11.1,5.2,23.4,16.8,22.4c12.3-1,16.2,3.9,20.2,12.6
		c2.7,5.8,7.8,7.6,13.8,6.2C916.8,1501.7,919.2,1498.5,919.3,1492.8z M824.2,1439.9c-0.5-11.5-5.1-21.2-17.9-23.4
		c-6-1-8.4,4.8-7.7,10c1.6,11.6,7.4,21.2,19,24.3C824.6,1452.6,823.7,1445.1,824.2,1439.9z M739.5,1424.4
		c-0.8-11.2-5.6-20.4-17.3-22.6c-7.1-1.3-9.2,5.4-8.2,11.2c1.9,10.7,7.5,20.2,18.3,23C740.6,1438.1,738.8,1429.6,739.5,1424.4z
		 M764.5,1403.3c-5.1-7.4-4.5-20.4-18.1-21.2c-6.3-0.3-10.2,3.2-10.1,9.9c0.1,8.6,13.7,23.5,20.6,22.4
		C762.6,1413.5,764.9,1409.7,764.5,1403.3z M702.1,1367.7c-3.2-9.6-7.9-19-18.8-21.8c-6.3-1.6-11.2,3.8-9.2,9.7
		c3.1,9.1,4.3,21.1,17.6,22.3C698,1378.5,701.8,1374.9,702.1,1367.7z M724.1,1396.6c8.4-0.9,8.7-6.8,7.6-12.1
		c-1.9-9.8-5.7-19.1-17.2-20.6c-7.8-1-8.9,5.1-8,10.9C708.2,1385.4,712.5,1394.3,724.1,1396.6z"/>
	<path class="st11" d="M963.8,1200.7c-6.3-31.4,9.7-48.3,36.7-60c25.5-11.1,40.8-33.6,56.5-55.3c9.4-13.1,5.2-28.2,6.8-42.5
		c25.7,5.5,48.5,39.8,43.4,65.1c-1.8,9-7.5,14.5-15.5,19C1048.9,1151.2,1006.4,1176,963.8,1200.7z"/>
	<path class="st11" d="M934.5,1109.5c0-6.7,0.7-13.6-0.2-20.2c-1.7-13.8,4.7-21.8,16.9-26.9c27.3-11.4,47-31.9,65.8-54.1
		c14-16.4,13.3-34.6,13.1-53.5c4.6,1.3,9.2,2.6,13.8,3.8c1.5,1.3,3,2.5,4.6,3.8c0,0-0.2-0.1-0.2-0.1c4.7,5,9.3,10,14,15
		c1.4,1.3,2.8,2.5,4.2,3.8c0,0-0.3,0.4-0.3,0.3c1.1,8.8,3.8,17.1,7.9,25c0.2,2.4,0.3,4.9,0.5,7.3c1.5,11.6-9.7,18.4-10.8,29
		c-27,2.6-45.7,22-68.3,33.5C974.9,1086.8,954.8,1098.4,934.5,1109.5L934.5,1109.5z"/>
	<path class="st5" d="M1074.6,1013.8c-0.2-2.4-0.3-4.9-0.5-7.3c3.4,1.1,7.2,1.6,10.3,3.4c76.2,44.4,152,89.5,228.6,133.3
		c20.5,11.7,39.3,27.4,63.3,32.7c5.9-2.4,11.8-4.8,17.7-7.3c0.5,1.5,1,3,1.6,4.5c-9.8,13.2-20.1,16-35.7,6.9
		C1265.1,1124,1169.8,1069.1,1074.6,1013.8z"/>
	<path class="st15" d="M724.6,1456.1c0.5-7.3,0.3-17.1,11.3-12.7c13.3,5.4,10.5-2.8,10.9-10c0.3-5.4-2.6-15.4,6.8-13.4
		c11.4,2.5,17.6,12.7,18.5,24.5c0.5,7.3-3.8,11.4-11.6,10c-3.9-0.7-8.8-4.4-9.2,3.2c-0.2,3.6,2.9,4.3,6.4,4.6
		c19.5,1.6,24.5,7.5,25.9,29.9c-2,1.1-5.4,3.7-5.8,3.2C762,1479.6,732.1,1482.8,724.6,1456.1z"/>
	<path class="st15" d="M754.1,1356.1c-1.5,7.5,4.3,20.7-8.1,20.3c-13.2-0.4-18.7-12.5-17.2-25.3c0.9-8,5.1-16-7.8-17l0.1,0.1
		c-6.7-11.5,4.4-26.5-7.4-36.9c0,0,0,0.1,0,0.1c-1.3-6.2-2.5-12.5-3.8-18.7c0-7.1,6.7-7.8,10.8-11c9.4,10.9,19.9,20.9,13.8,37.9
		c-1.7,4.5,4.2,6.3,8.7,6.5c0,0-0.1-0.1-0.1-0.1C750,1325.8,733.7,1345.6,754.1,1356.1L754.1,1356.1z"/>
	<path class="st5" d="M796.1,1036.4c-7.9,5.9-15.8,11.8-23.7,17.7c-1.2,1.3-2.4,2.6-3.6,3.8c0,0,0.1-0.1,0.1-0.1
		c-37,15.9-69.7,39.4-104.8,58.6c-19.2,10.5-38.1,21.4-57.2,32.1c0-3.2,0-6.5,0-9.7c41.1-23.3,81.9-47.1,123.4-69.7
		C751.8,1057.5,770.2,1039.4,796.1,1036.4z"/>
	<path class="st15" d="M654.7,1396.6c2.3,8.3,4.7,16.6,3.9,25.3c-2.2,1-5.3,3.5-6.5,2.8c-16.1-9.8-33.4-18.4-47.4-30.7
		c-9.2-8.1-7.5-20.2,6.1-26.4c2.1,4.7,5.8,7,10.9,7l0,0c1.9,5,3.9,10,5.7,15.1c1.8,5.3,1.3,10.5,8.3,1.8
		C640.5,1385.2,648.1,1394.7,654.7,1396.6L654.7,1396.6z"/>
	<path class="st15" d="M720.9,1334c0.4,7.9,8.2,16-0.4,23.5c-3.7,3.2-8,2.5-11.4-0.7c-7.4-7-15.9-13.8-12.1-25.9
		c1.9-6.1,2.8-10.7-5.5-11.6l0.1,0.1c-1.3-7.4-2.6-14.9-3.8-22.3c0.2-6.9,4.2-10.2,10.7-11.2c3.7,5.7,7.5,11.2,15.3,11.4
		c0,0,0-0.1,0-0.1C718,1309.1,703.5,1324.8,720.9,1334L720.9,1334z"/>
	<path class="st15" d="M684.1,1411.3c2.2,9.5,4,16.1,18,15.7c16.6-0.4,19,15,18.8,29c-18.3,10.3-20.6-9.3-29.8-15.9
		c-1.1-1.8-2.1-1.5-3,0.2c-15.3,3.3-21.1-6.9-26.1-18.3C661.7,1402.5,673.9,1408.9,684.1,1411.3L684.1,1411.3z"/>
	<path class="st15" d="M816.7,1510.6c0-6.2,0.2-12.9,8.2-13.8c6.4-0.8,11.6,2.8,14.7,8.5c2.8,5.3,5.2,10.7,8.1,16.7
		c11.7-17.9,18.9-0.5,28,3.5l0,0c0.1,7.2,0.2,14.3,0.3,21.5c-1.8,0.2-4.4,1.3-5.3,0.5C854.1,1533,826.9,1534.2,816.7,1510.6z"/>
	<path class="st15" d="M941.8,1581c0.2-5.3-0.5-11.7,5.9-13.5c5.5-1.6,10.6,2,14.1,5.9c3.8,4.3,6.3,9.7,9.4,14.6
		c0,2.5,0.1,5,0.1,7.6C957.4,1606.6,950.1,1603.1,941.8,1581z"/>
	<path class="st15" d="M787.2,1492.4c1.5-27.3,17.1-5.5,25.9-7.4l0-0.1c0,8.6,0,17.1,0,25.7C795.9,1516.6,790.8,1505.6,787.2,1492.4
		z"/>
	<path class="st15" d="M905,1536.4c-1,9.7,5,19.2,0.3,28.9c-15.5,3.6-21.1-6.9-26.1-18.3C879.6,1523.3,895.7,1538.2,905,1536.4
		L905,1536.4z"/>
	<path class="st15" d="M632.4,1345c4.2,5.9,8.9,11.6,12.6,17.8c3.2,5.4,4.7,12.3-0.2,17c-4.7,4.5-10.1,1.3-14.8-2.1
		c-2.3-1.7-5.5-2.2-8.3-3.2c0,0,0,0,0,0c-0.1-3.9-0.1-7.8-0.2-11.7C621.2,1354.5,621.2,1346.3,632.4,1345z"/>
	<path class="st15" d="M691.5,1319.3c0,3.6,0.2,7.2,0,10.7c-0.2,4,0.7,8.7-4.5,10.5c-5.2,1.8-9.7-0.1-12.8-4
		c-4.4-5.5-8.1-11.6-12.1-17.4c3.7-6,5.2-14.2,14.5-14.6C680.4,1310.6,685.2,1315.8,691.5,1319.3L691.5,1319.3z"/>
	<path class="st15" d="M912.2,1562.6c0.4-4.8-0.5-10.5,6.5-11.1c8.7-0.8,13.2,5.7,17.3,11.6c3.7,5.3,1.6,11.9,2,17.9
		C919.8,1588.5,915,1576.9,912.2,1562.6z"/>
	<path class="st15" d="M654.7,1323.1c4.5,6.4,9.7,12.5,13.1,19.5c2.5,5.2,4.5,12.4-2.4,16.1c-6.5,3.4-12-0.8-15.4-6.1
		c-2.9-4.5-4.3-9.9-6.3-14.9C643.8,1330.2,648.5,1326.1,654.7,1323.1z"/>
	<path class="st14" d="M691.6,1319.4c-6.4-3.6-11.1-8.8-15-14.9c3.7-2.5,7.4-4.9,11.1-7.4C689,1304.5,690.3,1311.9,691.6,1319.4z"/>
	<path class="st14" d="M713.6,1297.3c-7.8-0.2-11.6-5.8-15.3-11.4c2.7-4.2,6.5-6.6,11.4-7.3C711.1,1284.8,712.4,1291,713.6,1297.3z"
		/>
	<path class="st14" d="M621.4,1362.9c0.1,3.9,0.1,7.8,0.2,11.7c-5.1,0-8.8-2.3-10.9-7C614.3,1366,617.9,1364.4,621.4,1362.9z"/>
	<path class="st14" d="M688.1,1440.4c0.9-1.8,1.9-2,3-0.2c0,0-1.5,0.3-1.5,0.3L688.1,1440.4z"/>
	<path class="st6" d="M471.1,866.6c7.8,1,12.6,10.7,21.8,7.5c0,0-0.2-0.2-0.2-0.2c-1.6,6.2,4.2,5.7,7.1,7.9c0,31.2,0,62.4,0,97.5
		c-12.5-11.3-30.1-9.5-29.5-28.6C471,922.6,470.8,894.6,471.1,866.6z"/>
	<path class="st6" d="M444.8,848.1c8.8,6.6,11.5,15.1,11.1,26.3c-1,24.4-0.3,48.8-0.3,73.5c-25.7-6.8-28-9.7-27.9-34.3
		c0.1-19,1.5-38-0.3-56.8c-1.3-13.3,5.7-12.4,14-12.2l-0.2-0.2c-1.6,4.1,1.4,3.7,3.8,3.9L444.8,848.1z"/>
	<path class="st6" d="M536.4,903.7c0.5,1.3,1,2.6,1.6,3.9c0,29.8,0,59.6,0,91.9c-11.8-6.1-20.9-10.7-29.9-15.3
		c-3.8-31.2-0.8-62.4-1.6-96C518.3,894.3,527.4,899,536.4,903.7z"/>
	<path class="st6" d="M419.6,928c-22-5.5-32.8-15.6-30.4-38.7c2.3-21.6,0.5-43.7,0.5-65.9c27.3,6.8,29.9,10,29.9,35.1
		C419.6,881.5,419.6,904.4,419.6,928z"/>
	<path class="st12" d="M508,984.1c9.1,4.6,18.1,9.3,29.9,15.3c0-32.2,0-62,0-91.9c5.2,32.7,0.6,65.5,2.9,102.4
		c-24.8-14.4-46.9-27.3-69.1-40.2c-3.7-2.2-4.4-5.6-4.4-9.4c0.1-29.9,0.3-59.8,0.6-89.6c0-1.4,2-2.8,3.1-4.2
		c-0.2,28-0.1,56.1-0.9,84.1c-0.5,19.1,17,17.3,29.5,28.6c0-35.1,0-66.3,0-97.5c0-2.7,0-5.4,0.1-8.2c0.7-33.9,0.7-33.9-28.7-43.5
		c-0.4,8.6-0.9,17-1.3,25.4c-0.8-1.6-2.4-3.3-2.3-4.8c0.7-8.8-5-20.3,4.4-25.4c8-4.4,15.3,4.7,22.6,8.6c8.6,4.7,17.1,9.4,25.4,14.5
		c23,14.2,24.9,19.4,17.6,47.3c0,0-1.1,0.2-1.1,0.2c6.5-23.3-3.2-37.7-24.9-45.5c-11.8-9.4-8.1,2.3-8.2,6.5
		c-0.3,38.3-0.3,76.6-0.2,114.9C503.1,976.3,501.8,981.8,508,984.1z"/>
	<path class="st12" d="M437.8,1034.9c-8.5-7.4-16.6-14.6-29.6-12.7c-7.7,1.1-13.8-3.1-14.8-11.9c-8.8-22.4,2.7-44.5-0.1-66.6
		c8.3-1.3,12.3,4.2,17.4,7.2c45.6,26.4,45.5,26.4,41.3,77.9c-0.4,5.1-0.2,10-7,10.6c0,0,0,0,0,0
		C443.7,1036.1,440.6,1035.7,437.8,1034.9z M441.3,1000.3c0-17.7-17.7-38-34.6-40.1c-4.1-0.5-5,1.5-6.1,4.8
		c-6,19,1.5,36.3,20.3,46.4C441.3,1022.2,441.3,1022.2,441.3,1000.3z"/>
	<path class="st12" d="M474.5,989.4c20.4,7.7,35.5,18.8,51.6,28.4c4.7,2.8,6.9,6.5,6.9,11.9c0,18.1,0,36.3,0,58.1
		c-19.7-11.5-36.8-21.4-53.8-31.5c-4.9-2.9-4.7-8.1-4.7-13.1C474.5,1026.1,474.5,1009.1,474.5,989.4z M521.8,1067.4
		c0.5-5.2,0.6-8.8,1.2-12.4c3.9-21.6-13.1-44.8-34.5-47.1c-2.5-0.3-4.5-0.4-6.1,2.3c-3.6,5.9-0.3,36.7,5.5,39.7
		C498.7,1055.4,507.7,1064.4,521.8,1067.4z"/>
	<path class="st11" d="M445,1039.4c6.9-0.6,6.6-5.5,7-10.6c4.2-51.5,4.3-51.6-41.3-77.9c-5.1-3-9.1-8.5-17.4-7.2
		c2.8,22.2-8.7,44.2,0.1,66.6c-8.9-1.4-7.3-8.3-7.4-14.2c-0.1-15.2-0.1-30.5,0-45.7c0.1-15.8,7.5-22.5,21.7-15
		c16.2,8.7,35.8,13.6,45.1,33c4.9,10.3,2.5,20.2,3,30.3c0.7,12.8,0.2,25.6,0.1,38.4c0,3.4,0.8,8-4.6,8.1
		C447.8,1045.3,446.3,1042.2,445,1039.4z"/>
	<path class="st6" d="M391.6,783.6c28.5,12.1,28.5,12.1,28.7,42.9C389.5,817.7,386.9,813.9,391.6,783.6z"/>
	<path class="st6" d="M441.3,844.6c-13.7-9.8-16.9-23-13.1-40.2c16.4,6.9,30.9,12.1,28,34.5c-1.2,9.5-6.9,7.2-11.4,9.2
		c0,0,0.2,0.2,0.2,0.2c1.9-4.4-1.4-3.8-3.8-3.9L441.3,844.6z"/>
	<path class="st6" d="M469.9,855.4c0.4-8.4,0.9-16.7,1.3-25.4c29.4,9.6,29.4,9.6,28.7,43.5c-2.4,0.1-4.8,0.2-7.1,0.3
		c0,0,0.2,0.2,0.2,0.2C487.8,864.7,474.8,865.1,469.9,855.4z"/>
	<path class="st11" d="M508,984.1c-6.2-2.3-4.9-7.7-4.9-12.4c0-38.3-0.1-76.6,0.2-114.9c0-4.2-3.7-15.9,8.2-6.5
		c-9.3,17.6-7.3,26.5,7.7,35.3c5.7,3.4,11.5,6.8,17.2,10.2c0,0,1.1-0.2,1.1-0.2c-0.3,2.7,3.1,5.9-1.1,8.1c-9-4.7-18-9.4-30-15.6
		C507.2,921.7,504.2,952.8,508,984.1z"/>
	<path class="st11" d="M378.4,1014.8c0-62.9,0-125.8,0-188.6c1.3,0,2.6,0,3.9,0c0,27.4,0,54.7,0,82.1c0,31.1,0,62.1,0,93.2
		c0,5-0.1,9.8-3.7,13.8C378.6,1015.2,378.4,1014.8,378.4,1014.8z"/>
	<path class="st11" d="M437.8,1034.9c2.9,0.8,6,1.3,7.2,4.6C441.6,1039.5,438.7,1038.8,437.8,1034.9z"/>
	<path class="st8" d="M606.9,1076.4c0-7.4-0.1-14.7-0.1-22.1c2.9-0.9,6.1-1.2,8.7-2.7c85-49.4,169.7-99.2,254.8-148.3
		c28.5-16.4,55.4-35.7,86.2-47.8c0,7.6-0.8,15.3,3.7,22.1c-5.8-0.5-10.9,1.4-15.7,4.2c-78.5,45.9-156.7,92.3-235.6,137.5
		C675.2,1038.7,643,1061,606.9,1076.4z"/>
	<path class="st8" d="M839.5,955.7c-1.5,7.1-3.1,14.2-4.6,21.4c-57.7,33.7-115.1,68-173.3,100.6c-17.8,9.9-33.5,24.3-54.5,28.2
		c-0.1-7.4-0.1-14.7-0.2-22.1c7.3-3,15-5.3,21.7-9.2c47.4-27.4,94.4-55.6,142.1-82.5C793.2,979.3,814,963.1,839.5,955.7z"/>
	<path class="st8" d="M796.1,1036.4c-25.9,3-44.3,21-65.8,32.8c-41.4,22.7-82.3,46.4-123.4,69.7c0-7.4,0-14.7,0-22.1
		c38.7-22.1,77.4-44.3,116.1-66.3c28.6-16.3,55.9-34.8,86.2-47.8c-4.1,8-6.6,16.4-6.7,25.5c-3.1,1.5-4.2,4.1-4.2,7.3
		C797.7,1036.2,797,1036.5,796.1,1036.4z"/>
	<path class="st5" d="M839.5,955.7c-25.4,7.4-46.3,23.6-68.8,36.3c-47.7,26.9-94.7,55.1-142.1,82.5c-6.8,3.9-14.5,6.2-21.7,9.2
		c0-2.5,0.1-4.9,0.1-7.4c36-15.4,68.2-37.7,102-57.1c78.9-45.2,157.1-91.6,235.6-137.5c4.8-2.8,9.9-4.7,15.7-4.2
		c1.4,1.5,2.8,2.9,4.2,4.4c-37.2,23.2-74.9,45.5-113.6,65.9c-1.5,1-3.1,2-4.6,3c-0.6,0.6-1.4,0.9-2.3,0.8c-1.6,1.3-3.2,2.5-4.8,3.8
		L839.5,955.7z"/>
	<path class="st5" d="M956.6,855.5c-30.8,12.1-57.7,31.4-86.2,47.8c-85.1,49.1-169.9,98.9-254.8,148.3c-2.5,1.5-5.8,1.8-8.7,2.7
		c0.1-3.7,0.1-7.3,0.2-11c26.4-4.1,45.9-22.4,67.9-34.9C762,959.1,848,907.9,934.5,857.4c7.4-4.3,14.8-8.6,22.1-12.9
		c10,5.6,19.8,11.4,29.9,16.8c3.8,2,6,3.9,3.3,8.1c-1.3,0.2-2.5,0.3-3.8,0.5C976.5,864.4,968.7,855.5,956.6,855.5z"/>
	<path class="st5" d="M809.2,1002.7c-30.4,13-57.7,31.5-86.2,47.8c-38.7,22-77.4,44.2-116.1,66.3c0-3.7,0.1-7.3,0.1-11
		c21-3.9,36.7-18.3,54.5-28.2c58.3-32.6,115.6-67,173.3-100.6C836.7,996,818,994.4,809.2,1002.7z"/>
	<path class="st5" d="M1030,889c-1.2-0.2-2.4-0.3-3.6-0.5C1028,886.1,1029.2,886.2,1030,889z"/>
	<path class="st5" d="M1062.4,977.3c-4.7-5-9.3-10-14-15c19.1,2.1,32.8,15.6,48.3,24.5c86.3,49.4,171.9,100,257.8,150.1
		c6.8,4,13.4,8.7,21.7,9.4c5.9-2.4,11.8-4.8,17.7-7.3c0,2.5,0,4.9,0,7.4c-5.9,3.7-11.8,7.3-17.7,11
		c-80.8-46.9-161.2-94.4-242.5-140.4c-22-12.5-41.6-30.2-67.4-35.5c0,0,0.3-0.4,0.3-0.4C1065.2,979.8,1063.8,978.6,1062.4,977.3z"/>
	<path class="st5" d="M1048.6,962.5c-1.5-1.3-3-2.5-4.6-3.8C1045.6,960,1047.1,961.2,1048.6,962.5z"/>
	<path class="st8" d="M1403.3,1042.1c1.2-0.3,1.9-0.7,2.3-0.4c43.4,25,43.4,25,19.8,68.3c-6.6,12.2-13.2,24.5-22.1,40.9
		C1403.3,1111.4,1403.3,1076.7,1403.3,1042.1z"/>
	<path class="st8" d="M1406.6,1029.9c28.7-16.6,55-31.7,81.2-46.9c1.3,0.9,2.7,1.9,4,2.8c-12.5,23.1-24.9,46.3-37.5,69.4
		c-3.7,6.9-8.2,2.7-12.1,0.1C1431.3,1047.7,1420.5,1039.8,1406.6,1029.9z"/>
	<path class="st8" d="M1414.3,1148.2c11-21.2,22-42.4,33-63.6c0.6-1.1,1.3-2.1,1.8-3.2c1.7-3.8,4.4-6.7,8.4-3.7
		c12.2,9.1,26.8,15.5,35.8,27.8c2.6,3.6-6,6.4-9.9,8.6c-21.8,12.5-43.7,24.6-65.6,36.8C1416.6,1150.1,1415.5,1149.2,1414.3,1148.2z"
		/>
	<path class="st8" d="M1501,990.9c0,34,0,68,0,105.3c-13.7-9.5-25.4-17.7-37.3-25.7c-6.5-4.4-3.9-9.1-1.2-14.2
		c11.8-22,23.6-44,35.4-66.1C1498.9,990.4,1500,990.7,1501,990.9z"/>
	<path class="st8" d="M1376.2,1157.4c5.9-3.7,11.8-7.3,17.7-11c0,7.4,0,14.8,0,22.1c-5.9,2.4-11.8,4.8-17.7,7.3
		C1376.3,1169.6,1376.2,1163.5,1376.2,1157.4z"/>
	<path class="st8" d="M1417.8,1151.1c-1.4,0.5-2.7,1-4.1,1.5c0.2-1.4,0.4-2.9,0.6-4.4C1415.5,1149.2,1416.6,1150.1,1417.8,1151.1z"
		/>
	<path class="st8" d="M1637.4,911.5c0,34.3,0,68.5,0,104.7c-15.6-6.1-26.8-17.3-39.7-25.6c-2.7-1.7-3.9-4.3-2-7.8
		c13-24.2,26-48.5,38.9-72.8C1635.5,910.6,1636.4,911,1637.4,911.5z"/>
	<path class="st8" d="M1627.8,906.8c-12,22.5-24.1,45-35.9,67.6c-3.3,6.3-6.7,7.8-12.7,3.3c-11.2-8.3-22.7-16.2-36.5-26.1
		c28.7-16.7,55.4-32.2,82.1-47.7C1625.7,904.9,1626.7,905.9,1627.8,906.8z"/>
	<path class="st8" d="M1538.6,1066.2c0-34,0-68,0-105.1c13.5,9.4,25.1,17.7,36.9,25.7c4.9,3.3,6,7,3.1,12.3
		c-12.3,22.8-24.5,45.7-36.7,68.5C1540.8,1067.1,1539.7,1066.7,1538.6,1066.2z"/>
	<path class="st8" d="M1616.1,1016.4c5.7,2.3,10.7,5.5,15.4,12.5c-27.9,14.2-51.8,35-82.4,43.6l0.3,0.2
		c3.5-12.6,10.6-23.4,17.7-34.1c2.3,3.9,5.3,4.3,9.1,2.2C1589.8,1033.2,1604,1026.6,1616.1,1016.4z"/>
	<path class="st8" d="M1570.7,1032c3-6.6,6.5-12.9,9-19.7c6.2-17.3,14.9-15.8,25.3-3.8C1600.6,1026.6,1583.9,1026.7,1570.7,1032z"/>
	<path class="st5" d="M1570.7,1032c13.2-5.3,29.9-5.4,34.3-23.6c3.7,2.6,7.4,5.3,11.1,8c-12.1,10.1-26.3,16.8-39.9,24.4
		c-3.8,2.1-6.9,1.8-9.1-2.2C1568.2,1036.4,1569.5,1034.2,1570.7,1032z"/>
	<path class="st8" d="M1549,1072.5c0,0.9,0,1.8-0.1,2.6c-0.5-0.1-1.1-0.2-1.6-0.2c0.7-0.7,1.3-1.5,2-2.2
		C1549.3,1072.7,1549,1072.5,1549,1072.5z"/>
	<path class="st5" d="M1518.8,792.4c6.6-9.5,13.1-11.7,23.6-13.5C1536,788.3,1529.5,790.6,1518.8,792.4z"/>
	<path class="st5" d="M1547.7,775.2c4.5-6.1,10.2-9.7,20.1-10.8C1562.2,773.8,1555.4,775.5,1547.7,775.2z"/>
	<path class="st5" d="M1469.5,821.5c1.9-8.4,6.7-8.2,12.4-9.2C1480,820.8,1475.1,820.4,1469.5,821.5z"/>
	<path class="st5" d="M1494,807.7c0.9-7.4,5.8-9.3,14-9.8C1505,805.6,1499.8,807.1,1494,807.7L1494,807.7z"/>
	<path class="st5" d="M1452.5,827.5c1,0.4,2.1,0.9,3.1,1.3c-0.5,1-0.7,2.6-1.4,2.9c-0.7,0.3-2-0.7-3-1.2
		C1451.6,829.5,1452.1,828.5,1452.5,827.5z"/>
	<path class="st5" d="M1494,807.7c-0.3,0.5-0.6,1-0.9,1.5C1493.4,808.7,1493.7,808.2,1494,807.7C1494,807.7,1494,807.7,1494,807.7z"
		/>
	<path class="st7" d="M956.6,855.5c12.2,0,20,8.9,29.5,14.3c-7.2,4-14.4,8.1-21.6,12.1c-1.4-1.5-2.8-2.9-4.2-4.4
		C955.8,870.8,956.5,863.1,956.6,855.5z"/>
	<path class="st5" d="M798.3,1035.6c0.1-3.2,1.1-5.9,4.2-7.3C803,1031.8,802.1,1034.5,798.3,1035.6z"/>
	<path class="st8" d="M839.1,955.4c1.6-1.3,3.2-2.5,4.8-3.8C842.3,952.9,840.7,954.2,839.1,955.4z"/>
	<path class="st11" d="M934.5,1109.5c-0.3,0.5-0.6,1-0.8,1.5C933.9,1110.5,934.2,1110,934.5,1109.5
		C934.5,1109.5,934.5,1109.5,934.5,1109.5z"/>
	<path class="st4" d="M768.7,1058c1.2-1.3,2.4-2.6,3.6-3.8C771.2,1055.5,770,1056.7,768.7,1058z"/>
	<path class="st8" d="M846.2,950.9c1.5-1,3.1-2,4.6-3C849.3,948.9,847.7,949.9,846.2,950.9z"/>
	<path class="st14" d="M931.1,1440.7c21.1-2.2,35.9-17.4,53.9-26.1c14.2-6.9,26.4-18.7,48.1-22.5c-24,38.5-61.4,51.9-91.2,74.4
		C936.7,1458.6,924.9,1453.3,931.1,1440.7z"/>
	<path class="st14" d="M923.5,1407.7c28.4-12.6,53.8-30.5,80.9-45.5c3.9-2.2,8.7-7.9,12.7-3.3c5,5.7-1.7,9.7-5.1,13.5
		c-11.1,12.3-23.1,23.8-38.5,30.3c-16.7,7-25.4,24.5-42.4,30.8C933.4,1423.5,912.7,1420.2,923.5,1407.7z"/>
	<path class="st15" d="M923.5,1407.7c-10.7,12.5,9.9,15.8,7.6,25.9c0,2.4,0,4.8,0,7.2c-6.1,12.6,5.6,17.9,10.7,25.9
		c0,3.7,0,7.4,0,11c-3.8,7.1-9.2,10-15.8,4c-7.3-6.8-17.6-14.5-11.1-25.4c6.1-10.3,0.6-12.3-6.3-15.4l0.1,0.1
		c-1.1-7.5-6.3-14.8-3-22.3c4.3-9.8-1.1-14.1-8.1-18.2l0,0.1c1.2-7.9-4.4-19.5,4.8-23c11.6-4.4,13.6,10.5,21,15.6
		C923.5,1397.8,923.5,1402.7,923.5,1407.7z"/>
	<path class="st15" d="M960,1555c-4.9,5-9.9,9.5-16.8,3c-7.2-6.8-14-14.3-11.6-25.1c2-8.6,8.1-6.7,14.3-3.7
		c7.9,3.8,7.9,13.4,14.2,18.3C960,1550,960,1552.5,960,1555z"/>
	<path class="st15" d="M949.5,1514.3c-5.8,13-13.2,7.8-19.1,0.9c-6-7-11.9-17.2-3.9-24.4c7.4-6.7,14.3,1.3,18.7,8.3
		c1.6,2.6,2.9,5.3,4.3,8C949.5,1509.5,949.5,1511.9,949.5,1514.3z"/>
	<path class="st15" d="M783.5,1367.1c-0.6,9.3,6.3,18.2-0.5,28c-4.6,6.7,5.2,9.7,7.4,14.9c3.4,7.9,8.9,17.2-2,21.9
		c-9.3,4-13.4-5.4-17.1-12.3c-3.1-5.7-3.4-11.8-1.1-17.6c1.8-4.6,1.4-8-2-11.5c-8.1-8.3-12.8-17.4-8.1-29.5c1.4-3.7-2.9-4.4-5.9-4.9
		c0,0,0.1,0.1,0.1,0.1c0.8-9.2-6.9-17.6-2.8-26.9c4.3-9.5-1.8-13.4-8.3-17.3c0,0,0.1,0.1,0.1,0.1c-1-3.5-2.1-7-2.9-10.5
		c-1.3-5.7,2-9.4,6-12.4c5.6-4.2,9.2,0.1,12.4,3.6c6.7,7.3,13.9,15.3,8.1,25.9c-6.5,12,1.5,13.4,9.5,15.5c0,0,0,0,0,0
		c-0.5,7.2-0.2,14.5-1.8,21.5C772.4,1364.1,776.7,1366.3,783.5,1367.1L783.5,1367.1z"/>
	<path class="st15" d="M846.1,1407.6c0,3.7,0.2,7.4,0,11c-0.1,4.2,0.5,9-5.1,10.5c-4.5,1.2-8.6-0.2-11.7-3.6
		c-6-6.5-11.1-13.8-7.9-23c2.3-6.5,1.5-10.6-4.9-13.3l0.1,0.1c-1.3-1.3-2.5-2.5-3.8-3.8l0.1,0.1c-4.5-11.9,9.9-27.6-7.4-36.9
		l0.1,0.1c-0.1-0.6-0.1-1.2-0.2-1.8c-1.3-7.3-7.4-15,0.8-21.7c4.6-3.8,9.3-1.6,12.9,2.2c6.5,7,15.9,13.9,9.8,24.7
		c-5.3,9.3-3.6,11.8,6.2,11.4c0,0,0-0.1,0-0.1c-1,9.2,6.8,17.6,2.7,26.9C833.5,1399.9,839.8,1403.7,846.1,1407.6L846.1,1407.6z"/>
	<path class="st15" d="M908.7,1440.8c0,1.2,0.3,2.5-0.1,3.6c-2.6,7.4,6.8,21.9-8.4,21.1c-13.4-0.7-18.7-13.8-16.5-26
		c1.8-9.9,1.4-16.5-8.1-20.8l0.1,0.1c-0.5-6.8-5.4-13-1.2-20.5c3.1-5.7-0.8-10-6.2-12.7l0,0.1c-0.1-0.6-0.1-1.2-0.2-1.8
		c-1.4-7.3-7.3-14.9,0.6-21.8c3-2.6,6.9-2.5,10.1-0.2c7.9,5.5,12.9,12.5,11.6,22.9c-0.8,6.5-5.6,15.3,7.3,15.6c0,0,0-0.1,0-0.1
		c-1.6,8.3,7.3,16.2,2.2,24.1C892.1,1436.4,899.9,1438.6,908.7,1440.8L908.7,1440.8z"/>
	<path class="st15" d="M875.6,1418.7c0.2,2.4-0.1,4.9,0.6,7.2c2,6.9,6.1,13.8-1,20c-3,2.7-7,2.6-10.1,0.2
		c-6.3-4.8-11.3-10.1-12-19.2c-0.5-6.6,8.9-18-7-19.3c0,0,0.1,0.1,0.1,0.1c0.8-9.2-6.8-17.6-2.7-26.9c4.2-9.5-2-13.3-8.4-17.3
		c0,0,0,0.1,0,0.1c2.8-7.3-6.8-21.9,8.6-21.1c13.5,0.7,17.9,13.6,16.7,26.1c-0.8,8-5.2,16.1,7.9,17.1c0,0,0-0.1,0-0.1
		c-0.2,7.7,0.4,15.6-1,23.1C865.8,1416.5,869.5,1418.2,875.6,1418.7L875.6,1418.7z"/>
	<path class="st15" d="M816.7,1389.2c-2.9,7.3,6.8,21.9-8.6,21.2c-13.3-0.6-19.2-12.5-16.7-25.6c1.6-8.6,0.2-14.1-7.8-17.7
		c0,0,0.1,0.1,0.1,0.1c-0.8-8-6.8-15.3-0.4-24.1c5-6.9-4.2-6.3-7-9.1c0,0,0,0,0,0c-0.2-1.2-0.1-2.5-0.5-3.6
		c-2.6-7.5-6-15.2-0.2-22.5c3.6-4.5,7.8-1.8,11.5,0.4c9,5.2,12.3,13.7,10.9,23.3c-1.1,7.9-5.5,16.2,7.8,17.2c0,0-0.1-0.1-0.1-0.1
		c-0.2,7.6,1.2,15.8-1.1,22.8c-3.1,9.5,2.7,11.2,8.5,14.1c0,0-0.1-0.1-0.1-0.1C814.2,1386.8,815.5,1388,816.7,1389.2L816.7,1389.2z"
		/>
	<path class="st13" d="M788.6,1294.6c0.5-1,0.7-2.6,1.4-2.9c0.7-0.3,2,0.7,3,1.2c-0.5,1-0.7,2.6-1.4,2.9
		C790.9,1296,789.7,1295,788.6,1294.6z"/>
	<path class="st13" d="M859.5,1327.7c-1,0.4-2.3,1.4-3.1,1c-0.7-0.3-0.9-1.9-1.3-3c1-0.4,2.3-1.4,3.1-1.1
		C858.9,1325.1,859.1,1326.7,859.5,1327.7z"/>
	<path class="st15" d="M813,1485c-3.2-8-1.2-20.7-18-12.9c-8.1,3.8-22.5-20.5-17.5-29.2c4.7-8.4,11.6-6.9,16.3-0.6
		c6.4,8.5,10.4,16.1,24.5,15.1c10.8-0.7,17.2,13.4,15.4,23.4C831.4,1493.4,821,1488.3,813,1485C813,1484.9,813,1485,813,1485z"/>
	<path class="st15" d="M857.1,1461.2c-5.5,8.1-2.2,15.6,3.5,23.8c4.4,6.2,8.6,16.1-0.4,20.6c-9.8,4.9-14.9-4.5-18.9-12.3
		c-0.8-1.6-2.3-3.8-1.8-5c6.2-14.5-1.1-25.8-7.3-38c-2.2-4.3-3.8-12.9,3.8-15.8c6.1-2.3,9.7,3.8,13.3,7.6
		C853.9,1447.1,856.9,1453,857.1,1461.2z"/>
	<path class="st15" d="M919.3,1492.8c-0.1,5.6-2.5,8.9-7.3,10c-6.1,1.4-11.1-0.4-13.8-6.2c-4.1-8.7-7.9-13.7-20.2-12.6
		c-11.6,1-16-11.3-16.8-22.4c-0.3-3.9,2-7.3,5.8-8.6c6.5-2.3,10.9,1.9,13.7,6.6c4.7,7.9,7.5,14,20.2,12.2
		C912.6,1469.9,915.7,1483.8,919.3,1492.8z"/>
	<path class="st15" d="M654.8,1396.6c-0.3-3-0.1-6.2-1-9c-2.3-6.5-4.9-13,1.6-18.3c5.4-4.3,11.2-1.3,14.7,2.5
		c5.6,6.1,12.7,13.9,8.7,22.4C673.1,1406.5,662.9,1396.7,654.8,1396.6C654.7,1396.6,654.8,1396.6,654.8,1396.6z"/>
	<path class="st15" d="M875.6,1525.5c1-7.1-3-12.7-5.6-18.7c-2.2-5-1.9-9.7,3.1-12.6c5.2-3.1,11.2-2.8,14.6,2.2
		c4.6,6.8,11.6,14,8.5,22.8C892.9,1528.8,882.9,1524.4,875.6,1525.5C875.6,1525.4,875.6,1525.5,875.6,1525.5z"/>
	<path class="st15" d="M824.2,1439.9c-0.5,5.3,0.4,12.7-6.6,10.9c-11.6-3.1-17.4-12.7-19-24.3c-0.7-5.2,1.7-11.1,7.7-10
		C819.1,1418.7,823.7,1428.4,824.2,1439.9z"/>
	<path class="st15" d="M739.5,1424.4c-0.7,5.3,1.1,13.7-7.2,11.6c-10.7-2.8-16.3-12.3-18.3-23c-1-5.8,1.1-12.5,8.2-11.2
		C733.9,1404,738.8,1413.1,739.5,1424.4z"/>
	<path class="st15" d="M684.2,1411.4c0-2.4-0.4-5,0.1-7.3c1.4-6.7-4.9-18.7,8.3-17.8c12.1,0.8,16.6,11.6,16.8,22.5
		c0.2,7.2-4.7,11.2-12.4,8.5C692.7,1415.7,689.6,1410.9,684.2,1411.4C684.1,1411.3,684.2,1411.4,684.2,1411.4z"/>
	<path class="st15" d="M764.5,1403.3c0.4,6.4-2,10.2-7.6,11.1c-6.9,1.1-20.5-13.8-20.6-22.4c-0.1-6.8,3.8-10.3,10.1-9.9
		C760,1382.9,759.4,1395.9,764.5,1403.3z"/>
	<path class="st15" d="M702.1,1367.7c-0.3,7.2-4.1,10.8-10.4,10.2c-13.3-1.2-14.5-13.1-17.6-22.3c-2-6,2.9-11.4,9.2-9.7
		C694.2,1348.7,698.9,1358.1,702.1,1367.7z"/>
	<path class="st15" d="M724.1,1396.6c-11.6-2.3-15.9-11.2-17.6-21.9c-0.9-5.8,0.3-11.9,8-10.9c11.5,1.6,15.3,10.9,17.2,20.6
		C732.8,1389.8,732.5,1395.7,724.1,1396.6z"/>
	<path class="st15" d="M905.1,1536.5c-0.3-1.8-0.6-3.6-1.1-5.3c-1.9-7.2-7.6-16.3,3.2-19.8c9-2.9,13.7,5.3,17.3,12.6
		c2.9,5.7,4.5,11.8-0.7,16.7C915.9,1548.2,911.1,1538.9,905.1,1536.5C905,1536.4,905.1,1536.5,905.1,1536.5z"/>
	<path class="st7" d="M1376.2,1157.4c0,6.1,0.1,12.3,0.1,18.4c-24-5.2-42.7-20.9-63.3-32.7c-76.6-43.8-152.4-88.8-228.6-133.3
		c-3.1-1.8-6.8-2.3-10.3-3.4c-4.1-7.9-6.7-16.2-7.9-25c25.9,5.3,45.4,23,67.4,35.5C1215,1062.9,1295.5,1110.4,1376.2,1157.4z"/>
	<path class="st7" d="M1062.4,977.3c1.4,1.3,2.8,2.5,4.2,3.8C1065.2,979.8,1063.8,978.6,1062.4,977.3z"/>
	<path class="st14" d="M743,1311.9c6.5,4,12.6,7.8,8.3,17.3c-4.1,9.3,3.6,17.7,2.8,26.9C733.7,1345.6,750,1325.8,743,1311.9z"/>
	<path class="st14" d="M721,1334.1c-17.5-9.3-3-25-7.4-36.9C725.5,1307.6,714.4,1322.6,721,1334.1z"/>
	<path class="st9" d="M492.7,873.8c2.4-0.1,4.8-0.2,7.1-0.3c0,2.7,0,5.4-0.1,8.2C496.9,879.6,491,880.1,492.7,873.8z"/>
	<path class="st9" d="M441.1,844.4c2.5,0.1,5.7-0.6,3.8,3.9C442.5,848.1,439.6,848.5,441.1,844.4z"/>
	<path class="st6" d="M536.3,895.8c-5.7-3.4-11.5-6.8-17.2-10.2c-15-8.8-16.9-17.7-7.7-35.3C533.2,858.1,542.9,872.5,536.3,895.8z"
		/>
	<path class="st11" d="M441.3,1000.3c0,21.9,0,21.9-20.3,11c-18.9-10.1-26.4-27.3-20.3-46.4c1-3.3,2-5.2,6.1-4.8
		C423.7,962.2,441.3,982.5,441.3,1000.3z"/>
	<path class="st11" d="M521.8,1067.4c-14.1-3-23.1-11.9-33.9-17.5c-5.8-3-9.1-33.8-5.5-39.7c1.6-2.7,3.6-2.6,6.1-2.3
		c21.4,2.3,38.4,25.5,34.5,47.1C522.4,1058.5,522.3,1062.2,521.8,1067.4z"/>
	<path class="st14" d="M908.8,1440.8c-8.9-2.2-16.7-4.4-8.9-16.4c5.1-7.9-3.7-15.8-2.2-24.1c7.1,4.1,12.5,8.4,8.1,18.2
		C902.4,1426,907.6,1433.4,908.8,1440.8z"/>
	<path class="st14" d="M776.2,1334c2.8,2.8,12,2.2,7,9.1c-6.3,8.8-0.4,16.1,0.4,24.1c-6.9-0.9-11.2-3.1-9.2-11.7
		C776,1348.6,775.7,1341.2,776.2,1334z"/>
	<path class="st14" d="M813,1385.6c-5.8-2.9-11.6-4.6-8.5-14.1c2.3-7,0.9-15.2,1.1-22.8C822.9,1358,808.6,1373.7,813,1385.6z"/>
	<path class="st14" d="M835.1,1363.5c6.4,4,12.7,7.8,8.4,17.3c-4.1,9.3,3.5,17.7,2.7,26.9c-6.4-4-12.7-7.8-8.4-17.3
		C841.9,1381.1,834.1,1372.6,835.1,1363.5z"/>
	<path class="st14" d="M816.7,1389.3c-1.3-1.3-2.5-2.5-3.8-3.8C814.2,1386.8,815.5,1388,816.7,1389.3z"/>
	<path class="st14" d="M875.6,1418.7c-6.2-0.5-9.9-2.2-8.4-10.1c1.4-7.5,0.7-15.4,1-23.1c5.4,2.6,9.4,7,6.2,12.7
		C870.2,1405.8,875.1,1411.9,875.6,1418.7z"/>
</g>
</svg>
