<?xml version="1.0" encoding="utf-8"?>
<!-- Generator: Adobe Illustrator 23.1.0, SVG Export Plug-In . SVG Version: 6.00 Build 0)  -->
<svg version="1.1" id="Layer_1" xmlns="http://www.w3.org/2000/svg" xmlns:xlink="http://www.w3.org/1999/xlink" x="0px" y="0px"
	 viewBox="0 0 1920 1920" style="enable-background:new 0 0 1920 1920;" xml:space="preserve">
<style type="text/css">
	.st0{fill:#FEFEFD;}
	.st1{fill:#FEE5A1;}
	.st2{fill:#FEC161;}
	.st3{fill:#FE6E56;}
	.st4{fill:#FED285;}
	.st5{fill:#FED385;}
	.st6{fill:#ED6148;}
	.st7{fill:#ED6249;}
	.st8{fill:#FEB044;}
	.st9{fill:#FEAF44;}
	.st10{fill:#FEA744;}
</style>
<g>
	<path class="st0" d="M1783.4,749.9c27.6-15.7,54.4-32.4,71.9-60.2c23.8-27.5,33.6-60.4,36.6-95.8c3.7-42.8-11.8-82.2-22.6-122.3
		c-28.2-104.3-57-208.5-85.5-312.7c-0.1-36.9-0.2-73.9-0.4-110.8c-0.2-27,2.8-23.8-24.4-23.8c-532.9-0.1-1065.9,0-1598.8,0
		c-3.1,0-6.3,0.4-9.4-0.1c-11.8-1.6-14.9,3.7-14.7,15c0.6,40.1,0.4,80.1,0.5,120.2c-0.7,1.1-1.6,2-1.9,3.2
		C101.1,286.7,67.6,410.7,34.1,534.8c-8.3,30.8-8.2,61.6-0.1,92.6c14.9,57.1,51.6,95.7,102.5,122.5c0.2,26.2,0.4,52.3,0.7,78.5
		c-0.1,279.4-0.1,558.8-0.2,838.2c-0.3,28.7-0.5,57.3-0.8,86c-30.7,0.2-61.4,1-92,0.2c-13.6-0.4-16.9,4.4-16.5,17.2
		c0.8,30.7,0.1,61.4,0.3,92.1c0.2,30.1-3.9,26.3,25.4,26.3c604.4,0.1,1208.8,0.1,1813.2,0.1c3.8,0,7.6-0.4,11.3,0.1
		c12.1,1.7,14.6-4.2,14.4-15.1c-0.6-35.1-0.8-70.2,0.1-105.2c0.3-13.2-5.1-15.4-16.5-15.2c-30.7,0.5-61.4-0.1-92-0.3
		c-0.3-28.7-0.5-57.3-0.8-86c0.1-180.6,0.2-361.3,0.2-541.9c0-98.8-0.3-197.5-0.4-296.3C1782.9,802.3,1783.1,776.1,1783.4,749.9z"/>
	<path class="st1" d="M1782.7,828.4c0.1,98.8,0.4,197.5,0.4,296.3c0,180.6-0.1,361.3-0.2,541.9c-53.4,0-106.9,0-160.3,0
		c-0.3-8.1-0.8-16.2-0.8-24.3c0-209.7-0.2-419.4,0.4-629.1c0.1-17.6-3.8-23.4-22.4-23.2c-114.5,0.9-229.1,0.9-343.7,0
		c-18.6-0.1-22.5,5.7-22.4,23.2c0.6,210.3,0.4,420.6,0.3,630.9c0,7.5-0.6,15-0.9,22.5c-365.4,0-730.7,0-1096.1,0
		c0.1-279.4,0.1-558.8,0.2-838.2c31.2,7,61.3,17.1,95,12.2c64.2-9.5,110.8-41.2,141.5-97.9c10.5-19.4,15.7-40.4,22-61.5
		c13.8,100.8,69.9,166.5,169.8,175.4c114.7,10.2,182.7-53.9,207.3-168.2c18.3,108.8,90.7,160.9,169.6,169.7
		c49.9,5.6,95.6-8.7,134.7-40.3c38.9-31.4,62.4-72.7,70.3-123.1c20.3,93.6,75.5,155.3,169.9,162c120.4,8.6,187-59.7,208.1-176.4
		c6,34.6,18.3,65.7,40,92.2c41.1,50.2,93.7,73,159.2,68.4C1744.9,839.4,1763,830.9,1782.7,828.4z M690,1422.2
		c109.6,0,219.2-0.3,328.8,0.4c17.5,0.1,23.9-4.1,23.8-22.8c-0.8-129-0.7-258-0.1-387c0.1-16.8-4-22.8-22-22.7
		c-220.4,0.6-440.8,0.5-661.3,0c-15.8,0-19.9,4.5-19.8,20c0.6,130.9,0.6,261.7,0,392.6c-0.1,15.7,4.4,19.9,20,19.8
		C469.6,1421.9,579.8,1422.2,690,1422.2z"/>
	<path class="st2" d="M1783.7,1752.6c30.7,0.2,61.4,0.8,92,0.3c11.4-0.2,16.9,1.9,16.5,15.2c-0.9,35-0.6,70.1-0.1,105.2
		c0.2,10.9-2.4,16.8-14.4,15.1c-3.7-0.5-7.5-0.1-11.3-0.1c-604.4,0-1208.8,0-1813.2-0.1c-29.4,0-25.2,3.9-25.4-26.3
		c-0.2-30.7,0.5-61.4-0.3-92.1c-0.3-12.8,2.9-17.5,16.5-17.2c30.7,0.8,61.4,0,92-0.2c4.4,0.2,8.7,0.5,13.1,0.5
		c361.6,0,723.2,0,1084.8-0.1c129.2,0,258.3,0,387.5,0C1675.6,1752.9,1729.7,1752.7,1783.7,1752.6z"/>
	<path class="st2" d="M136.6,159.4c-0.1-40.1,0.2-80.2-0.5-120.2c-0.2-11.2,3-16.6,14.7-15c3.1,0.4,6.3,0.1,9.4,0.1
		c532.9,0,1065.9,0,1598.8,0c27.1,0,24.2-3.2,24.4,23.8c0.2,36.9,0.3,73.9,0.4,110.8c-79.2,0.3-158.5,0.7-237.7,1c-30,0-60,0-90,0
		c-82.7,0-165.5,0-248.2-0.1c-27.5,0-55,0-82.6,0.1c-84,0-168,0-252,0c-26.2,0-52.5,0-78.7,0.1c-86.5,0-173-0.1-259.5-0.1
		c-22.5,0-45,0-67.5,0.1c-90.2,0-180.5,0-270.7-0.1C176.8,159.8,156.7,159.6,136.6,159.4z"/>
	<path class="st3" d="M1546.1,160c79.2-0.3,158.4-0.7,237.7-1c28.5,104.2,57.3,208.4,85.5,312.7c10.9,40.1,26.3,79.4,22.6,122.3
		c-3.1,35.4-12.9,68.3-36.6,95.8c-6.3-0.5-12.2,0.9-18.4,2.3c-84,18.7-158-11.7-204.8-84.1c-21.3-33-24.4-71-30.3-108.5
		C1584.1,386.1,1564.8,273.1,1546.1,160z"/>
	<path class="st4" d="M1782.7,828.4c-19.7,2.5-37.8,11-58.2,12.4c-65.5,4.7-118.1-18.2-159.2-68.4c-21.7-26.5-34.1-57.6-40-92.2
		c-21.1,116.8-87.7,185-208.1,176.4c-94.3-6.7-149.5-68.4-169.9-162c-7.9,50.4-31.4,91.7-70.3,123.1c-39,31.6-84.8,45.9-134.7,40.3
		c-78.9-8.8-151.3-60.9-169.6-169.7c-24.6,114.2-92.6,178.4-207.3,168.2c-99.9-8.9-155.9-74.6-169.8-175.4
		c-6.3,21.1-11.5,42.1-22,61.5c-30.7,56.8-77.3,88.5-141.5,97.9c-33.7,5-63.7-5.1-95-12.2c-0.2-26.2-0.4-52.3-0.7-78.5
		c16.8,4.4,33.4,9.6,50.3,13c61.1,12.4,142.6-24.3,172.8-77c19.8-21,26.8-47.6,32.7-74.7c1-4.5-0.9-10.5,6.7-10.7
		c0.5,11.2,0.1,22.4,2.8,33.5c22.4,94.1,107.1,156,203,145c54.3-6.2,99.5-31.1,130.5-78c19.8-19.8,26.9-45.4,32.8-71.5
		c1.1-4.7-0.1-10.5,7.3-10.7c0.3,4.4-0.1,8.9,1,13.1c19.3,75,65.6,125.3,141.3,142.6c75.2,17.2,139.4-5.6,188.9-66.2
		c20.2-20.4,29.8-46.3,37.1-73.1c1.9-7.1,1.6-14.7,7.6-20.1c0.3,8.1,0.8,16,3,24c26.5,93.1,104.8,149.1,200.9,140.2
		c55.2-5.1,100.5-30.9,131.9-78.2c15.3-16,23.7-35.6,29.1-56.6c4.1-15.8,7.3-31.9,11-47.9c2.7,67.8,52.9,133.3,119.7,157.3
		c46.2,16.6,91.5,12.8,136.6-3.8C1783.1,776.1,1782.9,802.3,1782.7,828.4z"/>
	<path class="st5" d="M1234,1753c-361.6,0-723.2,0.1-1084.8,0.1c-4.4,0-8.7-0.3-13.1-0.5c0.3-28.7,0.5-57.3,0.8-86
		c365.4,0,730.7,0,1096.1,0c0,0,1.4,0,1.4,0C1234.3,1695.4,1234.2,1724.2,1234,1753z"/>
	<path class="st6" d="M1783.4,749.9c-45.1,16.6-90.4,20.4-136.6,3.8c-66.8-24-117-89.4-119.7-157.3c-2.5-17.2-4.7-34.4-7.5-51.5
		c-21.1-128.4-42.3-256.7-63.5-385c30,0,60,0,90,0c18.7,113.1,38,226.2,55.7,339.4c5.9,37.6,9,75.6,30.3,108.5
		c46.8,72.4,120.7,102.8,204.8,84.1c6.2-1.4,12.1-2.8,18.4-2.3C1837.8,717.5,1811,734.2,1783.4,749.9z"/>
	<path class="st7" d="M359.5,685.9c-30.1,52.8-111.6,89.4-172.8,77c-17-3.4-33.6-8.6-50.3-13C85.6,723.1,48.9,684.5,34,627.4
		c-8.1-31-8.2-61.8,0.1-92.6c33.5-124.1,67.1-248.1,100.6-372.2c0.3-1.2,1.3-2.1,1.9-3.2c20.1,0.2,40.2,0.4,60.2,0.5
		c-0.6,4.9-0.7,10-1.9,14.7c-18.7,69.1-38.6,137.9-56.1,207.4c-11.4,45-28.2,88.5-29.1,136.5c-1.3,73.7,54.3,143.5,119.7,167.6
		C273.3,702.3,316.2,697.9,359.5,685.9z"/>
	<path class="st5" d="M1783.7,1752.6c-54,0.1-108.1,0.3-162.1,0.4c-0.1-28.8-0.2-57.7-0.3-86.5l1.3,0.1c53.4,0,106.9,0,160.3,0
		C1783.2,1695.3,1783.4,1723.9,1783.7,1752.6z"/>
	<path class="st8" d="M690,1422.2c-110.2,0-220.4-0.3-330.6,0.3c-15.5,0.1-20-4.1-20-19.8c0.6-130.9,0.6-261.7,0-392.6
		c-0.1-15.5,4-20,19.8-20c220.4,0.5,440.8,0.5,661.3,0c17.9,0,22,5.9,22,22.7c-0.6,129-0.7,258,0.1,387c0.1,18.7-6.3,22.9-23.8,22.8
		C909.2,1421.8,799.6,1422.2,690,1422.2z"/>
	<path class="st9" d="M1233,1666.6c0.3-7.5,0.9-15,0.9-22.5c0-210.3,0.3-420.6-0.3-630.9c-0.1-17.6,3.9-23.4,22.4-23.2
		c114.5,0.9,229.1,0.9,343.7,0c18.6-0.1,22.5,5.7,22.4,23.2c-0.6,209.7-0.4,419.4-0.4,629.1c0,8.1,0.5,16.2,0.8,24.3
		c0,0-1.3-0.1-1.3-0.1c-128.9,0-257.9,0-386.8,0C1234.4,1666.5,1233,1666.6,1233,1666.6z"/>
	<path class="st10" d="M1234.4,1666.5c128.9,0,257.9,0,386.8,0c0.1,28.8,0.2,57.7,0.3,86.5c-129.2,0-258.3,0-387.5,0
		C1234.2,1724.2,1234.3,1695.4,1234.4,1666.5z"/>
	<path class="st3" d="M775.3,618.7c-7.4,0.2-6.2,6-7.3,10.7c-5.9,26.1-13,51.8-32.8,71.5c-37.4,12.3-75.5,16-114,7.1
		c-82.9-19-144.8-94.8-142-180.6c2.4-73.4,21.5-144.6,31.6-217c7-50.3,16.1-100.3,24.3-150.5c86.5,0,173,0.1,259.5,0.1
		c-0.1,51.1-4.2,102.1-7.1,153.1c-2.7,46.6-6.2,93.3-7.3,139.9C779,508.3,769.6,563.3,775.3,618.7z"/>
	<path class="st3" d="M1151.1,615c-6,5.4-5.7,13-7.6,20.1c-7.2,26.9-16.9,52.7-37.1,73.1c-3.1-4.2-7.7-4.5-11.8-2.9
		c-20.4,8-41.7,6.6-62.9,6.7c-90.4,0.6-177.8-82.3-177.3-177.2c0.3-55.5,4.3-110.7,7.1-166.1c3.5-69.6,6.6-139.2,11.8-208.7
		c84,0,168,0,252,0c6.7,35.7,4,72.1,6.5,108.1c2.4,35.4,4.3,71,5.8,106.5c1.1,25.5,0.4,51.2,3.3,76.6
		C1147,505.6,1146,560.5,1151.1,615z"/>
	<path class="st3" d="M359.5,685.9c-43.4,12.1-86.3,16.5-130.2,0.3c-65.3-24.1-120.9-93.9-119.7-167.6
		c0.8-48.1,17.7-91.5,29.1-136.5c17.6-69.4,37.4-138.2,56.1-207.4c1.3-4.7,1.3-9.8,1.9-14.7c90.2,0,180.5,0,270.7,0.1
		c-1.3,5.4-2.9,10.8-3.7,16.3c-10.4,64.8-20.6,129.7-30.9,194.5c-12.2,76.4-29.3,152.1-33.9,229.7c-7.6,0.2-5.7,6.2-6.7,10.7
		C386.4,638.3,379.3,664.9,359.5,685.9z"/>
	<path class="st3" d="M1456.1,160c21.2,128.3,42.4,256.7,63.5,385c2.8,17.1,5,34.3,7.5,51.5c-3.6,16-6.9,32-11,47.9
		c-5.4,21-13.8,40.6-29.2,56.6c-25.8,8-51.8,11.6-79.1,11.4C1327.2,712,1249.2,647,1234,566c-8.1-43.1-7-86.8-10.2-130.1
		c-6.1-83.2-8.4-166.8-11.9-250.2c-0.4-8.9-1.6-17.3-4-25.7C1290.6,159.9,1373.4,160,1456.1,160z"/>
	<path class="st6" d="M1207.9,159.9c2.3,8.4,3.6,16.9,4,25.7c3.5,83.4,5.7,167,11.9,250.2c3.2,43.3,2.1,87,10.2,130.1
		c15.3,81,93.2,146,173.9,146.4c27.3,0.2,53.3-3.4,79.1-11.4c-31.4,47.3-76.6,73.1-131.9,78.2c-96.1,8.9-174.4-47.2-200.9-140.2
		c-2.3-8-2.8-15.9-3-24c-5.2-54.5-4.1-109.4-10.2-163.9c-2.8-25.4-2.2-51.1-3.3-76.6c-1.5-35.5-3.4-71.1-5.8-106.5
		c-2.4-36,0.2-72.3-6.5-108.1C1152.9,160,1180.4,159.9,1207.9,159.9z"/>
	<path class="st6" d="M873.3,160c-5.2,69.5-8.2,139.1-11.8,208.7c-2.8,55.4-6.8,110.6-7.1,166.1c-0.5,95,87,177.8,177.3,177.2
		c21.2-0.1,42.5,1.3,62.9-6.7c4.2-1.6,8.7-1.4,11.8,2.9c-49.5,60.6-113.7,83.4-188.9,66.2c-75.6-17.3-122-67.6-141.3-142.6
		c-1.1-4.2-0.7-8.7-1-13.1c-5.7-55.4,3.6-110.4,4.9-165.7c1.1-46.6,4.7-93.3,7.3-139.9c2.9-51,6.9-101.9,7.1-153.1
		C820.9,160.1,847.1,160,873.3,160z"/>
	<path class="st6" d="M399,600.5c4.7-77.5,21.7-153.2,33.9-229.7c10.4-64.8,20.6-129.7,30.9-194.5c0.9-5.5,2.5-10.9,3.7-16.3
		c22.5,0,45,0,67.5-0.1c-8.2,50.2-17.3,100.2-24.3,150.5c-10.1,72.4-29.3,143.7-31.6,217c-2.8,85.8,59.1,161.6,142,180.6
		c38.5,8.8,76.6,5.2,114-7.1c-31,46.9-76.2,71.8-130.5,78c-95.9,10.9-180.6-50.9-203-145C399.1,622.8,399.5,611.7,399,600.5z"/>
</g>
</svg>
