<?xml version="1.0" encoding="utf-8"?>
<!-- Generator: Adobe Illustrator 23.1.0, SVG Export Plug-In . SVG Version: 6.00 Build 0)  -->
<svg version="1.1" id="Layer_1" xmlns="http://www.w3.org/2000/svg" xmlns:xlink="http://www.w3.org/1999/xlink" x="0px" y="0px"
	 viewBox="0 0 1920 1920" style="enable-background:new 0 0 1920 1920;" xml:space="preserve">
<style type="text/css">
	.st0{fill:#F5F0EF;}
	.st1{fill:#EFCFA4;}
	.st2{fill:#EFCEA4;}
	.st3{fill:#DEDEDE;}
	.st4{fill:#F5F0F0;}
	.st5{fill:#F0CFA4;}
	.st6{fill:#F0B886;}
	.st7{fill:#934D36;}
	.st8{fill:#AA593D;}
	.st9{fill:#934E37;}
	.st10{fill:#474247;}
	.st11{fill:#464145;}
	.st12{fill:#464045;}
</style>
<g>
	<path class="st0" d="M1592.7,969.7c-5.5,40.2-9,80.7-18.4,120.4c-4.8-0.5-6.9-4.3-9.5-7.6c-65.2-80.3-146.4-139.6-239.8-182.9
		c-48.3-22.4-99.1-37.6-149.7-53.4c-34.3-26.4-59.3-60.3-78.7-98.5c-37.9-74.5-57.1-154.1-61.6-237.2c-5-92.5,4.5-181.6,66.4-256.9
		c21.8,2.3,41.9,10.4,62.1,18c22.8,10.8,45.9,20.9,68.2,32.7c28.5,15.1,27.2,15.4,33.9-16.5c18.8-89.3,30.5-180.5,72.5-263.4
		c2.4,0,4.8,0,7.3,0c0.3,4.1,2.5,6,6.4,7.6c26.3,11.2,38.1,31.6,37.4,60c-0.3,13.2-3.1,26.5-3.1,39.4c-0.1,71.1-9.5,141.7-7.9,212.8
		c-5.4,18.3-2.7,37.1-4,55.6c-0.3,4.9,3.3,7.5,6.3,10.4c31.6,30.1,58.7,64,84.7,98.8c1.2,2.7,2.2,5.6,3.8,8
		c28.1,42.9,52.2,87.8,71.1,135.6c13.7,34.6,22.1,70.7,34.2,105.8c8.5,25.8,11.8,52.6,14.3,79.4c1,11.4,3.1,22.6,4.1,33.9
		c-8.2,21.3-2.4,43.5-3.3,65.2C1588.9,947.6,1585.3,959.4,1592.7,969.7z M1257.4,703.1c-0.1,31.8,7.2,61.3,28.8,85.6
		c25.4,28.4,59.9,27.8,85-0.5c37.5-42.3,38.1-125.8,1.2-168.6c-26.9-31.2-64.2-30.5-89.8,2.1C1264,645.4,1257.2,673.2,1257.4,703.1z
		"/>
	<path class="st1" d="M1885.7,493.4c1.7,0,3.5,0,5.2,0c0,3.6,0,7.3,0,10.9c-21.7,37.6-42.2,75.8-69.5,109.8
		c-49.8,62.1-108.3,111.8-187.7,131.7c-14.6,3.7-29.2,7-44.6,6c-5.5-0.3-12.8-2.2-14.7,6.5c-12.1-35-20.5-71.2-34.2-105.8
		c-18.9-47.8-43-92.7-71.1-135.6c-1.6-2.4-2.5-5.3-3.8-8c102.2-50.3,209.7-55.3,320-37.7C1819.2,476.7,1851.8,487.8,1885.7,493.4z"
		/>
	<path class="st2" d="M29.1,493.4c1.7,0,3.5,0,5.2,0c5.3-0.9,10.7-1.4,15.9-2.8c79.8-22.5,160.7-33.9,243.7-26.4
		c51,4.6,99.9,16.7,146.5,38.4c11.1,5.2,12.7,9.8,5.6,20.1c-24.7,35.9-44.2,74.8-61.7,114.7c-16.3,37.1-25.4,76.4-39,114.3
		c-69.8,2.6-127.5-26.3-179.9-68.9C109.2,636.8,68.8,578.6,36,514.6c-1.9-3.7-4.6-6.9-6.9-10.4C29.1,500.6,29.1,497,29.1,493.4z"/>
	<path class="st3" d="M541.8,344.4c-2.5-68.7-4.3-137.4-8-206.1c-0.8-14.3-2.2-28.8-3-43.2c-1.7-28.2,9.2-49.3,34.3-62.6
		c3.5-1.9,5.9-4.1,5.8-8.3c10.9,0,21.8,0,32.7,0C593.8,42.9,590.3,63,593,83.6c4.6,34.4,8.6,69,16.9,102.9
		c11.4,46.7,22.6,93.4,33.8,140.1c-33.1,23.3-66,46.8-96.9,75.8C545,381.2,543.4,362.8,541.8,344.4z"/>
	<path class="st4" d="M643.7,326.5c-11.3-46.7-22.4-93.4-33.8-140.1c-8.3-33.9-12.2-68.4-16.9-102.9c-2.8-20.5,0.8-40.6,10.6-59.3
		c2.4,0,4.8,0,7.3,0c0.5,1.7,0.5,4.4,1.6,5c27.5,13.5,35.7,41.2,48.2,65.5c28.4,55.2,56.5,110.6,84.8,165.9
		c2.2,4.2,3.6,9.1,8.3,11.5C716,287.9,679.4,306.3,643.7,326.5z"/>
	<path class="st3" d="M1163.6,271.5c9.5-0.9,10.1-9.6,13.2-15.6c28.6-56.6,56.8-113.4,85.4-170.1c11.1-22,21.2-45,45.6-56.6
		c1-0.5,1-3.3,1.4-5c9.7,0,19.4,0,29.1,0c-42,82.9-53.7,174.2-72.5,263.4c-6.7,31.9-5.4,31.6-33.9,16.5
		C1209.5,292.4,1186.3,282.3,1163.6,271.5z"/>
	<path class="st0" d="M920,1886.1c0-1.1,0-2.1-0.1-3.2c1.1-0.4,2.2-0.7,3.3-0.8c23.2,0.3,46.4,0.6,69.6,0.8c0,1.1-0.1,2.1-0.1,3.2
		C968.5,1886.1,944.2,1886.1,920,1886.1z"/>
	<path class="st5" d="M992.8,1882.9c-23.2-0.3-46.4-0.6-69.6-0.8c-1.5-1-2.9-2.6-4.4-2.8c-59.5-9.2-108.8-38.4-151.6-79
		c-61.3-58.3-101-130.3-127.8-209.7c-35.3-104.8-44-212.4-32.5-322.2c9.8-93.6,35.2-181.9,82.8-263.4
		c30.8-52.7,69.6-98.4,119.8-133.7c31.4-22.1,67.2-34.8,103.3-46.5c54.3-2.4,108.5-1.5,162.6,5.1c33.6,4.1,66.3,12.5,99.8,16.3
		c50.6,15.9,101.4,31.1,149.6,53.4c93.4,43.3,174.7,102.5,239.8,182.9c2.7,3.3,4.7,7.1,9.5,7.6c5.8,19.5,20.2,34.1,30,51.3
		c41.9,73.3,62.3,151.6,57.3,235.9c-5.3,89.5-38.2,168.9-92.4,239.5c-84.3,109.8-197,178.1-326.3,221.7
		c-64.2,21.7-130.2,34.9-197.8,41C1027.7,1881.1,1010.3,1881.8,992.8,1882.9z M845.1,1361.3c-1.3-35.1-8.8-68.4-28.7-97.9
		c-29.2-43-72.1-42.9-101.5-0.1c-37.7,54.9-38.4,156.8-1.6,212.5c30.2,45.7,74.9,45.8,104.6-0.1
		C840.5,1440.9,845.7,1401.7,845.1,1361.3z M1233.5,1370.9c0.4-37.6-6.4-73.5-27.1-105.5c-29.9-45.9-76.7-46.8-104,0.8
		c-39.1,67.9-39.3,138.9-1.1,207.2c28.2,50.3,76.8,49,106.8-0.1C1227.3,1441.9,1233.9,1407.2,1233.5,1370.9z"/>
	<path class="st3" d="M1592.7,969.7c-7.4-10.3-3.8-22.1-3.3-32.9c0.9-21.7-4.8-43.9,3.3-65.2C1592.7,904.3,1592.7,937,1592.7,969.7z
		"/>
	<path class="st6" d="M912.9,824.7c-36.2,11.7-71.9,24.5-103.3,46.5c-50.3,35.3-89,80.9-119.8,133.7
		c-47.6,81.5-73.1,169.8-82.8,263.4c-11.4,109.8-2.8,217.4,32.5,322.2c26.8,79.4,66.5,151.4,127.8,209.7
		c42.8,40.6,92.1,69.8,151.6,79c1.6,0.2,3,1.9,4.4,2.8c-1.1,0.2-2.2,0.4-3.3,0.8c-163.7-7.4-315.3-52-449-148.9
		c-90.7-65.8-160.9-148.6-194.4-257.5c-40.5-131.8-17.3-254.2,59.2-367.5c4.8-7,10.4-13.4,10.1-22.6c7.7,1.2,10.4-5.4,14-9.8
		c53.8-65.4,119.1-116.4,193.4-156.6c44.2-23.9,91.1-41.2,137.9-59c6.4-1.5,12.9-2.7,19.3-4.4C776.6,838.3,843.7,824.8,912.9,824.7z
		"/>
	<path class="st7" d="M691,860.9c-46.8,17.8-93.7,35.2-137.9,59c-74.3,40.1-139.6,91.2-193.4,156.6c-3.6,4.4-6.2,11-14,9.8
		c-12.4-60.3-20-121-18.1-182.7c1.4-45.8,6.5-91.1,16-135.9c1.1-5.2,1.1-10.7,1.7-16c13.5-37.9,22.7-77.2,39-114.3
		c17.5-40,37-78.8,61.7-114.7c7.1-10.3,5.5-14.9-5.6-20.1c-46.6-21.7-95.5-33.8-146.5-38.4c-83-7.5-164,4-243.7,26.4
		c-5.2,1.5-10.6,1.9-15.9,2.8c77-76.7,170.8-120.8,276.4-141.6c76.6-15.1,153.8-15.5,231.1-7.4c1.6,18.4,3.2,36.8,5,57.9
		c30.9-29,63.8-52.5,96.9-75.8c35.7-20.2,72.2-38.6,110.1-54.3c42.8-13.5,85.7-26.4,130.5-31.3c15.5-1.7,31-2.8,46.5-4.1
		c-0.7,4.4-4,5.3-7.7,6.4c-22.4,7-40.2,21-57.2,36.8c-44.1,40.9-72.4,92-93.7,146.8C717.8,566.2,693,711.5,691,860.9z M661.9,700.6
		c2.5-29.2-7.7-56.3-26-80.8c-20.8-28-56.7-30.8-81.6-6.5c-44.1,43.2-46.1,131.5-4,177.3c22.9,24.9,56.3,25.7,80.1,1.3
		C654.6,767.1,663.3,736.5,661.9,700.6z"/>
	<path class="st8" d="M691,860.9c2-149.4,26.7-294.7,81.1-434.1c21.4-54.8,49.7-105.9,93.7-146.8c17-15.8,34.8-29.8,57.2-36.8
		c3.6-1.1,7-2,7.7-6.4c57.7-2.7,114.5,3.5,170.7,16.8c-61.9,75.4-71.4,164.4-66.4,256.9c4.5,83.1,23.6,162.7,61.6,237.2
		c19.5,38.2,44.4,72.1,78.7,98.5c-33.5-3.8-66.3-12.2-99.8-16.3c-54.2-6.6-108.3-7.5-162.6-5.1c-69.2,0-136.2,13.5-202.6,31.7
		C704,858.2,697.5,859.4,691,860.9z"/>
	<path class="st9" d="M1885.7,493.4c-33.9-5.6-66.5-16.7-100.5-22.2c-110.3-17.6-217.7-12.6-320,37.7c-26-34.8-53.1-68.7-84.7-98.8
		c-3-2.9-6.6-5.5-6.3-10.4c1.3-18.5-1.4-37.4,4-55.6c98.3-9.9,195.7-6.5,291,22.4C1751.5,391.3,1824.8,431.9,1885.7,493.4z"/>
	<path class="st10" d="M1257.4,703.1c-0.2-29.9,6.5-57.7,25.3-81.5c25.6-32.6,62.9-33.3,89.8-2.1c36.9,42.8,36.3,126.3-1.2,168.6
		c-25.1,28.4-59.6,28.9-85,0.5C1264.6,764.4,1257.4,734.9,1257.4,703.1z"/>
	<path class="st11" d="M845.1,1361.3c0.6,40.4-4.6,79.6-27.2,114.5c-29.8,45.9-74.4,45.8-104.6,0.1c-36.9-55.7-36.1-157.6,1.6-212.5
		c29.4-42.8,72.3-42.9,101.5,0.1C836.3,1292.9,843.8,1326.2,845.1,1361.3z"/>
	<path class="st11" d="M1233.5,1370.9c0.3,36.3-6.2,71-25.4,102.3c-30.1,49.1-78.7,50.4-106.8,0.1c-38.2-68.2-38-139.3,1.1-207.2
		c27.4-47.5,74.2-46.7,104-0.8C1227.2,1297.4,1233.9,1333.3,1233.5,1370.9z"/>
	<path class="st12" d="M661.9,700.6c1.4,35.8-7.3,66.5-31.5,91.4c-23.8,24.4-57.2,23.6-80.1-1.3c-42.1-45.8-40.1-134.2,4-177.3
		c24.9-24.3,60.7-21.5,81.6,6.5C654.1,644.3,664.4,671.4,661.9,700.6z"/>
</g>
</svg>
