<?xml version="1.0" encoding="utf-8"?>
<!-- Generator: Adobe Illustrator 23.1.0, SVG Export Plug-In . SVG Version: 6.00 Build 0)  -->
<svg version="1.1" id="Layer_1" xmlns="http://www.w3.org/2000/svg" xmlns:xlink="http://www.w3.org/1999/xlink" x="0px" y="0px"
	 viewBox="0 0 1920 1920" style="enable-background:new 0 0 1920 1920;" xml:space="preserve">
<style type="text/css">
	.st0{fill:#0A0909;}
	.st1{fill:#FDDDAF;}
	.st2{fill:#E7B166;}
	.st3{fill:#FDEFEA;}
	.st4{fill:#8B5844;}
	.st5{fill:#FAD49E;}
	.st6{fill:#FAE0C3;}
	.st7{fill:#FAD39E;}
	.st8{fill:#F8D19C;}
	.st9{fill:#F4C582;}
	.st10{fill:#F8DEC2;}
	.st11{fill:#CD9B56;}
	.st12{fill:#0B0B09;}
</style>
<g>
	<path class="st0" d="M29.2,1459.9c8.7-13.6,21.4-17.1,36.9-16.9c44.2,0.6,88.4,0.3,132.6,0.1c5.8,0,11.9,1.7,19-2.6
		c-35.9-28.7-63.4-63.2-81.6-104.7c-15.8-36-22.6-73.8-22.6-113c0-84.8-0.2-169.5,0.3-254.3c0.1-11.8-1.9-17.4-14.9-20.5
		c-39.9-9.8-64.3-45.6-61.4-87c3.2-45.2,30.7-76.8,72.5-82.2c11.3-1.5,23-1.8,34.4-1.1c12.2,0.8,14.3-3.2,13.8-15.4
		c-4.4-109.9,22.7-210.9,88.5-299.9c35.9-48.5,81.2-84.5,142.4-95.9c8.6-1.6,10-5.9,11.4-13.1c4.8-24.9,12.1-49.2,20.5-73.2
		c5.8-16.5,15.4-23.9,32.9-19.2c23,14.2,24.6,17.1,18.2,44c-3.9,16.4-8.5,32.8-14.7,48.4c-4.7,11.9-1.1,15.3,10,18.1
		c25.5,6.4,48,19.3,68.6,35.5c45.2,35.5,76.2,81.8,100,133.5c5.4,11.7,10.3,23.7,16.5,38.1c19.7-56.8,48.8-104.3,86.2-146.9
		c29.2-26.6,60.1-51,99.4-60.7c11.6-2.9,11.8-7.7,9.5-17.5c-13-54.7-34.1-105.7-67.9-150.9c-17.6-23.5-38.6-43.5-64.4-57.8
		c-33.3-18.4-68-23.6-104.2-8.6c-18.1,3.6-32.3,14.4-46.5,25.2c-19.1,14.5-24.8,14.7-44,0.6c-10-21.6-8.3-28.7,10.1-43.5
		c75.2-60.4,168-60.4,243.3,0.1c50.6,40.6,81.8,94.7,105.9,153.7c1.6,3.9,3.1,7.8,5.3,13.5c8.4-18.7,15.6-36.1,24-52.9
		c23.5-47.2,54.1-89,96.9-120.6c72.9-53.8,156.2-53.3,228.3,1.6c58.9,44.8,94,106.2,118.6,174.6c7.8,21.6,13.8,43.8,17.8,66.4
		c1.2,7,3.6,10.1,10.9,11.5c64.7,12.1,111.4,51.2,148,103.1c61.9,87.6,87.8,186.2,83.2,292.8c-0.5,12.2,1.6,16.6,13.8,15.3
		c6.6-0.7,13.3-0.2,20-0.1c49.1,1,79.9,28.9,86.2,78.1c5.7,44.2-20,82.2-64.3,93.9c-7.4,2-11.3,3.2-11.1,12.2
		c0.7,30.3,0.4,60.6,0.1,90.9c-0.1,6.9,1,10.5,9,12.4c63.9,14.8,108.8,55.7,144.9,107.9c42.1,60.9,65.2,129,75.7,201.8
		c0.5,3.2-1.3,7.6,3.8,8.9c0,35.1,0,70.3,0,105.4c-10.4,19.5-9.4,42.1-17.2,62.5c-9.4,24.6-15.1,29-40.9,24.9
		c-12.4-9-18.3-20-13.2-35.9c30.4-94.6,18.1-186.5-19.8-276c-21.3-50.3-51-95.2-97.8-125.7c-35.1-22.9-72.8-31.8-113.4-14.5
		c-27.2,7.7-48.2,25-66.9,44.9c-55.9,59.6-82.7,132.2-94.4,211.7c-1.9,13.2,0,21.3,11.3,30.5c63.4,51.6,92.5,119.5,89.9,200.8
		c-1.5,46-2.4,46.1,43.3,59.4c9.2,2.7,18.8,3.9,28.2,5.8c38.3,7,75.3,1.7,110.6-13.8c16.4-7.2,29.8-6.5,41.7,7.4
		c6.9,25.3,3.3,33.4-21.2,43.4c-69.6,28.3-139.1,27.6-208-2.7c-8-3.5-13.4-7.8-19.4,4.5c-31.2,64.5-83.3,106-150.1,128.8
		c-98.2,33.5-195.7,24.7-291.6-10.2c-67.1-24.5-126.5-61.1-169.3-119.9c-31.2-42.9-44.5-90.8-34.4-144c4.9-25.6,16.8-48.4,30.3-73
		c-9.8,0-17,0-24.2,0c-264.8,0-529.6-0.1-794.4,0.1c-16.1,0-31.3-0.8-40.9-16.3C29.2,1474.4,29.2,1467.1,29.2,1459.9z M1207.2,430.7
		c28.7-26.3,59.3-49.9,97.9-59.7c11.3-2.9,12.9-7.8,9.8-17.6c-6-19-10.1-38.6-17.3-57.1c-23-59-54.4-112.3-109.4-147.4
		c-34.8-22.2-72.1-30-111.8-12.5c-11.1,1.6-20.2,7.8-29,14C974.6,201.8,941.7,277,922.1,360.1c-1.6,6.9,1.1,7.9,6.7,9.4
		c61.6,17.1,104.8,57.8,139.9,109.1c20.6,30.1,36,63,50.7,100.9C1139.8,521.5,1168.8,473.3,1207.2,430.7z M846.9,429.9
		c-37.1,9.3-64.4,33.1-86.6,62.3c-61.6,80.8-84.7,173.4-80.3,273.8c0.4,8.3,3,11.7,11.7,11.6c93.1-0.5,186.1-0.8,279.2-1.1
		c35.7,0.3,71.4,0.3,107,1.1c11.2,0.3,12.6-5.1,13.1-14.2c3.6-70.1-8.7-137.3-37.8-201.2c-20.5-45.1-47.2-86.1-89.4-114.2
		C927.9,424.2,889.1,415,846.9,429.9z M505.5,776.5c32.1,0.3,64.2-0.6,96.2,1.5c18.3,1.2,22.3-5.9,22.7-22
		c1.6-67.7-10.5-132.5-38.8-194c-22.3-48.5-51.2-92.3-97.5-121.5c-37.5-23.7-77.2-29.9-118.9-10.5c-30.5,11.4-53.5,32.7-73,57.6
		c-59.5,75.7-84.1,163.2-84.5,258.3c-0.1,31.6,0.6,31.6,32.6,31.6c30.2,0,60.5,0.1,90.7,0C391.9,777.2,448.7,776.8,505.5,776.5z
		 M1312.6,427c-34.2,9.6-59,32.4-80.4,59c-58.7,73-83.3,158.2-85.9,250.6c-1.2,40.8-0.7,41,39.8,40.8c84.6-0.3,169.3-0.6,253.9-1
		c32.7,0.3,65.4-0.5,98,1.5c16.8,1,20.5-5.7,21-20.1c2.3-71.5-11.4-139.6-42.6-204c-22-45.3-50.1-85.9-93.5-113.3
		C1388.5,418.9,1351.9,411,1312.6,427z M1228.8,1809.7c40.4,2.3,79.5-4.7,116.9-19.4c138.2-53.9,174-231.1,66.1-330.1
		c-52.4-48.1-117.1-62.5-186.4-61.3c-24.3-1.3-48.3,2-72,6.7c-79.3,15.7-151.9,45.4-206.4,107.9c-51.4,59-51.3,127.7,2.4,184.6
		C1024.8,1777.9,1121.2,1808.7,1228.8,1809.7z M1483.4,952c-7.3-0.2-14.5-0.6-21.8-0.6c-280.4,0-560.8,0-841.3,0
		c-144.8,0-289.5,0-434.3,0c-9.8,0-18.5-2-18.4,13.9c0.7,89.6-1.1,179.3,0.8,268.9c2.6,116.7,97.3,207.3,214.1,207.4
		c181.7,0.2,363.4,0,545.1,0.2c10.3,0,17.9-3.3,26.3-9c125-85.9,259.7-113.7,406.4-66c9.7,3.1,13,3.5,15-8.1
		c15-86.4,48.5-164.3,107.9-229.9c32-30.1,67-55.1,111.1-64c6.9-1.4,8.5-4.9,8.4-11.2c-0.2-30.2-0.3-60.3,0-90.5
		c0.1-8.2-2.2-12-11.2-11.8C1555.8,951.7,1519.6,951.7,1483.4,952z M885.5,896.6c249.6,0,499.2,0,748.8,0c6.1,0,12.1,0.3,18.2-0.3
		c16.3-1.4,26.5-12,27.7-28.2c1.3-17.6-7-30.6-22.9-34.1c-8.2-1.8-16.8-2.4-25.2-2.4c-498-0.1-995.9-0.1-1493.9,0
		c-8.4,0-17.1,0.6-25.2,2.6c-14.5,3.6-22.5,13.4-22.9,28.7c-0.7,22.5,12.1,33.6,39.4,33.6C381.5,896.6,633.5,896.6,885.5,896.6z"/>
	<path class="st1" d="M520.3,162.1c19.2,14.1,24.9,13.9,44-0.6c14.2-10.8,28.4-21.6,46.5-25.2c16.7,20.5,37,37.8,52,59.9
		c48.2,71.2,73.4,149.7,75.7,235.6c-37.3,42.6-66.4,90.1-86.2,146.9c-6.2-14.4-11.1-26.3-16.5-38.1c-23.8-51.6-54.8-97.9-100-133.5
		c-20.6-16.2-43.1-29.1-68.6-35.5c-11.1-2.8-14.7-6.2-10-18.1c6.2-15.6,10.7-32,14.7-48.4c6.5-26.9,4.8-29.9-18.2-44
		c12.2-8.4,14.8-22.9,21.4-34.7C488.2,203.3,506.6,184.4,520.3,162.1z"/>
	<path class="st2" d="M1483.5,1128.6c-59.4,65.7-92.9,143.6-107.9,229.9c-2,11.6-5.4,11.2-15,8.1c-146.7-47.6-281.4-19.9-406.4,66
		c-8.4,5.8-16.1,9-26.3,9c-181.7-0.3-363.4,0-545.1-0.2c-116.8-0.1-211.6-90.8-214.1-207.4c-2-89.6-0.1-179.3-0.8-268.9
		c-0.1-15.8,8.6-13.9,18.4-13.9c144.8,0.1,289.5,0,434.3,0c280.4,0,560.8,0,841.3,0c7.3,0,14.5,0.4,21.8,0.6
		C1483.4,1010.9,1483.5,1069.7,1483.5,1128.6z"/>
	<path class="st1" d="M1228.8,1809.7c-107.6-1-204-31.8-279.3-111.6c-53.7-56.9-53.8-125.5-2.4-184.6
		c54.5-62.5,127.1-92.2,206.4-107.9c23.7-4.7,47.7-8,72-6.7c8.7,5.3,17.7,10.2,26.1,16c23.8,16.2,46.5,33.7,61.1,59.4
		c-21.2,22.4-19.2,37.3,6.8,52.7c14,8.3,27.3,17.5,33.9,33.4c-0.1,3.6-0.7,7.3-0.2,10.8c10.1,73.6-8.8,137.6-61.1,191.5
		C1273.4,1781.9,1250.3,1794.6,1228.8,1809.7z"/>
	<path class="st3" d="M1599.9,1677.4c-9.4-1.9-19-3.1-28.2-5.8c-45.6-13.3-44.7-13.4-43.3-59.4c2.6-81.3-26.6-149.2-89.9-200.8
		c-11.3-9.2-13.3-17.3-11.3-30.5c11.7-79.5,38.5-152.2,94.4-211.7c18.7-19.9,39.7-37.2,66.9-44.9c3.5,8.1,10.6,13.2,16.7,18.9
		c27.4,25.5,47.8,56.2,64.2,89.3c34.2,68.7,49.8,141.4,47.3,218.7C1713.6,1545.7,1680.8,1623.6,1599.9,1677.4z"/>
	<path class="st4" d="M885.5,896.6c-252,0-504,0-756,0c-27.2,0-40-11.1-39.4-33.6c0.5-15.3,8.5-25.1,22.9-28.7
		c8.1-2,16.8-2.6,25.2-2.6c498-0.1,995.9-0.1,1493.9,0c8.4,0,17,0.6,25.2,2.4c15.9,3.5,24.2,16.5,22.9,34.1
		c-1.2,16.2-11.4,26.7-27.7,28.2c-6,0.5-12.1,0.3-18.2,0.3C1384.7,896.6,1135.1,896.6,885.5,896.6z"/>
	<path class="st1" d="M1440,776.5c-84.6,0.3-169.3,0.7-253.9,1c-40.5,0.1-40.9,0-39.8-40.8c2.6-92.4,27.2-177.6,85.9-250.6
		c21.3-26.5,46.2-49.4,80.4-59c5.5,16.9,22,24.4,32.6,37.1c36.3,43.4,60,92.7,76.7,146.1C1439,664.5,1441.9,720.2,1440,776.5z"/>
	<path class="st3" d="M505.5,776.5c-56.8,0.3-113.6,0.7-170.4,1c-30.2,0.1-60.5,0-90.7,0c-32,0-32.7,0-32.6-31.6
		c0.3-95.1,24.9-182.6,84.5-258.3c19.6-24.9,42.5-46.2,73-57.6c4.9,0.7,9,2.9,12.7,6.3c29.6,27.1,54.6,57.6,73.1,93.5
		C494.9,607.4,510.1,689.9,505.5,776.5z"/>
	<path class="st5" d="M970.9,776.5c-93.1,0.3-186.1,0.5-279.2,1.1c-8.8,0.1-11.3-3.3-11.7-11.6c-4.5-100.5,18.7-193,80.3-273.8
		c22.2-29.1,49.5-52.9,86.6-62.3c21.4,25.1,45.7,48,62.1,77.1c-8.4,12.9-10.4,25.6,1.5,37.7c25.1,25.4,41,56.3,53.4,89.2
		c-0.1,7.8,0.4,15.4,1.6,23.2C971.5,696.6,979.6,736.2,970.9,776.5z"/>
	<path class="st6" d="M1599.9,1677.4c80.9-53.8,113.6-131.7,116.8-226.3c2.6-77.2-13.1-149.9-47.3-218.7
		c-16.4-33.1-36.9-63.8-64.2-89.3c-6.1-5.7-13.2-10.8-16.7-18.9c40.6-17.4,78.3-8.4,113.4,14.5c46.8,30.5,76.5,75.4,97.8,125.7
		c37.9,89.5,50.2,181.4,19.8,276c-5.1,15.8,0.8,26.9,13.2,35.9c-17,39.9-42.2,72.8-80.5,94.7c-11.9-13.9-25.4-14.6-41.7-7.4
		C1675.2,1679.1,1638.2,1684.3,1599.9,1677.4z"/>
	<path class="st3" d="M1207.2,430.7c-38.4,42.6-67.5,90.8-87.8,148.9c-14.7-37.9-30-70.8-50.7-100.9c-35.1-51.2-78.3-92-139.9-109.1
		c-5.6-1.5-8.3-2.6-6.7-9.4c19.6-83.2,52.5-158.3,125.2-209.7c8.8-6.2,17.9-12.4,29-14c22.3,25.6,49,47.5,66.1,77.6
		c-9.7,15.5-7.3,28.6,5.7,41.8c23,23.6,37.8,52.4,48.6,83.3c-0.4,6.5-0.1,12.9,1.4,19.4C1203.7,382.3,1205.7,406.5,1207.2,430.7z"/>
	<path class="st6" d="M505.5,776.5c4.6-86.6-10.6-169-50.4-246.6c-18.5-35.9-43.5-66.4-73.1-93.5c-3.7-3.4-7.8-5.6-12.7-6.3
		c41.6-19.4,81.3-13.2,118.9,10.5c46.2,29.2,75.1,73,97.5,121.5c28.3,61.5,40.4,126.3,38.8,194c-0.4,16.1-4.5,23.2-22.7,22
		C569.7,775.9,537.6,776.8,505.5,776.5z"/>
	<path class="st7" d="M1440,776.5c1.9-56.3-0.9-111.9-18-166.2c-16.7-53.4-40.4-102.7-76.7-146.1c-10.6-12.7-27.1-20.2-32.6-37.1
		c39.3-16,75.9-8.2,110.3,13.5c43.5,27.4,71.6,68,93.5,113.3c31.2,64.4,44.9,132.5,42.6,204c-0.5,14.4-4.1,21.1-21,20.1
		C1505.4,776,1472.6,776.8,1440,776.5z"/>
	<path class="st8" d="M1312.7,1474.3c-14.7-25.7-37.3-43.1-61.1-59.4c-8.4-5.7-17.4-10.7-26.1-16c69.2-1.2,134,13.2,186.4,61.3
		c107.8,99,72,276.2-66.1,330.1c-37.5,14.6-76.5,21.7-116.9,19.4c21.5-15.1,44.6-27.8,63.2-47.1c52.3-53.9,71.2-117.9,61.1-191.5
		c-0.5-3.5,0.1-7.2,0.2-10.8c10.9,12.9,10.3,29,12.4,44.4c2.6,18.5,13.3,27.6,30.2,26c15.8-1.5,24.8-12.2,24.1-30.3
		c-2.2-56.9-29.2-98.1-79.6-124.4C1331.2,1471.2,1322.2,1470.8,1312.7,1474.3z"/>
	<path class="st9" d="M970.9,776.5c8.7-40.3,0.5-79.9-5.5-119.5c-1.2-7.8-1.7-15.5-1.6-23.2c12.3,10.9,25.7,13.3,39.4,3.5
		c14.9-10.7,11.7-24.3,5.5-38.8c-13.7-31.8-30.5-61.6-54.3-87c-16.5-17.6-24.9-18.2-45.4-4.6c-16.5-29.1-40.7-52-62.1-77.1
		c42.2-14.9,81-5.6,116.9,18.2c42.3,28.1,68.9,69.1,89.4,114.2c29.1,63.8,41.4,131,37.8,201.2c-0.5,9.1-1.9,14.5-13.1,14.2
		C1042.3,776.8,1006.6,776.8,970.9,776.5z"/>
	<path class="st7" d="M738.6,431.8c-2.2-85.9-27.5-164.3-75.7-235.6c-15-22.2-35.3-39.4-52-59.9c36.2-15,70.9-9.8,104.2,8.6
		c25.8,14.3,46.8,34.2,64.4,57.8c33.9,45.2,55,96.2,67.9,150.9c2.3,9.7,2.2,14.6-9.5,17.5C798.7,380.8,767.8,405.1,738.6,431.8z"/>
	<path class="st10" d="M1207.2,430.7c-1.6-24.2-3.6-48.5-9.1-72.2c-1.5-6.6-1.8-12.9-1.4-19.4c12.1,12.3,25.6,15.9,40.4,5.3
		c15-10.8,11.8-24.8,5.7-39.1c-13.4-31.3-30-60.7-53.3-85.9c-17-18.3-25.9-19.3-47-5.5c-17.1-30-43.8-51.9-66.1-77.6
		c39.7-17.5,77-9.7,111.8,12.5c55,35.1,86.5,88.4,109.4,147.4c7.2,18.5,11.3,38.1,17.3,57.1c3.1,9.8,1.5,14.7-9.8,17.6
		C1266.5,380.9,1236,404.4,1207.2,430.7z"/>
	<path class="st11" d="M1483.5,1128.6c0-58.9-0.1-117.8-0.1-176.6c36.2-0.3,72.4-0.3,108.5-0.9c9-0.1,11.3,3.6,11.2,11.8
		c-0.3,30.2-0.2,60.3,0,90.5c0,6.3-1.5,9.8-8.4,11.2C1550.5,1073.5,1515.5,1098.5,1483.5,1128.6z"/>
	<path class="st12" d="M1312.7,1474.3c9.5-3.5,18.5-3.1,27.8,1.8c50.4,26.3,77.4,67.4,79.6,124.4c0.7,18.1-8.3,28.8-24.1,30.3
		c-16.9,1.7-27.6-7.5-30.2-26c-2.2-15.4-1.6-31.5-12.4-44.4c-6.6-15.9-19.8-25.1-33.9-33.4
		C1293.4,1511.5,1291.5,1496.7,1312.7,1474.3z"/>
	<path class="st12" d="M909,506.9c20.5-13.6,29-13,45.4,4.6c23.8,25.4,40.6,55.1,54.3,87c6.2,14.5,9.4,28.1-5.5,38.8
		c-13.7,9.9-27.1,7.4-39.4-3.5c-12.4-33-28.3-63.8-53.4-89.2C898.6,532.5,900.6,519.8,909,506.9z"/>
	<path class="st12" d="M1142.5,214c21.1-13.8,30-12.9,47,5.5c23.3,25.2,39.9,54.6,53.3,85.9c6.1,14.2,9.4,28.2-5.7,39.1
		c-14.8,10.7-28.3,7-40.4-5.3c-10.8-30.9-25.6-59.7-48.6-83.3C1135.2,242.6,1132.7,229.5,1142.5,214z"/>
</g>
</svg>
