<svg width="512" height="512" viewBox="0 0 512 512" fill="none" xmlns="http://www.w3.org/2000/svg">
<g clip-path="url(#clip0_10_2)">
<path d="M257.741 461C370.849 461 462.541 369.218 462.541 256C462.541 142.782 370.849 51 257.741 51C144.633 51 52.9408 142.782 52.9408 256C52.9408 369.218 144.633 461 257.741 461Z" fill="#E8F4FA"/>
<path d="M304.742 221.868H288.563C286.597 211.8 282.627 202.231 276.89 193.731L288.358 182.251C288.908 181.704 289.344 181.053 289.642 180.336C289.939 179.619 290.092 178.851 290.092 178.074C290.092 177.298 289.939 176.53 289.642 175.813C289.344 175.096 288.908 174.445 288.358 173.898L275.814 161.341C275.267 160.791 274.617 160.355 273.901 160.057C273.185 159.759 272.417 159.606 271.642 159.606C270.866 159.606 270.098 159.759 269.382 160.057C268.666 160.355 268.016 160.791 267.469 161.341L256 172.821C247.508 167.078 237.949 163.105 227.891 161.136V144.941C227.891 143.365 227.265 141.853 226.152 140.738C225.038 139.623 223.527 138.996 221.952 138.996H204.237C202.662 138.996 201.151 139.623 200.037 140.738C198.923 141.853 198.298 143.365 198.298 144.941V161.136C188.24 163.105 178.681 167.078 170.189 172.821L158.72 161.341C158.173 160.791 157.523 160.355 156.807 160.057C156.09 159.759 155.323 159.606 154.547 159.606C153.772 159.606 153.004 159.759 152.288 160.057C151.572 160.355 150.922 160.791 150.374 161.341L137.83 174C137.281 174.548 136.845 175.199 136.547 175.915C136.25 176.632 136.096 177.401 136.096 178.177C136.096 178.953 136.25 179.722 136.547 180.439C136.845 181.155 137.281 181.806 137.83 182.354L149.299 193.834C143.562 202.334 139.592 211.902 137.626 221.97H121.446C119.871 221.97 118.361 222.596 117.247 223.711C116.133 224.826 115.507 226.338 115.507 227.915V245.75C115.507 247.327 116.133 248.839 117.247 249.954C118.361 251.069 119.871 251.695 121.446 251.695H137.626C139.592 261.763 143.562 271.331 149.299 279.831L137.83 291.311C137.281 291.859 136.845 292.51 136.547 293.227C136.25 293.943 136.096 294.712 136.096 295.488C136.096 296.264 136.25 297.033 136.547 297.75C136.845 298.467 137.281 299.117 137.83 299.665L150.374 312.221C150.922 312.771 151.572 313.208 152.288 313.506C153.004 313.804 153.772 313.957 154.547 313.957C155.323 313.957 156.09 313.804 156.807 313.506C157.523 313.208 158.173 312.771 158.72 312.221L170.189 300.741C178.685 306.466 188.244 310.422 198.298 312.375V328.57C198.298 330.147 198.923 331.659 200.037 332.774C201.151 333.889 202.662 334.515 204.237 334.515H221.952C223.527 334.515 225.038 333.889 226.152 332.774C227.265 331.659 227.891 330.147 227.891 328.57V312.375C237.96 310.36 247.521 306.334 256 300.536L267.469 312.016C268.016 312.566 268.666 313.003 269.382 313.301C270.098 313.599 270.866 313.752 271.642 313.752C272.417 313.752 273.185 313.599 273.901 313.301C274.617 313.003 275.267 312.566 275.814 312.016L288.358 299.46C288.908 298.912 289.344 298.262 289.642 297.545C289.939 296.828 290.092 296.059 290.092 295.283C290.092 294.507 289.939 293.738 289.642 293.022C289.344 292.305 288.908 291.654 288.358 291.106L276.89 279.626C282.627 271.126 286.597 261.558 288.563 251.49H304.742C306.283 251.491 307.763 250.893 308.871 249.822C309.979 248.751 310.628 247.291 310.682 245.75V227.813C310.682 226.236 310.056 224.724 308.942 223.609C307.828 222.494 306.318 221.868 304.742 221.868ZM213.094 281.061C204.325 281.061 195.752 278.458 188.461 273.582C181.169 268.705 175.486 261.773 172.13 253.663C168.774 245.553 167.896 236.63 169.607 228.02C171.318 219.411 175.541 211.503 181.742 205.296C187.943 199.089 195.843 194.862 204.444 193.149C213.045 191.437 221.96 192.316 230.062 195.675C238.164 199.034 245.089 204.723 249.961 212.021C254.833 219.32 257.434 227.901 257.434 236.679C257.434 248.45 252.762 259.739 244.447 268.062C236.132 276.385 224.854 281.061 213.094 281.061Z" fill="#ADC4D9"/>
<path d="M149.299 193.731C144.321 201.124 140.666 209.326 138.496 217.973C145.988 204.781 156.838 193.811 169.942 186.18C183.045 178.549 197.935 174.529 213.094 174.529C228.254 174.529 243.143 178.549 256.247 186.18C269.35 193.811 280.2 204.781 287.693 217.973C285.523 209.326 281.868 201.124 276.89 193.731L288.358 182.251C288.908 181.704 289.344 181.053 289.642 180.336C289.939 179.619 290.092 178.851 290.092 178.074C290.092 177.298 289.939 176.53 289.642 175.813C289.344 175.096 288.908 174.445 288.358 173.898L275.814 161.341C275.267 160.791 274.617 160.355 273.901 160.057C273.185 159.759 272.417 159.606 271.642 159.606C270.866 159.606 270.098 159.759 269.382 160.057C268.666 160.355 268.016 160.791 267.469 161.341L256 172.821C247.508 167.078 237.949 163.105 227.891 161.136V144.941C227.891 143.365 227.265 141.853 226.152 140.738C225.038 139.623 223.527 138.996 221.952 138.996H204.237C202.662 138.996 201.151 139.623 200.037 140.738C198.923 141.853 198.298 143.365 198.298 144.941V161.136C188.24 163.105 178.681 167.078 170.189 172.821L158.72 161.341C158.173 160.791 157.523 160.355 156.807 160.057C156.09 159.759 155.323 159.606 154.547 159.606C153.772 159.606 153.004 159.759 152.288 160.057C151.572 160.355 150.921 160.791 150.374 161.341L137.83 174C137.281 174.548 136.845 175.199 136.547 175.915C136.25 176.632 136.096 177.401 136.096 178.177C136.096 178.953 136.25 179.722 136.547 180.439C136.845 181.155 137.281 181.806 137.83 182.354L149.299 193.731Z" fill="#C0DCEB"/>
<path d="M288.358 299.46C288.908 298.912 289.344 298.261 289.642 297.545C289.939 296.828 290.092 296.059 290.092 295.283C290.092 294.507 289.939 293.738 289.642 293.022C289.344 292.305 288.908 291.654 288.358 291.106L276.89 279.626C281.873 272.218 285.529 263.998 287.693 255.334C280.211 268.539 269.365 279.522 256.26 287.163C243.155 294.804 228.26 298.829 213.094 298.829C197.928 298.829 183.034 294.804 169.929 287.163C156.824 279.522 145.978 268.539 138.496 255.334C140.66 263.998 144.316 272.218 149.299 279.626L137.83 291.106C137.281 291.654 136.845 292.305 136.547 293.022C136.25 293.738 136.096 294.507 136.096 295.283C136.096 296.059 136.25 296.828 136.547 297.545C136.845 298.261 137.281 298.912 137.83 299.46L150.374 312.016C150.921 312.566 151.572 313.003 152.288 313.301C153.004 313.599 153.772 313.752 154.547 313.752C155.323 313.752 156.09 313.599 156.807 313.301C157.523 313.003 158.173 312.566 158.72 312.016L170.189 300.536C178.668 306.333 188.228 310.36 198.298 312.375V328.57C198.298 330.147 198.923 331.659 200.037 332.774C201.151 333.889 202.662 334.515 204.237 334.515H221.952C223.527 334.515 225.038 333.889 226.152 332.774C227.265 331.659 227.891 330.147 227.891 328.57V312.375C237.96 310.36 247.521 306.333 256 300.536L267.469 312.016C268.016 312.566 268.666 313.003 269.382 313.301C270.098 313.599 270.866 313.752 271.642 313.752C272.417 313.752 273.185 313.599 273.901 313.301C274.617 313.003 275.267 312.566 275.814 312.016L288.358 299.46Z" fill="#8CA4B8"/>
<path d="M213.094 281.061C204.325 281.061 195.752 278.458 188.461 273.582C181.169 268.705 175.486 261.773 172.13 253.663C168.774 245.554 167.896 236.63 169.607 228.02C171.318 219.411 175.541 211.503 181.742 205.296C187.943 199.089 195.843 194.862 204.444 193.149C213.045 191.437 221.96 192.316 230.062 195.675C238.164 199.034 245.089 204.723 249.961 212.021C254.833 219.32 257.434 227.901 257.434 236.679C257.434 248.45 252.762 259.739 244.447 268.062C236.132 276.385 224.854 281.061 213.094 281.061Z" stroke="#191816" stroke-width="5" stroke-miterlimit="10"/>
<path d="M304.742 221.868H288.563C286.597 211.8 282.627 202.231 276.89 193.731L288.358 182.251C288.908 181.704 289.344 181.053 289.642 180.336C289.939 179.619 290.092 178.851 290.092 178.074C290.092 177.298 289.939 176.53 289.642 175.813C289.344 175.096 288.908 174.445 288.358 173.898L275.814 161.341C275.267 160.791 274.617 160.355 273.901 160.057C273.185 159.759 272.417 159.606 271.642 159.606C270.866 159.606 270.098 159.759 269.382 160.057C268.666 160.355 268.016 160.791 267.469 161.341L256 172.821C247.508 167.078 237.949 163.105 227.891 161.136V144.941C227.891 143.365 227.265 141.853 226.152 140.738C225.038 139.623 223.527 138.996 221.952 138.996H204.237C202.662 138.996 201.151 139.623 200.037 140.738C198.923 141.853 198.298 143.365 198.298 144.941V161.136C188.24 163.105 178.681 167.078 170.189 172.821L158.72 161.341C158.173 160.791 157.523 160.355 156.807 160.057C156.09 159.759 155.323 159.606 154.547 159.606C153.772 159.606 153.004 159.759 152.288 160.057C151.572 160.355 150.922 160.791 150.374 161.341L137.83 174C137.281 174.548 136.845 175.199 136.547 175.915C136.25 176.632 136.096 177.401 136.096 178.177C136.096 178.953 136.25 179.722 136.547 180.439C136.845 181.155 137.281 181.806 137.83 182.354L149.299 193.834C143.562 202.334 139.592 211.902 137.626 221.97H121.446C119.871 221.97 118.361 222.596 117.247 223.711C116.133 224.826 115.507 226.338 115.507 227.915V245.75C115.507 247.327 116.133 248.839 117.247 249.954C118.361 251.069 119.871 251.695 121.446 251.695H137.626C139.592 261.763 143.562 271.331 149.299 279.831L137.83 291.311C137.281 291.859 136.845 292.51 136.547 293.227C136.25 293.943 136.096 294.712 136.096 295.488C136.096 296.264 136.25 297.033 136.547 297.75C136.845 298.467 137.281 299.117 137.83 299.665L150.374 312.221C150.922 312.771 151.572 313.208 152.288 313.506C153.004 313.804 153.772 313.957 154.547 313.957C155.323 313.957 156.09 313.804 156.807 313.506C157.523 313.208 158.173 312.771 158.72 312.221L170.189 300.741C178.685 306.466 188.244 310.422 198.298 312.375V328.57C198.298 330.147 198.923 331.659 200.037 332.774C201.151 333.889 202.662 334.515 204.237 334.515H221.952C223.527 334.515 225.038 333.889 226.152 332.774C227.265 331.659 227.891 330.147 227.891 328.57V312.375C237.96 310.36 247.521 306.334 256 300.536L267.469 312.016C268.016 312.566 268.666 313.003 269.382 313.301C270.098 313.599 270.866 313.752 271.642 313.752C272.417 313.752 273.185 313.599 273.901 313.301C274.617 313.003 275.267 312.566 275.814 312.016L288.358 299.46C288.908 298.912 289.344 298.262 289.642 297.545C289.939 296.828 290.092 296.059 290.092 295.283C290.092 294.507 289.939 293.738 289.642 293.022C289.344 292.305 288.908 291.654 288.358 291.106L276.89 279.626C282.627 271.126 286.597 261.558 288.563 251.49H304.742C306.283 251.491 307.763 250.893 308.871 249.822C309.979 248.751 310.628 247.291 310.682 245.75V227.813C310.682 226.236 310.056 224.724 308.942 223.609C307.828 222.494 306.318 221.868 304.742 221.868ZM213.094 281.061C204.325 281.061 195.752 278.458 188.461 273.582C181.169 268.705 175.486 261.773 172.13 253.663C168.774 245.553 167.896 236.63 169.607 228.02C171.318 219.411 175.541 211.503 181.742 205.296C187.943 199.089 195.843 194.862 204.444 193.149C213.045 191.437 221.96 192.316 230.062 195.675C238.164 199.034 245.089 204.723 249.961 212.021C254.833 219.32 257.434 227.901 257.434 236.679C257.434 248.45 252.762 259.739 244.447 268.062C236.132 276.385 224.854 281.061 213.094 281.061Z" stroke="#191816" stroke-width="5" stroke-linecap="round" stroke-linejoin="round"/>
<path d="M256.154 396.476C295.345 396.476 327.117 392.507 327.117 387.61C327.117 382.713 295.345 378.744 256.154 378.744C216.962 378.744 185.19 382.713 185.19 387.61C185.19 392.507 216.962 396.476 256.154 396.476Z" fill="#191816" fill-opacity="0.15"/>
<path d="M400.691 313.708L396.8 311.453C399.12 303.19 399.12 294.448 396.8 286.186L400.691 283.931C402.045 283.139 403.031 281.843 403.434 280.326C403.837 278.809 403.624 277.194 402.842 275.834L396.954 265.584C396.165 264.296 394.917 263.357 393.462 262.957C392.007 262.558 390.455 262.727 389.12 263.431L385.229 265.635C379.2 259.523 371.626 255.165 363.315 253.027V248.518C363.322 247.739 363.175 246.967 362.882 246.246C362.589 245.525 362.156 244.87 361.609 244.317C361.061 243.764 360.41 243.325 359.692 243.026C358.975 242.727 358.205 242.572 357.427 242.573H345.344C343.769 242.573 342.258 243.199 341.144 244.314C340.03 245.429 339.405 246.941 339.405 248.518V253.027C331.076 255.157 323.483 259.515 317.44 265.635L313.6 263.431C312.241 262.648 310.627 262.435 309.112 262.839C307.596 263.242 306.302 264.229 305.51 265.584L299.571 275.834C299.191 276.527 298.954 277.29 298.875 278.078C298.795 278.865 298.875 279.66 299.109 280.415C299.343 281.171 299.727 281.872 300.237 282.476C300.748 283.08 301.374 283.575 302.08 283.931L305.971 286.186C303.583 294.439 303.583 303.2 305.971 311.453L302.08 313.708C301.4 314.091 300.803 314.605 300.324 315.221C299.845 315.837 299.492 316.542 299.287 317.295C299.083 318.049 299.029 318.835 299.131 319.61C299.232 320.384 299.486 321.13 299.878 321.805L305.818 332.055C306.609 333.41 307.904 334.397 309.419 334.8C310.935 335.203 312.548 334.99 313.907 334.208L317.747 332.004C323.761 338.134 331.341 342.495 339.661 344.611V349.121C339.661 350.698 340.287 352.21 341.4 353.325C342.514 354.44 344.025 355.066 345.6 355.066H357.427C358.205 355.066 358.975 354.912 359.692 354.613C360.41 354.313 361.061 353.875 361.609 353.322C362.156 352.769 362.589 352.113 362.882 351.392C363.175 350.671 363.322 349.9 363.315 349.121V344.611C371.635 342.495 379.214 338.134 385.229 332.004L389.12 334.208C390.479 334.99 392.092 335.203 393.608 334.8C395.123 334.397 396.418 333.41 397.21 332.055L403.098 321.805C403.475 321.116 403.711 320.359 403.794 319.578C403.877 318.797 403.805 318.007 403.581 317.254C403.358 316.501 402.987 315.8 402.491 315.191C401.995 314.582 401.383 314.078 400.691 313.708ZM351.232 325.444C345.964 325.444 340.815 323.879 336.435 320.949C332.056 318.018 328.643 313.853 326.63 308.98C324.616 304.108 324.092 298.747 325.123 293.576C326.155 288.405 328.696 283.656 332.424 279.931C336.153 276.206 340.901 273.672 346.069 272.65C351.237 271.627 356.592 272.162 361.456 274.187C366.32 276.212 370.475 279.636 373.394 284.025C376.313 288.414 377.866 293.572 377.856 298.845C377.856 302.342 377.167 305.805 375.828 309.036C374.49 312.266 372.528 315.201 370.055 317.671C367.582 320.142 364.647 322.1 361.417 323.434C358.187 324.767 354.726 325.451 351.232 325.444Z" fill="#8CA4B8"/>
<path d="M350.976 298.538C348.826 293.874 344.627 297.461 350.976 298.538Z" fill="#ADC4D9"/>
<path d="M389.12 263.431L385.229 265.635C379.215 259.504 371.635 255.143 363.315 253.027V248.518C363.322 247.739 363.175 246.967 362.882 246.246C362.589 245.525 362.156 244.87 361.609 244.317C361.061 243.764 360.41 243.325 359.692 243.026C358.975 242.727 358.205 242.572 357.427 242.573H345.344C343.769 242.573 342.258 243.199 341.144 244.314C340.03 245.429 339.405 246.941 339.405 248.518V253.027C331.067 255.135 323.468 259.496 317.44 265.635L313.6 263.431C312.241 262.648 310.627 262.435 309.112 262.839C307.596 263.242 306.302 264.229 305.51 265.584L299.571 275.834C299.191 276.527 298.954 277.29 298.875 278.078C298.795 278.865 298.875 279.66 299.109 280.415C299.343 281.171 299.727 281.872 300.237 282.476C300.748 283.08 301.374 283.575 302.08 283.931L305.971 286.186C303.583 294.439 303.583 303.2 305.971 311.453L302.08 313.708C301.4 314.091 300.803 314.605 300.324 315.221C299.845 315.837 299.492 316.542 299.287 317.295C299.083 318.049 299.029 318.835 299.131 319.61C299.232 320.384 299.486 321.13 299.878 321.805L305.818 332.055C306.609 333.41 307.904 334.397 309.419 334.8C310.935 335.203 312.548 334.99 313.907 334.208L317.747 332.004L320.358 334.464L335.053 319.755C332.086 317.43 329.646 314.501 327.894 311.162C326.142 307.823 325.118 304.149 324.89 300.385C324.662 296.62 325.235 292.85 326.571 289.323C327.907 285.796 329.975 282.594 332.639 279.927C335.304 277.26 338.503 275.189 342.026 273.852C345.55 272.515 349.316 271.942 353.077 272.17C356.838 272.398 360.508 273.423 363.844 275.177C367.18 276.93 370.106 279.373 372.429 282.343L392.09 262.611C391.043 262.603 390.014 262.887 389.12 263.431Z" fill="#ADC4D9"/>
<path d="M400.691 313.708L396.8 311.453C399.12 303.19 399.12 294.448 396.8 286.186L400.691 283.931C402.045 283.139 403.031 281.843 403.434 280.326C403.837 278.809 403.624 277.194 402.842 275.834L396.954 265.584C396.165 264.296 394.917 263.357 393.462 262.957C392.007 262.558 390.455 262.727 389.12 263.431L385.229 265.635C379.2 259.523 371.626 255.165 363.315 253.027V248.518C363.322 247.739 363.175 246.967 362.882 246.246C362.589 245.525 362.156 244.87 361.609 244.317C361.061 243.764 360.41 243.325 359.692 243.026C358.975 242.727 358.205 242.572 357.427 242.573H345.344C343.769 242.573 342.258 243.199 341.144 244.314C340.03 245.429 339.405 246.941 339.405 248.518V253.027C331.076 255.157 323.483 259.515 317.44 265.635L313.6 263.431C312.241 262.648 310.627 262.435 309.112 262.839C307.596 263.242 306.302 264.229 305.51 265.584L299.571 275.834C299.191 276.527 298.954 277.29 298.875 278.078C298.795 278.865 298.875 279.66 299.109 280.415C299.343 281.171 299.727 281.872 300.237 282.476C300.748 283.08 301.374 283.575 302.08 283.931L305.971 286.186C303.583 294.439 303.583 303.2 305.971 311.453L302.08 313.708C301.4 314.091 300.803 314.605 300.324 315.221C299.845 315.837 299.492 316.542 299.287 317.295C299.083 318.049 299.029 318.835 299.131 319.61C299.232 320.384 299.486 321.13 299.878 321.805L305.818 332.055C306.609 333.41 307.904 334.397 309.419 334.8C310.935 335.203 312.548 334.99 313.907 334.208L317.747 332.004C323.761 338.134 331.341 342.495 339.661 344.611V349.121C339.661 350.698 340.287 352.21 341.4 353.325C342.514 354.44 344.025 355.066 345.6 355.066H357.427C358.205 355.066 358.975 354.912 359.692 354.613C360.41 354.313 361.061 353.875 361.609 353.322C362.156 352.769 362.589 352.113 362.882 351.392C363.175 350.671 363.322 349.9 363.315 349.121V344.611C371.635 342.495 379.214 338.134 385.229 332.004L389.12 334.208C390.479 334.99 392.092 335.203 393.608 334.8C395.123 334.397 396.418 333.41 397.21 332.055L403.098 321.805C403.475 321.116 403.711 320.359 403.794 319.578C403.877 318.797 403.805 318.007 403.581 317.254C403.358 316.501 402.987 315.8 402.491 315.191C401.995 314.582 401.383 314.078 400.691 313.708ZM351.232 325.444C345.964 325.444 340.815 323.879 336.435 320.949C332.056 318.018 328.643 313.853 326.63 308.98C324.616 304.108 324.092 298.747 325.123 293.576C326.155 288.405 328.696 283.656 332.424 279.931C336.153 276.206 340.901 273.672 346.069 272.65C351.237 271.627 356.592 272.162 361.456 274.187C366.32 276.212 370.475 279.636 373.394 284.025C376.313 288.414 377.866 293.572 377.856 298.845C377.856 302.342 377.167 305.805 375.828 309.036C374.49 312.266 372.528 315.201 370.055 317.671C367.582 320.142 364.647 322.1 361.417 323.434C358.187 324.767 354.726 325.451 351.232 325.444Z" stroke="#191816" stroke-width="5" stroke-miterlimit="10"/>
</g>
<defs>
<clipPath id="clip0_10_2">
<rect width="512" height="512" fill="white"/>
</clipPath>
</defs>
</svg>
